<svg xmlns="http://www.w3.org/2000/svg" width="28" height="28" viewBox="0 0 28 28" fill="none">
  <path d="M24 8L22.7333 5.26667L20 4L22.7333 2.73333L24 0L25.2667 2.73333L28 4L25.2667 5.26667L24 8ZM8.66667 8L7.4 5.26667L4.66667 4L7.4 2.73333L8.66667 0L9.93333 2.73333L12.6667 4L9.93333 5.26667L8.66667 8ZM24 23.3333L22.7333 20.6L20 19.3333L22.7333 18.0667L24 15.3333L25.2667 18.0667L28 19.3333L25.2667 20.6L24 23.3333ZM4.13333 27.6L0.4 23.8667C0.133333 23.6 0 23.2778 0 22.9C0 22.5222 0.133333 22.2 0.4 21.9333L15.2667 7.06667C15.5333 6.8 15.8556 6.66667 16.2333 6.66667C16.6111 6.66667 16.9333 6.8 17.2 7.06667L20.9333 10.8C21.2 11.0667 21.3333 11.3889 21.3333 11.7667C21.3333 12.1444 21.2 12.4667 20.9333 12.7333L6.06667 27.6C5.8 27.8667 5.47778 28 5.1 28C4.72222 28 4.4 27.8667 4.13333 27.6ZM5.13333 24.8L14.6667 15.2L12.8 13.3333L3.2 22.8667L5.13333 24.8Z" fill="currentColor"/>
</svg>
