<svg xmlns="http://www.w3.org/2000/svg" width="26" height="26" viewBox="0 0 26 26" fill="none">
  <path d="M2.1 6.6L0.266667 5.76667C0.0888889 5.67778 0 5.53333 0 5.33333C0 5.13333 0.0888889 4.98889 0.266667 4.9L2.1 4.06667L2.93333 2.23333C3.02222 2.05556 3.16667 1.96667 3.36667 1.96667C3.56667 1.96667 3.71111 2.05556 3.8 2.23333L4.63333 4.06667L6.46667 4.9C6.64444 4.98889 6.73333 5.13333 6.73333 5.33333C6.73333 5.53333 6.64444 5.67778 6.46667 5.76667L4.63333 6.6L3.8 8.43333C3.71111 8.61111 3.56667 8.7 3.36667 8.7C3.16667 8.7 3.02222 8.61111 2.93333 8.43333L2.1 6.6ZM19.8667 3.5L18.9333 3.06667C18.7556 2.97778 18.6667 2.84444 18.6667 2.66667C18.6667 2.48889 18.7556 2.35556 18.9333 2.26667L19.8667 1.83333L20.3 0.9C20.3889 0.722222 20.5222 0.633333 20.7 0.633333C20.8778 0.633333 21.0111 0.722222 21.1 0.9L21.5333 1.83333L22.4667 2.26667C22.6444 2.35556 22.7333 2.48889 22.7333 2.66667C22.7333 2.84444 22.6444 2.97778 22.4667 3.06667L21.5333 3.5L21.1 4.43333C21.0111 4.61111 20.8778 4.7 20.7 4.7C20.5222 4.7 20.3889 4.61111 20.3 4.43333L19.8667 3.5ZM22.5333 8.83333L21.6 8.4C21.4222 8.31111 21.3333 8.17778 21.3333 8C21.3333 7.82222 21.4222 7.68889 21.6 7.6L22.5333 7.16667L22.9667 6.23333C23.0556 6.05556 23.1889 5.96667 23.3667 5.96667C23.5444 5.96667 23.6778 6.05556 23.7667 6.23333L24.2 7.16667L25.1333 7.6C25.3111 7.68889 25.4 7.82222 25.4 8C25.4 8.17778 25.3111 8.31111 25.1333 8.4L24.2 8.83333L23.7667 9.76667C23.6778 9.94444 23.5444 10.0333 23.3667 10.0333C23.1889 10.0333 23.0556 9.94444 22.9667 9.76667L22.5333 8.83333ZM12.7 16C11.5889 16 10.6444 15.6111 9.86667 14.8333C9.08889 14.0556 8.7 13.1111 8.7 12V4C8.7 2.88889 9.08889 1.94444 9.86667 1.16667C10.6444 0.388889 11.5889 0 12.7 0C13.8111 0 14.7556 0.388889 15.5333 1.16667C16.3111 1.94444 16.7 2.88889 16.7 4V12C16.7 13.1111 16.3111 14.0556 15.5333 14.8333C14.7556 15.6111 13.8111 16 12.7 16ZM12.7 13.3333C13.0778 13.3333 13.3947 13.2053 13.6507 12.9493C13.9058 12.6942 14.0333 12.3778 14.0333 12V4C14.0333 3.62222 13.9058 3.30533 13.6507 3.04933C13.3947 2.79422 13.0778 2.66667 12.7 2.66667C12.3222 2.66667 12.0058 2.79422 11.7507 3.04933C11.4947 3.30533 11.3667 3.62222 11.3667 4V12C11.3667 12.3778 11.4947 12.6942 11.7507 12.9493C12.0058 13.2053 12.3222 13.3333 12.7 13.3333ZM12.7 25.3333C12.3222 25.3333 12.0058 25.2053 11.7507 24.9493C11.4947 24.6942 11.3667 24.3778 11.3667 24V21.2333C9.3 20.9444 7.54445 20.0778 6.1 18.6333C4.65556 17.1889 3.77778 15.4556 3.46667 13.4333C3.4 13.0556 3.5 12.7222 3.76667 12.4333C4.03333 12.1444 4.38889 12 4.83333 12C5.14444 12 5.42222 12.1164 5.66667 12.3493C5.91111 12.5831 6.06667 12.8667 6.13333 13.2C6.42222 14.7556 7.17778 16.0556 8.4 17.1C9.62222 18.1444 11.0556 18.6667 12.7 18.6667C14.3444 18.6667 15.7778 18.1444 17 17.1C18.2222 16.0556 18.9778 14.7556 19.2667 13.2C19.3333 12.8667 19.4947 12.5831 19.7507 12.3493C20.0058 12.1164 20.2889 12 20.6 12C21.0222 12 21.3667 12.1444 21.6333 12.4333C21.9 12.7222 22 13.0556 21.9333 13.4333C21.6222 15.4556 20.7444 17.1889 19.3 18.6333C17.8556 20.0778 16.1 20.9444 14.0333 21.2333V24C14.0333 24.3778 13.9058 24.6942 13.6507 24.9493C13.3947 25.2053 13.0778 25.3333 12.7 25.3333Z" fill="currentColor"/>
</svg>
