<svg xmlns="http://www.w3.org/2000/svg" width="21" height="21" viewBox="0 0 21 21" fill="none">
  <path d="M16 2H11.975H12.1H12H16ZM10 2C10 1.45 10.1958 0.979167 10.5875 0.5875C10.9792 0.195833 11.45 0 12 0H16C16.55 0 17.0208 0.195833 17.4125 0.5875C17.8042 0.979167 18 1.45 18 2V11C18 11.2833 17.9042 11.5208 17.7125 11.7125C17.5208 11.9042 17.2833 12 17 12C16.7167 12 16.4792 11.9042 16.2875 11.7125C16.0958 11.5208 16 11.2833 16 11V2H12V18C11.45 18 10.9792 17.8042 10.5875 17.4125C10.1958 17.0208 10 16.55 10 16V2ZM2 18C1.45 18 0.979167 17.8042 0.5875 17.4125C0.195833 17.0208 0 16.55 0 16V2C0 1.45 0.195833 0.979167 0.5875 0.5875C0.979167 0.195833 1.45 0 2 0H6C6.55 0 7.02083 0.195833 7.4125 0.5875C7.80417 0.979167 8 1.45 8 2V16C8 16.55 7.80417 17.0208 7.4125 17.4125C7.02083 17.8042 6.55 18 6 18H2ZM6 2H2V16H6V2Z" fill="#383838"/>
  <path d="M16.55 20L15.75 18.25L14 17.45C13.8 17.3666 13.7 17.2166 13.7 17C13.7 16.7833 13.8 16.6333 14 16.55L15.75 15.75L16.55 14C16.6333 13.8 16.7833 13.7 17 13.7C17.2167 13.7 17.3667 13.8 17.45 14L18.25 15.75L20 16.55C20.2 16.6333 20.3 16.7833 20.3 17C20.3 17.2166 20.2 17.3666 20 17.45L18.25 18.25L17.45 20C17.3667 20.2 17.2167 20.3 17 20.3C16.7833 20.3 16.6333 20.2 16.55 20Z" fill="#383838"/>
</svg>
