<svg xmlns="http://www.w3.org/2000/svg" width="23" height="24" viewBox="0 0 23 24" fill="none">
  <path d="M11.9086 14.4L9.11005 17.22C9.26883 17.52 9.37799 17.84 9.43753 18.18C9.49708 18.52 9.52685 18.86 9.52685 19.2C9.52685 20.52 9.06043 21.65 8.12759 22.59C7.19475 23.53 6.07337 24 4.76342 24C3.45348 24 2.33209 23.53 1.39926 22.59C0.466419 21.65 0 20.52 0 19.2C0 17.88 0.466419 16.75 1.39926 15.81C2.33209 14.87 3.45348 14.4 4.76342 14.4C5.10083 14.4 5.43824 14.43 5.77565 14.49C6.11306 14.55 6.43062 14.66 6.72834 14.82L9.52685 12L6.72834 9.18C6.43062 9.34 6.11306 9.45 5.77565 9.51C5.43824 9.57 5.10083 9.6 4.76342 9.6C3.45348 9.6 2.33209 9.13 1.39926 8.19C0.466419 7.25 0 6.12 0 4.8C0 3.48 0.466419 2.35 1.39926 1.41C2.33209 0.47 3.45348 0 4.76342 0C6.07337 0 7.19475 0.47 8.12759 1.41C9.06043 2.35 9.52685 3.48 9.52685 4.8C9.52685 5.14 9.49708 5.48 9.43753 5.82C9.37799 6.16 9.26883 6.48 9.11005 6.78L22.1499 19.92C22.6858 20.46 22.8049 21.075 22.5072 21.765C22.2095 22.455 21.6835 22.8 20.9293 22.8C20.711 22.8 20.4976 22.755 20.2892 22.665C20.0808 22.575 19.8972 22.45 19.7384 22.29L11.9086 14.4ZM15.4811 10.8L13.0994 8.4L19.7384 1.71C19.8972 1.55 20.0808 1.425 20.2892 1.335C20.4976 1.245 20.711 1.2 20.9293 1.2C21.6835 1.2 22.2045 1.55 22.4923 2.25C22.7801 2.95 22.656 3.57 22.1201 4.11L15.4811 10.8ZM4.76342 7.2C5.41839 7.2 5.97909 6.965 6.44551 6.495C6.91193 6.025 7.14514 5.46 7.14514 4.8C7.14514 4.14 6.91193 3.575 6.44551 3.105C5.97909 2.635 5.41839 2.4 4.76342 2.4C4.10845 2.4 3.54776 2.635 3.08134 3.105C2.61492 3.575 2.38171 4.14 2.38171 4.8C2.38171 5.46 2.61492 6.025 3.08134 6.495C3.54776 6.965 4.10845 7.2 4.76342 7.2ZM11.9086 12.6C12.0673 12.6 12.2063 12.54 12.3254 12.42C12.4444 12.3 12.504 12.16 12.504 12C12.504 11.84 12.4444 11.7 12.3254 11.58C12.2063 11.46 12.0673 11.4 11.9086 11.4C11.7498 11.4 11.6108 11.46 11.4918 11.58C11.3727 11.7 11.3131 11.84 11.3131 12C11.3131 12.16 11.3727 12.3 11.4918 12.42C11.6108 12.54 11.7498 12.6 11.9086 12.6ZM4.76342 21.6C5.41839 21.6 5.97909 21.365 6.44551 20.895C6.91193 20.425 7.14514 19.86 7.14514 19.2C7.14514 18.54 6.91193 17.975 6.44551 17.505C5.97909 17.035 5.41839 16.8 4.76342 16.8C4.10845 16.8 3.54776 17.035 3.08134 17.505C2.61492 17.975 2.38171 18.54 2.38171 19.2C2.38171 19.86 2.61492 20.425 3.08134 20.895C3.54776 21.365 4.10845 21.6 4.76342 21.6Z" fill="currentColor"/>
</svg>
