<svg xmlns="http://www.w3.org/2000/svg" width="7" height="7" viewBox="-0.45 -0.45 7 7" fill="none">
  <path d="M3.05 3.96667L1.11667 5.9C0.994444 6.02222 0.838889 6.08333 0.65 6.08333C0.461111 6.08333 0.305556 6.02222 0.183333 5.9C0.0611111 5.77778 0 5.62222 0 5.43333C0 5.24444 0.0611111 5.08889 0.183333 4.96667L2.11667 3.03333L0.183333 1.11667C0.0611111 0.994444 0 0.838889 0 0.65C0 0.461111 0.0611111 0.305556 0.183333 0.183333C0.305556 0.0611111 0.461111 0 0.65 0C0.838889 0 0.994444 0.0611111 1.11667 0.183333L3.05 2.11667L4.96667 0.183333C5.08889 0.0611111 5.24444 0 5.43333 0C5.62222 0 5.77778 0.0611111 5.9 0.183333C6.03333 0.316667 6.1 0.475 6.1 0.658333C6.1 0.841667 6.03333 0.994444 5.9 1.11667L3.96667 3.03333L5.9 4.96667C6.02222 5.08889 6.08333 5.24444 6.08333 5.43333C6.08333 5.62222 6.02222 5.77778 5.9 5.9C5.76667 6.03333 5.60833 6.1 5.425 6.1C5.24167 6.1 5.08889 6.03333 4.96667 5.9L3.05 3.96667Z" fill="#7879F1"/>
</svg>
