<svg xmlns="http://www.w3.org/2000/svg" width="24" height="24" viewBox="0 0 24 24" fill="none">
  <path d="M0 8.86667V6.03333L6.03333 0H8.86667L0 8.86667ZM0 2.33333V0H2.33333L0 2.33333ZM17.5667 4.56667C17.3444 4.32222 17.1056 4.08333 16.85 3.85C16.5944 3.61667 16.3333 3.41111 16.0667 3.23333L19.3 0H22.1333L17.5667 4.56667ZM3.33333 15.9667L5.9 13.4C6.05556 13.6444 6.21667 13.8667 6.38333 14.0667C6.55 14.2667 6.73333 14.4556 6.93333 14.6333C6.31111 14.7889 5.68333 14.9833 5.05 15.2167C4.41667 15.45 3.84444 15.7 3.33333 15.9667ZM19.3333 9.4V9.33333C19.3333 8.91111 19.3 8.5 19.2333 8.1C19.1667 7.7 19.0667 7.31111 18.9333 6.93333L24 1.86667V4.73333L19.3333 9.4ZM10.5333 2.13333L12.7 0H15.5333L13.4 2.13333C13.1556 2.08889 12.9222 2.05556 12.7 2.03333C12.4778 2.01111 12.2444 2 12 2C11.7556 2 11.5111 2.01111 11.2667 2.03333C11.0222 2.05556 10.7778 2.08889 10.5333 2.13333ZM0 15.5V12.6667L4.8 7.86667C4.75556 8.11111 4.72222 8.35556 4.7 8.6C4.67778 8.84444 4.66667 9.08889 4.66667 9.33333C4.66667 9.57778 4.67778 9.81111 4.7 10.0333C4.72222 10.2556 4.75556 10.4778 4.8 10.7L0 15.5ZM23.6333 18.2667C23.4556 18 23.25 17.7444 23.0167 17.5C22.7833 17.2556 22.5333 17.0333 22.2667 16.8333L24 15.1V17.9333L23.6333 18.2667ZM19.7667 15.5333C19.6111 15.4667 19.4556 15.4056 19.3 15.35C19.1444 15.2944 18.9889 15.2444 18.8333 15.2C18.6333 15.1333 18.4389 15.0667 18.25 15C18.0611 14.9333 17.8667 14.8778 17.6667 14.8333L24 8.46667V11.3333L19.7667 15.5333ZM12 14.6667C10.5333 14.6667 9.27778 14.1444 8.23333 13.1C7.18889 12.0556 6.66667 10.8 6.66667 9.33333C6.66667 7.86667 7.18889 6.61111 8.23333 5.56667C9.27778 4.52222 10.5333 4 12 4C13.4667 4 14.7222 4.52222 15.7667 5.56667C16.8111 6.61111 17.3333 7.86667 17.3333 9.33333C17.3333 10.8 16.8111 12.0556 15.7667 13.1C14.7222 14.1444 13.4667 14.6667 12 14.6667ZM12 12C12.7333 12 13.3611 11.7389 13.8833 11.2167C14.4056 10.6944 14.6667 10.0667 14.6667 9.33333C14.6667 8.6 14.4056 7.97222 13.8833 7.45C13.3611 6.92778 12.7333 6.66667 12 6.66667C11.2667 6.66667 10.6389 6.92778 10.1167 7.45C9.59444 7.97222 9.33333 8.6 9.33333 9.33333C9.33333 10.0667 9.59444 10.6944 10.1167 11.2167C10.6389 11.7389 11.2667 12 12 12ZM1.33333 22.6667V21.6333C1.33333 20.8778 1.52222 20.1778 1.9 19.5333C2.27778 18.8889 2.8 18.4 3.46667 18.0667C4.6 17.4889 5.88333 17 7.31667 16.6C8.75 16.2 10.3111 16 12 16C13.6889 16 15.25 16.2 16.6833 16.6C18.1167 17 19.4 17.4889 20.5333 18.0667C21.2 18.4 21.7222 18.8889 22.1 19.5333C22.4778 20.1778 22.6667 20.8778 22.6667 21.6333V22.6667C22.6667 23.0444 22.5389 23.3611 22.2833 23.6167C22.0278 23.8722 21.7111 24 21.3333 24H2.66667C2.28889 24 1.97222 23.8722 1.71667 23.6167C1.46111 23.3611 1.33333 23.0444 1.33333 22.6667ZM4.03333 21.3333H19.9667C19.9222 21.1333 19.8444 20.9611 19.7333 20.8167C19.6222 20.6722 19.4778 20.5556 19.3 20.4667C18.5 20.0667 17.4833 19.6667 16.25 19.2667C15.0167 18.8667 13.6 18.6667 12 18.6667C10.4 18.6667 8.98333 18.8667 7.75 19.2667C6.51667 19.6667 5.5 20.0667 4.7 20.4667C4.52222 20.5556 4.37778 20.6778 4.26667 20.8333C4.15556 20.9889 4.07778 21.1556 4.03333 21.3333Z" fill="currentColor"/>
</svg>
