<svg xmlns="http://www.w3.org/2000/svg" width="27" height="27" viewBox="0 0 27 27" fill="none">
  <path
    d="M16.1182 14.4795C15.6249 14.2863 15.0641 14.4029 14.6895 14.7773C14.3148 15.152 14.1974 15.7137 14.3906 16.207L18.1895 25.9043C18.3974 26.435 18.9198 26.776 19.4893 26.751C20.0587 26.7259 20.5493 26.3409 20.71 25.7939L21.8428 21.9326L25.7061 20.7979C26.2527 20.6371 26.6369 20.1473 26.6621 19.5781C26.6871 19.0086 26.3472 18.4853 25.8164 18.2773L16.1182 14.4795ZM1.33301 0C0.596628 0 0 0.596628 0 1.33301V25.333C8.05518e-07 26.0694 0.596629 26.666 1.33301 26.666H10.666C11.4024 26.666 12 26.0694 12 25.333C12 24.5966 11.4024 24 10.666 24H2.66602V2.66602H24V10.666C24 11.4024 24.5966 12 25.333 12C26.0694 12 26.666 11.4024 26.666 10.666V1.33301C26.666 0.596629 26.0694 1.15994e-06 25.333 0H1.33301ZM21.2119 19.3389L20.3936 19.5791C20.0128 19.6911 19.7035 19.9657 19.5469 20.3242L19.4902 20.4824L19.249 21.3018L17.9854 18.0752L21.2119 19.3389ZM13.333 10C12.5966 10 12 10.5966 12 11.333V12H11.333C10.5966 12 10 12.5966 10 13.333C10 14.0694 10.5966 14.666 11.333 14.666H13.333C14.0694 14.666 14.666 14.0694 14.666 13.333V11.333C14.666 10.5966 14.0694 10 13.333 10ZM5.33301 10C4.59663 10 4 10.5966 4 11.333V13.333C4 14.0694 4.59663 14.666 5.33301 14.666H7.33301C8.06939 14.666 8.66602 14.0694 8.66602 13.333C8.66602 12.5966 8.06939 12 7.33301 12H6.66602V11.333C6.66602 10.5966 6.06939 10 5.33301 10ZM11.333 4C10.5966 4 10 4.59663 10 5.33301C10 6.06939 10.5966 6.66602 11.333 6.66602H12V7.33301C12 8.06939 12.5966 8.66602 13.333 8.66602C14.0694 8.66602 14.666 8.06939 14.666 7.33301V5.33301C14.666 4.59663 14.0694 4 13.333 4H11.333ZM5.33301 4C4.59663 4 4 4.59663 4 5.33301V7.33301C4 8.06939 4.59663 8.66602 5.33301 8.66602C6.06939 8.66602 6.66602 8.06939 6.66602 7.33301V6.66602H7.33301C8.06939 6.66602 8.66602 6.06939 8.66602 5.33301C8.66602 4.59663 8.06939 4 7.33301 4H5.33301Z"
    fill="currentColor"
  />
</svg>
