<svg xmlns="http://www.w3.org/2000/svg" width="26" height="26" viewBox="0 0 26 26" fill="none">
  <path fill-rule="evenodd" clip-rule="evenodd" d="M7.41895 0C8.33942 0 9.08594 0.746517 9.08594 1.66699V24.333C9.08594 25.2535 8.33942 26 7.41895 26H1.66699C0.746518 26 0 25.2535 0 24.333V1.66699C1.78814e-07 0.746518 0.746517 0 1.66699 0H7.41895ZM12.002 21.333C12.5541 21.333 13.0018 21.7809 13.002 22.333V24H14.002C14.5542 24 15.002 24.4477 15.002 25C15.002 25.5523 14.5542 26 14.002 26H12.002C11.4498 25.9998 11.002 25.5522 11.002 25V22.333C11.0021 21.781 11.4499 21.3332 12.002 21.333ZM19.3359 24C19.8881 24.0002 20.3359 24.4478 20.3359 25C20.3359 25.5522 19.8881 25.9998 19.3359 26H17.3359C16.7837 26 16.3359 25.5523 16.3359 25C16.3359 24.4477 16.7837 24 17.3359 24H19.3359ZM24.6689 21.333C25.2211 21.333 25.6688 21.7809 25.6689 22.333V25C25.6689 25.5523 25.2212 26 24.6689 26H22.6689C22.1167 26 21.6689 25.5523 21.6689 25C21.6689 24.4477 22.1167 24 22.6689 24H23.6689V22.333C23.6691 21.7809 24.1168 21.333 24.6689 21.333ZM2 24H7.08594V2H2V24ZM24.6689 15.333C25.2211 15.333 25.6688 15.7809 25.6689 16.333V18.333C25.6689 18.8853 25.2212 19.333 24.6689 19.333C24.1167 19.333 23.6689 18.8853 23.6689 18.333V16.333C23.6691 15.7809 24.1168 15.333 24.6689 15.333ZM12.002 14.667C12.5542 14.667 13.002 15.1147 13.002 15.667V17.667C13.0018 18.2191 12.5541 18.667 12.002 18.667C11.4499 18.6668 11.0021 18.219 11.002 17.667V15.667C11.002 15.1148 11.4498 14.6672 12.002 14.667ZM18.3359 10.333C18.8267 10.3332 19.2246 10.7318 19.2246 11.2227V12.1113H20.1133C20.6042 12.1113 21.002 12.5091 21.002 13C21.002 13.4909 20.6042 13.8887 20.1133 13.8887H19.2246V14.7773C19.2246 15.2682 18.8267 15.6668 18.3359 15.667C17.845 15.667 17.4463 15.2683 17.4463 14.7773V13.8887H16.5576C16.0668 13.8886 15.6689 13.4908 15.6689 13C15.6689 12.5092 16.0668 12.1114 16.5576 12.1113H17.4463V11.2227C17.4463 10.7317 17.845 10.333 18.3359 10.333ZM24.6689 7.33301C25.2211 7.33302 25.6688 7.78088 25.6689 8.33301V10.333C25.6689 10.8853 25.2212 11.333 24.6689 11.333C24.1167 11.333 23.6689 10.8853 23.6689 10.333V8.33301C23.6691 7.78087 24.1168 7.33301 24.6689 7.33301ZM12.002 6.66699C12.5542 6.66699 13.002 7.11471 13.002 7.66699V9.66699C13.0018 10.2191 12.5541 10.667 12.002 10.667C11.4499 10.6668 11.0021 10.219 11.002 9.66699V7.66699C11.002 7.11482 11.4498 6.66717 12.002 6.66699ZM14.002 0C14.5542 5.96046e-08 15.002 0.447716 15.002 1C15.002 1.55228 14.5542 2 14.002 2H13.002V3.66699C13.0018 4.21913 12.5541 4.66699 12.002 4.66699C11.4499 4.66682 11.0021 4.21902 11.002 3.66699V1C11.002 0.447824 11.4498 0.000175655 12.002 0H14.002ZM24.6689 0C25.2212 1.25766e-05 25.6689 0.447723 25.6689 1V3.66699C25.6688 4.21912 25.2211 4.66698 24.6689 4.66699C24.1168 4.66699 23.6691 4.21913 23.6689 3.66699V2H22.6689C22.1167 2 21.6689 1.55228 21.6689 1C21.6689 0.447715 22.1167 -5.96046e-08 22.6689 0H24.6689ZM19.3359 0C19.8881 0.000176311 20.3359 0.447824 20.3359 1C20.3359 1.55218 19.8881 1.99982 19.3359 2H17.3359C16.7837 2 16.3359 1.55228 16.3359 1C16.3359 0.447716 16.7837 1.19209e-07 17.3359 0H19.3359Z" fill="currentColor"/>
</svg>
