<svg xmlns="http://www.w3.org/2000/svg" width="18" height="18" viewBox="0 0 18 18" fill="none">
  <path
    d="M3.4 16H5C5.28333 16 5.52083 16.0958 5.7125 16.2875C5.90417 16.4792 6 16.7167 6 17C6 17.2833 5.90417 17.5208 5.7125 17.7125C5.52083 17.9042 5.28333 18 5 18H1C0.716667 18 0.479167 17.9042 0.2875 17.7125C0.0958333 17.5208 0 17.2833 0 17V13C0 12.7167 0.0958333 12.4792 0.2875 12.2875C0.479167 12.0958 0.716667 12 1 12C1.28333 12 1.52083 12.0958 1.7125 12.2875C1.90417 12.4792 2 12.7167 2 13V14.6L4.4 12.2C4.58333 12.0167 4.81667 11.925 5.1 11.925C5.38333 11.925 5.61667 12.0167 5.8 12.2C5.98333 12.3833 6.075 12.6167 6.075 12.9C6.075 13.1833 5.98333 13.4167 5.8 13.6L3.4 16ZM14.6 16L12.2 13.6C12.0167 13.4167 11.925 13.1833 11.925 12.9C11.925 12.6167 12.0167 12.3833 12.2 12.2C12.3833 12.0167 12.6167 11.925 12.9 11.925C13.1833 11.925 13.4167 12.0167 13.6 12.2L16 14.6V13C16 12.7167 16.0958 12.4792 16.2875 12.2875C16.4792 12.0958 16.7167 12 17 12C17.2833 12 17.5208 12.0958 17.7125 12.2875C17.9042 12.4792 18 12.7167 18 13V17C18 17.2833 17.9042 17.5208 17.7125 17.7125C17.5208 17.9042 17.2833 18 17 18H13C12.7167 18 12.4792 17.9042 12.2875 17.7125C12.0958 17.5208 12 17.2833 12 17C12 16.7167 12.0958 16.4792 12.2875 16.2875C12.4792 16.0958 12.7167 16 13 16H14.6ZM2 3.4V5C2 5.28333 1.90417 5.52083 1.7125 5.7125C1.52083 5.90417 1.28333 6 1 6C0.716667 6 0.479167 5.90417 0.2875 5.7125C0.0958333 5.52083 0 5.28333 0 5V1C0 0.716667 0.0958333 0.479167 0.2875 0.2875C0.479167 0.0958333 0.716667 0 1 0H5C5.28333 0 5.52083 0.0958333 5.7125 0.2875C5.90417 0.479167 6 0.716667 6 1C6 1.28333 5.90417 1.52083 5.7125 1.7125C5.52083 1.90417 5.28333 2 5 2H3.4L5.8 4.4C5.98333 4.58333 6.075 4.81667 6.075 5.1C6.075 5.38333 5.98333 5.61667 5.8 5.8C5.61667 5.98333 5.38333 6.075 5.1 6.075C4.81667 6.075 4.58333 5.98333 4.4 5.8L2 3.4ZM16 3.4L13.6 5.8C13.4167 5.98333 13.1833 6.075 12.9 6.075C12.6167 6.075 12.3833 5.98333 12.2 5.8C12.0167 5.61667 11.925 5.38333 11.925 5.1C11.925 4.81667 12.0167 4.58333 12.2 4.4L14.6 2H13C12.7167 2 12.4792 1.90417 12.2875 1.7125C12.0958 1.52083 12 1.28333 12 1C12 0.716667 12.0958 0.479167 12.2875 0.2875C12.4792 0.0958333 12.7167 0 13 0H17C17.2833 0 17.5208 0.0958333 17.7125 0.2875C17.9042 0.479167 18 0.716667 18 1V5C18 5.28333 17.9042 5.52083 17.7125 5.7125C17.5208 5.90417 17.2833 6 17 6C16.7167 6 16.4792 5.90417 16.2875 5.7125C16.0958 5.52083 16 5.28333 16 5V3.4Z"
    fill="currentColor"
  />
</svg>
