<svg xmlns="http://www.w3.org/2000/svg" width="32" height="27" viewBox="0 0 32 27" fill="none">
  <path d="M16 16C13.7778 16 11.8889 15.2222 10.3333 13.6667C8.77778 12.1111 8 10.2222 8 8C8 5.77778 8.77778 3.88889 10.3333 2.33333C11.8889 0.777778 13.7778 0 16 0C18.2222 0 20.1111 0.777778 21.6667 2.33333C23.2222 3.88889 24 5.77778 24 8C24 10.2222 23.2222 12.1111 21.6667 13.6667C20.1111 15.2222 18.2222 16 16 16ZM16 13.3333C17.4667 13.3333 18.7222 12.8111 19.7667 11.7667C20.8111 10.7222 21.3333 9.46667 21.3333 8C21.3333 6.53333 20.8111 5.27778 19.7667 4.23333C18.7222 3.18889 17.4667 2.66667 16 2.66667C14.5333 2.66667 13.2778 3.18889 12.2333 4.23333C11.1889 5.27778 10.6667 6.53333 10.6667 8C10.6667 9.46667 11.1889 10.7222 12.2333 11.7667C13.2778 12.8111 14.5333 13.3333 16 13.3333ZM14.6667 9.33333V10.6667C14.6667 11.0444 14.7944 11.3611 15.05 11.6167C15.3056 11.8722 15.6222 12 16 12C16.3778 12 16.6944 11.8722 16.95 11.6167C17.2056 11.3611 17.3333 11.0444 17.3333 10.6667V9.33333H18.6667C19.0444 9.33333 19.3611 9.20556 19.6167 8.95C19.8722 8.69444 20 8.37778 20 8C20 7.62222 19.8722 7.30556 19.6167 7.05C19.3611 6.79444 19.0444 6.66667 18.6667 6.66667H17.3333V5.33333C17.3333 4.95556 17.2056 4.63889 16.95 4.38333C16.6944 4.12778 16.3778 4 16 4C15.6222 4 15.3056 4.12778 15.05 4.38333C14.7944 4.63889 14.6667 4.95556 14.6667 5.33333V6.66667H13.3333C12.9556 6.66667 12.6389 6.79444 12.3833 7.05C12.1278 7.30556 12 7.62222 12 8C12 8.37778 12.1278 8.69444 12.3833 8.95C12.6389 9.20556 12.9556 9.33333 13.3333 9.33333H14.6667ZM27.3333 24H25.6667C25.3778 24 25.1389 23.9056 24.95 23.7167C24.7611 23.5278 24.6667 23.2889 24.6667 23C24.6667 22.7111 24.7611 22.4722 24.95 22.2833C25.1389 22.0944 25.3778 22 25.6667 22H27.3333V20.3333C27.3333 20.0444 27.4278 19.8056 27.6167 19.6167C27.8056 19.4278 28.0444 19.3333 28.3333 19.3333C28.6222 19.3333 28.8611 19.4278 29.05 19.6167C29.2389 19.8056 29.3333 20.0444 29.3333 20.3333V22H31C31.2889 22 31.5278 22.0944 31.7167 22.2833C31.9056 22.4722 32 22.7111 32 23C32 23.2889 31.9056 23.5278 31.7167 23.7167C31.5278 23.9056 31.2889 24 31 24H29.3333V25.6667C29.3333 25.9556 29.2389 26.1944 29.05 26.3833C28.8611 26.5722 28.6222 26.6667 28.3333 26.6667C28.0444 26.6667 27.8056 26.5722 27.6167 26.3833C27.4278 26.1944 27.3333 25.9556 27.3333 25.6667V24ZM17.3333 25.6667V19.6667C17.3333 19.3778 17.4278 19.1389 17.6167 18.95C17.8056 18.7611 18.0444 18.6667 18.3333 18.6667H22C22.5333 18.6667 23 18.8667 23.4 19.2667C23.8 19.6667 24 20.1333 24 20.6667V22C24 22.5111 23.8833 22.9056 23.65 23.1833C23.4167 23.4611 23.1333 23.6889 22.8 23.8667L23.4667 25.4C23.6 25.7111 23.5778 26 23.4 26.2667C23.2222 26.5333 22.9556 26.6667 22.6 26.6667C22.4222 26.6667 22.2556 26.6222 22.1 26.5333C21.9444 26.4444 21.8333 26.3111 21.7667 26.1333L20.8 24H19.3333V25.6667C19.3333 25.9556 19.2389 26.1944 19.05 26.3833C18.8611 26.5722 18.6222 26.6667 18.3333 26.6667C18.0444 26.6667 17.8056 26.5722 17.6167 26.3833C17.4278 26.1944 17.3333 25.9556 17.3333 25.6667ZM19.3333 22H22V20.6667H19.3333V22ZM2 23.3333V25.6667C2 25.9556 1.90556 26.1944 1.71667 26.3833C1.52778 26.5722 1.28889 26.6667 1 26.6667C0.711111 26.6667 0.472222 26.5722 0.283333 26.3833C0.0944445 26.1944 0 25.9556 0 25.6667V19.6667C0 19.3778 0.0944445 19.1389 0.283333 18.95C0.472222 18.7611 0.711111 18.6667 1 18.6667C1.28889 18.6667 1.52778 18.7611 1.71667 18.95C1.90556 19.1389 2 19.3778 2 19.6667V21.3333H4.66667V19.6667C4.66667 19.3778 4.76111 19.1389 4.95 18.95C5.13889 18.7611 5.37778 18.6667 5.66667 18.6667C5.95556 18.6667 6.19444 18.7611 6.38333 18.95C6.57222 19.1389 6.66667 19.3778 6.66667 19.6667V25.6667C6.66667 25.9556 6.57222 26.1944 6.38333 26.3833C6.19444 26.5722 5.95556 26.6667 5.66667 26.6667C5.37778 26.6667 5.13889 26.5722 4.95 26.3833C4.76111 26.1944 4.66667 25.9556 4.66667 25.6667V23.3333H2ZM8.66667 25.6667V19.6667C8.66667 19.3778 8.76111 19.1389 8.95 18.95C9.13889 18.7611 9.37778 18.6667 9.66667 18.6667H13.3333C13.8667 18.6667 14.3333 18.8667 14.7333 19.2667C15.1333 19.6667 15.3333 20.1333 15.3333 20.6667V24.6667C15.3333 25.2 15.1333 25.6667 14.7333 26.0667C14.3333 26.4667 13.8667 26.6667 13.3333 26.6667H9.66667C9.37778 26.6667 9.13889 26.5722 8.95 26.3833C8.76111 26.1944 8.66667 25.9556 8.66667 25.6667ZM10.6667 24.6667H13.3333V20.6667H10.6667V24.6667Z" fill="currentColor"/>
</svg>
