<svg xmlns="http://www.w3.org/2000/svg" width="32" height="32" viewBox="0 0 32 32" fill="none">
  <path
    d="M2.66699 26.6667V5.33333C2.66699 4.95556 2.79477 4.63889 3.05033 4.38333C3.30588 4.12778 3.62255 4 4.00033 4C4.3781 4 4.69477 4.12778 4.95033 4.38333C5.20588 4.63889 5.33366 4.95556 5.33366 5.33333V26.6667C5.33366 27.0444 5.20588 27.3611 4.95033 27.6167C4.69477 27.8722 4.3781 28 4.00033 28C3.62255 28 3.30588 27.8722 3.05033 27.6167C2.79477 27.3611 2.66699 27.0444 2.66699 26.6667ZM26.667 26.6667V5.33333C26.667 4.95556 26.7948 4.63889 27.0503 4.38333C27.3059 4.12778 27.6225 4 28.0003 4C28.3781 4 28.6948 4.12778 28.9503 4.38333C29.2059 4.63889 29.3337 4.95556 29.3337 5.33333V26.6667C29.3337 27.0444 29.2059 27.3611 28.9503 27.6167C28.6948 27.8722 28.3781 28 28.0003 28C27.6225 28 27.3059 27.8722 27.0503 27.6167C26.7948 27.3611 26.667 27.0444 26.667 26.6667Z"
    fill="currentColor"
  />
  <path
    d="M14.667 8V24C14.667 24.3778 14.7948 24.6944 15.0503 24.95C15.3059 25.2056 15.6225 25.3333 16.0003 25.3333C16.3781 25.3333 16.6948 25.2056 16.9503 24.95C17.2059 24.6944 17.3337 24.3778 17.3337 24V8C17.3337 7.62222 17.2059 7.30556 16.9503 7.05C16.6948 6.79444 16.3781 6.66667 16.0003 6.66667C15.6225 6.66667 15.3059 6.79444 15.0503 7.05C14.7948 7.30556 14.667 7.62222 14.667 8Z"
    fill="currentColor"
  />
  <path
    d="M10.0003 11.9998C9.38668 11.9998 8.88921 12.4973 8.88921 13.1109L8.88921 14.2221L7.7781 14.2221C7.16445 14.2221 6.66699 14.7195 6.66699 15.3332C6.66699 15.9468 7.16445 16.4443 7.7781 16.4443L8.88921 16.4443L8.88921 17.5554C8.88921 18.169 9.38668 18.6665 10.0003 18.6665C10.614 18.6665 11.1114 18.169 11.1114 17.5554L11.1114 16.4443L12.2225 16.4443C12.8362 16.4443 13.3337 15.9468 13.3337 15.3332C13.3337 14.7195 12.8362 14.2221 12.2225 14.2221L11.1114 14.2221L11.1114 13.1109C11.1114 12.4973 10.614 11.9998 10.0003 11.9998Z"
    fill="currentColor"
  />
  <path
    d="M22.0003 11.9998C21.3867 11.9998 20.8892 12.4973 20.8892 13.1109L20.8892 14.2221L19.7781 14.2221C19.1645 14.2221 18.667 14.7195 18.667 15.3332C18.667 15.9468 19.1645 16.4443 19.7781 16.4443L20.8892 16.4443L20.8892 17.5554C20.8892 18.169 21.3867 18.6665 22.0003 18.6665C22.614 18.6665 23.1114 18.169 23.1114 17.5554L23.1114 16.4443L24.2225 16.4443C24.8362 16.4443 25.3337 15.9468 25.3337 15.3332C25.3337 14.7195 24.8362 14.2221 24.2225 14.2221L23.1114 14.2221L23.1114 13.1109C23.1114 12.4973 22.614 11.9998 22.0003 11.9998Z"
    fill="currentColor"
  />
</svg>
