<svg xmlns="http://www.w3.org/2000/svg" width="27" height="24" viewBox="0 0 27 24" fill="none">
  <path d="M0 22.6667V1.33333C0 0.955556 0.127778 0.638889 0.383333 0.383333C0.638889 0.127778 0.955555 0 1.33333 0C1.71111 0 2.02778 0.127778 2.28333 0.383333C2.53889 0.638889 2.66667 0.955556 2.66667 1.33333V22.6667C2.66667 23.0444 2.53889 23.3611 2.28333 23.6167C2.02778 23.8722 1.71111 24 1.33333 24C0.955555 24 0.638889 23.8722 0.383333 23.6167C0.127778 23.3611 0 23.0444 0 22.6667ZM24 22.6667V1.33333C24 0.955556 24.1278 0.638889 24.3833 0.383333C24.6389 0.127778 24.9556 0 25.3333 0C25.7111 0 26.0278 0.127778 26.2833 0.383333C26.5389 0.638889 26.6667 0.955556 26.6667 1.33333V22.6667C26.6667 23.0444 26.5389 23.3611 26.2833 23.6167C26.0278 23.8722 25.7111 24 25.3333 24C24.9556 24 24.6389 23.8722 24.3833 23.6167C24.1278 23.3611 24 23.0444 24 22.6667Z" fill="currentColor"/>
  <path d="M12 4V20C12 20.3778 12.1278 20.6944 12.3833 20.95C12.6389 21.2056 12.9556 21.3333 13.3333 21.3333C13.7111 21.3333 14.0278 21.2056 14.2833 20.95C14.5389 20.6944 14.6667 20.3778 14.6667 20V4C14.6667 3.62222 14.5389 3.30556 14.2833 3.05C14.0278 2.79444 13.7111 2.66667 13.3333 2.66667C12.9556 2.66667 12.6389 2.79444 12.3833 3.05C12.1278 3.30556 12 3.62222 12 4Z" fill="currentColor"/>
</svg>
