<svg xmlns="http://www.w3.org/2000/svg" width="27" height="24" viewBox="0 0 27 24" fill="none">
  <path d="M12 18.667C12.0672 18.667 12.1378 18.6872 12.2119 18.7275C12.2858 18.7679 12.3364 18.8284 12.3633 18.9092L13.0098 20.3232L14.4239 20.9697C14.5047 20.9967 14.5651 21.0473 14.6055 21.1211C14.6458 21.1953 14.666 21.2658 14.666 21.333C14.666 21.4003 14.6459 21.4711 14.6055 21.5449C14.5651 21.6192 14.5047 21.6703 14.4239 21.6973L13.0098 22.3438L12.3633 23.7578C12.3364 23.8385 12.2857 23.8991 12.2119 23.9395C12.1378 23.9797 12.0672 23.9999 12 24C11.9327 24 11.8619 23.9798 11.7881 23.9395C11.7138 23.8991 11.6627 23.8386 11.6358 23.7578L10.9893 22.3438L9.57523 21.6973C9.49451 21.6703 9.43396 21.6192 9.39359 21.5449C9.35324 21.4712 9.33304 21.4003 9.33304 21.333C9.33311 21.2658 9.35335 21.1952 9.39359 21.1211C9.43395 21.0474 9.49456 20.9967 9.57523 20.9697L10.9893 20.3232L11.6358 18.9092C11.6627 18.8284 11.7138 18.7679 11.7881 18.7275C11.8619 18.6871 11.9327 18.667 12 18.667ZM20.666 12C20.8333 12 20.9935 12.0455 21.1455 12.1367C21.2975 12.2279 21.4113 12.3573 21.4873 12.5244L22.9483 15.7188L26.1416 17.1787C26.3088 17.2547 26.4381 17.3686 26.5293 17.5205C26.6206 17.6726 26.666 17.8327 26.666 18C26.666 18.1673 26.6206 18.3274 26.5293 18.4795C26.4381 18.6314 26.3088 18.7453 26.1416 18.8213L22.9483 20.2812L21.4873 23.4756C21.4113 23.6427 21.2975 23.7721 21.1455 23.8633C20.9935 23.9545 20.8333 24 20.666 24C20.499 23.9999 20.3394 23.9544 20.1875 23.8633C20.0355 23.772 19.9208 23.6428 19.8448 23.4756L18.3848 20.2812L15.1914 18.8213C15.0243 18.7453 14.895 18.6313 14.8037 18.4795C14.7125 18.3274 14.666 18.1673 14.666 18C14.666 17.8327 14.7125 17.6726 14.8037 17.5205C14.895 17.3687 15.0243 17.2547 15.1914 17.1787L18.3848 15.7188L19.8448 12.5244C19.9208 12.3572 20.0355 12.228 20.1875 12.1367C20.3394 12.0456 20.499 12.0001 20.666 12ZM19.7539 17.0879L17.792 18L19.7539 18.9121L20.666 20.875L21.5791 18.9121L23.541 18L21.5791 17.0879L20.666 15.125L19.7539 17.0879ZM18.0996 0C18.5949 0 19.0651 0.108529 19.5088 0.325195C19.9523 0.541797 20.3496 0.825175 20.7002 1.17578L25.9629 6.43848C26.2723 6.74792 26.4833 7.11427 26.5967 7.53711C26.7102 7.95998 26.6845 8.37748 26.5196 8.79004C26.1511 9.77 25.4008 11.1401 24.751 12.127C24.5238 12.4719 24.1329 12.6669 23.7198 12.667H23.6973C23.0964 12.6669 22.5777 12.246 22.4532 11.6582C22.3751 11.2894 22.4623 10.9024 22.6758 10.5918C22.9406 10.2066 23.2568 9.73079 23.3936 9.5332C22.1555 9.90462 20.6487 10.2654 18.8741 10.6162C17.0993 10.967 15.2522 11.1426 13.333 11.1426C11.4139 11.1426 9.57203 10.9627 7.80765 10.6016C6.04325 10.2405 4.54192 9.884 3.30375 9.5332C4.41806 11.1427 5.67691 12.4325 7.08011 13.4023C8.4203 14.3286 10.4719 14.8129 12.9766 14.8545C13.2069 14.8584 13.4309 14.9364 13.6094 15.082L13.9004 15.3203C14.3906 15.7204 14.3906 16.47 13.9004 16.8701L13.6094 17.1084C13.4309 17.2541 13.207 17.334 12.9766 17.3301C9.8018 17.2762 7.14996 16.4981 4.99125 14.9961C2.75221 13.4382 1.13706 11.3694 0.146518 8.79004C-0.0184198 8.37751 -0.0440545 7.95995 0.06937 7.53711C0.18287 7.11409 0.394591 6.748 0.704136 6.43848L5.96585 1.17578C6.31652 0.825173 6.71382 0.541803 7.15726 0.325195C7.60094 0.108529 8.07117 0 8.56644 0C8.93778 3.82292e-05 9.30404 0.0670831 9.66507 0.201172C10.0262 0.335287 10.3614 0.505593 10.6709 0.711914L12.7803 2.11035C13.1152 2.33228 13.5509 2.33228 13.8858 2.11035L15.9952 0.711914C16.3046 0.505596 16.6399 0.33529 17.001 0.201172C17.362 0.0670982 17.7283 5.32705e-05 18.0996 0ZM18.0694 2.53809C17.9456 2.53809 17.8264 2.55401 17.7129 2.58496C17.5995 2.61593 17.4908 2.67242 17.3877 2.75488L14.045 4.9834C13.8386 5.12778 13.6065 5.20018 13.3487 5.2002C13.0908 5.2002 12.8587 5.12774 12.6524 4.9834L9.30863 2.75488C9.20565 2.67254 9.09766 2.61592 8.98441 2.58496C8.87091 2.55401 8.75178 2.53809 8.62796 2.53809C8.46298 2.53809 8.30315 2.56903 8.14847 2.63086C7.9938 2.69272 7.85426 2.78549 7.7305 2.90918L3.64457 7.02637C4.77952 7.37714 6.21397 7.73797 7.9473 8.10938C9.68068 8.48077 11.4865 8.66699 13.3643 8.66699C15.2421 8.66698 17.0426 8.48079 18.7657 8.10938C20.4888 7.73795 21.9284 7.37716 23.084 7.02637L18.9668 2.90918C18.8431 2.78545 18.7036 2.69274 18.5489 2.63086C18.3942 2.56901 18.2343 2.53812 18.0694 2.53809Z" fill="currentColor"/>
</svg>
