<svg xmlns="http://www.w3.org/2000/svg" width="11" height="13" viewBox="0 0 11 13" fill="none">
  <path d="M0.45 7.025C0.3 6.925 0.1875 6.8 0.1125 6.65C0.0375 6.5 0 6.34167 0 6.175C0 6.00833 0.0375 5.85 0.1125 5.7C0.1875 5.55 0.3 5.425 0.45 5.325L8.6 0.15C8.68333 0.1 8.77083 0.0625 8.8625 0.0375C8.95417 0.0125 9.04167 0 9.125 0C9.39167 0 9.625 0.0958333 9.825 0.2875C10.025 0.479167 10.125 0.716667 10.125 1V11.35C10.125 11.6333 10.025 11.8708 9.825 12.0625C9.625 12.2542 9.39167 12.35 9.125 12.35C9.04167 12.35 8.95417 12.3375 8.8625 12.3125C8.77083 12.2875 8.68333 12.25 8.6 12.2L0.45 7.025ZM8.125 9.525V2.825L2.875 6.175L8.125 9.525Z" fill="currentColor"/>
</svg>
