<svg xmlns="http://www.w3.org/2000/svg" width="18" height="17" viewBox="0 0 18 17" fill="none">
  <path d="M16 8.2875C16 6.90417 15.6333 5.64167 14.9 4.5C14.1667 3.35833 13.1833 2.50417 11.95 1.9375C11.7 1.82083 11.5167 1.64167 11.4 1.4C11.2833 1.15833 11.2667 0.9125 11.35 0.6625C11.45 0.395833 11.6292 0.204167 11.8875 0.0875C12.1458 -0.0291667 12.4083 -0.0291667 12.675 0.0875C14.2917 0.804167 15.5833 1.9 16.55 3.375C17.5167 4.85 18 6.4875 18 8.2875C18 10.0875 17.5167 11.725 16.55 13.2C15.5833 14.675 14.2917 15.7708 12.675 16.4875C12.4083 16.6042 12.1458 16.6042 11.8875 16.4875C11.6292 16.3708 11.45 16.1792 11.35 15.9125C11.2667 15.6625 11.2833 15.4167 11.4 15.175C11.5167 14.9333 11.7 14.7542 11.95 14.6375C13.1833 14.0708 14.1667 13.2167 14.9 12.075C15.6333 10.9333 16 9.67083 16 8.2875ZM4 11.3125H1C0.716667 11.3125 0.479167 11.2167 0.2875 11.025C0.0958333 10.8333 0 10.5958 0 10.3125V6.3125C0 6.02917 0.0958333 5.79167 0.2875 5.6C0.479167 5.40833 0.716667 5.3125 1 5.3125H4L7.3 2.0125C7.61667 1.69583 7.97917 1.625 8.3875 1.8C8.79583 1.975 9 2.2875 9 2.7375V13.8875C9 14.3375 8.79583 14.65 8.3875 14.825C7.97917 15 7.61667 14.9292 7.3 14.6125L4 11.3125ZM13.5 8.3125C13.5 9.0125 13.3417 9.675 13.025 10.3C12.7083 10.925 12.2917 11.4375 11.775 11.8375C11.6083 11.9375 11.4375 11.9417 11.2625 11.85C11.0875 11.7583 11 11.6125 11 11.4125V5.1625C11 4.9625 11.0875 4.81667 11.2625 4.725C11.4375 4.63333 11.6083 4.6375 11.775 4.7375C12.2917 5.15417 12.7083 5.67917 13.025 6.3125C13.3417 6.94583 13.5 7.6125 13.5 8.3125ZM7 5.1625L4.85 7.3125H2V9.3125H4.85L7 11.4625V5.1625Z" fill="currentColor"/>
</svg>
