<svg xmlns="http://www.w3.org/2000/svg" width="18" height="18" viewBox="0 0 18 18" fill="none">
  <path d="M12.85 9.425C13 9.325 13.075 9.18333 13.075 9C13.075 8.81667 13 8.675 12.85 8.575L7.275 5C7.10833 4.88333 6.9375 4.875 6.7625 4.975C6.5875 5.075 6.5 5.225 6.5 5.425V12.575C6.5 12.775 6.5875 12.925 6.7625 13.025C6.9375 13.125 7.10833 13.1167 7.275 13L12.85 9.425ZM2 18C1.45 18 0.979167 17.8042 0.5875 17.4125C0.195833 17.0208 0 16.55 0 16V2C0 1.45 0.195833 0.979167 0.5875 0.5875C0.979167 0.195833 1.45 0 2 0H16C16.55 0 17.0208 0.195833 17.4125 0.5875C17.8042 0.979167 18 1.45 18 2V16C18 16.55 17.8042 17.0208 17.4125 17.4125C17.0208 17.8042 16.55 18 16 18H2ZM2 16H16V2H2V16Z" fill="currentColor"/>
</svg>
