<svg xmlns="http://www.w3.org/2000/svg" width="10" height="10" viewBox="17.5 0 9.5 9.2" fill="none">
  <path d="M22.1 8.8C21.9889 8.8 21.8724 8.76667 21.7507 8.7C21.628 8.63333 21.5444 8.53333 21.5 8.4L20.4333 6.06667L18.1 5C17.9667 4.95556 17.8667 4.872 17.8 4.74933C17.7333 4.62756 17.7 4.51111 17.7 4.4C17.7 4.28889 17.7333 4.172 17.8 4.04933C17.8667 3.92756 17.9667 3.84444 18.1 3.8L20.4333 2.73333L21.5 0.4C21.5444 0.266667 21.628 0.166667 21.7507 0.0999999C21.8724 0.0333332 21.9889 0 22.1 0C22.2111 0 22.328 0.0333332 22.4507 0.0999999C22.5724 0.166667 22.6556 0.266667 22.7 0.4L23.7667 2.73333L26.1 3.8C26.2333 3.84444 26.3333 3.92756 26.4 4.04933C26.4667 4.172 26.5 4.28889 26.5 4.4C26.5 4.51111 26.4667 4.62756 26.4 4.74933C26.3333 4.872 26.2333 4.95556 26.1 5L23.7667 6.06667L22.7 8.4C22.6556 8.53333 22.5724 8.63333 22.4507 8.7C22.328 8.76667 22.2111 8.8 22.1 8.8Z" fill="currentColor"/>
</svg>
