<svg xmlns="http://www.w3.org/2000/svg" width="10" height="10" viewBox="17.5 18.5 9.5 9.2" fill="none">
  <path d="M22.1 27.4667C21.9889 27.4667 21.8724 27.4333 21.7507 27.3667C21.628 27.3 21.5444 27.2 21.5 27.0667L20.4333 24.7333L18.1 23.6667C17.9667 23.6222 17.8667 23.5387 17.8 23.416C17.7333 23.2942 17.7 23.1778 17.7 23.0667C17.7 22.9556 17.7333 22.8391 17.8 22.7173C17.8667 22.5947 17.9667 22.5111 18.1 22.4667L20.4333 21.4L21.5 19.0667C21.5444 18.9333 21.628 18.8333 21.7507 18.7667C21.8724 18.7 21.9889 18.6667 22.1 18.6667C22.2111 18.6667 22.328 18.7 22.4507 18.7667C22.5724 18.8333 22.6556 18.9333 22.7 19.0667L23.7667 21.4L26.1 22.4667C26.2333 22.5111 26.3333 22.5947 26.4 22.7173C26.4667 22.8391 26.5 22.9556 26.5 23.0667C26.5 23.1778 26.4667 23.2942 26.4 23.416C26.3333 23.5387 26.2333 23.6222 26.1 23.6667L23.7667 24.7333L22.7 27.0667C22.6556 27.2 22.5724 27.3 22.4507 27.3667C22.328 27.4333 22.2111 27.4667 22.1 27.4667Z" fill="currentColor"/>
</svg>
