<svg xmlns="http://www.w3.org/2000/svg" width="18" height="18" viewBox="0 4.5 17.6 18.2" fill="none">
  <path d="M8.76667 22.5C8.52222 22.5 8.28889 22.4333 8.06667 22.3C7.84444 22.1667 7.67778 21.9778 7.56667 21.7333L5.43333 17.0667L0.766667 14.9333C0.522222 14.8222 0.333333 14.6556 0.2 14.4333C0.0666668 14.2111 0 13.9778 0 13.7333C0 13.4889 0.0666668 13.2556 0.2 13.0333C0.333333 12.8111 0.522222 12.6444 0.766667 12.5333L5.43333 10.4L7.56667 5.73333C7.67778 5.48889 7.84444 5.3 8.06667 5.16667C8.28889 5.03333 8.52222 4.96667 8.76667 4.96667C9.01111 4.96667 9.24444 5.03333 9.46667 5.16667C9.68889 5.3 9.85556 5.48889 9.96667 5.73333L12.1 10.4L16.7667 12.5333C17.0111 12.6444 17.2 12.8111 17.3333 13.0333C17.4667 13.2556 17.5333 13.4889 17.5333 13.7333C17.5333 13.9778 17.4667 14.2111 17.3333 14.4333C17.2 14.6556 17.0111 14.8222 16.7667 14.9333L12.1 17.0667L9.96667 21.7333C9.85556 21.9778 9.68889 22.1667 9.46667 22.3C9.24444 22.4333 9.01111 22.5 8.76667 22.5ZM8.76667 17.9333L10.1 15.0667L12.9667 13.7333L10.1 12.4L8.76667 9.53333L7.43333 12.4L4.56667 13.7333L7.43333 15.0667L8.76667 17.9333Z" fill="currentColor"/>
</svg>
