<svg xmlns="http://www.w3.org/2000/svg" width="24" height="24" viewBox="0 0 24 24" fill="none">
  <path d="M3.8 20H14.4667C14.7556 20 14.9611 19.8778 15.0833 19.6333C15.2056 19.3889 15.1778 19.1556 15 18.9333L11.8 14.7C11.6667 14.5222 11.4889 14.4333 11.2667 14.4333C11.0444 14.4333 10.8667 14.5222 10.7333 14.7L8.33333 17.9333C8.2 18.1111 8.02222 18.2 7.8 18.2C7.57778 18.2 7.4 18.1111 7.26667 17.9333L6.2 16.5C6.06667 16.3222 5.88889 16.2333 5.66667 16.2333C5.44444 16.2333 5.26667 16.3222 5.13333 16.5L3.26667 18.9333C3.08889 19.1556 3.06111 19.3889 3.18333 19.6333C3.30556 19.8778 3.51111 20 3.8 20ZM2.66667 24C1.93333 24 1.30556 23.7389 0.783333 23.2167C0.261111 22.6944 0 22.0667 0 21.3333V8C0 7.26667 0.261111 6.63889 0.783333 6.11667C1.30556 5.59444 1.93333 5.33333 2.66667 5.33333H16C16.7333 5.33333 17.3611 5.59444 17.8833 6.11667C18.4056 6.63889 18.6667 7.26667 18.6667 8V21.3333C18.6667 22.0667 18.4056 22.6944 17.8833 23.2167C17.3611 23.7389 16.7333 24 16 24H2.66667ZM1.33333 2.66667C0.955556 2.66667 0.638889 2.53889 0.383333 2.28333C0.127778 2.02778 0 1.71111 0 1.33333C0 0.955556 0.127778 0.638889 0.383333 0.383333C0.638889 0.127778 0.955556 0 1.33333 0C1.71111 0 2.02778 0.127778 2.28333 0.383333C2.53889 0.638889 2.66667 0.955556 2.66667 1.33333C2.66667 1.71111 2.53889 2.02778 2.28333 2.28333C2.02778 2.53889 1.71111 2.66667 1.33333 2.66667ZM6.66667 2.66667C6.28889 2.66667 5.97222 2.53889 5.71667 2.28333C5.46111 2.02778 5.33333 1.71111 5.33333 1.33333C5.33333 0.955556 5.46111 0.638889 5.71667 0.383333C5.97222 0.127778 6.28889 0 6.66667 0C7.04444 0 7.36111 0.127778 7.61667 0.383333C7.87222 0.638889 8 0.955556 8 1.33333C8 1.71111 7.87222 2.02778 7.61667 2.28333C7.36111 2.53889 7.04444 2.66667 6.66667 2.66667ZM12 2.66667C11.6222 2.66667 11.3056 2.53889 11.05 2.28333C10.7944 2.02778 10.6667 1.71111 10.6667 1.33333C10.6667 0.955556 10.7944 0.638889 11.05 0.383333C11.3056 0.127778 11.6222 0 12 0C12.3778 0 12.6944 0.127778 12.95 0.383333C13.2056 0.638889 13.3333 0.955556 13.3333 1.33333C13.3333 1.71111 13.2056 2.02778 12.95 2.28333C12.6944 2.53889 12.3778 2.66667 12 2.66667ZM17.3333 2.66667C16.9556 2.66667 16.6389 2.53889 16.3833 2.28333C16.1278 2.02778 16 1.71111 16 1.33333C16 0.955556 16.1278 0.638889 16.3833 0.383333C16.6389 0.127778 16.9556 0 17.3333 0C17.7111 0 18.0278 0.127778 18.2833 0.383333C18.5389 0.638889 18.6667 0.955556 18.6667 1.33333C18.6667 1.71111 18.5389 2.02778 18.2833 2.28333C18.0278 2.53889 17.7111 2.66667 17.3333 2.66667ZM22.6667 2.66667C22.2889 2.66667 21.9722 2.53889 21.7167 2.28333C21.4611 2.02778 21.3333 1.71111 21.3333 1.33333C21.3333 0.955556 21.4611 0.638889 21.7167 0.383333C21.9722 0.127778 22.2889 0 22.6667 0C23.0444 0 23.3611 0.127778 23.6167 0.383333C23.8722 0.638889 24 0.955556 24 1.33333C24 1.71111 23.8722 2.02778 23.6167 2.28333C23.3611 2.53889 23.0444 2.66667 22.6667 2.66667ZM22.6667 8C22.2889 8 21.9722 7.87222 21.7167 7.61667C21.4611 7.36111 21.3333 7.04444 21.3333 6.66667C21.3333 6.28889 21.4611 5.97222 21.7167 5.71667C21.9722 5.46111 22.2889 5.33333 22.6667 5.33333C23.0444 5.33333 23.3611 5.46111 23.6167 5.71667C23.8722 5.97222 24 6.28889 24 6.66667C24 7.04444 23.8722 7.36111 23.6167 7.61667C23.3611 7.87222 23.0444 8 22.6667 8ZM22.6667 13.3333C22.2889 13.3333 21.9722 13.2056 21.7167 12.95C21.4611 12.6944 21.3333 12.3778 21.3333 12C21.3333 11.6222 21.4611 11.3056 21.7167 11.05C21.9722 10.7944 22.2889 10.6667 22.6667 10.6667C23.0444 10.6667 23.3611 10.7944 23.6167 11.05C23.8722 11.3056 24 11.6222 24 12C24 12.3778 23.8722 12.6944 23.6167 12.95C23.3611 13.2056 23.0444 13.3333 22.6667 13.3333ZM22.6667 18.6667C22.2889 18.6667 21.9722 18.5389 21.7167 18.2833C21.4611 18.0278 21.3333 17.7111 21.3333 17.3333C21.3333 16.9556 21.4611 16.6389 21.7167 16.3833C21.9722 16.1278 22.2889 16 22.6667 16C23.0444 16 23.3611 16.1278 23.6167 16.3833C23.8722 16.6389 24 16.9556 24 17.3333C24 17.7111 23.8722 18.0278 23.6167 18.2833C23.3611 18.5389 23.0444 18.6667 22.6667 18.6667ZM22.6667 24C22.2889 24 21.9722 23.8722 21.7167 23.6167C21.4611 23.3611 21.3333 23.0444 21.3333 22.6667C21.3333 22.2889 21.4611 21.9722 21.7167 21.7167C21.9722 21.4611 22.2889 21.3333 22.6667 21.3333C23.0444 21.3333 23.3611 21.4611 23.6167 21.7167C23.8722 21.9722 24 22.2889 24 22.6667C24 23.0444 23.8722 23.3611 23.6167 23.6167C23.3611 23.8722 23.0444 24 22.6667 24Z" fill="currentColor"/>
</svg>
