<svg xmlns="http://www.w3.org/2000/svg" width="27" height="22" viewBox="0 0 27 22" fill="none">
  <path d="M11.2667 15.3333C11.8 15.8667 12.4889 16.1278 13.3333 16.1167C14.1778 16.1056 14.8 15.8 15.2 15.2L20.8333 6.76667C21.0333 6.45556 21.0056 6.17222 20.75 5.91667C20.4944 5.66111 20.2111 5.63333 19.9 5.83333L11.4667 11.4667C10.8667 11.8667 10.55 12.4778 10.5167 13.3C10.4833 14.1222 10.7333 14.8 11.2667 15.3333ZM13.3333 0C14.1333 0 14.9222 0.0666667 15.7 0.2C16.4778 0.333333 17.2333 0.544444 17.9667 0.833333C18.3222 0.966667 18.7 1.21667 19.1 1.58333C19.5 1.95 19.6111 2.3 19.4333 2.63333C19.2556 2.96667 18.8556 3.18889 18.2333 3.3C17.6111 3.41111 17.1111 3.4 16.7333 3.26667C16.1778 3.06667 15.6167 2.91667 15.05 2.81667C14.4833 2.71667 13.9111 2.66667 13.3333 2.66667C10.3778 2.66667 7.86111 3.70556 5.78333 5.78333C3.70556 7.86111 2.66667 10.3778 2.66667 13.3333C2.66667 14.2667 2.79444 15.1889 3.05 16.1C3.30556 17.0111 3.66667 17.8667 4.13333 18.6667H22.5333C23.0444 17.8222 23.4167 16.9444 23.65 16.0333C23.8833 15.1222 24 14.1778 24 13.2C24 12.6222 23.95 12.0556 23.85 11.5C23.75 10.9444 23.6 10.4 23.4 9.86667C23.2667 9.48889 23.2444 9.12222 23.3333 8.76667C23.4222 8.41111 23.6222 8.11111 23.9333 7.86667C24.2222 7.64444 24.5389 7.57778 24.8833 7.66667C25.2278 7.75556 25.4667 7.95556 25.6 8.26667C25.9333 9.04445 26.1889 9.83889 26.3667 10.65C26.5444 11.4611 26.6444 12.2889 26.6667 13.1333C26.6889 14.4 26.5444 15.6111 26.2333 16.7667C25.9222 17.9222 25.4667 19.0222 24.8667 20.0667C24.6222 20.4667 24.2889 20.7778 23.8667 21C23.4444 21.2222 23 21.3333 22.5333 21.3333H4.13333C3.66667 21.3333 3.22222 21.2222 2.8 21C2.37778 20.7778 2.04444 20.4667 1.8 20.0667C1.22222 19.0667 0.777778 18.0056 0.466667 16.8833C0.155556 15.7611 0 14.5778 0 13.3333C0 11.4889 0.35 9.76111 1.05 8.15C1.75 6.53889 2.70556 5.12778 3.91667 3.91667C5.12778 2.70556 6.54444 1.75 8.16667 1.05C9.78889 0.35 11.5111 0 13.3333 0Z" fill="currentColor"/>
</svg>
