<svg xmlns="http://www.w3.org/2000/svg" width="27" height="22" viewBox="0 0 27 22" fill="none">
  <path d="M2.66667 21.3333C1.93333 21.3333 1.30556 21.0722 0.783333 20.55C0.261111 20.0278 0 19.4 0 18.6667V2.66667C0 1.93333 0.261111 1.30556 0.783333 0.783333C1.30556 0.261111 1.93333 0 2.66667 0H24C24.7333 0 25.3611 0.261111 25.8833 0.783333C26.4056 1.30556 26.6667 1.93333 26.6667 2.66667V18.6667C26.6667 19.4 26.4056 20.0278 25.8833 20.55C25.3611 21.0722 24.7333 21.3333 24 21.3333H2.66667ZM2.66667 18.6667H24V2.66667H2.66667V18.6667ZM9.33333 14.6667H17.3333C17.7111 14.6667 18.0278 14.5389 18.2833 14.2833C18.5389 14.0278 18.6667 13.7111 18.6667 13.3333V8C18.6667 7.62222 18.5389 7.30556 18.2833 7.05C18.0278 6.79445 17.7111 6.66667 17.3333 6.66667H9.33333C8.95555 6.66667 8.63889 6.79445 8.38333 7.05C8.12778 7.30556 8 7.62222 8 8V13.3333C8 13.7111 8.12778 14.0278 8.38333 14.2833C8.63889 14.5389 8.95555 14.6667 9.33333 14.6667Z" fill="currentColor"/>
</svg>
