<svg xmlns="http://www.w3.org/2000/svg" width="18" height="18" viewBox="0 0 18 18" fill="none">
  <path d="M2 18C1.45 18 0.979167 17.8042 0.5875 17.4125C0.195833 17.0208 0 16.55 0 16V13C0 12.7167 0.0958333 12.4792 0.2875 12.2875C0.479167 12.0958 0.716667 12 1 12C1.28333 12 1.52083 12.0958 1.7125 12.2875C1.90417 12.4792 2 12.7167 2 13V16H5C5.28333 16 5.52083 16.0958 5.7125 16.2875C5.90417 16.4792 6 16.7167 6 17C6 17.2833 5.90417 17.5208 5.7125 17.7125C5.52083 17.9042 5.28333 18 5 18H2ZM16 18H13C12.7167 18 12.4792 17.9042 12.2875 17.7125C12.0958 17.5208 12 17.2833 12 17C12 16.7167 12.0958 16.4792 12.2875 16.2875C12.4792 16.0958 12.7167 16 13 16H16V13C16 12.7167 16.0958 12.4792 16.2875 12.2875C16.4792 12.0958 16.7167 12 17 12C17.2833 12 17.5208 12.0958 17.7125 12.2875C17.9042 12.4792 18 12.7167 18 13V16C18 16.55 17.8042 17.0208 17.4125 17.4125C17.0208 17.8042 16.55 18 16 18ZM0 2C0 1.45 0.195833 0.979167 0.5875 0.5875C0.979167 0.195833 1.45 0 2 0H5C5.28333 0 5.52083 0.0958333 5.7125 0.2875C5.90417 0.479167 6 0.716667 6 1C6 1.28333 5.90417 1.52083 5.7125 1.7125C5.52083 1.90417 5.28333 2 5 2H2V5C2 5.28333 1.90417 5.52083 1.7125 5.7125C1.52083 5.90417 1.28333 6 1 6C0.716667 6 0.479167 5.90417 0.2875 5.7125C0.0958333 5.52083 0 5.28333 0 5V2ZM18 2V5C18 5.28333 17.9042 5.52083 17.7125 5.7125C17.5208 5.90417 17.2833 6 17 6C16.7167 6 16.4792 5.90417 16.2875 5.7125C16.0958 5.52083 16 5.28333 16 5V2H13C12.7167 2 12.4792 1.90417 12.2875 1.7125C12.0958 1.52083 12 1.28333 12 1C12 0.716667 12.0958 0.479167 12.2875 0.2875C12.4792 0.0958333 12.7167 0 13 0H16C16.55 0 17.0208 0.195833 17.4125 0.5875C17.8042 0.979167 18 1.45 18 2ZM9 15C9.35 15 9.64583 14.8792 9.8875 14.6375C10.1292 14.3958 10.25 14.1 10.25 13.75C10.25 13.4 10.1292 13.1042 9.8875 12.8625C9.64583 12.6208 9.35 12.5 9 12.5C8.65 12.5 8.35417 12.6208 8.1125 12.8625C7.87083 13.1042 7.75 13.4 7.75 13.75C7.75 14.1 7.87083 14.3958 8.1125 14.6375C8.35417 14.8792 8.65 15 9 15ZM9 4.7C9.43333 4.7 9.8125 4.83333 10.1375 5.1C10.4625 5.36667 10.625 5.70833 10.625 6.125C10.625 6.50833 10.5042 6.85 10.2625 7.15C10.0208 7.45 9.75833 7.725 9.475 7.975C9.04167 8.35833 8.7125 8.72083 8.4875 9.0625C8.2625 9.40417 8.13333 9.81667 8.1 10.3C8.08333 10.5333 8.16667 10.7375 8.35 10.9125C8.53333 11.0875 8.75 11.175 9 11.175C9.23333 11.175 9.44583 11.0917 9.6375 10.925C9.82917 10.7583 9.94167 10.55 9.975 10.3C10.0083 10.0167 10.1083 9.76667 10.275 9.55C10.4417 9.33333 10.6833 9.06667 11 8.75C11.5833 8.16667 11.9708 7.69583 12.1625 7.3375C12.3542 6.97917 12.45 6.55 12.45 6.05C12.45 5.15 12.125 4.41667 11.475 3.85C10.825 3.28333 10 3 9 3C8.31667 3 7.70417 3.15417 7.1625 3.4625C6.62083 3.77083 6.20833 4.20833 5.925 4.775C5.825 4.975 5.82083 5.17917 5.9125 5.3875C6.00417 5.59583 6.15833 5.74167 6.375 5.825C6.59167 5.90833 6.8125 5.90833 7.0375 5.825C7.2625 5.74167 7.44167 5.60833 7.575 5.425C7.75833 5.19167 7.97083 5.0125 8.2125 4.8875C8.45417 4.7625 8.71667 4.7 9 4.7Z" fill="white"/>
</svg>
