<svg xmlns="http://www.w3.org/2000/svg" width="27" height="22" viewBox="0 0 27 22" fill="none">
  <path d="M7.33333 12H10V13.6667C10 13.9556 10.0944 14.1944 10.2833 14.3833C10.4722 14.5722 10.7111 14.6667 11 14.6667C11.2889 14.6667 11.5278 14.5722 11.7167 14.3833C11.9056 14.1944 12 13.9556 12 13.6667V7.66667C12 7.37778 11.9056 7.13889 11.7167 6.95C11.5278 6.76111 11.2889 6.66667 11 6.66667C10.7111 6.66667 10.4722 6.76111 10.2833 6.95C10.0944 7.13889 10 7.37778 10 7.66667V10H7.33333V7.66667C7.33333 7.37778 7.23889 7.13889 7.05 6.95C6.86111 6.76111 6.62222 6.66667 6.33333 6.66667C6.04444 6.66667 5.80556 6.76111 5.61667 6.95C5.42778 7.13889 5.33333 7.37778 5.33333 7.66667V13.6667C5.33333 13.9556 5.42778 14.1944 5.61667 14.3833C5.80556 14.5722 6.04444 14.6667 6.33333 14.6667C6.62222 14.6667 6.86111 14.5722 7.05 14.3833C7.23889 14.1944 7.33333 13.9556 7.33333 13.6667V12ZM15.3333 14.6667H20C20.3778 14.6667 20.6944 14.5389 20.95 14.2833C21.2056 14.0278 21.3333 13.7111 21.3333 13.3333V8C21.3333 7.62222 21.2056 7.30556 20.95 7.05C20.6944 6.79445 20.3778 6.66667 20 6.66667H15.3333C15.1556 6.66667 15 6.73333 14.8667 6.86667C14.7333 7 14.6667 7.15556 14.6667 7.33333V14C14.6667 14.1778 14.7333 14.3333 14.8667 14.4667C15 14.6 15.1556 14.6667 15.3333 14.6667ZM16.6667 12.6667V8.66667H19.3333V12.6667H16.6667ZM2.66667 21.3333C1.93333 21.3333 1.30556 21.0722 0.783333 20.55C0.261111 20.0278 0 19.4 0 18.6667V2.66667C0 1.93333 0.261111 1.30556 0.783333 0.783333C1.30556 0.261111 1.93333 0 2.66667 0H24C24.7333 0 25.3611 0.261111 25.8833 0.783333C26.4056 1.30556 26.6667 1.93333 26.6667 2.66667V18.6667C26.6667 19.4 26.4056 20.0278 25.8833 20.55C25.3611 21.0722 24.7333 21.3333 24 21.3333H2.66667ZM2.66667 18.6667H24V2.66667H2.66667V18.6667Z" fill="currentColor"/>
</svg>
