<svg xmlns="http://www.w3.org/2000/svg" width="16" height="19" viewBox="0 0 16 19" fill="none">
  <path d="M8 18.4C5.78333 18.4 3.89583 17.6292 2.3375 16.0875C0.779167 14.5458 0 12.6833 0 10.5C0 9.4 0.208333 8.38333 0.625 7.45C1.04167 6.51667 1.61667 5.68333 2.35 4.95L6.95 0.425C7.1 0.291667 7.26667 0.1875 7.45 0.1125C7.63333 0.0375 7.81667 0 8 0C8.18333 0 8.36667 0.0375 8.55 0.1125C8.73333 0.1875 8.9 0.291667 9.05 0.425L13.65 4.95C14.3833 5.68333 14.9583 6.51667 15.375 7.45C15.7917 8.38333 16 9.4 16 10.5C16 12.6833 15.2208 14.5458 13.6625 16.0875C12.1042 17.6292 10.2167 18.4 8 18.4ZM8 16.4V2.2L3.75 6.4C3.16667 6.95 2.72917 7.57083 2.4375 8.2625C2.14583 8.95417 2 9.7 2 10.5C2 12.1167 2.58333 13.5042 3.75 14.6625C4.91667 15.8208 6.33333 16.4 8 16.4Z" fill="#757575"/>
</svg>
