<svg xmlns="http://www.w3.org/2000/svg" width="22" height="22" viewBox="0 0 22 22" fill="none">
  <path d="M6 11C6 11.2833 5.90417 11.5208 5.7125 11.7125C5.52083 11.9042 5.28333 12 5 12H1C0.716667 12 0.479167 11.9042 0.2875 11.7125C0.0958333 11.5208 0 11.2833 0 11C0 10.7167 0.0958333 10.4792 0.2875 10.2875C0.479167 10.0958 0.716667 10 1 10H5C5.28333 10 5.52083 10.0958 5.7125 10.2875C5.90417 10.4792 6 10.7167 6 11ZM7.45 7.45C7.26667 7.63333 7.03333 7.725 6.75 7.725C6.46667 7.725 6.23333 7.63333 6.05 7.45L5.35 6.75C5.16667 6.56667 5.075 6.33333 5.075 6.05C5.075 5.76667 5.16667 5.53333 5.35 5.35C5.53333 5.16667 5.76667 5.075 6.05 5.075C6.33333 5.075 6.56667 5.16667 6.75 5.35L7.45 6.05C7.63333 6.23333 7.725 6.46667 7.725 6.75C7.725 7.03333 7.63333 7.26667 7.45 7.45ZM10 5V1C10 0.716667 10.0958 0.479167 10.2875 0.2875C10.4792 0.0958333 10.7167 0 11 0C11.2833 0 11.5208 0.0958333 11.7125 0.2875C11.9042 0.479167 12 0.716667 12 1V5C12 5.28333 11.9042 5.52083 11.7125 5.7125C11.5208 5.90417 11.2833 6 11 6C10.7167 6 10.4792 5.90417 10.2875 5.7125C10.0958 5.52083 10 5.28333 10 5ZM14.55 7.45C14.3667 7.26667 14.275 7.03333 14.275 6.75C14.275 6.46667 14.3667 6.23333 14.55 6.05L15.25 5.35C15.4333 5.16667 15.6667 5.075 15.95 5.075C16.2333 5.075 16.4667 5.16667 16.65 5.35C16.8333 5.53333 16.925 5.76667 16.925 6.05C16.925 6.33333 16.8333 6.56667 16.65 6.75L15.95 7.45C15.7667 7.63333 15.5333 7.725 15.25 7.725C14.9667 7.725 14.7333 7.63333 14.55 7.45ZM16 11C16 10.7167 16.0958 10.4792 16.2875 10.2875C16.4792 10.0958 16.7167 10 17 10H21C21.2833 10 21.5208 10.0958 21.7125 10.2875C21.9042 10.4792 22 10.7167 22 11C22 11.2833 21.9042 11.5208 21.7125 11.7125C21.5208 11.9042 21.2833 12 21 12H17C16.7167 12 16.4792 11.9042 16.2875 11.7125C16.0958 11.5208 16 11.2833 16 11ZM11 14C10.1667 14 9.45833 13.7083 8.875 13.125C8.29167 12.5417 8 11.8333 8 11C8 10.1667 8.29167 9.45833 8.875 8.875C9.45833 8.29167 10.1667 8 11 8C11.8333 8 12.5417 8.29167 13.125 8.875C13.7083 9.45833 14 10.1667 14 11C14 11.8333 13.7083 12.5417 13.125 13.125C12.5417 13.7083 11.8333 14 11 14ZM14.55 14.55C14.7333 14.3667 14.9667 14.275 15.25 14.275C15.5333 14.275 15.7667 14.3667 15.95 14.55L16.65 15.25C16.8333 15.4333 16.925 15.6667 16.925 15.95C16.925 16.2333 16.8333 16.4667 16.65 16.65C16.4667 16.8333 16.2333 16.925 15.95 16.925C15.6667 16.925 15.4333 16.8333 15.25 16.65L14.55 15.95C14.3667 15.7667 14.275 15.5333 14.275 15.25C14.275 14.9667 14.3667 14.7333 14.55 14.55ZM7.45 14.55C7.63333 14.7333 7.725 14.9667 7.725 15.25C7.725 15.5333 7.63333 15.7667 7.45 15.95L6.75 16.65C6.56667 16.8333 6.33333 16.925 6.05 16.925C5.76667 16.925 5.53333 16.8333 5.35 16.65C5.16667 16.4667 5.075 16.2333 5.075 15.95C5.075 15.6667 5.16667 15.4333 5.35 15.25L6.05 14.55C6.23333 14.3667 6.46667 14.275 6.75 14.275C7.03333 14.275 7.26667 14.3667 7.45 14.55ZM11 16C11.2833 16 11.5208 16.0958 11.7125 16.2875C11.9042 16.4792 12 16.7167 12 17V21C12 21.2833 11.9042 21.5208 11.7125 21.7125C11.5208 21.9042 11.2833 22 11 22C10.7167 22 10.4792 21.9042 10.2875 21.7125C10.0958 21.5208 10 21.2833 10 21V17C10 16.7167 10.0958 16.4792 10.2875 16.2875C10.4792 16.0958 10.7167 16 11 16Z" fill="#757575"/>
</svg>
