<svg xmlns="http://www.w3.org/2000/svg" width="20" height="20" viewBox="0 0 20 20" fill="none">
  <path d="M2.10259 11.8173C2.20259 12.2006 2.32342 12.5673 2.46509 12.9173C2.60675 13.2673 2.76925 13.6006 2.95259 13.9173C3.10259 14.1673 3.16092 14.434 3.12759 14.7173C3.09425 15.0006 2.98592 15.234 2.80259 15.4173C2.61925 15.6006 2.39009 15.6881 2.11509 15.6798C1.84009 15.6715 1.62759 15.5506 1.47759 15.3173C1.12759 14.784 0.831753 14.234 0.590086 13.6673C0.34842 13.1006 0.16092 12.5006 0.0275862 11.8673C-0.0390805 11.6006 0.0150862 11.359 0.190086 11.1423C0.365086 10.9256 0.594253 10.8173 0.877586 10.8173C1.16092 10.8173 1.41509 10.909 1.64009 11.0923C1.86509 11.2756 2.01925 11.5173 2.10259 11.8173ZM2.95259 5.71731C2.76925 6.03397 2.60675 6.36731 2.46509 6.71731C2.32342 7.06731 2.20259 7.43397 2.10259 7.81731C2.01925 8.11731 1.86509 8.35897 1.64009 8.54231C1.41509 8.72564 1.16092 8.81731 0.877586 8.81731C0.594253 8.81731 0.365086 8.71731 0.190086 8.51731C0.0150862 8.31731 -0.0390805 8.08397 0.0275862 7.81731C0.16092 7.16731 0.352586 6.54231 0.602586 5.94231C0.852586 5.34231 1.15259 4.79231 1.50259 4.29231C1.65259 4.07564 1.86092 3.96314 2.12759 3.95481C2.39425 3.94647 2.61925 4.03397 2.80259 4.21731C2.98592 4.40064 3.09425 4.63397 3.12759 4.91731C3.16092 5.20064 3.10259 5.46731 2.95259 5.71731ZM5.72759 16.6673C6.06092 16.8673 6.40259 17.0423 6.75259 17.1923C7.10259 17.3423 7.46092 17.4673 7.82759 17.5673C8.11092 17.6506 8.34425 17.8006 8.52759 18.0173C8.71092 18.234 8.80259 18.484 8.80259 18.7673C8.80259 19.0506 8.70259 19.2756 8.50259 19.4423C8.30259 19.609 8.06925 19.6673 7.80259 19.6173C7.18592 19.484 6.59009 19.3006 6.01509 19.0673C5.44009 18.834 4.88592 18.5423 4.35259 18.1923C4.11925 18.0423 3.99009 17.8298 3.96509 17.5548C3.94009 17.2798 4.01925 17.0423 4.20259 16.8423C4.40259 16.6423 4.64425 16.5256 4.92759 16.4923C5.21092 16.459 5.47759 16.5173 5.72759 16.6673ZM7.87759 2.06731C7.51092 2.16731 7.15675 2.28814 6.81509 2.42981C6.47342 2.57147 6.13592 2.74231 5.80259 2.94231C5.53592 3.09231 5.25675 3.15481 4.96509 3.12981C4.67342 3.10481 4.42759 2.99231 4.22759 2.79231C4.02759 2.59231 3.93592 2.35897 3.95259 2.09231C3.96925 1.82564 4.09425 1.61731 4.32759 1.46731C4.87759 1.11731 5.44842 0.821474 6.04009 0.579808C6.63175 0.338141 7.24425 0.150641 7.87759 0.0173077C8.12759 -0.0326923 8.35259 0.025641 8.55259 0.192308C8.75259 0.358974 8.85259 0.583974 8.85259 0.867308C8.85259 1.15064 8.76092 1.40064 8.57759 1.61731C8.39425 1.83397 8.16092 1.98397 7.87759 2.06731ZM9.85259 12.8173C9.01925 12.8173 8.31092 12.5256 7.72759 11.9423C7.14425 11.359 6.85259 10.6506 6.85259 9.81731C6.85259 8.98397 7.14425 8.27564 7.72759 7.69231C8.31092 7.10897 9.01925 6.81731 9.85259 6.81731C10.6859 6.81731 11.3943 7.10897 11.9776 7.69231C12.5609 8.27564 12.8526 8.98397 12.8526 9.81731C12.8526 10.6506 12.5609 11.359 11.9776 11.9423C11.3943 12.5256 10.6859 12.8173 9.85259 12.8173ZM13.9276 16.6923C14.1776 16.5423 14.4484 16.4798 14.7401 16.5048C15.0318 16.5298 15.2776 16.6423 15.4776 16.8423C15.6776 17.0423 15.7693 17.2798 15.7526 17.5548C15.7359 17.8298 15.6109 18.034 15.3776 18.1673C14.8443 18.5173 14.2776 18.8131 13.6776 19.0548C13.0776 19.2965 12.4609 19.484 11.8276 19.6173C11.5609 19.6673 11.3234 19.609 11.1151 19.4423C10.9068 19.2756 10.8026 19.0506 10.8026 18.7673C10.8026 18.484 10.8984 18.234 11.0901 18.0173C11.2818 17.8006 11.5193 17.6506 11.8026 17.5673C12.1859 17.4673 12.5526 17.3465 12.9026 17.2048C13.2526 17.0631 13.5943 16.8923 13.9276 16.6923ZM11.8276 2.06731C11.5443 1.98397 11.3109 1.83397 11.1276 1.61731C10.9443 1.40064 10.8526 1.15064 10.8526 0.867308C10.8526 0.583974 10.9526 0.358974 11.1526 0.192308C11.3526 0.025641 11.5776 -0.0326923 11.8276 0.0173077C12.4609 0.150641 13.0776 0.338141 13.6776 0.579808C14.2776 0.821474 14.8443 1.11731 15.3776 1.46731C15.6109 1.61731 15.7359 1.82564 15.7526 2.09231C15.7693 2.35897 15.6859 2.59231 15.5026 2.79231C15.3026 2.99231 15.0609 3.10897 14.7776 3.14231C14.4943 3.17564 14.2193 3.11731 13.9526 2.96731C13.6026 2.76731 13.2526 2.59231 12.9026 2.44231C12.5526 2.29231 12.1943 2.16731 11.8276 2.06731ZM17.6026 11.7923C17.6859 11.509 17.8401 11.2756 18.0651 11.0923C18.2901 10.909 18.5443 10.8173 18.8276 10.8173C19.1109 10.8173 19.3401 10.9256 19.5151 11.1423C19.6901 11.359 19.7443 11.6006 19.6776 11.8673C19.5443 12.5006 19.3484 13.109 19.0901 13.6923C18.8318 14.2756 18.5359 14.8173 18.2026 15.3173C18.0526 15.534 17.8443 15.6506 17.5776 15.6673C17.3109 15.684 17.0859 15.6006 16.9026 15.4173C16.7193 15.234 16.6109 14.9965 16.5776 14.7048C16.5443 14.4131 16.6026 14.1423 16.7526 13.8923C16.9359 13.559 17.0984 13.2215 17.2401 12.8798C17.3818 12.5381 17.5026 12.1756 17.6026 11.7923ZM16.7526 5.71731C16.6026 5.46731 16.5443 5.20064 16.5776 4.91731C16.6109 4.63397 16.7193 4.40064 16.9026 4.21731C17.0859 4.03397 17.3109 3.95064 17.5776 3.96731C17.8443 3.98397 18.0526 4.10064 18.2026 4.31731C18.5693 4.85064 18.8776 5.40897 19.1276 5.99231C19.3776 6.57564 19.5693 7.18397 19.7026 7.81731C19.7526 8.08397 19.6901 8.31731 19.5151 8.51731C19.3401 8.71731 19.1109 8.81731 18.8276 8.81731C18.5443 8.81731 18.2901 8.72564 18.0651 8.54231C17.8401 8.35897 17.6859 8.11731 17.6026 7.81731C17.5026 7.43397 17.3818 7.06731 17.2401 6.71731C17.0984 6.36731 16.9359 6.03397 16.7526 5.71731Z" fill="#757575"/>
</svg>
