<svg xmlns="http://www.w3.org/2000/svg" width="20" height="16" viewBox="0 0 20 16" fill="none">
  <path d="M15 11H13C12.7167 11 12.4792 11.0958 12.2875 11.2875C12.0958 11.4792 12 11.7167 12 12C12 12.2833 12.0958 12.5208 12.2875 12.7125C12.4792 12.9042 12.7167 13 13 13H16C16.2833 13 16.5208 12.9042 16.7125 12.7125C16.9042 12.5208 17 12.2833 17 12V9C17 8.71667 16.9042 8.47917 16.7125 8.2875C16.5208 8.09583 16.2833 8 16 8C15.7167 8 15.4792 8.09583 15.2875 8.2875C15.0958 8.47917 15 8.71667 15 9V11ZM5 5H7C7.28333 5 7.52083 4.90417 7.7125 4.7125C7.90417 4.52083 8 4.28333 8 4C8 3.71667 7.90417 3.47917 7.7125 3.2875C7.52083 3.09583 7.28333 3 7 3H4C3.71667 3 3.47917 3.09583 3.2875 3.2875C3.09583 3.47917 3 3.71667 3 4V7C3 7.28333 3.09583 7.52083 3.2875 7.7125C3.47917 7.90417 3.71667 8 4 8C4.28333 8 4.52083 7.90417 4.7125 7.7125C4.90417 7.52083 5 7.28333 5 7V5ZM2 16C1.45 16 0.979167 15.8042 0.5875 15.4125C0.195833 15.0208 0 14.55 0 14V2C0 1.45 0.195833 0.979167 0.5875 0.5875C0.979167 0.195833 1.45 0 2 0H18C18.55 0 19.0208 0.195833 19.4125 0.5875C19.8042 0.979167 20 1.45 20 2V14C20 14.55 19.8042 15.0208 19.4125 15.4125C19.0208 15.8042 18.55 16 18 16H2ZM2 14H18V2H2V14Z" fill="currentColor"/>
</svg>
