<svg xmlns="http://www.w3.org/2000/svg" width="12" height="18" viewBox="0 0 12 18" fill="none">
  <path d="M-8.74228e-08 2C-6.33815e-08 1.45 0.195833 0.979166 0.5875 0.5875C0.979167 0.195833 1.45 -4.61155e-07 2 -4.37114e-07L10 -8.74228e-08C10.55 -6.33815e-08 11.0208 0.195833 11.4125 0.5875C11.8042 0.979167 12 1.45 12 2L12 16C12 16.55 11.8042 17.0208 11.4125 17.4125C11.0208 17.8042 10.55 18 10 18L2 18C1.45 18 0.979166 17.8042 0.587499 17.4125C0.195832 17.0208 -7.23424e-07 16.55 -6.99382e-07 16L-8.74228e-08 2ZM2 2L2 16L10 16L10 2L2 2Z" fill="currentColor"/>
</svg>
