<svg xmlns="http://www.w3.org/2000/svg" width="20" height="16" viewBox="0 0 20 16" fill="none">
  <path d="M2 16C1.45 16 0.979167 15.8042 0.5875 15.4125C0.195833 15.0208 0 14.55 0 14V2C0 1.45 0.195833 0.979167 0.5875 0.5875C0.979167 0.195833 1.45 0 2 0H18C18.55 0 19.0208 0.195833 19.4125 0.5875C19.8042 0.979167 20 1.45 20 2V14C20 14.55 19.8042 15.0208 19.4125 15.4125C19.0208 15.8042 18.55 16 18 16H2ZM2 14H18V2H2V14ZM5 8C5.28333 8 5.52083 7.90417 5.7125 7.7125C5.90417 7.52083 6 7.28333 6 7C6 6.71667 5.90417 6.47917 5.7125 6.2875C5.52083 6.09583 5.28333 6 5 6C4.71667 6 4.47917 6.09583 4.2875 6.2875C4.09583 6.47917 4 6.71667 4 7C4 7.28333 4.09583 7.52083 4.2875 7.7125C4.47917 7.90417 4.71667 8 5 8ZM9 8C9.28333 8 9.52083 7.90417 9.7125 7.7125C9.90417 7.52083 10 7.28333 10 7C10 6.71667 9.90417 6.47917 9.7125 6.2875C9.52083 6.09583 9.28333 6 9 6C8.71667 6 8.47917 6.09583 8.2875 6.2875C8.09583 6.47917 8 6.71667 8 7C8 7.28333 8.09583 7.52083 8.2875 7.7125C8.47917 7.90417 8.71667 8 9 8ZM13 8C13.2833 8 13.5208 7.90417 13.7125 7.7125C13.9042 7.52083 14 7.28333 14 7C14 6.71667 13.9042 6.47917 13.7125 6.2875C13.5208 6.09583 13.2833 6 13 6C12.7167 6 12.4792 6.09583 12.2875 6.2875C12.0958 6.47917 12 6.71667 12 7C12 7.28333 12.0958 7.52083 12.2875 7.7125C12.4792 7.90417 12.7167 8 13 8ZM13 12C13.2833 12 13.5208 11.9042 13.7125 11.7125C13.9042 11.5208 14 11.2833 14 11C14 10.7167 13.9042 10.4792 13.7125 10.2875C13.5208 10.0958 13.2833 10 13 10C12.7167 10 12.4792 10.0958 12.2875 10.2875C12.0958 10.4792 12 10.7167 12 11C12 11.2833 12.0958 11.5208 12.2875 11.7125C12.4792 11.9042 12.7167 12 13 12Z" fill="currentColor"/>
</svg>
