<svg xmlns="http://www.w3.org/2000/svg" width="12" height="16" viewBox="0 0 12 16" fill="none">
  <path d="M-9.62417e-06 2.00004C-9.60013e-06 1.45004 0.195824 0.979208 0.58749 0.587541C0.979156 0.195875 1.44999 4.12641e-05 1.99999 4.12881e-05L10 -8.7423e-08C10.55 -6.33817e-08 11.0208 0.195833 11.4125 0.5875C11.8042 0.979167 12 1.45 12 2L12 14C12 14.55 11.8042 15.0208 11.4125 15.4125C11.0208 15.8042 10.55 16 10 16L1.99999 16C1.44999 16 0.979153 15.8042 0.587487 15.4125C0.19582 15.0209 -1.30338e-05 14.55 -1.30097e-05 14L-9.62417e-06 2.00004ZM1.99999 2.00004L1.99999 14L10 14L10 2L1.99999 2.00004Z" fill="currentColor"/>
</svg>
