<svg xmlns="http://www.w3.org/2000/svg" width="16" height="12" viewBox="0 0 16 12" fill="none">
  <path d="M14 -9.71159e-06C14.55 -9.66351e-06 15.0208 0.195824 15.4125 0.58749C15.8041 0.979156 16 1.44999 16 1.99999L16 10C16 10.55 15.8042 11.0208 15.4125 11.4125C15.0208 11.8042 14.55 12 14 12L2 12C1.45 12 0.979166 11.8042 0.5875 11.4125C0.195833 11.0208 1.26763e-07 10.55 1.74846e-07 10L-4.10874e-05 1.99999C-4.10394e-05 1.44999 0.195792 0.979152 0.587459 0.587486C0.979125 0.195819 1.44996 -1.36698e-05 1.99996 -1.36217e-05L14 -9.71159e-06ZM14 1.99999L1.99996 1.99999L2 10L14 10L14 1.99999Z" fill="currentColor"/>
</svg>
