<svg xmlns="http://www.w3.org/2000/svg" width="27" height="30" viewBox="0 0 27 30" fill="none">
  <path fill-rule="evenodd" clip-rule="evenodd" d="M16.0001 5.26269C16.0003 2.56406 19.7764 1.66175 21.1046 4.04297L26.3477 13.4473C26.7724 14.2091 26.7723 15.1229 26.3477 15.8848L21.1046 25.2891C19.7766 27.6707 16.0002 26.769 16.0001 24.0703L16.0001 5.26269ZM23.9552 14.666L18.712 5.26269L18.712 24.0703L23.9552 14.666ZM12.0001 25.333C12.0001 24.9553 12.1274 24.6383 12.3829 24.3828C12.6384 24.1273 12.9554 24.0001 13.3331 24C13.7108 24 14.0277 24.1273 14.2833 24.3828C14.5388 24.6384 14.6671 24.9552 14.6671 25.333L14.6671 28C14.667 28.3775 14.5386 28.6938 14.2833 28.9492C14.0277 29.2048 13.7109 29.333 13.3331 29.333C12.9554 29.333 12.6384 29.2047 12.3829 28.9492C12.1277 28.6938 12.0002 28.3774 12.0001 28L12.0001 25.333ZM12.0001 17.333C12.0001 16.9553 12.1274 16.6383 12.3829 16.3828C12.6384 16.1273 12.9554 16.0001 13.3331 16C13.7108 16 14.0277 16.1273 14.2833 16.3828C14.5388 16.6384 14.6671 16.9552 14.6671 17.333L14.6671 20C14.667 20.3775 14.5386 20.6938 14.2833 20.9492C14.0277 21.2048 13.7109 21.333 13.3331 21.333C12.9554 21.333 12.6384 21.2047 12.3829 20.9492C12.1277 20.6938 12.0002 20.3774 12.0001 20L12.0001 17.333ZM12.0001 9.33301C12.0001 8.95529 12.1274 8.63835 12.3829 8.38281C12.6384 8.12731 12.9554 8.00005 13.3331 8C13.7108 8 14.0277 8.12733 14.2833 8.38281C14.5388 8.63837 14.6671 8.95523 14.6671 9.33301L14.6671 12C14.667 12.3775 14.5386 12.6938 14.2833 12.9492C14.0277 13.2048 13.7109 13.333 13.3331 13.333C12.9554 13.333 12.6384 13.2047 12.3829 12.9492C12.1277 12.6938 12.0002 12.3774 12.0001 12L12.0001 9.33301ZM12.0001 1.33301C12.0001 0.955289 12.1274 0.638347 12.3829 0.382812C12.6384 0.127311 12.9554 5.47468e-05 13.3331 -5.82808e-07C13.7108 -5.99318e-07 14.0277 0.127338 14.2833 0.382812C14.5388 0.638368 14.6671 0.95523 14.6671 1.33301L14.6671 4C14.667 4.37753 14.5386 4.69377 14.2833 4.94922C14.0277 5.20477 13.7109 5.33301 13.3331 5.33301C12.9554 5.33295 12.6384 5.20472 12.3829 4.94922C12.1277 4.69382 12.0002 4.37741 12.0001 4L12.0001 1.33301ZM0.318438 15.8848C-0.106082 15.1229 -0.106212 14.2091 0.318438 13.4473L5.5616 4.04297C6.88967 1.66155 10.6669 2.56401 10.6671 5.26269L10.6671 24.0703C10.6669 26.7691 6.8896 27.6706 5.5616 25.2891L0.318438 15.8848ZM7.95516 24.0703L7.95516 5.26269L2.71102 14.666L7.95516 24.0703Z" fill="currentColor"/>
</svg>
