<svg xmlns="http://www.w3.org/2000/svg" width="30" height="27" viewBox="0 0 30 27" fill="none">
  <path fill-rule="evenodd" clip-rule="evenodd" d="M24.0713 15.9992C26.7698 15.9996 27.6712 19.7756 25.29 21.1037L15.8857 26.3478C15.1239 26.7725 14.2101 26.7725 13.4482 26.3478L4.04395 21.1037C1.66277 19.7756 2.56424 15.9996 5.2627 15.9992H24.0713ZM14.667 23.9553L24.0713 18.7111H5.2627L14.667 23.9553ZM4 11.9992C4.37774 11.9992 4.69465 12.1275 4.9502 12.383C5.20575 12.6385 5.33398 12.9554 5.33398 13.3332C5.33395 13.7109 5.20571 14.0279 4.9502 14.2834C4.69468 14.5388 4.37766 14.6662 4 14.6662H1.33398C0.956324 14.6662 0.639303 14.5388 0.383789 14.2834C0.128272 14.0279 3.7998e-05 13.7109 0 13.3332C0 12.9554 0.128233 12.6385 0.383789 12.383C0.639333 12.1275 0.95624 11.9992 1.33398 11.9992H4ZM12 11.9992C12.3777 11.9992 12.6947 12.1275 12.9502 12.383C13.2058 12.6385 13.334 12.9554 13.334 13.3332C13.3339 13.7109 13.2057 14.0279 12.9502 14.2834C12.6947 14.5388 12.3777 14.6662 12 14.6662H9.33398C8.95632 14.6662 8.6393 14.5388 8.38379 14.2834C8.12827 14.0279 8.00004 13.7109 8 13.3332C8 12.9554 8.12823 12.6385 8.38379 12.383C8.63933 12.1275 8.95624 11.9992 9.33398 11.9992H12ZM20 11.9992C20.3777 11.9992 20.6947 12.1275 20.9502 12.383C21.2058 12.6385 21.334 12.9554 21.334 13.3332C21.3339 13.7109 21.2057 14.0279 20.9502 14.2834C20.6947 14.5388 20.3777 14.6662 20 14.6662H17.334C16.9563 14.6662 16.6393 14.5388 16.3838 14.2834C16.1283 14.0279 16 13.7109 16 13.3332C16 12.9554 16.1282 12.6385 16.3838 12.383C16.6393 12.1275 16.9562 11.9992 17.334 11.9992H20ZM28 11.9992C28.3777 11.9992 28.6947 12.1275 28.9502 12.383C29.2058 12.6385 29.334 12.9554 29.334 13.3332C29.3339 13.7109 29.2057 14.0279 28.9502 14.2834C28.6947 14.5388 28.3777 14.6662 28 14.6662H25.334C24.9563 14.6662 24.6393 14.5388 24.3838 14.2834C24.1283 14.0279 24 13.7109 24 13.3332C24 12.9554 24.1282 12.6385 24.3838 12.383C24.6393 12.1275 24.9562 11.9992 25.334 11.9992H28ZM13.4482 0.318535C14.2102 -0.106178 15.1238 -0.106179 15.8857 0.318535L25.29 5.5617C27.6715 6.8897 26.7698 10.6658 24.0713 10.6662H5.2627C2.56414 10.6658 1.66251 6.8897 4.04395 5.5617L13.4482 0.318535ZM5.2627 7.95428H24.0713L14.667 2.71111L5.2627 7.95428Z" fill="currentColor"/>
</svg>
