<svg xmlns="http://www.w3.org/2000/svg" width="27" height="23" viewBox="0 0 27 23" fill="none">
  <path d="M20.2837 20H25.2837C25.6615 20 25.9781 20.1278 26.2337 20.3833C26.4892 20.6389 26.617 20.9556 26.617 21.3333C26.617 21.7111 26.4892 22.0278 26.2337 22.2833C25.9781 22.5389 25.6615 22.6667 25.2837 22.6667H17.617L20.2837 20ZM4.18369 22.6667C4.00591 22.6667 3.83369 22.6333 3.66702 22.5667C3.50035 22.5 3.35035 22.4 3.21702 22.2667L0.783688 19.8333C0.272577 19.3222 0.0114657 18.6889 0.00035461 17.9333C-0.0107565 17.1778 0.239244 16.5333 0.750355 16L15.417 0.8C15.9281 0.266667 16.5559 0 17.3004 0C18.0448 0 18.6726 0.255556 19.1837 0.766667L25.817 7.4C26.3281 7.91111 26.5837 8.54444 26.5837 9.3C26.5837 10.0556 26.3281 10.6889 25.817 11.2L15.017 22.2667C14.8837 22.4 14.7337 22.5 14.567 22.5667C14.4004 22.6333 14.2281 22.6667 14.0504 22.6667H4.18369ZM13.4837 20L23.9504 9.26667L17.3504 2.66667L2.61702 17.8667L4.75035 20H13.4837Z" fill="#383838"/>
</svg>
