<svg xmlns="http://www.w3.org/2000/svg" width="21" height="20" viewBox="0 0 21 20" fill="none">
  <path d="M16.2667 7.43333H7.86667C6.46667 7.43333 5.25 7.87778 4.21667 8.76667C3.18333 9.65555 2.66667 10.7667 2.66667 12.1C2.66667 13.4333 3.18333 14.5444 4.21667 15.4333C5.25 16.3222 6.46667 16.7667 7.86667 16.7667H16C16.3778 16.7667 16.6944 16.8944 16.95 17.15C17.2056 17.4056 17.3333 17.7222 17.3333 18.1C17.3333 18.4778 17.2056 18.7944 16.95 19.05C16.6944 19.3056 16.3778 19.4333 16 19.4333H7.86667C5.71111 19.4333 3.86111 18.7333 2.31667 17.3333C0.772222 15.9333 0 14.1889 0 12.1C0 10.0111 0.772222 8.26667 2.31667 6.86667C3.86111 5.46667 5.71111 4.76667 7.86667 4.76667H16.2667L13.7333 2.23333C13.4889 1.98889 13.3667 1.67778 13.3667 1.3C13.3667 0.922222 13.4889 0.611111 13.7333 0.366667C13.9778 0.122222 14.2889 0 14.6667 0C15.0444 0 15.3556 0.122222 15.6 0.366667L20.4 5.16667C20.5333 5.3 20.6278 5.44444 20.6833 5.6C20.7389 5.75556 20.7667 5.92222 20.7667 6.1C20.7667 6.27778 20.7389 6.44444 20.6833 6.6C20.6278 6.75556 20.5333 6.9 20.4 7.03333L15.6 11.8333C15.3556 12.0778 15.0444 12.2 14.6667 12.2C14.2889 12.2 13.9778 12.0778 13.7333 11.8333C13.4889 11.5889 13.3667 11.2778 13.3667 10.9C13.3667 10.5222 13.4889 10.2111 13.7333 9.96667L16.2667 7.43333Z" fill="#383838"/>
</svg>
