<svg xmlns="http://www.w3.org/2000/svg" width="21" height="20" viewBox="0 0 21 20" fill="none">
  <path d="M4.76667 19.4333C4.38889 19.4333 4.07222 19.3056 3.81667 19.05C3.56111 18.7944 3.43333 18.4778 3.43333 18.1C3.43333 17.7222 3.56111 17.4056 3.81667 17.15C4.07222 16.8944 4.38889 16.7667 4.76667 16.7667H12.9C14.3 16.7667 15.5167 16.3222 16.55 15.4333C17.5833 14.5444 18.1 13.4333 18.1 12.1C18.1 10.7667 17.5833 9.65555 16.55 8.76667C15.5167 7.87778 14.3 7.43333 12.9 7.43333H4.5L7.03333 9.96667C7.27778 10.2111 7.4 10.5222 7.4 10.9C7.4 11.2778 7.27778 11.5889 7.03333 11.8333C6.78889 12.0778 6.47778 12.2 6.1 12.2C5.72222 12.2 5.41111 12.0778 5.16667 11.8333L0.366667 7.03333C0.233333 6.9 0.138889 6.75556 0.0833333 6.6C0.0277778 6.44444 0 6.27778 0 6.1C0 5.92222 0.0277778 5.75556 0.0833333 5.6C0.138889 5.44444 0.233333 5.3 0.366667 5.16667L5.16667 0.366667C5.41111 0.122222 5.72222 0 6.1 0C6.47778 0 6.78889 0.122222 7.03333 0.366667C7.27778 0.611111 7.4 0.922222 7.4 1.3C7.4 1.67778 7.27778 1.98889 7.03333 2.23333L4.5 4.76667H12.9C15.0556 4.76667 16.9056 5.46667 18.45 6.86667C19.9944 8.26667 20.7667 10.0111 20.7667 12.1C20.7667 14.1889 19.9944 15.9333 18.45 17.3333C16.9056 18.7333 15.0556 19.4333 12.9 19.4333H4.76667Z" fill="#383838"/>
</svg>
