<svg xmlns="http://www.w3.org/2000/svg" width="27" height="27" viewBox="0 0 27 27" fill="none">
  <path d="M13.3333 26.6667C11.4889 26.6667 9.75556 26.3167 8.13333 25.6167C6.51111 24.9167 5.1 23.9667 3.9 22.7667C2.7 21.5667 1.75 20.1556 1.05 18.5333C0.35 16.9111 0 15.1778 0 13.3333C0 11.4889 0.35 9.75556 1.05 8.13333C1.75 6.51111 2.7 5.1 3.9 3.9C5.1 2.7 6.51111 1.75 8.13333 1.05C9.75556 0.35 11.4889 0 13.3333 0C15.1778 0 16.9111 0.35 18.5333 1.05C20.1556 1.75 21.5667 2.7 22.7667 3.9C23.9667 5.1 24.9167 6.51111 25.6167 8.13333C26.3167 9.75556 26.6667 11.4889 26.6667 13.3333C26.6667 15.1778 26.3167 16.9111 25.6167 18.5333C24.9167 20.1556 23.9667 21.5667 22.7667 22.7667C21.5667 23.9667 20.1556 24.9167 18.5333 25.6167C16.9111 26.3167 15.1778 26.6667 13.3333 26.6667ZM13.3333 24C16.3111 24 18.8333 22.9667 20.9 20.9C22.9667 18.8333 24 16.3111 24 13.3333C24 10.3556 22.9667 7.83333 20.9 5.76667C18.8333 3.7 16.3111 2.66667 13.3333 2.66667C10.3556 2.66667 7.83333 3.7 5.76667 5.76667C3.7 7.83333 2.66667 10.3556 2.66667 13.3333C2.66667 16.3111 3.7 18.8333 5.76667 20.9C7.83333 22.9667 10.3556 24 13.3333 24Z" fill="#383838"/>
</svg>
