<svg xmlns="http://www.w3.org/2000/svg" width="18" height="18" viewBox="0 0 18 18" fill="none">
  <path d="M12 18C11.45 18 10.9792 17.8042 10.5875 17.4125C10.1958 17.0208 10 16.55 10 16V2C10 1.45 10.1958 0.979167 10.5875 0.5875C10.9792 0.195833 11.45 0 12 0H16C16.55 0 17.0208 0.195833 17.4125 0.5875C17.8042 0.979167 18 1.45 18 2V16C18 16.55 17.8042 17.0208 17.4125 17.4125C17.0208 17.8042 16.55 18 16 18H12ZM12 2V16H16V2H12ZM2 18C1.45 18 0.979167 17.8042 0.5875 17.4125C0.195833 17.0208 0 16.55 0 16V2C0 1.45 0.195833 0.979167 0.5875 0.5875C0.979167 0.195833 1.45 0 2 0H6C6.55 0 7.02083 0.195833 7.4125 0.5875C7.80417 0.979167 8 1.45 8 2V16C8 16.55 7.80417 17.0208 7.4125 17.4125C7.02083 17.8042 6.55 18 6 18H2ZM2 2V16H6V2H2Z" fill="#383838"/>
</svg>
