<svg xmlns="http://www.w3.org/2000/svg" width="18" height="18" viewBox="0 0 18 18" fill="none">
  <path d="M2 18C1.45 18 0.979167 17.8042 0.5875 17.4125C0.195833 17.0208 0 16.55 0 16V2C0 1.45 0.195833 0.979167 0.5875 0.5875C0.979167 0.195833 1.45 0 2 0H13.175C13.4417 0 13.6958 0.05 13.9375 0.15C14.1792 0.25 14.3917 0.391667 14.575 0.575L17.425 3.425C17.6083 3.60833 17.75 3.82083 17.85 4.0625C17.95 4.30417 18 4.55833 18 4.825V16C18 16.55 17.8042 17.0208 17.4125 17.4125C17.0208 17.8042 16.55 18 16 18H2ZM16 4.85L13.15 2H2V16H16V4.85ZM9 15C9.83333 15 10.5417 14.7083 11.125 14.125C11.7083 13.5417 12 12.8333 12 12C12 11.1667 11.7083 10.4583 11.125 9.875C10.5417 9.29167 9.83333 9 9 9C8.16667 9 7.45833 9.29167 6.875 9.875C6.29167 10.4583 6 11.1667 6 12C6 12.8333 6.29167 13.5417 6.875 14.125C7.45833 14.7083 8.16667 15 9 15ZM4 7H11C11.2833 7 11.5208 6.90417 11.7125 6.7125C11.9042 6.52083 12 6.28333 12 6V4C12 3.71667 11.9042 3.47917 11.7125 3.2875C11.5208 3.09583 11.2833 3 11 3H4C3.71667 3 3.47917 3.09583 3.2875 3.2875C3.09583 3.47917 3 3.71667 3 4V6C3 6.28333 3.09583 6.52083 3.2875 6.7125C3.47917 6.90417 3.71667 7 4 7ZM2 4.85V16V2V4.85Z" fill="currentColor"/>
</svg>
