<svg xmlns="http://www.w3.org/2000/svg" width="17" height="17" viewBox="0 0 17 17" fill="none">
  <path d="M14.1 4.53333L2.23333 16.4C1.98889 16.6444 1.67778 16.7667 1.3 16.7667C0.922222 16.7667 0.611111 16.6444 0.366667 16.4C0.122222 16.1556 0 15.8444 0 15.4667C0 15.0889 0.122222 14.7778 0.366667 14.5333L12.2333 2.66667H2.1C1.72222 2.66667 1.40556 2.53889 1.15 2.28333C0.894444 2.02778 0.766667 1.71111 0.766667 1.33333C0.766667 0.955555 0.894444 0.638889 1.15 0.383333C1.40556 0.127778 1.72222 0 2.1 0H15.4333C15.8111 0 16.1278 0.127778 16.3833 0.383333C16.6389 0.638889 16.7667 0.955555 16.7667 1.33333V14.6667C16.7667 15.0444 16.6389 15.3611 16.3833 15.6167C16.1278 15.8722 15.8111 16 15.4333 16C15.0556 16 14.7389 15.8722 14.4833 15.6167C14.2278 15.3611 14.1 15.0444 14.1 14.6667V4.53333Z" fill="#383838"/>
</svg>
