<svg xmlns="http://www.w3.org/2000/svg" width="32" height="32" viewBox="0 0 32 32" fill="none">
  <path d="M13.3333 27.9998L18.6666 22.6665H26.6666C27.4 22.6665 28.028 22.9274 28.5506 23.4492C29.0724 23.9718 29.3333 24.5998 29.3333 25.3332C29.3333 26.0665 29.0724 26.6945 28.5506 27.2172C28.028 27.7389 27.4 27.9998 26.6666 27.9998H13.3333ZM5.33329 25.3332H7.19996L18.7 13.8332L16.8333 11.9665L5.33329 23.4665V25.3332ZM24.4 11.8998L18.7333 6.29984L20.6 4.43317C21.1111 3.92206 21.7391 3.6665 22.484 3.6665C23.228 3.6665 23.8555 3.92206 24.3666 4.43317L26.2333 6.29984C26.7444 6.81095 27.0111 7.42784 27.0333 8.1505C27.0555 8.87228 26.8111 9.48873 26.3 9.99984L24.4 11.8998ZM3.99996 27.9998C3.62218 27.9998 3.30574 27.8718 3.05063 27.6158C2.79463 27.3607 2.66663 27.0443 2.66663 26.6665V22.8998C2.66663 22.7221 2.69996 22.5501 2.76663 22.3838C2.83329 22.2167 2.93329 22.0665 3.06663 21.9332L16.8 8.19984L22.4666 13.8665L8.73329 27.5998C8.59996 27.7332 8.45018 27.8332 8.28396 27.8998C8.11685 27.9665 7.9444 27.9998 7.76663 27.9998H3.99996ZM17.7666 12.8998L16.8333 11.9665L18.7 13.8332L17.7666 12.8998Z" fill="#383838"/>
</svg>
