<svg xmlns="http://www.w3.org/2000/svg" width="19" height="22" viewBox="0 0 19 22" fill="none">
  <path d="M7.33333 4H2C1.44444 4 0.972222 3.80556 0.583333 3.41667C0.194444 3.02778 0 2.55556 0 2C0 1.44444 0.194444 0.972222 0.583333 0.583333C0.972222 0.194444 1.44444 0 2 0H16.6667C17.2222 0 17.6944 0.194444 18.0833 0.583333C18.4722 0.972222 18.6667 1.44444 18.6667 2C18.6667 2.55556 18.4722 3.02778 18.0833 3.41667C17.6944 3.80556 17.2222 4 16.6667 4H11.3333V19.3333C11.3333 19.8889 11.1389 20.3611 10.75 20.75C10.3611 21.1389 9.88889 21.3333 9.33333 21.3333C8.77778 21.3333 8.30556 21.1389 7.91667 20.75C7.52778 20.3611 7.33333 19.8889 7.33333 19.3333V4Z" fill="#383838"/>
</svg>
