<svg xmlns="http://www.w3.org/2000/svg" width="27" height="27" viewBox="0 0 27 27" fill="none">
  <path d="M22.6667 8C21.5556 8 20.6111 7.61111 19.8333 6.83333C19.0556 6.05556 18.6667 5.11111 18.6667 4C18.6667 2.88889 19.0556 1.94444 19.8333 1.16667C20.6111 0.388889 21.5556 0 22.6667 0C23.7778 0 24.7222 0.388889 25.5 1.16667C26.2778 1.94444 26.6667 2.88889 26.6667 4C26.6667 5.11111 26.2778 6.05556 25.5 6.83333C24.7222 7.61111 23.7778 8 22.6667 8ZM14.4667 26.6667C13.2667 26.6667 12.2556 26.2556 11.4333 25.4333C10.6111 24.6111 10.2 23.6222 10.2 22.4667C10.2 20.7778 10.8833 19.25 12.25 17.8833C13.6167 16.5167 15.3222 15.6667 17.3667 15.3333C17.3 14.5333 17.1 13.9278 16.7667 13.5167C16.4333 13.1056 15.9778 12.9 15.4 12.9C14.7333 12.9 14.0111 13.1778 13.2333 13.7333C12.4556 14.2889 11.5333 15.2 10.4667 16.4667C8.73333 18.5333 7.46111 19.8778 6.65 20.5C5.83889 21.1222 4.96667 21.4333 4.03333 21.4333C2.9 21.4333 1.94444 21.0111 1.16667 20.1667C0.388889 19.3222 0 18.3 0 17.1C0 15.9 0.261111 14.6722 0.783333 13.4167C1.30556 12.1611 2.18889 10.6556 3.43333 8.9C3.85556 8.32222 4.16667 7.83333 4.36667 7.43333C4.56667 7.03333 4.66667 6.71111 4.66667 6.46667C4.66667 6.31111 4.63889 6.19444 4.58333 6.11667C4.52778 6.03889 4.44444 6 4.33333 6C4.22222 6 4.08889 6.03333 3.93333 6.1C3.77778 6.16667 3.61111 6.28889 3.43333 6.46667C3.1 6.77778 2.71667 6.94444 2.28333 6.96667C1.85 6.98889 1.47778 6.84444 1.16667 6.53333C0.833333 6.17778 0.661111 5.76111 0.65 5.28333C0.638889 4.80556 0.811111 4.41111 1.16667 4.1C1.7 3.63333 2.23333 3.27778 2.76667 3.03333C3.3 2.78889 3.82222 2.66667 4.33333 2.66667C5.35556 2.66667 6.22222 3.02222 6.93333 3.73333C7.64444 4.44444 8 5.33333 8 6.4C8 7.04444 7.83333 7.75556 7.5 8.53333C7.16667 9.31111 6.61111 10.2444 5.83333 11.3333C4.98889 12.5333 4.36111 13.5889 3.95 14.5C3.53889 15.4111 3.33333 16.2111 3.33333 16.9C3.33333 17.2778 3.39444 17.5722 3.51667 17.7833C3.63889 17.9944 3.81111 18.1 4.03333 18.1C4.25556 18.1 4.45 18.0389 4.61667 17.9167C4.78333 17.7944 5.08889 17.5 5.53333 17.0333C5.82222 16.7222 6.16667 16.3389 6.56667 15.8833C6.96667 15.4278 7.45556 14.8667 8.03333 14.2C9.43333 12.5333 10.7 11.3444 11.8333 10.6333C12.9667 9.92222 14.1556 9.56667 15.4 9.56667C16.8889 9.56667 18.1111 10.0667 19.0667 11.0667C20.0222 12.0667 20.5667 13.4333 20.7 15.1667H22.3333C22.8 15.1667 23.1944 15.3278 23.5167 15.65C23.8389 15.9722 24 16.3667 24 16.8333C24 17.3 23.8389 17.6944 23.5167 18.0167C23.1944 18.3389 22.8 18.5 22.3333 18.5H20.7C20.5222 20.9889 19.8722 22.9722 18.75 24.45C17.6278 25.9278 16.2 26.6667 14.4667 26.6667ZM14.5333 23.3333C15.2444 23.3333 15.8444 22.9278 16.3333 22.1167C16.8222 21.3056 17.1556 20.1778 17.3333 18.7333C16.3111 18.9778 15.4222 19.4611 14.6667 20.1833C13.9111 20.9056 13.5333 21.6222 13.5333 22.3333C13.5333 22.6444 13.6222 22.8889 13.8 23.0667C13.9778 23.2444 14.2222 23.3333 14.5333 23.3333Z" fill="currentColor"/>
</svg>
