<svg xmlns="http://www.w3.org/2000/svg" width="27" height="27" viewBox="0 0 27 27" fill="none">
  <path d="M13.3333 26.6667C10.4889 26.6667 7.92778 25.8556 5.65 24.2333C3.37222 22.6111 1.75556 20.4889 0.8 17.8667C0.688889 17.5333 0.722222 17.2222 0.9 16.9333C1.07778 16.6444 1.34444 16.4444 1.7 16.3333C2.05556 16.2222 2.39444 16.2611 2.71667 16.45C3.03889 16.6389 3.26667 16.9 3.4 17.2333C4.2 19.2556 5.5 20.8889 7.3 22.1333C9.1 23.3778 11.1111 24 13.3333 24C15.2444 24 17.0222 23.5278 18.6667 22.5833C20.3111 21.6389 21.6 20.3333 22.5333 18.6667H20C19.6222 18.6667 19.3056 18.5389 19.05 18.2833C18.7944 18.0278 18.6667 17.7111 18.6667 17.3333C18.6667 16.9556 18.7944 16.6389 19.05 16.3833C19.3056 16.1278 19.6222 16 20 16H25.3333C25.7111 16 26.0278 16.1278 26.2833 16.3833C26.5389 16.6389 26.6667 16.9556 26.6667 17.3333V22.6667C26.6667 23.0444 26.5389 23.3611 26.2833 23.6167C26.0278 23.8722 25.7111 24 25.3333 24C24.9556 24 24.6389 23.8722 24.3833 23.6167C24.1278 23.3611 24 23.0444 24 22.6667V21.3333C22.7333 23.0222 21.1667 24.3333 19.3 25.2667C17.4333 26.2 15.4444 26.6667 13.3333 26.6667ZM13.3333 2.66667C11.4222 2.66667 9.64444 3.13889 8 4.08333C6.35556 5.02778 5.06667 6.33333 4.13333 8H6.66667C7.04444 8 7.36111 8.12778 7.61667 8.38333C7.87222 8.63889 8 8.95556 8 9.33333C8 9.71111 7.87222 10.0278 7.61667 10.2833C7.36111 10.5389 7.04444 10.6667 6.66667 10.6667H1.33333C0.955556 10.6667 0.638889 10.5389 0.383333 10.2833C0.127778 10.0278 0 9.71111 0 9.33333V4C0 3.62222 0.127778 3.30556 0.383333 3.05C0.638889 2.79444 0.955556 2.66667 1.33333 2.66667C1.71111 2.66667 2.02778 2.79444 2.28333 3.05C2.53889 3.30556 2.66667 3.62222 2.66667 4V5.33333C3.93333 3.64444 5.5 2.33333 7.36667 1.4C9.23333 0.466667 11.2222 0 13.3333 0C16.1778 0 18.7389 0.811111 21.0167 2.43333C23.2944 4.05556 24.9111 6.17778 25.8667 8.8C25.9778 9.13333 25.9444 9.44444 25.7667 9.73333C25.5889 10.0222 25.3222 10.2222 24.9667 10.3333C24.6111 10.4444 24.2722 10.4056 23.95 10.2167C23.6278 10.0278 23.4 9.76667 23.2667 9.43333C22.4667 7.41111 21.1667 5.77778 19.3667 4.53333C17.5667 3.28889 15.5556 2.66667 13.3333 2.66667ZM13.3333 17.3333C12.2222 17.3333 11.2778 16.9444 10.5 16.1667C9.72222 15.3889 9.33333 14.4444 9.33333 13.3333C9.33333 12.2222 9.72222 11.2778 10.5 10.5C11.2778 9.72222 12.2222 9.33333 13.3333 9.33333C14.4444 9.33333 15.3889 9.72222 16.1667 10.5C16.9444 11.2778 17.3333 12.2222 17.3333 13.3333C17.3333 14.4444 16.9444 15.3889 16.1667 16.1667C15.3889 16.9444 14.4444 17.3333 13.3333 17.3333Z" fill="currentColor"/>
</svg>
