<svg xmlns="http://www.w3.org/2000/svg" width="32" height="32" viewBox="0 0 32 32" fill="none">
  <path d="M19.6282 25.3958L11.9381 25.4094C11.4502 25.4088 11.0027 25.2889 10.5957 25.0497C10.1875 24.8101 9.86115 24.4787 9.61671 24.0553L5.80004 17.4446C5.5556 17.0212 5.43171 16.5729 5.42839 16.0996C5.42475 15.6275 5.54464 15.1801 5.78807 14.7572L9.64491 8.10415C9.88834 7.68134 10.2121 7.35327 10.6163 7.11994C11.0204 6.88661 11.4664 6.77023 11.9543 6.77082L19.6445 6.75725C20.1324 6.75783 20.5802 6.8775 20.988 7.11626C21.3954 7.35623 21.7214 7.68792 21.9658 8.11131L25.7825 14.722C26.027 15.1454 26.1512 15.5935 26.1553 16.0663C26.1582 16.5389 26.0379 16.9866 25.7945 17.4094L21.9376 24.0625C21.6942 24.4853 21.3704 24.8133 20.9663 25.0467C20.5621 25.28 20.1161 25.3964 19.6282 25.3958ZM18.0949 22.74L15.0282 17.4284L8.87611 17.4392L11.9428 22.7508L18.0949 22.74ZM20.4043 21.4066L23.4898 16.0842L20.4231 10.7725L17.3376 16.095L20.4043 21.4066ZM15.0163 14.741L18.1017 9.41849L11.9496 9.42934L8.86414 14.7518L15.0163 14.741Z" fill="#383838"/>
  <path d="M15.7912 31.9998C11.8801 31.9998 8.45236 30.772 5.50791 28.3165C2.56347 25.8609 0.73569 22.7665 0.0245789 19.0332C-0.0420878 18.6554 0.0301343 18.3109 0.241245 17.9998C0.452357 17.6887 0.746801 17.5109 1.12458 17.4665C1.50236 17.422 1.83569 17.5165 2.12458 17.7498C2.41347 17.9832 2.59125 18.2887 2.65791 18.6665C3.23569 21.5776 4.61902 24.0109 6.80791 25.9665C8.9968 27.922 11.5912 29.022 14.5912 29.2665L14.4007 29.076C14.1563 28.8315 14.0341 28.5204 14.0341 28.1426C14.0341 27.7649 14.1563 27.4537 14.4007 27.2093C14.6452 26.9649 14.9563 26.8426 15.3341 26.8426C15.7118 26.8426 16.0229 26.9649 16.2674 27.2093L19.7246 30.6665C19.8801 30.822 19.9301 30.9998 19.8746 31.1998C19.819 31.3998 19.6912 31.522 19.4912 31.5665C18.8912 31.722 18.2857 31.8332 17.6746 31.8998C17.0635 31.9665 16.4357 31.9998 15.7912 31.9998ZM15.7912 -0.000175185C19.7024 -0.00017519 23.1301 1.22205 26.0746 3.66649C29.019 6.11094 30.8468 9.21093 31.5579 12.9665C31.6246 13.3443 31.5524 13.6887 31.3412 13.9998C31.1301 14.3109 30.8357 14.4887 30.4579 14.5332C30.0801 14.5776 29.7468 14.4832 29.4579 14.2498C29.169 14.0165 28.9912 13.7109 28.9246 13.3332C28.3468 10.422 26.9635 7.98871 24.7746 6.03316C22.5857 4.0776 19.9912 2.9776 16.9912 2.73316L17.1818 2.92368C17.4262 3.16813 17.5484 3.47924 17.5484 3.85702C17.5484 4.23479 17.4262 4.5459 17.1818 4.79035C16.9373 5.03479 16.6262 5.15702 16.2484 5.15702C15.8707 5.15702 15.5595 5.03479 15.3151 4.79035L11.8579 1.33316C11.7024 1.1776 11.6524 0.999824 11.7079 0.799824C11.7635 0.599824 11.8912 0.477602 12.0912 0.433158C12.6912 0.277602 13.2968 0.166492 13.9079 0.0998249C14.519 0.0331582 15.1468 -0.000175178 15.7912 -0.000175185Z" fill="#383838"/>
</svg>
