<svg xmlns="http://www.w3.org/2000/svg" width="16" height="17" viewBox="0 0 16 17" fill="currentColor">
  <path d="M6.95417 16.6667C6.57917 16.6667 6.25625 16.5417 5.98542 16.2917C5.71458 16.0417 5.55139 15.7361 5.49583 15.375L5.30833 14C5.12778 13.9306 4.95764 13.8472 4.79792 13.75C4.63819 13.6528 4.48194 13.5486 4.32917 13.4375L3.0375 13.9792C2.69028 14.1319 2.34306 14.1458 1.99583 14.0208C1.64861 13.8958 1.37778 13.6736 1.18333 13.3542L0.204167 11.6458C0.00972223 11.3264 -0.0458333 10.9861 0.0375 10.625C0.120833 10.2639 0.308333 9.96528 0.6 9.72917L1.70417 8.89583C1.69028 8.79861 1.68333 8.70486 1.68333 8.61458V8.05208C1.68333 7.9618 1.69028 7.86805 1.70417 7.77083L0.6 6.9375C0.308333 6.70139 0.120833 6.40278 0.0375 6.04167C-0.0458333 5.68056 0.00972223 5.34028 0.204167 5.02083L1.18333 3.3125C1.37778 2.99306 1.64861 2.77083 1.99583 2.64583C2.34306 2.52083 2.69028 2.53472 3.0375 2.6875L4.32917 3.22917C4.48194 3.11806 4.64167 3.01389 4.80833 2.91667C4.975 2.81944 5.14167 2.73611 5.30833 2.66667L5.49583 1.29167C5.55139 0.930555 5.71458 0.625 5.98542 0.375C6.25625 0.125 6.57917 0 6.95417 0H8.9125C9.2875 0 9.61042 0.125 9.88125 0.375C10.1521 0.625 10.3153 0.930555 10.3708 1.29167L10.5583 2.66667C10.7389 2.73611 10.909 2.81944 11.0687 2.91667C11.2285 3.01389 11.3847 3.11806 11.5375 3.22917L12.8292 2.6875C13.1764 2.53472 13.5236 2.52083 13.8708 2.64583C14.2181 2.77083 14.4889 2.99306 14.6833 3.3125L15.6625 5.02083C15.8569 5.34028 15.9125 5.68056 15.8292 6.04167C15.7458 6.40278 15.5583 6.70139 15.2667 6.9375L14.1625 7.77083C14.1764 7.86805 14.1833 7.9618 14.1833 8.05208V8.61458C14.1833 8.70486 14.1694 8.79861 14.1417 8.89583L15.2458 9.72917C15.5375 9.96528 15.725 10.2639 15.8083 10.625C15.8917 10.9861 15.8361 11.3264 15.6417 11.6458L14.6417 13.3542C14.4472 13.6736 14.1764 13.8958 13.8292 14.0208C13.4819 14.1458 13.1347 14.1319 12.7875 13.9792L11.5375 13.4375C11.3847 13.5486 11.225 13.6528 11.0583 13.75C10.8917 13.8472 10.725 13.9306 10.5583 14L10.3708 15.375C10.3153 15.7361 10.1521 16.0417 9.88125 16.2917C9.61042 16.5417 9.2875 16.6667 8.9125 16.6667H6.95417ZM7.1 15H8.74583L9.0375 12.7917C9.46805 12.6806 9.86736 12.5174 10.2354 12.3021C10.6035 12.0868 10.9403 11.8264 11.2458 11.5208L13.3083 12.375L14.1208 10.9583L12.3292 9.60417C12.3986 9.40972 12.4472 9.20486 12.475 8.98958C12.5028 8.77431 12.5167 8.55556 12.5167 8.33333C12.5167 8.11111 12.5028 7.89236 12.475 7.67708C12.4472 7.46181 12.3986 7.25694 12.3292 7.0625L14.1208 5.70833L13.3083 4.29167L11.2458 5.16667C10.9403 4.84722 10.6035 4.57986 10.2354 4.36458C9.86736 4.14931 9.46805 3.98611 9.0375 3.875L8.76667 1.66667H7.12083L6.82917 3.875C6.39861 3.98611 5.9993 4.14931 5.63125 4.36458C5.26319 4.57986 4.92639 4.84028 4.62083 5.14583L2.55833 4.29167L1.74583 5.70833L3.5375 7.04167C3.46806 7.25 3.41944 7.45833 3.39167 7.66667C3.36389 7.875 3.35 8.09722 3.35 8.33333C3.35 8.55556 3.36389 8.77083 3.39167 8.97917C3.41944 9.1875 3.46806 9.39583 3.5375 9.60417L1.74583 10.9583L2.55833 12.375L4.62083 11.5C4.92639 11.8194 5.26319 12.0868 5.63125 12.3021C5.9993 12.5174 6.39861 12.6806 6.82917 12.7917L7.1 15ZM7.975 11.25C8.78055 11.25 9.46805 10.9653 10.0375 10.3958C10.6069 9.82639 10.8917 9.13889 10.8917 8.33333C10.8917 7.52778 10.6069 6.84028 10.0375 6.27083C9.46805 5.70139 8.78055 5.41667 7.975 5.41667C7.15555 5.41667 6.46458 5.70139 5.90208 6.27083C5.33958 6.84028 5.05833 7.52778 5.05833 8.33333C5.05833 9.13889 5.33958 9.82639 5.90208 10.3958C6.46458 10.9653 7.15555 11.25 7.975 11.25Z" fill="currentColor"/>
</svg>
