<svg xmlns="http://www.w3.org/2000/svg" width="15" height="14" viewBox="0 0 15 14" fill="none">
  <path d="M5.16211 0C6.49878 0 7.73751 0.253424 8.66309 0.688477C9.55431 1.10747 10.3242 1.78645 10.3242 2.69629C10.3242 2.72416 10.3237 2.75186 10.3223 2.7793H10.3242V4.86621C11.2741 4.9368 12.1409 5.14067 12.8232 5.4502C13.6458 5.82339 14.3562 6.42791 14.3564 7.23828V11.0986C14.3562 11.909 13.6458 12.5135 12.8232 12.8867C11.9689 13.2743 10.8256 13.5 9.5918 13.5C8.35798 13.5 7.2147 13.2743 6.36035 12.8867C5.84137 12.6513 5.36743 12.3233 5.08789 11.9102C3.77968 11.9009 2.56953 11.6496 1.66113 11.2227C0.770102 10.8037 0.000109464 10.1254 0 9.21582V2.69629C0 1.78651 0.769981 1.10748 1.66113 0.688477C2.58669 0.253436 3.82548 1.36152e-05 5.16211 0ZM13.2979 10.709C13.1467 10.8023 12.9883 10.89 12.8232 10.9648C11.9689 11.3524 10.8256 11.5781 9.5918 11.5781C8.35798 11.5781 7.2147 11.3524 6.36035 10.9648C6.19531 10.89 6.03693 10.8023 5.88574 10.709V11.0986C5.88602 11.3493 6.12426 11.7053 6.83398 12.0273C7.51245 12.3351 8.48673 12.539 9.5918 12.5391C10.6968 12.5391 11.6711 12.3351 12.3496 12.0273C13.0594 11.7053 13.2976 11.3493 13.2979 11.0986C13.2979 11.0703 13.2979 10.9172 13.2979 10.709ZM1.14746 9.21582C1.14756 9.49717 1.4056 9.8972 2.1748 10.2588C2.84042 10.5716 3.76884 10.7869 4.82715 10.8252V9.71582C3.61947 9.67719 2.50883 9.43361 1.66113 9.03516C1.4834 8.95158 1.31039 8.8579 1.14746 8.75391V9.21582ZM13.2979 8.77148C13.1467 8.86473 12.9882 8.95249 12.8232 9.02734C11.9689 9.41488 10.8256 9.64062 9.5918 9.64062C8.35799 9.64061 7.21471 9.41491 6.36035 9.02734C6.19532 8.95247 6.03693 8.86476 5.88574 8.77148V9.17676C5.8858 9.42738 6.12403 9.78333 6.83398 10.1055C7.51245 10.4132 8.48673 10.6182 9.5918 10.6182C10.6969 10.6182 11.6711 10.4132 12.3496 10.1055C13.0597 9.78331 13.2978 9.42739 13.2979 9.17676C13.2979 9.14769 13.2979 8.98785 13.2979 8.77148ZM9.5918 5.79785C8.48674 5.79787 7.51246 6.0018 6.83398 6.30957C6.12424 6.63157 5.88602 6.98767 5.88574 7.23828C5.88574 7.48892 6.12381 7.84578 6.83398 8.16797C7.51246 8.47573 8.48675 8.67967 9.5918 8.67969C10.6968 8.67969 11.6711 8.4757 12.3496 8.16797C13.0598 7.84578 13.2979 7.48892 13.2979 7.23828C13.2976 6.98767 13.0594 6.63158 12.3496 6.30957C11.6711 6.00183 10.6968 5.79785 9.5918 5.79785ZM1.14746 7.02832C1.14754 7.30967 1.40557 7.70968 2.1748 8.07129C2.84042 8.38408 3.76883 8.59937 4.82715 8.6377V7.55859C3.61948 7.51996 2.50883 7.27736 1.66113 6.87891C1.48328 6.79529 1.31049 6.70074 1.14746 6.59668V7.02832ZM1.14746 4.87109C1.14748 5.15245 1.40548 5.55241 2.1748 5.91406C2.88673 6.24864 3.89912 6.47246 5.0498 6.48633C5.32289 6.04508 5.81676 5.69683 6.36035 5.4502C6.53508 5.37093 6.72273 5.30055 6.91992 5.23535C6.36839 5.33533 5.77585 5.3916 5.16211 5.3916C3.82548 5.39159 2.58669 5.13817 1.66113 4.70312C1.48341 4.61956 1.31039 4.52586 1.14746 4.42188V4.87109ZM9.17676 4.42188C9.01382 4.52585 8.84082 4.61956 8.66309 4.70312C8.44595 4.80518 8.21071 4.8954 7.96191 4.97656C8.34768 4.90873 8.75521 4.86323 9.17676 4.8457V4.42188ZM5.16211 1.07812C3.96503 1.07814 2.90982 1.30788 2.1748 1.65332C1.40545 2.01498 1.14746 2.41495 1.14746 2.69629C1.14769 2.97761 1.40578 3.37678 2.1748 3.73828C2.90982 4.08375 3.96498 4.31346 5.16211 4.31348C6.35919 4.31348 7.41438 4.08371 8.14941 3.73828C8.91844 3.37678 9.17653 2.97761 9.17676 2.69629C9.17676 2.41495 8.91877 2.01498 8.14941 1.65332C7.41438 1.30791 6.35914 1.07812 5.16211 1.07812Z" fill="#757575"/>
</svg>
