<svg xmlns="http://www.w3.org/2000/svg" width="10" height="11" viewBox="0 0 10 11" fill="none">
  <path d="M1.75 10.5C1.42917 10.5 1.15451 10.3858 0.926042 10.1573C0.697569 9.92882 0.583333 9.65417 0.583333 9.33333V1.75C0.418056 1.75 0.279514 1.6941 0.167708 1.58229C0.0559028 1.47049 0 1.33194 0 1.16667C0 1.00139 0.0559028 0.862847 0.167708 0.751042C0.279514 0.639236 0.418056 0.583333 0.583333 0.583333H2.91667C2.91667 0.418056 2.97257 0.279514 3.08437 0.167708C3.19618 0.0559028 3.33472 0 3.5 0H5.83333C5.99861 0 6.13715 0.0559028 6.24896 0.167708C6.36076 0.279514 6.41667 0.418056 6.41667 0.583333H8.75C8.91528 0.583333 9.05382 0.639236 9.16562 0.751042C9.27743 0.862847 9.33333 1.00139 9.33333 1.16667C9.33333 1.33194 9.27743 1.47049 9.16562 1.58229C9.05382 1.6941 8.91528 1.75 8.75 1.75V9.33333C8.75 9.65417 8.63576 9.92882 8.40729 10.1573C8.17882 10.3858 7.90417 10.5 7.58333 10.5H1.75ZM7.58333 1.75H1.75V9.33333H7.58333V1.75ZM3.5 8.16667C3.66528 8.16667 3.80382 8.11076 3.91562 7.99896C4.02743 7.88715 4.08333 7.74861 4.08333 7.58333V3.5C4.08333 3.33472 4.02743 3.19618 3.91562 3.08438C3.80382 2.97257 3.66528 2.91667 3.5 2.91667C3.33472 2.91667 3.19618 2.97257 3.08437 3.08438C2.97257 3.19618 2.91667 3.33472 2.91667 3.5V7.58333C2.91667 7.74861 2.97257 7.88715 3.08437 7.99896C3.19618 8.11076 3.33472 8.16667 3.5 8.16667ZM5.83333 8.16667C5.99861 8.16667 6.13715 8.11076 6.24896 7.99896C6.36076 7.88715 6.41667 7.74861 6.41667 7.58333V3.5C6.41667 3.33472 6.36076 3.19618 6.24896 3.08438C6.13715 2.97257 5.99861 2.91667 5.83333 2.91667C5.66806 2.91667 5.52951 2.97257 5.41771 3.08438C5.3059 3.19618 5.25 3.33472 5.25 3.5V7.58333C5.25 7.74861 5.3059 7.88715 5.41771 7.99896C5.52951 8.11076 5.66806 8.16667 5.83333 8.16667Z" fill="currentColor"/>
</svg>
