<svg width="20" height="20" viewBox="0 0 20 20" fill="none" xmlns="http://www.w3.org/2000/svg">
<path d="M7.75928 2.5C9.24425 2.5 10.6206 2.78139 11.6489 3.26465C12.6391 3.73013 13.4944 4.48431 13.4946 5.49512C13.4946 5.52616 13.4943 5.55733 13.4927 5.58789H13.4946V7.90625C14.5503 7.98464 15.5136 8.21168 16.272 8.55566C17.1861 8.97039 17.976 9.64233 17.9761 10.543V14.8311C17.976 15.7317 17.1861 16.4036 16.272 16.8184C15.3227 17.249 14.0521 17.5 12.6812 17.5C11.3104 17.4999 10.0405 17.2489 9.09131 16.8184C8.51443 16.5566 7.98685 16.1927 7.67627 15.7334C6.22302 15.7231 4.87876 15.4441 3.86963 14.9697C2.87952 14.5042 2.02396 13.7501 2.02393 12.7393V5.49512C2.02414 4.48439 2.87951 3.73014 3.86963 3.26465C4.89796 2.7813 6.27425 2.50005 7.75928 2.5ZM16.7993 14.4033C16.6319 14.5065 16.4547 14.6007 16.272 14.6836C15.3227 15.1142 14.052 15.3652 12.6812 15.3652C11.3105 15.3652 10.0405 15.1141 9.09131 14.6836C8.90865 14.6007 8.73138 14.5065 8.56396 14.4033V14.8311C8.56398 15.1096 8.82862 15.5053 9.61768 15.8633C10.3715 16.2052 11.4535 16.4326 12.6812 16.4326C13.909 16.4326 14.9917 16.2052 15.7456 15.8633C16.5347 15.5053 16.7993 15.1095 16.7993 14.8311C16.7993 14.799 16.7993 14.6317 16.7993 14.4033ZM3.29834 12.7393C3.29836 13.0519 3.58519 13.4966 4.43994 13.8984C5.1795 14.246 6.21121 14.4847 7.38721 14.5273V13.2959C6.04541 13.253 4.81148 12.9827 3.86963 12.54C3.67198 12.4471 3.47951 12.3422 3.29834 12.2266V12.7393ZM16.7993 12.25C16.6319 12.3532 16.4547 12.4474 16.272 12.5303C15.3227 12.9609 14.052 13.2119 12.6812 13.2119C11.3105 13.2119 10.0405 12.9608 9.09131 12.5303C8.90865 12.4474 8.73138 12.3532 8.56396 12.25V12.6963C8.56398 12.9748 8.82862 13.3705 9.61768 13.7285C10.3715 14.0704 11.4536 14.2978 12.6812 14.2979C13.9089 14.2978 14.9917 14.0704 15.7456 13.7285C16.5347 13.3705 16.7993 12.9748 16.7993 12.6963C16.7993 12.6641 16.7993 12.4883 16.7993 12.25ZM12.6812 8.94141C11.4536 8.94146 10.3715 9.16888 9.61768 9.51074C8.82864 9.86871 8.564 10.2645 8.56396 10.543C8.56396 10.8215 8.82859 11.2172 9.61768 11.5752C10.3715 11.9171 11.4536 12.1445 12.6812 12.1445C13.9089 12.1445 14.9917 11.9171 15.7456 11.5752C16.5347 11.2172 16.7993 10.8215 16.7993 10.543C16.7993 10.2645 16.5346 9.86871 15.7456 9.51074C14.9917 9.16882 13.9089 8.94141 12.6812 8.94141ZM3.29834 10.3096C3.29861 10.6221 3.58561 11.0661 4.43994 11.4678C5.1795 11.8154 6.21121 12.0541 7.38721 12.0967V10.8994C6.04541 10.8565 4.81148 10.5853 3.86963 10.1426C3.6721 10.0497 3.47941 9.94566 3.29834 9.83008V10.3096ZM3.29834 7.91211C3.29836 8.22471 3.58521 8.66947 4.43994 9.07129C5.23108 9.44314 6.35642 9.6907 7.63525 9.70605C7.93882 9.21618 8.48765 8.82953 9.09131 8.55566C9.28441 8.46808 9.49168 8.39049 9.70947 8.31836C9.09761 8.42905 8.43997 8.49121 7.75928 8.49121C6.27425 8.49116 4.89796 8.20893 3.86963 7.72559C3.67209 7.6327 3.47942 7.52867 3.29834 7.41309V7.91211ZM12.2202 7.41309C12.0391 7.52867 11.8465 7.6327 11.6489 7.72559C11.4085 7.83856 11.1488 7.93936 10.8735 8.0293C11.3012 7.95423 11.753 7.90322 12.2202 7.88379V7.41309ZM7.75928 3.69824C6.42923 3.69829 5.25657 3.95308 4.43994 4.33691C3.58556 4.73858 3.29857 5.18256 3.29834 5.49512C3.29834 5.80771 3.58515 6.25246 4.43994 6.6543C5.25657 7.03813 6.42923 7.29292 7.75928 7.29297C9.08949 7.29297 10.2629 7.03817 11.0796 6.6543C11.9343 6.25247 12.2202 5.80769 12.2202 5.49512C12.22 5.18257 11.9339 4.73857 11.0796 4.33691C10.2629 3.95305 9.08949 3.69824 7.75928 3.69824Z" fill="currentColor"/>
</svg>
