<svg width="24" height="24" viewBox="0 0 24 24" fill="none" xmlns="http://www.w3.org/2000/svg">
<path d="M12 21.9C11.8833 21.9 11.775 21.8917 11.675 21.875C11.575 21.8583 11.475 21.8333 11.375 21.8C9.125 21.05 7.33333 19.6625 6 17.6375C4.66667 15.6125 4 13.4333 4 11.1V6.37499C4 5.95833 4.12083 5.58333 4.3625 5.24999C4.60417 4.91666 4.91667 4.67499 5.3 4.52499L11.3 2.27499C11.5333 2.19166 11.7667 2.14999 12 2.14999C12.2333 2.14999 12.4667 2.19166 12.7 2.27499L18.7 4.52499C19.0833 4.67499 19.3958 4.91666 19.6375 5.24999C19.8792 5.58333 20 5.95833 20 6.37499V11.1C20 12.35 19.8042 13.5708 19.4125 14.7625C19.0208 15.9542 18.4583 17.0333 17.725 18C17.5917 18.1833 17.4125 18.2792 17.1875 18.2875C16.9625 18.2958 16.7667 18.2167 16.6 18.05L14 15.45C13.7 15.6333 13.3792 15.7708 13.0375 15.8625C12.6958 15.9542 12.35 16 12 16C10.9 16 9.95833 15.6083 9.175 14.825C8.39167 14.0417 8 13.1 8 12C8 10.9 8.39167 9.95833 9.175 9.17499C9.95833 8.39166 10.9 7.99999 12 7.99999C13.1 7.99999 14.0417 8.39166 14.825 9.17499C15.6083 9.95833 16 10.9 16 12C16 12.3667 15.9542 12.7208 15.8625 13.0625C15.7708 13.4042 15.6333 13.7333 15.45 14.05L16.95 15.55C17.2833 14.8667 17.5417 14.15 17.725 13.4C17.9083 12.65 18 11.8833 18 11.1V6.37499L12 4.12499L6 6.37499V11.1C6 13.1167 6.56667 14.95 7.7 16.6C8.83333 18.25 10.2667 19.35 12 19.9C12.2667 19.8167 12.5292 19.7167 12.7875 19.6C13.0458 19.4833 13.3 19.35 13.55 19.2C13.7833 19.0667 14.0375 19.0167 14.3125 19.05C14.5875 19.0833 14.8083 19.2167 14.975 19.45C15.1417 19.6833 15.1958 19.9333 15.1375 20.2C15.0792 20.4667 14.9333 20.675 14.7 20.825C14.3667 21.025 14.0333 21.2042 13.7 21.3625C13.3667 21.5208 13.0083 21.6667 12.625 21.8C12.525 21.8333 12.425 21.8583 12.325 21.875C12.225 21.8917 12.1167 21.9 12 21.9ZM12 14C12.55 14 13.0208 13.8042 13.4125 13.4125C13.8042 13.0208 14 12.55 14 12C14 11.45 13.8042 10.9792 13.4125 10.5875C13.0208 10.1958 12.55 9.99999 12 9.99999C11.45 9.99999 10.9792 10.1958 10.5875 10.5875C10.1958 10.9792 10 11.45 10 12C10 12.55 10.1958 13.0208 10.5875 13.4125C10.9792 13.8042 11.45 14 12 14Z" fill="currentColor"/>
</svg>
