<svg width="24" height="24" viewBox="0 0 24 24" fill="none" xmlns="http://www.w3.org/2000/svg">
<path d="M5 22C4.16667 22 3.45833 21.7083 2.875 21.125C2.29167 20.5417 2 19.8333 2 19C2 18.35 2.18733 17.7707 2.562 17.262C2.93733 16.754 3.41667 16.3917 4 16.175V7.825C3.41667 7.60833 2.93733 7.24567 2.562 6.737C2.18733 6.229 2 5.65 2 5C2 4.16667 2.29167 3.45833 2.875 2.875C3.45833 2.29167 4.16667 2 5 2C5.65 2 6.22933 2.18733 6.738 2.562C7.246 2.93733 7.60833 3.41667 7.825 4H16.175C16.375 3.41667 16.7293 2.93733 17.238 2.562C17.746 2.18733 18.3333 2 19 2C19.8333 2 20.5417 2.29167 21.125 2.875C21.7083 3.45833 22 4.16667 22 5C22 5.66667 21.8127 6.254 21.438 6.762C21.0627 7.27067 20.5833 7.625 20 7.825V16.175C20.5833 16.3917 21.0627 16.754 21.438 17.262C21.8127 17.7707 22 18.35 22 19C22 19.8333 21.7083 20.5417 21.125 21.125C20.5417 21.7083 19.8333 22 19 22C18.35 22 17.771 21.8127 17.263 21.438C16.7543 21.0627 16.3917 20.5833 16.175 20H7.825C7.60833 20.5833 7.246 21.0627 6.738 21.438C6.22933 21.8127 5.65 22 5 22ZM5 6C5.28333 6 5.521 5.90433 5.713 5.713C5.90433 5.521 6 5.28333 6 5C6 4.71667 5.90433 4.479 5.713 4.287C5.521 4.09567 5.28333 4 5 4C4.71667 4 4.479 4.09567 4.287 4.287C4.09567 4.479 4 4.71667 4 5C4 5.28333 4.09567 5.521 4.287 5.713C4.479 5.90433 4.71667 6 5 6ZM19 6C19.2833 6 19.5207 5.90433 19.712 5.713C19.904 5.521 20 5.28333 20 5C20 4.71667 19.904 4.479 19.712 4.287C19.5207 4.09567 19.2833 4 19 4C18.7167 4 18.4793 4.09567 18.288 4.287C18.096 4.479 18 4.71667 18 5C18 5.28333 18.096 5.521 18.288 5.713C18.4793 5.90433 18.7167 6 19 6ZM7.825 18H16.175C16.325 17.5667 16.5583 17.1917 16.875 16.875C17.1917 16.5583 17.5667 16.325 18 16.175V7.825C17.5667 7.675 17.1917 7.44167 16.875 7.125C16.5583 6.80833 16.325 6.43333 16.175 6H7.825C7.675 6.43333 7.44167 6.80833 7.125 7.125C6.80833 7.44167 6.43333 7.675 6 7.825V16.175C6.43333 16.325 6.80833 16.5583 7.125 16.875C7.44167 17.1917 7.675 17.5667 7.825 18ZM19 20C19.2833 20 19.5207 19.904 19.712 19.712C19.904 19.5207 20 19.2833 20 19C20 18.7167 19.904 18.4793 19.712 18.288C19.5207 18.096 19.2833 18 19 18C18.7167 18 18.4793 18.096 18.288 18.288C18.096 18.4793 18 18.7167 18 19C18 19.2833 18.096 19.5207 18.288 19.712C18.4793 19.904 18.7167 20 19 20ZM5 20C5.28333 20 5.521 19.904 5.713 19.712C5.90433 19.5207 6 19.2833 6 19C6 18.7167 5.90433 18.4793 5.713 18.288C5.521 18.096 5.28333 18 5 18C4.71667 18 4.479 18.096 4.287 18.288C4.09567 18.4793 4 18.7167 4 19C4 19.2833 4.09567 19.5207 4.287 19.712C4.479 19.904 4.71667 20 5 20ZM12 16L10.75 13.25L8 12L10.75 10.75L12 8L13.25 10.75L16 12L13.25 13.25L12 16Z" fill="currentColor"/>
</svg>
