<svg width="24" height="24" viewBox="0 0 24 24" fill="none" xmlns="http://www.w3.org/2000/svg">
<path d="M5.99999 6.00004C5.99999 5.45004 6.19582 4.97921 6.58749 4.58754C6.97916 4.19587 7.44999 4.00004 7.99999 4.00004L16 4C16.55 4 17.0208 4.19583 17.4125 4.5875C17.8042 4.97917 18 5.45 18 6L18 18C18 18.55 17.8042 19.0208 17.4125 19.4125C17.0208 19.8042 16.55 20 16 20L7.99999 20C7.44999 20 6.97915 19.8042 6.58749 19.4125C6.19582 19.0209 5.99999 18.55 5.99999 18L5.99999 6.00004ZM7.99999 6.00004L7.99999 18L16 18L16 6L7.99999 6.00004Z" fill="currentColor"/>
</svg>
