<svg width="24" height="24" viewBox="0 0 24 24" fill="none" xmlns="http://www.w3.org/2000/svg">
<path d="M18 5.99999C18.55 5.99999 19.0208 6.19582 19.4125 6.58749C19.8041 6.97916 20 7.44999 20 7.99999L20 16C20 16.55 19.8042 17.0208 19.4125 17.4125C19.0208 17.8042 18.55 18 18 18L6 18C5.45 18 4.97917 17.8042 4.5875 17.4125C4.19583 17.0208 4 16.55 4 16L3.99996 7.99999C3.99996 7.44999 4.19579 6.97915 4.58746 6.58749C4.97913 6.19582 5.44996 5.99999 5.99996 5.99999L18 5.99999ZM18 7.99999L5.99996 7.99999L6 16L18 16L18 7.99999Z" fill="currentColor"/>
</svg>
