<svg width="24" height="24" viewBox="0 0 24 24" fill="none" xmlns="http://www.w3.org/2000/svg">
<path d="M3.90477 16C3.38096 16 2.93255 15.8042 2.55953 15.4125C2.18651 15.0208 2.00001 14.55 2.00001 14L2 8.99999C2 8.45 2.18651 7.97916 2.55952 7.5875C2.93254 7.19583 3.38095 7 3.90476 7H20.0952C20.619 7 21.0675 7.19583 21.4405 7.5875C21.8135 7.97916 22 8.45 22 8.99999L22 14C22 14.55 21.8135 15.0208 21.4405 15.4125C21.0675 15.8042 20.619 16 20.0952 16H3.90477ZM3.90477 14L20.0952 14L20.0952 8.99999H3.90476L3.90477 14Z" fill="currentColor"/>
</svg>
