<svg width="24" height="24" viewBox="0 0 24 24" fill="none" xmlns="http://www.w3.org/2000/svg">
<path d="M21 17.25C21 17.7312 20.8237 18.1432 20.4712 18.4859C20.1187 18.8286 19.695 19 19.2 19L4.8 19C4.305 19 3.88125 18.8286 3.52875 18.4859C3.17625 18.1432 3 17.7313 3 17.25L3 6.75003C3 6.26878 3.17625 5.8568 3.52875 5.5141C3.88125 5.17139 4.305 5.00004 4.8 5.00004L19.2 5C19.695 5 20.1187 5.17135 20.4712 5.51406C20.8237 5.85676 21 6.26874 21 6.74999L21 17.25ZM19 17L19 7L5 7L5 17L19 17Z" fill="currentColor"/>
</svg>
