<svg width="24" height="24" viewBox="0 0 24 24" fill="none" xmlns="http://www.w3.org/2000/svg">
<path d="M17.25 3C17.7312 3 18.1432 3.17625 18.4859 3.52875C18.8286 3.88125 19 4.305 19 4.8L19 19.2C19 19.695 18.8286 20.1188 18.4859 20.4713C18.1432 20.8237 17.7313 21 17.25 21L6.75003 21C6.26878 21 5.8568 20.8237 5.5141 20.4712C5.17139 20.1187 5.00004 19.695 5.00004 19.2L5 4.8C5 4.305 5.17135 3.88125 5.51406 3.52875C5.85677 3.17625 6.26875 3 6.74999 3L17.25 3ZM17 5L7 5L7 19L17 19L17 5Z" fill="currentColor"/>
</svg>
