<svg width="24" height="24" viewBox="0 0 24 24" fill="none" xmlns="http://www.w3.org/2000/svg">
<path d="M12 13C11.7167 13 11.4792 12.9042 11.2875 12.7125C11.0959 12.5209 11 12.2834 11 12V5.82505L7.10005 9.70005C6.91672 9.88338 6.68755 9.97922 6.41255 9.98755C6.13755 9.99588 5.90005 9.90005 5.70005 9.70005C5.51672 9.51672 5.42505 9.28338 5.42505 9.00005C5.42505 8.71672 5.51672 8.48338 5.70005 8.30005L11.3 2.70005C11.4 2.60005 11.5084 2.52922 11.625 2.48755C11.7417 2.44588 11.8667 2.42505 12 2.42505C12.1334 2.42505 12.2584 2.44588 12.375 2.48755C12.4917 2.52922 12.6 2.60005 12.7 2.70005L18.3 8.30005C18.4834 8.48338 18.575 8.71255 18.575 8.98755C18.575 9.26255 18.4834 9.50005 18.3 9.70005C18.1 9.90005 17.8625 10 17.5875 10C17.3125 10 17.075 9.90005 16.875 9.70005L13 5.82505V12C13 12.2834 12.9042 12.5209 12.7125 12.7125C12.5209 12.9042 12.2834 13 12 13ZM12 18C11.7167 18 11.4792 17.9042 11.2875 17.7125C11.0959 17.5209 11 17.2834 11 17V16C11 15.7167 11.0959 15.4792 11.2875 15.2875C11.4792 15.0959 11.7167 15 12 15C12.2834 15 12.5209 15.0959 12.7125 15.2875C12.9042 15.4792 13 15.7167 13 16V17C13 17.2834 12.9042 17.5209 12.7125 17.7125C12.5209 17.9042 12.2834 18 12 18ZM12 22C11.7167 22 11.4792 21.9042 11.2875 21.7125C11.0959 21.5209 11 21.2834 11 21C11 20.7167 11.0959 20.4792 11.2875 20.2875C11.4792 20.0959 11.7167 20 12 20C12.2834 20 12.5209 20.0959 12.7125 20.2875C12.9042 20.4792 13 20.7167 13 21C13 21.2834 12.9042 21.5209 12.7125 21.7125C12.5209 21.9042 12.2834 22 12 22Z" fill="currentColor"/>
</svg>
