<svg width="28" height="28" viewBox="0 0 28 28" fill="none" xmlns="http://www.w3.org/2000/svg">
<path d="M15.15 18.15L11.525 14.525C11.4417 14.4417 11.3834 14.3583 11.35 14.275C11.3167 14.1917 11.3 14.1 11.3 14C11.3 13.9 11.3167 13.8083 11.35 13.725C11.3834 13.6417 11.4417 13.5583 11.525 13.475L15.15 9.85001C15.2 9.80001 15.2542 9.76251 15.3125 9.73751C15.3709 9.71251 15.4334 9.70001 15.5 9.70001C15.6334 9.70001 15.75 9.74585 15.85 9.83751C15.95 9.92918 16 10.05 16 10.2V17.8C16 17.95 15.95 18.0708 15.85 18.1625C15.75 18.2542 15.6334 18.3 15.5 18.3C15.4667 18.3 15.35 18.25 15.15 18.15Z" fill="currentColor"/>
</svg>
