<svg width="24" height="24" viewBox="0 0 24 24" fill="none" xmlns="http://www.w3.org/2000/svg">
<path d="M13.0115 17.587C13.0818 17.5978 13.1419 17.5358 13.1299 17.4661C13.0976 17.2844 13.0039 17.1191 13.0039 17.1191C12.5297 16.1909 12.2542 15.1817 12.3872 14.13C13.052 14.7151 13.1248 14.7948 13.7592 15.3172C14.0214 15.5331 15.37 16.5639 15.6619 16.7601C16.8072 17.5288 17.1941 17.8169 18.0242 18.2816C18.8454 18.7413 19.1847 18.942 19.319 18.6868C19.4557 18.4279 18.8365 18.1544 18.4642 17.8625C18.461 17.8599 18.4553 17.8561 18.4522 17.8536C18.0425 17.5446 17.7183 17.3053 17.5404 17.1749C17.5404 17.1749 15.0743 15.3634 12.4885 12.5896C12.486 12.587 12.479 12.5794 12.4803 12.5712C12.4828 12.5573 12.5107 12.5529 12.5227 12.5491C12.6506 12.5079 12.6658 12.5047 12.8469 12.4629C13.4978 12.3477 14.1581 12.3414 14.809 12.3762C14.9401 12.3832 15.4175 12.4629 15.4992 12.399C15.6283 12.299 15.3143 12.1426 15.2421 12.1052C14.5279 11.7405 13.8327 11.5139 12.4208 11.6519L11.585 11.7431C10.7727 10.8218 9.94387 9.91387 9.09355 9.02683C9.36707 8.88563 9.81155 8.71785 10.1022 8.61465C11.0145 8.29174 11.8478 8.12459 12.7608 8.079C12.8823 8.07267 13.2717 8.10812 13.3407 8.05114C13.4028 7.99985 13.3825 7.93654 13.3319 7.88399C13.2926 7.84347 13.0862 7.75672 13.0235 7.73583C11.9149 7.3629 10.6454 7.46548 9.53232 7.78965C9.3924 7.83017 9.26197 7.87702 9.12394 7.93274L8.46863 8.21829L7.69745 7.4984C6.90158 6.75381 5.57069 6.15991 5.72075 4.86892C5.92336 3.12838 8.38885 2.14763 9.89512 2.15396C16.1323 2.32681 18.1109 10.1443 19.9812 13.3088C22.0187 16.7563 21.5071 15.9662 22.2017 17.04C22.4258 17.387 23.4079 18.9331 23.6605 19.3339C23.6605 19.3339 24.2734 20.1906 23.8523 20.8433C22.8659 22.3737 9.19232 23.0999 3.35846 15.7883C2.65376 14.905 1.02529 12.8055 1.38112 10.3989C1.59386 8.96098 2.50244 7.55538 3.31287 7.14193C4.09418 6.74368 4.75709 7.09128 5.41684 7.51803C6.52865 8.23729 7.45242 9.19588 8.39012 10.1177C8.24576 10.3856 8.06911 10.6407 7.94375 10.9219C7.1903 12.6181 7.46065 15.1811 8.43887 16.7272C8.54334 16.8918 8.78204 17.1103 8.71872 16.8038C8.61299 16.2954 8.44457 15.8174 8.37556 15.3007C8.29451 14.691 8.28691 14.068 8.35276 13.4589C8.44774 12.5801 8.72759 11.7253 9.19359 10.9763L11.4324 13.2037C11.421 13.2873 11.3919 13.5228 11.3811 13.6381C11.214 15.4603 12.581 17.2502 12.9191 17.5415C12.9191 17.5415 12.9577 17.5756 13.0102 17.5839L13.0115 17.587Z" fill="currentColor"/>
<path d="M2.06362 2.16367C3.97891 2.01868 4.07515 4.0321 4.7083 5.30347C4.88875 5.66627 5.23951 6.04869 5.38197 6.37223C5.3997 6.41275 5.43959 6.4938 5.39274 6.52609C5.29903 6.5913 4.5823 6.36907 4.42338 6.33804C3.62814 6.18229 2.81517 6.17912 2.0174 6.08921C1.18481 5.99551 0.358544 5.65614 0.0926205 4.79125C-0.325893 3.43187 0.734004 2.26434 2.06362 2.16303V2.16367Z" fill="currentColor"/>
</svg>
