<svg width="28" height="28" viewBox="0 0 28 28" fill="none" xmlns="http://www.w3.org/2000/svg">
<path d="M12.5 18.3C12.3667 18.3 12.25 18.2542 12.15 18.1625C12.05 18.0708 12 17.95 12 17.8V10.2C12 10.05 12.05 9.92918 12.15 9.83751C12.25 9.74585 12.3667 9.70001 12.5 9.70001C12.5333 9.70001 12.65 9.75001 12.85 9.85001L16.475 13.475C16.5583 13.5583 16.6167 13.6417 16.65 13.725C16.6833 13.8083 16.7 13.9 16.7 14C16.7 14.1 16.6833 14.1917 16.65 14.275C16.6167 14.3583 16.5583 14.4417 16.475 14.525L12.85 18.15C12.8 18.2 12.7458 18.2375 12.6875 18.2625C12.6292 18.2875 12.5667 18.3 12.5 18.3Z" fill="currentColor"/>
</svg>
