<svg width="18" height="18" viewBox="0 0 18 18" fill="none" xmlns="http://www.w3.org/2000/svg">
<path d="M9 6.95C8.3237 6.95 7.6751 7.21866 7.19688 7.69688C6.71866 8.1751 6.45 8.8237 6.45 9.5C6.45 10.1763 6.71866 10.8249 7.19688 11.3031C7.6751 11.7813 8.3237 12.05 9 12.05C9.6763 12.05 10.3249 11.7813 10.8031 11.3031C11.2813 10.8249 11.55 10.1763 11.55 9.5C11.55 8.8237 11.2813 8.1751 10.8031 7.69688C10.3249 7.21866 9.6763 6.95 9 6.95ZM9 5.25C9.55812 5.25 10.1108 5.35993 10.6264 5.57351C11.142 5.78709 11.6106 6.10015 12.0052 6.4948C12.3999 6.88944 12.7129 7.35796 12.9265 7.8736C13.1401 8.38923 13.25 8.94188 13.25 9.5C13.25 10.0581 13.1401 10.6108 12.9265 11.1264C12.7129 11.642 12.3999 12.1106 12.0052 12.5052C11.6106 12.8999 11.142 13.2129 10.6264 13.4265C10.1108 13.6401 9.55812 13.75 9 13.75C7.87283 13.75 6.79183 13.3022 5.9948 12.5052C5.19777 11.7082 4.75 10.6272 4.75 9.5C4.75 8.37283 5.19777 7.29183 5.9948 6.4948C6.79183 5.69777 7.87283 5.25 9 5.25ZM14.525 5.0375C14.525 5.31929 14.4131 5.58954 14.2138 5.7888C14.0145 5.98806 13.7443 6.1 13.4625 6.1C13.1807 6.1 12.9105 5.98806 12.7112 5.7888C12.5119 5.58954 12.4 5.31929 12.4 5.0375C12.4 4.75571 12.5119 4.48546 12.7112 4.2862C12.9105 4.08694 13.1807 3.975 13.4625 3.975C13.7443 3.975 14.0145 4.08694 14.2138 4.2862C14.4131 4.48546 14.525 4.75571 14.525 5.0375ZM9 2.7C6.8971 2.7 6.5537 2.70595 5.57535 2.7493C4.90895 2.78075 4.46185 2.87 4.04705 3.0315C3.69992 3.15895 3.3861 3.36322 3.12905 3.62905C2.86301 3.88609 2.65845 4.1999 2.53065 4.54705C2.36915 4.96355 2.2799 5.4098 2.2493 6.07535C2.2051 7.01375 2.2 7.34185 2.2 9.5C2.2 11.6029 2.20595 11.9463 2.2493 12.9247C2.28075 13.5902 2.37 14.0381 2.53065 14.4521C2.67515 14.8218 2.84515 15.0879 3.12735 15.3701C3.4138 15.6557 3.67985 15.8266 4.04535 15.9677C4.46525 16.13 4.91235 16.2201 5.57535 16.2507C6.51375 16.2949 6.84185 16.3 9 16.3C11.1029 16.3 11.4463 16.294 12.4247 16.2507C13.0893 16.2192 13.5373 16.13 13.9521 15.9694C14.2987 15.8413 14.6123 15.6374 14.8701 15.3727C15.1566 15.0862 15.3274 14.8201 15.4685 14.4546C15.63 14.0356 15.7201 13.5877 15.7507 12.9247C15.7949 11.9862 15.8 11.6581 15.8 9.5C15.8 7.3971 15.794 7.0537 15.7507 6.07535C15.7192 5.41065 15.63 4.96185 15.4685 4.54705C15.3404 4.20025 15.1362 3.88657 14.8709 3.62905C14.614 3.36287 14.3002 3.15829 13.9529 3.03065C13.5364 2.86915 13.0893 2.7799 12.4247 2.7493C11.4862 2.7051 11.1581 2.7 9 2.7ZM9 1C11.3094 1 11.5976 1.0085 12.5037 1.051C13.4089 1.0935 14.0252 1.23545 14.5675 1.44625C15.1285 1.66215 15.6011 1.95455 16.0737 2.4263C16.5059 2.85121 16.8404 3.3652 17.0537 3.9325C17.2637 4.47395 17.4065 5.09105 17.449 5.9963C17.489 6.9024 17.5 7.19055 17.5 9.5C17.5 11.8094 17.4915 12.0976 17.449 13.0037C17.4065 13.9089 17.2637 14.5252 17.0537 15.0675C16.841 15.6351 16.5065 16.1492 16.0737 16.5737C15.6487 17.0058 15.1347 17.3402 14.5675 17.5537C14.0261 17.7637 13.4089 17.9065 12.5037 17.949C11.5976 17.989 11.3094 18 9 18C6.69055 18 6.4024 17.9915 5.4963 17.949C4.59105 17.9065 3.9748 17.7637 3.4325 17.5537C2.86498 17.3408 2.3509 17.0063 1.9263 16.5737C1.494 16.1489 1.15954 15.6348 0.94625 15.0675C0.73545 14.5261 0.5935 13.9089 0.551 13.0037C0.51105 12.0976 0.5 11.8094 0.5 9.5C0.5 7.19055 0.5085 6.9024 0.551 5.9963C0.5935 5.0902 0.73545 4.4748 0.94625 3.9325C1.15895 3.36485 1.49348 2.85072 1.9263 2.4263C2.35102 1.99385 2.86506 1.65937 3.4325 1.44625C3.9748 1.23545 4.5902 1.0935 5.4963 1.051C6.4024 1.01105 6.69055 1 9 1Z" fill="currentColor"/>
</svg>
