<svg width="18" height="18" viewBox="0 0 18 18" fill="none" xmlns="http://www.w3.org/2000/svg">
<path d="M5.03193 13.6597L4.70155 13.5158L4.34827 13.8073C4.87746 14.1089 5.35934 14.3374 5.79467 14.4907C5.52265 15.0145 5.21244 15.5189 4.86637 16C3.16942 15.4413 1.73928 14.7106 0.575215 13.808C0.131761 9.59026 1.73706 6.01791 3.08664 4.0967C4.19979 3.57768 5.38097 3.20869 6.59732 3C6.75844 3.29083 6.91069 3.59742 7.0526 3.92049C7.74882 3.82736 8.3327 3.77937 8.80424 3.77722L9.00084 3.77865L9.19596 3.7765C9.66898 3.77937 10.2529 3.82665 10.9476 3.92049C11.0902 3.59814 11.2425 3.29011 11.4036 3C12.6497 3.21848 13.8197 3.58453 14.9128 4.09742C16.2631 6.01862 17.8677 9.59169 17.425 13.8073C16.2609 14.7113 14.8308 15.442 13.1338 16C12.7878 15.5189 12.4776 15.0145 12.2055 14.4907C12.6416 14.3367 13.1227 14.1089 13.6519 13.8073L13.2994 13.5158L12.9683 13.6597C11.646 14.2142 10.3231 14.4907 9.00084 14.4907C7.67787 14.4907 6.3549 14.2142 5.03193 13.6597ZM6.17013 8.42765C5.3113 8.42765 4.64612 9.20845 4.64612 10.1425C4.64612 11.0766 5.30391 11.8617 6.17013 11.8617C7.03708 11.8617 7.70004 11.0766 7.70004 10.1425C7.70004 9.20774 7.02821 8.42765 6.17013 8.42765ZM11.8293 8.42765C10.9705 8.42765 10.2994 9.20845 10.2994 10.1425C10.2994 11.0766 10.9624 11.8617 11.8293 11.8617C12.6963 11.8617 13.3533 11.0766 13.3533 10.1425C13.3533 9.20774 12.6882 8.42765 11.8293 8.42765Z" fill="currentColor"/>
</svg>
