<svg width="18" height="18" viewBox="0 0 18 18" fill="none" xmlns="http://www.w3.org/2000/svg">
<path d="M12.2144 9.52447L7.41971 12.8364C7.36163 12.8762 7.29575 12.8961 7.22917 12.8961C7.17038 12.8961 7.11229 12.8808 7.05917 12.8494C6.94583 12.7821 6.875 12.6536 6.875 12.5137V5.88982C6.875 5.74988 6.94583 5.62141 7.05917 5.55488C7.17321 5.48759 7.31133 5.49294 7.41971 5.56788L12.2144 8.87982C12.3164 8.95018 12.3773 9.07176 12.3773 9.20253C12.3773 9.33253 12.3164 9.45412 12.2144 9.52447ZM14.7106 3H3.28871C1.75163 3 0.5 4.352 0.5 6.01294V12.9878C0.5 14.6488 1.75163 16 3.28871 16H14.7106C16.2484 16 17.5 14.6488 17.5 12.9878V6.01294C17.5 4.352 16.2484 3 14.7106 3Z" fill="currentColor"/>
</svg>
