<svg width="28" height="28" viewBox="0 0 28 28" fill="none" xmlns="http://www.w3.org/2000/svg">
<path d="M9 19H12C12.2833 19 12.5208 19.0958 12.7125 19.2875C12.9042 19.4792 13 19.7167 13 20C13 20.2833 12.9042 20.5208 12.7125 20.7125C12.5208 20.9042 12.2833 21 12 21H8C7.71667 21 7.47917 20.9042 7.2875 20.7125C7.09583 20.5208 7 20.2833 7 20V16C7 15.7167 7.09583 15.4792 7.2875 15.2875C7.47917 15.0958 7.71667 15 8 15C8.28333 15 8.52083 15.0958 8.7125 15.2875C8.90417 15.4792 9 15.7167 9 16V19ZM19 9H16C15.7167 9 15.4792 8.90417 15.2875 8.7125C15.0958 8.52083 15 8.28333 15 8C15 7.71667 15.0958 7.47917 15.2875 7.2875C15.4792 7.09583 15.7167 7 16 7H20C20.2833 7 20.5208 7.09583 20.7125 7.2875C20.9042 7.47917 21 7.71667 21 8V12C21 12.2833 20.9042 12.5208 20.7125 12.7125C20.5208 12.9042 20.2833 13 20 13C19.7167 13 19.4792 12.9042 19.2875 12.7125C19.0958 12.5208 19 12.2833 19 12V9Z" fill="currentColor"/>
</svg>
