<svg width="38" height="38" viewBox="0 0 38 38" fill="none" xmlns="http://www.w3.org/2000/svg">
<path d="M38 20.7143C38 21.2666 37.5523 21.7143 37 21.7143H22.7143C22.162 21.7143 21.7143 22.162 21.7143 22.7143V37C21.7143 37.5523 21.2666 38 20.7143 38H17.2857C16.7334 38 16.2857 37.5523 16.2857 37V22.7143C16.2857 22.162 15.838 21.7143 15.2857 21.7143H1C0.447715 21.7143 0 21.2666 0 20.7143V17.2857C0 16.7334 0.447715 16.2857 1 16.2857H15.2857C15.838 16.2857 16.2857 15.838 16.2857 15.2857V1C16.2857 0.447715 16.7334 0 17.2857 0H20.7143C21.2666 0 21.7143 0.447715 21.7143 1V15.2857C21.7143 15.838 22.162 16.2857 22.7143 16.2857H37C37.5523 16.2857 38 16.7334 38 17.2857V20.7143Z" fill="currentColor"/>
</svg>
