<svg xmlns="http://www.w3.org/2000/svg" width="20" height="20" viewBox="0 0 20 20" fill="none">
  <path d="M9 12C9.28333 12 9.52083 11.9042 9.7125 11.7125C9.90417 11.5208 10 11.2833 10 11V6C10 5.71667 9.90417 5.47917 9.7125 5.2875C9.52083 5.09583 9.28333 5 9 5C8.71667 5 8.47917 5.09583 8.2875 5.2875C8.09583 5.47917 8 5.71667 8 6V11C8 11.2833 8.09583 11.5208 8.2875 11.7125C8.47917 11.9042 8.71667 12 9 12ZM12 10.5C12.2833 10.5 12.5208 10.4042 12.7125 10.2125C12.9042 10.0208 13 9.78333 13 9.5V7C13 6.71667 12.9042 6.47917 12.7125 6.2875C12.5208 6.09583 12.2833 6 12 6C11.7167 6 11.4792 6.09583 11.2875 6.2875C11.0958 6.47917 11 6.71667 11 7V9.5C11 9.78333 11.0958 10.0208 11.2875 10.2125C11.4792 10.4042 11.7167 10.5 12 10.5ZM6 10C6.28333 10 6.52083 9.90417 6.7125 9.7125C6.90417 9.52083 7 9.28333 7 9V7C7 6.71667 6.90417 6.47917 6.7125 6.2875C6.52083 6.09583 6.28333 6 6 6C5.71667 6 5.47917 6.09583 5.2875 6.2875C5.09583 6.47917 5 6.71667 5 7V9C5 9.28333 5.09583 9.52083 5.2875 9.7125C5.47917 9.90417 5.71667 10 6 10ZM3 15.7C2.05 14.8333 1.3125 13.8208 0.7875 12.6625C0.2625 11.5042 0 10.2833 0 9C0 6.5 0.875 4.375 2.625 2.625C4.375 0.875 6.5 0 9 0C11.0833 0 12.9292 0.6125 14.5375 1.8375C16.1458 3.0625 17.1917 4.65833 17.675 6.625L18.975 11.75C19.0583 12.0667 19 12.3542 18.8 12.6125C18.6 12.8708 18.3333 13 18 13H16V16C16 16.55 15.8042 17.0208 15.4125 17.4125C15.0208 17.8042 14.55 18 14 18H12V19C12 19.2833 11.9042 19.5208 11.7125 19.7125C11.5208 19.9042 11.2833 20 11 20C10.7167 20 10.4792 19.9042 10.2875 19.7125C10.0958 19.5208 10 19.2833 10 19V17C10 16.7167 10.0958 16.4792 10.2875 16.2875C10.4792 16.0958 10.7167 16 11 16H14V12C14 11.7167 14.0958 11.4792 14.2875 11.2875C14.4792 11.0958 14.7167 11 15 11H16.7L15.75 7.125C15.3667 5.60833 14.55 4.375 13.3 3.425C12.05 2.475 10.6167 2 9 2C7.06667 2 5.41667 2.675 4.05 4.025C2.68333 5.375 2 7.01667 2 8.95C2 9.95 2.20417 10.9 2.6125 11.8C3.02083 12.7 3.6 13.5 4.35 14.2L5 14.8V19C5 19.2833 4.90417 19.5208 4.7125 19.7125C4.52083 19.9042 4.28333 20 4 20C3.71667 20 3.47917 19.9042 3.2875 19.7125C3.09583 19.5208 3 19.2833 3 19V15.7Z" fill="currentColor"/>
</svg>
