<svg xmlns="http://www.w3.org/2000/svg" width="20" height="30" viewBox="0 0 20 30" fill="none">
  <path d="M6.66667 30C4.83333 30 3.26389 29.3472 1.95833 28.0417C0.652778 26.7361 0 25.1667 0 23.3333C0 21.5 0.652778 19.9306 1.95833 18.625C3.26389 17.3194 4.83333 16.6667 6.66667 16.6667C7.30556 16.6667 7.89583 16.7431 8.4375 16.8958C8.97917 17.0486 9.5 17.2778 10 17.5833V1.66667C10 1.19444 10.1597 0.798611 10.4792 0.479167C10.7986 0.159722 11.1944 0 11.6667 0H18.3333C18.8056 0 19.2014 0.159722 19.5208 0.479167C19.8403 0.798611 20 1.19444 20 1.66667V5C20 5.47222 19.8403 5.86806 19.5208 6.1875C19.2014 6.50694 18.8056 6.66667 18.3333 6.66667H13.3333V23.3333C13.3333 25.1667 12.6806 26.7361 11.375 28.0417C10.0694 29.3472 8.5 30 6.66667 30Z" fill="currentColor"/>
</svg>
