<svg xmlns="http://www.w3.org/2000/svg" viewBox="0 0 24 24" fill="none">
  <path d="M6 15.7333C6 16.0444 6.13333 16.2556 6.4 16.3667C6.66667 16.4778 6.91111 16.4222 7.13333 16.2L10.4 12.9333C10.6667 12.6667 10.8 12.3556 10.8 12C10.8 11.6444 10.6667 11.3333 10.4 11.0667L7.13333 7.8C6.91111 7.57778 6.66667 7.52222 6.4 7.63333C6.13333 7.74444 6 7.95556 6 8.26667V15.7333ZM2.66667 24C1.93333 24 1.30556 23.7389 0.783333 23.2167C0.261111 22.6944 0 22.0667 0 21.3333V2.66667C0 1.93333 0.261111 1.30556 0.783333 0.783333C1.30556 0.261111 1.93333 0 2.66667 0H21.3333C22.0667 0 22.6944 0.261111 23.2167 0.783333C23.7389 1.30556 24 1.93333 24 2.66667V21.3333C24 22.0667 23.7389 22.6944 23.2167 23.2167C22.6944 23.7389 22.0667 24 21.3333 24H2.66667ZM17.3333 21.3333H21.3333V2.66667H17.3333V21.3333ZM14.6667 21.3333V2.66667H2.66667V21.3333H14.6667Z" fill="currentColor"/>
</svg>
