<svg xmlns="http://www.w3.org/2000/svg" viewBox="0 0 24 24" fill="none">
  <path d="M18 15.7333V8.26667C18 7.95556 17.8667 7.74444 17.6 7.63333C17.3333 7.52222 17.0889 7.57778 16.8667 7.8L13.6 11.0667C13.3333 11.3333 13.2 11.6444 13.2 12C13.2 12.3556 13.3333 12.6667 13.6 12.9333L16.8667 16.2C17.0889 16.4222 17.3333 16.4778 17.6 16.3667C17.8667 16.2556 18 16.0444 18 15.7333ZM2.66667 24C1.93333 24 1.30556 23.7389 0.783333 23.2167C0.261111 22.6944 0 22.0667 0 21.3333V2.66667C0 1.93333 0.261111 1.30556 0.783333 0.783333C1.30556 0.261111 1.93333 0 2.66667 0H21.3333C22.0667 0 22.6944 0.261111 23.2167 0.783333C23.7389 1.30556 24 1.93333 24 2.66667V21.3333C24 22.0667 23.7389 22.6944 23.2167 23.2167C22.6944 23.7389 22.0667 24 21.3333 24H2.66667ZM6.66667 21.3333V2.66667H2.66667V21.3333H6.66667ZM9.33333 21.3333H21.3333V2.66667H9.33333V21.3333Z" fill="currentColor"/>
</svg>
