<svg xmlns="http://www.w3.org/2000/svg" width="23" height="29" viewBox="0 0 23 29" fill="none">
  <path d="M9.5625 24.0833C10.4597 24.0833 11.2153 23.7764 11.8292 23.1625C12.4431 22.5486 12.75 21.7931 12.75 20.8958V15.5833H15.5833C15.9847 15.5833 16.3212 15.4476 16.5927 15.176C16.8642 14.9045 17 14.5681 17 14.1667C17 13.7653 16.8642 13.4288 16.5927 13.1573C16.3212 12.8858 15.9847 12.75 15.5833 12.75H12.75C12.3486 12.75 12.0122 12.8858 11.7406 13.1573C11.4691 13.4288 11.3333 13.7653 11.3333 14.1667V18.2396C11.0736 18.0507 10.7962 17.9149 10.501 17.8323C10.2059 17.7497 9.89306 17.7083 9.5625 17.7083C8.66528 17.7083 7.90972 18.0153 7.29583 18.6292C6.68194 19.2431 6.375 19.9986 6.375 20.8958C6.375 21.7931 6.68194 22.5486 7.29583 23.1625C7.90972 23.7764 8.66528 24.0833 9.5625 24.0833ZM2.83333 28.3333C2.05417 28.3333 1.38715 28.0559 0.832292 27.501C0.277431 26.9462 0 26.2792 0 25.5V2.83333C0 2.05417 0.277431 1.38715 0.832292 0.832292C1.38715 0.277431 2.05417 0 2.83333 0H12.9979C13.3757 0 13.7358 0.0708333 14.0781 0.2125C14.4205 0.354167 14.7215 0.554861 14.9812 0.814583L21.8521 7.68542C22.1118 7.94514 22.3125 8.24618 22.4542 8.58854C22.5958 8.9309 22.6667 9.29097 22.6667 9.66875V25.5C22.6667 26.2792 22.3892 26.9462 21.8344 27.501C21.2795 28.0559 20.6125 28.3333 19.8333 28.3333H2.83333ZM12.75 8.5V2.83333H2.83333V25.5H19.8333V9.91667H14.1667C13.7653 9.91667 13.4288 9.7809 13.1573 9.50937C12.8858 9.23785 12.75 8.90139 12.75 8.5Z" fill="currentColor"/>
</svg>
