<svg xmlns="http://www.w3.org/2000/svg" width="27" height="25" viewBox="0 0 27 25" fill="none">
  <path d="M12 12V14.6667C12 15.0444 12.1278 15.3611 12.3833 15.6167C12.6389 15.8722 12.9556 16 13.3333 16C13.7111 16 14.0278 15.8722 14.2833 15.6167C14.5389 15.3611 14.6667 15.0444 14.6667 14.6667V12H17.3333C17.7111 12 18.0278 11.8722 18.2833 11.6167C18.5389 11.3611 18.6667 11.0444 18.6667 10.6667C18.6667 10.2889 18.5389 9.97222 18.2833 9.71667C18.0278 9.46111 17.7111 9.33333 17.3333 9.33333H14.6667V6.66667C14.6667 6.28889 14.5389 5.97222 14.2833 5.71667C14.0278 5.46111 13.7111 5.33333 13.3333 5.33333C12.9556 5.33333 12.6389 5.46111 12.3833 5.71667C12.1278 5.97222 12 6.28889 12 6.66667V9.33333H9.33333C8.95556 9.33333 8.63889 9.46111 8.38333 9.71667C8.12778 9.97222 8 10.2889 8 10.6667C8 11.0444 8.12778 11.3611 8.38333 11.6167C8.63889 11.8722 8.95556 12 9.33333 12H12ZM5.33333 21.3333L2.26667 24.4C1.84444 24.8222 1.36111 24.9167 0.816667 24.6833C0.272222 24.45 0 24.0333 0 23.4333V2.66667C0 1.93333 0.261111 1.30556 0.783333 0.783333C1.30556 0.261111 1.93333 0 2.66667 0H24C24.7333 0 25.3611 0.261111 25.8833 0.783333C26.4056 1.30556 26.6667 1.93333 26.6667 2.66667V18.6667C26.6667 19.4 26.4056 20.0278 25.8833 20.55C25.3611 21.0722 24.7333 21.3333 24 21.3333H5.33333ZM4.2 18.6667H24V2.66667H2.66667V20.1667L4.2 18.6667Z" fill="currentColor"/>
</svg>
