<svg xmlns="http://www.w3.org/2000/svg" width="18" height="18" viewBox="0 0 18 18" fill="none">
  <path d="M9 11.6813C8.9 11.6813 8.80625 11.6656 8.71875 11.6344C8.63125 11.6031 8.55 11.55 8.475 11.475L5.775 8.775C5.625 8.625 5.55313 8.45 5.55938 8.25C5.56563 8.05 5.6375 7.875 5.775 7.725C5.925 7.575 6.10313 7.49688 6.30938 7.49063C6.51563 7.48438 6.69375 7.55625 6.84375 7.70625L8.25 9.1125V3.75C8.25 3.5375 8.32188 3.35938 8.46563 3.21563C8.60938 3.07188 8.7875 3 9 3C9.2125 3 9.39063 3.07188 9.53438 3.21563C9.67813 3.35938 9.75 3.5375 9.75 3.75V9.1125L11.1562 7.70625C11.3063 7.55625 11.4844 7.48438 11.6906 7.49063C11.8969 7.49688 12.075 7.575 12.225 7.725C12.3625 7.875 12.4344 8.05 12.4406 8.25C12.4469 8.45 12.375 8.625 12.225 8.775L9.525 11.475C9.45 11.55 9.36875 11.6031 9.28125 11.6344C9.19375 11.6656 9.1 11.6813 9 11.6813ZM4.5 15C4.0875 15 3.73438 14.8531 3.44063 14.5594C3.14687 14.2656 3 13.9125 3 13.5V12C3 11.7875 3.07188 11.6094 3.21563 11.4656C3.35938 11.3219 3.5375 11.25 3.75 11.25C3.9625 11.25 4.14062 11.3219 4.28438 11.4656C4.42813 11.6094 4.5 11.7875 4.5 12V13.5H13.5V12C13.5 11.7875 13.5719 11.6094 13.7156 11.4656C13.8594 11.3219 14.0375 11.25 14.25 11.25C14.4625 11.25 14.6406 11.3219 14.7844 11.4656C14.9281 11.6094 15 11.7875 15 12V13.5C15 13.9125 14.8531 14.2656 14.5594 14.5594C14.2656 14.8531 13.9125 15 13.5 15H4.5Z" fill="currentColor"/>
</svg>
