<svg xmlns="http://www.w3.org/2000/svg" width="12" height="14" viewBox="0 0 12 14" fill="none">
  <path d="M2.25 13.5C1.8375 13.5 1.48438 13.3531 1.19063 13.0594C0.896875 12.7656 0.75 12.4125 0.75 12V2.25C0.5375 2.25 0.359375 2.17813 0.215625 2.03438C0.071875 1.89063 0 1.7125 0 1.5C0 1.2875 0.071875 1.10938 0.215625 0.965625C0.359375 0.821875 0.5375 0.75 0.75 0.75H3.75C3.75 0.5375 3.82188 0.359375 3.96563 0.215625C4.10938 0.071875 4.2875 0 4.5 0H7.5C7.7125 0 7.89063 0.071875 8.03438 0.215625C8.17813 0.359375 8.25 0.5375 8.25 0.75H11.25C11.4625 0.75 11.6406 0.821875 11.7844 0.965625C11.9281 1.10938 12 1.2875 12 1.5C12 1.7125 11.9281 1.89063 11.7844 2.03438C11.6406 2.17813 11.4625 2.25 11.25 2.25V12C11.25 12.4125 11.1031 12.7656 10.8094 13.0594C10.5156 13.3531 10.1625 13.5 9.75 13.5H2.25ZM9.75 2.25H2.25V12H9.75V2.25ZM4.5 10.5C4.7125 10.5 4.89063 10.4281 5.03438 10.2844C5.17813 10.1406 5.25 9.9625 5.25 9.75V4.5C5.25 4.2875 5.17813 4.10938 5.03438 3.96563C4.89063 3.82188 4.7125 3.75 4.5 3.75C4.2875 3.75 4.10938 3.82188 3.96563 3.96563C3.82188 4.10938 3.75 4.2875 3.75 4.5V9.75C3.75 9.9625 3.82188 10.1406 3.96563 10.2844C4.10938 10.4281 4.2875 10.5 4.5 10.5ZM7.5 10.5C7.7125 10.5 7.89063 10.4281 8.03438 10.2844C8.17813 10.1406 8.25 9.9625 8.25 9.75V4.5C8.25 4.2875 8.17813 4.10938 8.03438 3.96563C7.89063 3.82188 7.7125 3.75 7.5 3.75C7.2875 3.75 7.10938 3.82188 6.96563 3.96563C6.82188 4.10938 6.75 4.2875 6.75 4.5V9.75C6.75 9.9625 6.82188 10.1406 6.96563 10.2844C7.10938 10.4281 7.2875 10.5 7.5 10.5Z" fill="currentColor"/>
</svg>

