<svg xmlns="http://www.w3.org/2000/svg" width="26" height="26" viewBox="0 0 26 26" fill="none">
  <path d="M2.83333 22.6667H22.6667V9.66875L15.8312 2.83333H2.83333V22.6667ZM2.83333 25.5C2.05417 25.5 1.38715 25.2226 0.832292 24.6677C0.277431 24.1128 0 23.4458 0 22.6667V2.83333C0 2.05417 0.277431 1.38715 0.832292 0.832292C1.38715 0.277431 2.05417 0 2.83333 0H15.8312C16.209 0 16.5691 0.0708333 16.9115 0.2125C17.2538 0.354167 17.5549 0.554861 17.8146 0.814583L24.6854 7.68542C24.9451 7.94514 25.1458 8.24618 25.2875 8.58854C25.4292 8.9309 25.5 9.29097 25.5 9.66875V22.6667C25.5 23.4458 25.2226 24.1128 24.6677 24.6677C24.1128 25.2226 23.4458 25.5 22.6667 25.5H2.83333ZM7.08333 19.8333H18.4167C18.8181 19.8333 19.1545 19.6976 19.426 19.426C19.6976 19.1545 19.8333 18.8181 19.8333 18.4167C19.8333 18.0153 19.6976 17.6788 19.426 17.4073C19.1545 17.1358 18.8181 17 18.4167 17H7.08333C6.68194 17 6.34549 17.1358 6.07396 17.4073C5.80243 17.6788 5.66667 18.0153 5.66667 18.4167C5.66667 18.8181 5.80243 19.1545 6.07396 19.426C6.34549 19.6976 6.68194 19.8333 7.08333 19.8333ZM7.08333 14.1667H18.4167C18.8181 14.1667 19.1545 14.0309 19.426 13.7594C19.6976 13.4878 19.8333 13.1514 19.8333 12.75C19.8333 12.3486 19.6976 12.0122 19.426 11.7406C19.1545 11.4691 18.8181 11.3333 18.4167 11.3333H7.08333C6.68194 11.3333 6.34549 11.4691 6.07396 11.7406C5.80243 12.0122 5.66667 12.3486 5.66667 12.75C5.66667 13.1514 5.80243 13.4878 6.07396 13.7594C6.34549 14.0309 6.68194 14.1667 7.08333 14.1667ZM7.08333 8.5H14.1667C14.5681 8.5 14.9045 8.36424 15.176 8.09271C15.4476 7.82118 15.5833 7.48472 15.5833 7.08333C15.5833 6.68194 15.4476 6.34549 15.176 6.07396C14.9045 5.80243 14.5681 5.66667 14.1667 5.66667H7.08333C6.68194 5.66667 6.34549 5.80243 6.07396 6.07396C5.80243 6.34549 5.66667 6.68194 5.66667 7.08333C5.66667 7.48472 5.80243 7.82118 6.07396 8.09271C6.34549 8.36424 6.68194 8.5 7.08333 8.5Z" fill="currentColor"/>
</svg>
