<svg xmlns="http://www.w3.org/2000/svg" width="24" height="24" viewBox="0 0 24 24" fill="none">
  <path d="M12 24C9.2 24 6.72222 23.15 4.56667 21.45C2.41111 19.75 1.01111 17.5778 0.366667 14.9333C0.277778 14.6 0.344444 14.2944 0.566667 14.0167C0.788889 13.7389 1.08889 13.5778 1.46667 13.5333C1.82222 13.4889 2.14444 13.5556 2.43333 13.7333C2.72222 13.9111 2.92222 14.1778 3.03333 14.5333C3.56667 16.5333 4.66667 18.1667 6.33333 19.4333C8 20.7 9.88889 21.3333 12 21.3333C14.6 21.3333 16.8056 20.4278 18.6167 18.6167C20.4278 16.8056 21.3333 14.6 21.3333 12C21.3333 9.4 20.4278 7.19444 18.6167 5.38333C16.8056 3.57222 14.6 2.66667 12 2.66667C10.4667 2.66667 9.03333 3.02222 7.7 3.73333C6.36667 4.44444 5.24444 5.42222 4.33333 6.66667H6.66667C7.04444 6.66667 7.36111 6.79444 7.61667 7.05C7.87222 7.30556 8 7.62222 8 8C8 8.37778 7.87222 8.69444 7.61667 8.95C7.36111 9.20556 7.04444 9.33333 6.66667 9.33333H1.33333C0.955556 9.33333 0.638889 9.20556 0.383333 8.95C0.127778 8.69444 0 8.37778 0 8V2.66667C0 2.28889 0.127778 1.97222 0.383333 1.71667C0.638889 1.46111 0.955556 1.33333 1.33333 1.33333C1.71111 1.33333 2.02778 1.46111 2.28333 1.71667C2.53889 1.97222 2.66667 2.28889 2.66667 2.66667V4.46667C3.8 3.04444 5.18333 1.94444 6.81667 1.16667C8.45 0.388889 10.1778 0 12 0C13.6667 0 15.2278 0.316667 16.6833 0.95C18.1389 1.58333 19.4056 2.43889 20.4833 3.51667C21.5611 4.59444 22.4167 5.86111 23.05 7.31667C23.6833 8.77222 24 10.3333 24 12C24 13.6667 23.6833 15.2278 23.05 16.6833C22.4167 18.1389 21.5611 19.4056 20.4833 20.4833C19.4056 21.5611 18.1389 22.4167 16.6833 23.05C15.2278 23.6833 13.6667 24 12 24ZM13.3333 11.4667L16.6667 14.8C16.9111 15.0444 17.0333 15.3556 17.0333 15.7333C17.0333 16.1111 16.9111 16.4222 16.6667 16.6667C16.4222 16.9111 16.1111 17.0333 15.7333 17.0333C15.3556 17.0333 15.0444 16.9111 14.8 16.6667L11.0667 12.9333C10.9333 12.8 10.8333 12.65 10.7667 12.4833C10.7 12.3167 10.6667 12.1444 10.6667 11.9667V6.66667C10.6667 6.28889 10.7944 5.97222 11.05 5.71667C11.3056 5.46111 11.6222 5.33333 12 5.33333C12.3778 5.33333 12.6944 5.46111 12.95 5.71667C13.2056 5.97222 13.3333 6.28889 13.3333 6.66667V11.4667Z" fill="currentColor"/>
</svg>
