<svg xmlns="http://www.w3.org/2000/svg" width="17" height="14" viewBox="0 0 17 14" fill="none">
  <path d="M12.75 10.5H11.25C11.0375 10.5 10.8594 10.4281 10.7156 10.2844C10.5719 10.1406 10.5 9.9625 10.5 9.75C10.5 9.5375 10.5719 9.35938 10.7156 9.21563C10.8594 9.07188 11.0375 9 11.25 9H12.75V7.5C12.75 7.2875 12.8219 7.10938 12.9656 6.96563C13.1094 6.82188 13.2875 6.75 13.5 6.75C13.7125 6.75 13.8906 6.82188 14.0344 6.96563C14.1781 7.10938 14.25 7.2875 14.25 7.5V9H15.75C15.9625 9 16.1406 9.07188 16.2844 9.21563C16.4281 9.35938 16.5 9.5375 16.5 9.75C16.5 9.9625 16.4281 10.1406 16.2844 10.2844C16.1406 10.4281 15.9625 10.5 15.75 10.5H14.25V12C14.25 12.2125 14.1781 12.3906 14.0344 12.5344C13.8906 12.6781 13.7125 12.75 13.5 12.75C13.2875 12.75 13.1094 12.6781 12.9656 12.5344C12.8219 12.3906 12.75 12.2125 12.75 12V10.5ZM1.5 13.5C1.0875 13.5 0.734375 13.3531 0.440625 13.0594C0.146875 12.7656 0 12.4125 0 12V1.5C0 1.0875 0.146875 0.734375 0.440625 0.440625C0.734375 0.146875 1.0875 0 1.5 0H12C12.4125 0 12.7656 0.146875 13.0594 0.440625C13.3531 0.734375 13.5 1.0875 13.5 1.5V4.5C13.5 4.7125 13.4281 4.89063 13.2844 5.03438C13.1406 5.17813 12.9625 5.25 12.75 5.25C12.5375 5.25 12.3594 5.17813 12.2156 5.03438C12.0719 4.89063 12 4.7125 12 4.5V3.75H1.5V12H10.5C10.7125 12 10.8906 12.0719 11.0344 12.2156C11.1781 12.3594 11.25 12.5375 11.25 12.75C11.25 12.9625 11.1781 13.1406 11.0344 13.2844C10.8906 13.4281 10.7125 13.5 10.5 13.5H1.5ZM1.5 2.25H12V1.5H1.5V2.25Z" fill="currentColor"/>
</svg>
