<svg xmlns="http://www.w3.org/2000/svg" width="20" height="21" viewBox="0 0 20 21" fill="none">
  <path d="M12.0889 10.8594C11.7191 10.7146 11.2985 10.8024 11.0176 11.083C10.7367 11.3639 10.6482 11.7853 10.793 12.1553L13.6416 19.4287C13.7976 19.8268 14.19 20.0822 14.6172 20.0635C15.0443 20.0447 15.4128 19.756 15.5332 19.3457L16.3818 16.4492L19.2793 15.5986C19.6894 15.4781 19.9782 15.1106 19.9971 14.6836C20.0158 14.2565 19.7604 13.8639 19.3623 13.708L12.0889 10.8594ZM1 0C0.447716 0 0 0.447715 0 1V19C0 19.5523 0.447716 20 1 20H8C8.55228 20 9 19.5523 9 19C9 18.4477 8.55228 18 8 18H2V2H18V8C18 8.55228 18.4477 9 19 9C19.5523 9 20 8.55228 20 8V1C20 0.447715 19.5523 0 19 0H1ZM15.9092 14.5039L15.2949 14.6846C15.0095 14.7686 14.7776 14.9744 14.6602 15.2432L14.6182 15.3623L14.4365 15.9766L13.4893 13.5566L15.9092 14.5039ZM10 7.5C9.44772 7.5 9 7.94772 9 8.5V9H8.5C7.94772 9 7.5 9.44772 7.5 10C7.5 10.5523 7.94772 11 8.5 11H10C10.5523 11 11 10.5523 11 10V8.5C11 7.94772 10.5523 7.5 10 7.5ZM4 7.5C3.44772 7.5 3 7.94772 3 8.5V10C3 10.5523 3.44772 11 4 11H5.5C6.05228 11 6.5 10.5523 6.5 10C6.5 9.44772 6.05228 9 5.5 9H5V8.5C5 7.94772 4.55229 7.5 4 7.5ZM8.5 3C7.94772 3 7.5 3.44772 7.5 4C7.5 4.55228 7.94772 5 8.5 5H9V5.5C9 6.05228 9.44772 6.5 10 6.5C10.5523 6.5 11 6.05228 11 5.5V4C11 3.44772 10.5523 3 10 3H8.5ZM4 3C3.44772 3 3 3.44772 3 4V5.5C3 6.05228 3.44772 6.5 4 6.5C4.55229 6.5 5 6.05228 5 5.5V5H5.5C6.05228 5 6.5 4.55228 6.5 4C6.5 3.44772 6.05228 3 5.5 3H4Z" fill="currentColor"/>
</svg>
