<svg xmlns="http://www.w3.org/2000/svg" width="14" height="14" viewBox="0 0 14 14" fill="none">
  <path d="M0.75 13.5C0.5375 13.5 0.359375 13.4281 0.215625 13.2844C0.071875 13.1406 0 12.9625 0 12.75V8.25C0 8.0375 0.071875 7.85938 0.215625 7.71563C0.359375 7.57188 0.5375 7.5 0.75 7.5C0.9625 7.5 1.14063 7.57188 1.28438 7.71563C1.42813 7.85938 1.5 8.0375 1.5 8.25V10.95L10.95 1.5H8.25C8.0375 1.5 7.85938 1.42813 7.71563 1.28438C7.57188 1.14063 7.5 0.9625 7.5 0.75C7.5 0.5375 7.57188 0.359375 7.71563 0.215625C7.85938 0.071875 8.0375 0 8.25 0H12.75C12.9625 0 13.1406 0.071875 13.2844 0.215625C13.4281 0.359375 13.5 0.5375 13.5 0.75V5.25C13.5 5.4625 13.4281 5.64063 13.2844 5.78438C13.1406 5.92813 12.9625 6 12.75 6C12.5375 6 12.3594 5.92813 12.2156 5.78438C12.0719 5.64063 12 5.4625 12 5.25V2.55L2.55 12H5.25C5.4625 12 5.64063 12.0719 5.78438 12.2156C5.92813 12.3594 6 12.5375 6 12.75C6 12.9625 5.92813 13.1406 5.78438 13.2844C5.64063 13.4281 5.4625 13.5 5.25 13.5H0.75Z" fill="currentColor"/>
</svg>
