<svg xmlns="http://www.w3.org/2000/svg" width="20" height="20" viewBox="0 0 20 20" fill="none">
  <path d="M1 20C0.716667 20 0.479167 19.9042 0.2875 19.7125C0.0958333 19.5208 0 19.2833 0 19C0 18.7167 0.0958333 18.4792 0.2875 18.2875C0.479167 18.0958 0.716667 18 1 18H19C19.2833 18 19.5208 18.0958 19.7125 18.2875C19.9042 18.4792 20 18.7167 20 19C20 19.2833 19.9042 19.5208 19.7125 19.7125C19.5208 19.9042 19.2833 20 19 20H1ZM9.5 15.5C9.21667 15.5 8.97917 15.4042 8.7875 15.2125C8.59583 15.0208 8.5 14.7833 8.5 14.5V5C8.5 4.71667 8.59583 4.47917 8.7875 4.2875C8.97917 4.09583 9.21667 4 9.5 4H10.5C10.7833 4 11.0208 4.09583 11.2125 4.2875C11.4042 4.47917 11.5 4.71667 11.5 5V14.5C11.5 14.7833 11.4042 15.0208 11.2125 15.2125C11.0208 15.4042 10.7833 15.5 10.5 15.5H9.5ZM1 2C0.716667 2 0.479167 1.90417 0.2875 1.7125C0.0958333 1.52083 0 1.28333 0 1C0 0.716667 0.0958333 0.479167 0.2875 0.2875C0.479167 0.0958333 0.716667 0 1 0H19C19.2833 0 19.5208 0.0958333 19.7125 0.2875C19.9042 0.479167 20 0.716667 20 1C20 1.28333 19.9042 1.52083 19.7125 1.7125C19.5208 1.90417 19.2833 2 19 2H1Z" fill="#383838"/>
</svg>
