<svg xmlns="http://www.w3.org/2000/svg" width="17" height="16" viewBox="0 0 17 16" fill="none">
  <path d="M7.79167 4.16667V0.833333C7.79167 0.597222 7.87153 0.399306 8.03125 0.239583C8.19097 0.0798611 8.38889 0 8.625 0H10.6458C10.7986 0 10.941 0.0381944 11.0729 0.114583C11.2049 0.190972 11.3056 0.298611 11.375 0.4375L13 3.33333H11.7917L11.1875 2.125C11.1181 1.97222 11.0139 1.85764 10.875 1.78125C10.7361 1.70486 10.5903 1.66667 10.4375 1.66667H9.45833C9.34722 1.66667 9.25 1.70833 9.16667 1.79167C9.08333 1.875 9.04167 1.97222 9.04167 2.08333C9.04167 2.19444 9.08333 2.29167 9.16667 2.375C9.25 2.45833 9.34722 2.5 9.45833 2.5H10.4583L11.0625 3.70833C11.1319 3.86111 11.2361 3.97569 11.375 4.05208C11.5139 4.12847 11.6597 4.16667 11.8125 4.16667H13.4583L13.7708 4.70833C13.9375 4.98611 13.9201 5.26042 13.7187 5.53125C13.5174 5.80208 13.2431 5.90972 12.8958 5.85417C12.8125 5.84028 12.7257 5.83333 12.6354 5.83333H12.375C11.6806 5.83333 11.0243 5.94444 10.4062 6.16667C9.78819 6.38889 9.22917 6.70139 8.72917 7.10417C8.53472 7.25694 8.32986 7.29167 8.11458 7.20833C7.89931 7.125 7.79167 6.96528 7.79167 6.72917V5H9.04167C9.15278 5 9.25 4.95833 9.33333 4.875C9.41667 4.79167 9.45833 4.69444 9.45833 4.58333C9.45833 4.47222 9.41667 4.375 9.33333 4.29167C9.25 4.20833 9.15278 4.16667 9.04167 4.16667H7.79167ZM6.125 13.3333H4.10417C3.95139 13.3333 3.80903 13.2951 3.67708 13.2187C3.54514 13.1424 3.44444 13.0347 3.375 12.8958L1.75 10H2.95833L3.5625 11.2083C3.63194 11.3611 3.73611 11.4757 3.875 11.5521C4.01389 11.6285 4.15972 11.6667 4.3125 11.6667H5.29167C5.40278 11.6667 5.5 11.625 5.58333 11.5417C5.66667 11.4583 5.70833 11.3611 5.70833 11.25C5.70833 11.1389 5.66667 11.0417 5.58333 10.9583C5.5 10.875 5.40278 10.8333 5.29167 10.8333H4.29167L3.6875 9.625C3.61806 9.47222 3.51389 9.35764 3.375 9.28125C3.23611 9.20486 3.09028 9.16667 2.9375 9.16667H1.29167L0.104167 7.08333C0.0763889 7.01389 0.0520833 6.94444 0.03125 6.875C0.0104167 6.80556 0 6.73611 0 6.66667C0 6.61111 0.0347222 6.47222 0.104167 6.25L1.29167 4.16667H2.9375C3.09028 4.16667 3.23611 4.12847 3.375 4.05208C3.51389 3.97569 3.61806 3.86111 3.6875 3.70833L4.29167 2.5H5.29167C5.40278 2.5 5.5 2.45833 5.58333 2.375C5.66667 2.29167 5.70833 2.19444 5.70833 2.08333C5.70833 1.97222 5.66667 1.875 5.58333 1.79167C5.5 1.70833 5.40278 1.66667 5.29167 1.66667H4.3125C4.15972 1.66667 4.01389 1.70486 3.875 1.78125C3.73611 1.85764 3.63194 1.97222 3.5625 2.125L2.95833 3.33333H1.75L3.375 0.4375C3.44444 0.298611 3.54514 0.190972 3.67708 0.114583C3.80903 0.0381944 3.95139 0 4.10417 0H6.125C6.36111 0 6.55903 0.0798611 6.71875 0.239583C6.87847 0.399306 6.95833 0.597222 6.95833 0.833333V4.16667H5.70833C5.59722 4.16667 5.5 4.20833 5.41667 4.29167C5.33333 4.375 5.29167 4.47222 5.29167 4.58333C5.29167 4.69444 5.33333 4.79167 5.41667 4.875C5.5 4.95833 5.59722 5 5.70833 5H6.95833V7.5H5.125L4.52083 6.29167C4.45139 6.13889 4.34722 6.02431 4.20833 5.94792C4.06944 5.87153 3.92361 5.83333 3.77083 5.83333H2.375C2.26389 5.83333 2.16667 5.875 2.08333 5.95833C2 6.04167 1.95833 6.13889 1.95833 6.25C1.95833 6.36111 2 6.45833 2.08333 6.54167C2.16667 6.625 2.26389 6.66667 2.375 6.66667H3.79167L4.39583 7.875C4.46528 8.02778 4.56944 8.14236 4.70833 8.21875C4.84722 8.29514 4.99306 8.33333 5.14583 8.33333H6.95833V9.5C6.81944 9.83333 6.71528 10.1806 6.64583 10.5417C6.57639 10.9028 6.54167 11.2778 6.54167 11.6667C6.54167 11.9028 6.55208 12.1389 6.57292 12.375C6.59375 12.6111 6.63889 12.8472 6.70833 13.0833C6.63889 13.1528 6.55208 13.2118 6.44792 13.2604C6.34375 13.309 6.23611 13.3333 6.125 13.3333Z" fill="currentColor"/>
  <path fill-rule="evenodd" clip-rule="evenodd" d="M11.875 15.8333C11.7638 15.8333 11.677 15.8021 11.6145 15.7396C11.552 15.6771 11.5069 15.5972 11.4791 15.5L11.2916 14.5833C11.125 14.5139 10.9687 14.4375 10.8229 14.3542C10.677 14.2708 10.5347 14.1736 10.3958 14.0625L9.52079 14.375C9.42357 14.4028 9.32982 14.3993 9.23954 14.3646C9.14926 14.3299 9.07635 14.2708 9.02079 14.1875L8.52079 13.3333C8.46523 13.25 8.44787 13.1597 8.46871 13.0625C8.48954 12.9653 8.53468 12.8819 8.60412 12.8125L9.29162 12.2083C9.26385 12 9.24996 11.8229 9.24996 11.6771C9.24996 11.5312 9.26385 11.3542 9.29162 11.1458L8.60412 10.5417C8.53468 10.4722 8.48954 10.3889 8.46871 10.2917C8.44787 10.1944 8.46523 10.1042 8.52079 10.0208L9.02079 9.16667C9.07635 9.08333 9.14926 9.02431 9.23954 8.98958C9.32982 8.95486 9.42357 8.95139 9.52079 8.97917L10.3958 9.29167C10.5347 9.18056 10.677 9.07986 10.8229 8.98958C10.9687 8.89931 11.125 8.81944 11.2916 8.75L11.4791 7.83333C11.5069 7.73611 11.552 7.65625 11.6145 7.59375C11.677 7.53125 11.7638 7.5 11.875 7.5H12.875C12.9861 7.5 13.0729 7.53125 13.1354 7.59375C13.1979 7.65625 13.243 7.73611 13.2708 7.83333L13.4583 8.75C13.625 8.81944 13.7812 8.89583 13.927 8.97917C14.0729 9.0625 14.2152 9.15972 14.3541 9.27083L15.2291 8.95833C15.3263 8.93056 15.4201 8.93403 15.5104 8.96875C15.6007 9.00347 15.6736 9.0625 15.7291 9.14583L16.2291 10C16.2847 10.0833 16.302 10.1736 16.2812 10.2708C16.2604 10.3681 16.2152 10.4514 16.1458 10.5208L15.4583 11.125C15.4861 11.3333 15.5 11.5104 15.5 11.6562C15.5 11.8021 15.4861 11.9792 15.4583 12.1875L16.1458 12.7917C16.2152 12.8611 16.2604 12.9444 16.2812 13.0417C16.302 13.1389 16.2847 13.2292 16.2291 13.3125L15.7291 14.1667C15.6736 14.25 15.6041 14.309 15.5208 14.3437C15.4375 14.3785 15.3472 14.3819 15.25 14.3542L14.3541 14.0625C14.2152 14.1736 14.0729 14.2708 13.927 14.3542C13.7812 14.4375 13.625 14.5139 13.4583 14.5833L13.2708 15.5C13.243 15.5972 13.1979 15.6771 13.1354 15.7396C13.0729 15.8021 12.9861 15.8333 12.875 15.8333H11.875ZM13.552 12.8438C13.2257 13.1701 12.8333 13.3333 12.375 13.3333C11.9166 13.3333 11.5243 13.1701 11.1979 12.8438C10.8715 12.5174 10.7083 12.125 10.7083 11.6667C10.7083 11.2083 10.8715 10.816 11.1979 10.4896C11.5243 10.1632 11.9166 10 12.375 10C12.8333 10 13.2257 10.1632 13.552 10.4896C13.8784 10.816 14.0416 11.2083 14.0416 11.6667C14.0416 12.125 13.8784 12.5174 13.552 12.8438Z" fill="currentColor"/>
</svg>
