<svg xmlns="http://www.w3.org/2000/svg" width="5" height="9" viewBox="0 0 5 9" fill="none">
  <path d="M0.5 8.6C0.366667 8.6 0.25 8.55417 0.15 8.4625C0.05 8.37083 0 8.25 0 8.1V0.5C0 0.35 0.05 0.229167 0.15 0.1375C0.25 0.0458333 0.366667 0 0.5 0C0.533333 0 0.65 0.05 0.85 0.15L4.475 3.775C4.55833 3.85833 4.61667 3.94167 4.65 4.025C4.68333 4.10833 4.7 4.2 4.7 4.3C4.7 4.4 4.68333 4.49167 4.65 4.575C4.61667 4.65833 4.55833 4.74167 4.475 4.825L0.85 8.45C0.8 8.5 0.745833 8.5375 0.6875 8.5625C0.629167 8.5875 0.566667 8.6 0.5 8.6Z" fill="currentColor"/>
</svg>
