<svg xmlns="http://www.w3.org/2000/svg" width="20" height="20" viewBox="0 0 20 20" fill="none">
  <path d="M6 14H18V2H16V8.125C16 8.325 15.9167 8.475 15.75 8.575C15.5833 8.675 15.4167 8.66667 15.25 8.55L14.025 7.825C13.8583 7.725 13.6792 7.675 13.4875 7.675C13.2958 7.675 13.125 7.725 12.975 7.825L11.75 8.55C11.5667 8.66667 11.3958 8.675 11.2375 8.575C11.0792 8.475 11 8.325 11 8.125V2H6V14ZM6 16C5.45 16 4.97917 15.8042 4.5875 15.4125C4.19583 15.0208 4 14.55 4 14V2C4 1.45 4.19583 0.979167 4.5875 0.5875C4.97917 0.195833 5.45 0 6 0H18C18.55 0 19.0208 0.195833 19.4125 0.5875C19.8042 0.979167 20 1.45 20 2V14C20 14.55 19.8042 15.0208 19.4125 15.4125C19.0208 15.8042 18.55 16 18 16H6ZM2 20C1.45 20 0.979167 19.8042 0.5875 19.4125C0.195833 19.0208 0 18.55 0 18V5C0 4.71667 0.0958333 4.47917 0.2875 4.2875C0.479167 4.09583 0.716667 4 1 4C1.28333 4 1.52083 4.09583 1.7125 4.2875C1.90417 4.47917 2 4.71667 2 5V18H15C15.2833 18 15.5208 18.0958 15.7125 18.2875C15.9042 18.4792 16 18.7167 16 19C16 19.2833 15.9042 19.5208 15.7125 19.7125C15.5208 19.9042 15.2833 20 15 20H2Z" fill="currentColor"/>
</svg>
