<svg xmlns="http://www.w3.org/2000/svg" width="12" height="15" viewBox="0 0 12 15" fill="none">
  <path d="M5.25 9.75V11.25C5.25 11.4625 5.32188 11.6406 5.46563 11.7844C5.60938 11.9281 5.7875 12 6 12C6.2125 12 6.39063 11.9281 6.53438 11.7844C6.67813 11.6406 6.75 11.4625 6.75 11.25V9.75H8.25C8.4625 9.75 8.64063 9.67813 8.78438 9.53438C8.92813 9.39063 9 9.2125 9 9C9 8.7875 8.92813 8.60938 8.78438 8.46563C8.64063 8.32188 8.4625 8.25 8.25 8.25H6.75V6.75C6.75 6.5375 6.67813 6.35938 6.53438 6.21563C6.39063 6.07188 6.2125 6 6 6C5.7875 6 5.60938 6.07188 5.46563 6.21563C5.32188 6.35938 5.25 6.5375 5.25 6.75V8.25H3.75C3.5375 8.25 3.35938 8.32188 3.21563 8.46563C3.07188 8.60938 3 8.7875 3 9C3 9.2125 3.07188 9.39063 3.21563 9.53438C3.35938 9.67813 3.5375 9.75 3.75 9.75H5.25ZM1.5 15C1.0875 15 0.734375 14.8531 0.440625 14.5594C0.146875 14.2656 0 13.9125 0 13.5V1.5C0 1.0875 0.146875 0.734375 0.440625 0.440625C0.734375 0.146875 1.0875 0 1.5 0H6.88125C7.08125 0 7.27188 0.0375 7.45313 0.1125C7.63438 0.1875 7.79375 0.29375 7.93125 0.43125L11.5688 4.06875C11.7063 4.20625 11.8125 4.36563 11.8875 4.54688C11.9625 4.72813 12 4.91875 12 5.11875V13.5C12 13.9125 11.8531 14.2656 11.5594 14.5594C11.2656 14.8531 10.9125 15 10.5 15H1.5ZM6.75 4.5V1.5H1.5V13.5H10.5V5.25H7.5C7.2875 5.25 7.10938 5.17813 6.96563 5.03438C6.82188 4.89063 6.75 4.7125 6.75 4.5Z" fill="currentColor"/>
</svg>
