<svg xmlns="http://www.w3.org/2000/svg" width="17" height="18" viewBox="0 0 17 18" fill="none">
  <path d="M8.93142 10.8L6.83254 12.915C6.95162 13.14 7.03349 13.38 7.07815 13.635C7.12281 13.89 7.14514 14.145 7.14514 14.4C7.14514 15.39 6.79532 16.2375 6.09569 16.9425C5.39607 17.6475 4.55502 18 3.57257 18C2.59011 18 1.74907 17.6475 1.04944 16.9425C0.349814 16.2375 0 15.39 0 14.4C0 13.41 0.349814 12.5625 1.04944 11.8575C1.74907 11.1525 2.59011 10.8 3.57257 10.8C3.82562 10.8 4.07868 10.8225 4.33174 10.8675C4.5848 10.9125 4.82297 10.995 5.04625 11.115L7.14514 9L5.04625 6.885C4.82297 7.005 4.5848 7.0875 4.33174 7.1325C4.07868 7.1775 3.82562 7.2 3.57257 7.2C2.59011 7.2 1.74907 6.8475 1.04944 6.1425C0.349814 5.4375 0 4.59 0 3.6C0 2.61 0.349814 1.7625 1.04944 1.0575C1.74907 0.3525 2.59011 0 3.57257 0C4.55502 0 5.39607 0.3525 6.09569 1.0575C6.79532 1.7625 7.14514 2.61 7.14514 3.6C7.14514 3.855 7.12281 4.11 7.07815 4.365C7.03349 4.62 6.95162 4.86 6.83254 5.085L16.6124 14.94C17.0144 15.345 17.1037 15.8063 16.8804 16.3238C16.6571 16.8413 16.2626 17.1 15.697 17.1C15.5332 17.1 15.3732 17.0662 15.2169 16.9988C15.0606 16.9313 14.9229 16.8375 14.8038 16.7175L8.93142 10.8ZM11.6108 8.1L9.82456 6.3L14.8038 1.2825C14.9229 1.1625 15.0606 1.06875 15.2169 1.00125C15.3732 0.93375 15.5332 0.9 15.697 0.9C16.2626 0.9 16.6534 1.1625 16.8692 1.6875C17.0851 2.2125 16.992 2.6775 16.5901 3.0825L11.6108 8.1ZM3.57257 5.4C4.0638 5.4 4.48432 5.22375 4.83413 4.87125C5.18395 4.51875 5.35885 4.095 5.35885 3.6C5.35885 3.105 5.18395 2.68125 4.83413 2.32875C4.48432 1.97625 4.0638 1.8 3.57257 1.8C3.08134 1.8 2.66082 1.97625 2.311 2.32875C1.96119 2.68125 1.78628 3.105 1.78628 3.6C1.78628 4.095 1.96119 4.51875 2.311 4.87125C2.66082 5.22375 3.08134 5.4 3.57257 5.4ZM8.93142 9.45C9.05051 9.45 9.15471 9.405 9.24402 9.315C9.33333 9.225 9.37799 9.12 9.37799 9C9.37799 8.88 9.33333 8.775 9.24402 8.685C9.15471 8.595 9.05051 8.55 8.93142 8.55C8.81233 8.55 8.70813 8.595 8.61882 8.685C8.52951 8.775 8.48485 8.88 8.48485 9C8.48485 9.12 8.52951 9.225 8.61882 9.315C8.70813 9.405 8.81233 9.45 8.93142 9.45ZM3.57257 16.2C4.0638 16.2 4.48432 16.0238 4.83413 15.6713C5.18395 15.3188 5.35885 14.895 5.35885 14.4C5.35885 13.905 5.18395 13.4813 4.83413 13.1288C4.48432 12.7763 4.0638 12.6 3.57257 12.6C3.08134 12.6 2.66082 12.7763 2.311 13.1288C1.96119 13.4813 1.78628 13.905 1.78628 14.4C1.78628 14.895 1.96119 15.3188 2.311 15.6713C2.66082 16.0238 3.08134 16.2 3.57257 16.2Z" fill="currentColor"/>
</svg>
