<svg xmlns="http://www.w3.org/2000/svg" width="20" height="16" viewBox="0 0 20 16" fill="none">
  <path d="M5.33168 13.1197L4.94301 12.9425L4.52738 13.3013C5.14995 13.6725 5.71688 13.9537 6.22902 14.1424C5.90901 14.7871 5.54404 15.4079 5.13691 16C3.1405 15.3123 1.45798 14.413 0.0884884 13.3022C-0.433222 8.11108 1.45537 3.71435 3.04311 1.34979C4.3527 0.710992 5.74232 0.256852 7.17332 0C7.36287 0.357946 7.54199 0.735287 7.70894 1.13291C8.52803 1.01829 9.21494 0.959224 9.7697 0.956579L10.001 0.958342L10.2305 0.955698C10.787 0.959224 11.474 1.01741 12.2913 1.13291C12.4591 0.736169 12.6382 0.357064 12.8278 0C14.2938 0.2689 15.6702 0.719418 16.9563 1.35067C18.5449 3.71523 20.4326 8.11285 19.9117 13.3013C18.5423 14.4139 16.8597 15.3132 14.8633 16C14.4562 15.4079 14.0912 14.7871 13.7712 14.1424C14.2842 13.9528 14.8503 13.6725 15.4729 13.3013L15.0581 12.9425L14.6686 13.1197C13.113 13.8021 11.5566 14.1424 10.001 14.1424C8.44455 14.1424 6.88812 13.8021 5.33168 13.1197ZM6.67074 6.68019C5.66036 6.68019 4.87779 7.64117 4.87779 8.79083C4.87779 9.94049 5.65166 10.9068 6.67074 10.9068C7.69068 10.9068 8.47064 9.94049 8.47064 8.79083C8.47064 7.64029 7.68025 6.68019 6.67074 6.68019ZM13.3286 6.68019C12.3183 6.68019 11.5287 7.64117 11.5287 8.79083C11.5287 9.94049 12.3087 10.9068 13.3286 10.9068C14.3486 10.9068 15.1216 9.94049 15.1216 8.79083C15.1216 7.64029 14.339 6.68019 13.3286 6.68019Z" fill="currentColor"/>
</svg>

