<svg width="16" height="16" viewBox="0 0 16 16" fill="none" xmlns="http://www.w3.org/2000/svg">
<path d="M3.33333 12.6667H12.6667V6.55L9.45 3.33333H3.33333V12.6667ZM3.33333 14C2.96667 14 2.65278 13.8694 2.39167 13.6083C2.13056 13.3472 2 13.0333 2 12.6667V3.33333C2 2.96667 2.13056 2.65278 2.39167 2.39167C2.65278 2.13056 2.96667 2 3.33333 2H9.45C9.62778 2 9.79722 2.03333 9.95833 2.1C10.1194 2.16667 10.2611 2.26111 10.3833 2.38333L13.6167 5.61667C13.7389 5.73889 13.8333 5.88056 13.9 6.04167C13.9667 6.20278 14 6.37222 14 6.55V12.6667C14 13.0333 13.8694 13.3472 13.6083 13.6083C13.3472 13.8694 13.0333 14 12.6667 14H3.33333ZM5.33333 11.3333H10.6667C10.8556 11.3333 11.0139 11.2694 11.1417 11.1417C11.2694 11.0139 11.3333 10.8556 11.3333 10.6667C11.3333 10.4778 11.2694 10.3194 11.1417 10.1917C11.0139 10.0639 10.8556 10 10.6667 10H5.33333C5.14444 10 4.98611 10.0639 4.85833 10.1917C4.73056 10.3194 4.66667 10.4778 4.66667 10.6667C4.66667 10.8556 4.73056 11.0139 4.85833 11.1417C4.98611 11.2694 5.14444 11.3333 5.33333 11.3333ZM5.33333 8.66667H10.6667C10.8556 8.66667 11.0139 8.60278 11.1417 8.475C11.2694 8.34722 11.3333 8.18889 11.3333 8C11.3333 7.81111 11.2694 7.65278 11.1417 7.525C11.0139 7.39722 10.8556 7.33333 10.6667 7.33333H5.33333C5.14444 7.33333 4.98611 7.39722 4.85833 7.525C4.73056 7.65278 4.66667 7.81111 4.66667 8C4.66667 8.18889 4.73056 8.34722 4.85833 8.475C4.98611 8.60278 5.14444 8.66667 5.33333 8.66667ZM5.33333 6H8.66667C8.85556 6 9.01389 5.93611 9.14167 5.80833C9.26944 5.68056 9.33333 5.52222 9.33333 5.33333C9.33333 5.14444 9.26944 4.98611 9.14167 4.85833C9.01389 4.73056 8.85556 4.66667 8.66667 4.66667H5.33333C5.14444 4.66667 4.98611 4.73056 4.85833 4.85833C4.73056 4.98611 4.66667 5.14444 4.66667 5.33333C4.66667 5.52222 4.73056 5.68056 4.85833 5.80833C4.98611 5.93611 5.14444 6 5.33333 6Z" fill="currentColor"/>
</svg>

