<svg xmlns="http://www.w3.org/2000/svg" width="24" height="24" viewBox="0 0 24 24" fill="none">
  <path d="M8 18C7.45 18 6.97917 17.8042 6.5875 17.4125C6.19583 17.0208 6 16.55 6 16V4C6 3.45 6.19583 2.97917 6.5875 2.5875C6.97917 2.19583 7.45 2 8 2H20C20.55 2 21.0208 2.19583 21.4125 2.5875C21.8042 2.97917 22 3.45 22 4V16C22 16.55 21.8042 17.0208 21.4125 17.4125C21.0208 17.8042 20.55 18 20 18H8ZM8 16H20V8H14C13.7167 8 13.4792 7.90417 13.2875 7.7125C13.0958 7.52083 13 7.28333 13 7V4H8V16ZM3 6C2.71667 6 2.47917 5.90417 2.2875 5.7125C2.09583 5.52083 2 5.28333 2 5C2 4.71667 2.09583 4.47917 2.2875 4.2875C2.47917 4.09583 2.71667 4 3 4C3.28333 4 3.52083 4.09583 3.7125 4.2875C3.90417 4.47917 4 4.71667 4 5C4 5.28333 3.90417 5.52083 3.7125 5.7125C3.52083 5.90417 3.28333 6 3 6ZM7 22C6.71667 22 6.47917 21.9042 6.2875 21.7125C6.09583 21.5208 6 21.2833 6 21C6 20.7167 6.09583 20.4792 6.2875 20.2875C6.47917 20.0958 6.71667 20 7 20C7.28333 20 7.52083 20.0958 7.7125 20.2875C7.90417 20.4792 8 20.7167 8 21C8 21.2833 7.90417 21.5208 7.7125 21.7125C7.52083 21.9042 7.28333 22 7 22ZM11 22C10.7167 22 10.4792 21.9042 10.2875 21.7125C10.0958 21.5208 10 21.2833 10 21C10 20.7167 10.0958 20.4792 10.2875 20.2875C10.4792 20.0958 10.7167 20 11 20C11.2833 20 11.5208 20.0958 11.7125 20.2875C11.9042 20.4792 12 20.7167 12 21C12 21.2833 11.9042 21.5208 11.7125 21.7125C11.5208 21.9042 11.2833 22 11 22ZM15 22C14.7167 22 14.4792 21.9042 14.2875 21.7125C14.0958 21.5208 14 21.2833 14 21C14 20.7167 14.0958 20.4792 14.2875 20.2875C14.4792 20.0958 14.7167 20 15 20C15.2833 20 15.5208 20.0958 15.7125 20.2875C15.9042 20.4792 16 20.7167 16 21C16 21.2833 15.9042 21.5208 15.7125 21.7125C15.5208 21.9042 15.2833 22 15 22ZM3 10C2.71667 10 2.47917 9.90417 2.2875 9.7125C2.09583 9.52083 2 9.28333 2 9C2 8.71667 2.09583 8.47917 2.2875 8.2875C2.47917 8.09583 2.71667 8 3 8C3.28333 8 3.52083 8.09583 3.7125 8.2875C3.90417 8.47917 4 8.71667 4 9C4 9.28333 3.90417 9.52083 3.7125 9.7125C3.52083 9.90417 3.28333 10 3 10ZM3 14C2.71667 14 2.47917 13.9042 2.2875 13.7125C2.09583 13.5208 2 13.2833 2 13C2 12.7167 2.09583 12.4792 2.2875 12.2875C2.47917 12.0958 2.71667 12 3 12C3.28333 12 3.52083 12.0958 3.7125 12.2875C3.90417 12.4792 4 12.7167 4 13C4 13.2833 3.90417 13.5208 3.7125 13.7125C3.52083 13.9042 3.28333 14 3 14ZM3 18C2.71667 18 2.47917 17.9042 2.2875 17.7125C2.09583 17.5208 2 17.2833 2 17C2 16.7167 2.09583 16.4792 2.2875 16.2875C2.47917 16.0958 2.71667 16 3 16C3.28333 16 3.52083 16.0958 3.7125 16.2875C3.90417 16.4792 4 16.7167 4 17C4 17.2833 3.90417 17.5208 3.7125 17.7125C3.52083 17.9042 3.28333 18 3 18ZM3 22C2.71667 22 2.47917 21.9042 2.2875 21.7125C2.09583 21.5208 2 21.2833 2 21C2 20.7167 2.09583 20.4792 2.2875 20.2875C2.47917 20.0958 2.71667 20 3 20C3.28333 20 3.52083 20.0958 3.7125 20.2875C3.90417 20.4792 4 20.7167 4 21C4 21.2833 3.90417 21.5208 3.7125 21.7125C3.52083 21.9042 3.28333 22 3 22ZM19 22C18.7167 22 18.4792 21.9042 18.2875 21.7125C18.0958 21.5208 18 21.2833 18 21C18 20.7167 18.0958 20.4792 18.2875 20.2875C18.4792 20.0958 18.7167 20 19 20C19.2833 20 19.5208 20.0958 19.7125 20.2875C19.9042 20.4792 20 20.7167 20 21C20 21.2833 19.9042 21.5208 19.7125 21.7125C19.5208 21.9042 19.2833 22 19 22Z" fill="currentColor"/>
</svg>
