<svg xmlns="http://www.w3.org/2000/svg" width="27" height="26" viewBox="0 0 27 26" fill="none">
  <path d="M23.4336 13.333C23.7002 13.333 23.9558 13.3834 24.2002 13.4834C24.4445 13.5834 24.6663 13.7337 24.8662 13.9336L26.0996 15.167C26.2773 15.3669 26.4166 15.5887 26.5166 15.833C26.6166 16.0774 26.667 16.322 26.667 16.5664C26.667 16.8108 26.622 17.0609 26.5332 17.3164C26.4443 17.572 26.2996 17.8 26.0996 18L19.167 24.9336C19.0337 25.0669 18.8834 25.1667 18.7168 25.2334C18.5502 25.3 18.3779 25.333 18.2002 25.333H16C15.6222 25.333 15.3054 25.2058 15.0498 24.9502C14.7942 24.6946 14.667 24.3778 14.667 24V21.7998C14.667 21.6221 14.7 21.4498 14.7666 21.2832C14.8333 21.1166 14.9331 20.9663 15.0664 20.833L22.0332 13.9004C22.2332 13.7004 22.4558 13.5557 22.7002 13.4668C22.9446 13.3779 23.1892 13.333 23.4336 13.333ZM21.333 0C22.0663 0 22.6946 0.260981 23.2168 0.783203C23.739 1.30543 24 1.93366 24 2.66699V9.66309C24 10.2154 23.5523 10.6631 23 10.6631H22.333C21.7809 10.6629 21.333 10.2153 21.333 9.66309V2.66699H2.66699V21.333H11C11.5522 21.333 11.9998 21.7809 12 22.333V23C12 23.5523 11.5523 24 11 24H2.66699C1.93366 24 1.30543 23.739 0.783203 23.2168C0.260981 22.6946 0 22.0663 0 21.333V2C1.1991e-06 0.895432 0.895431 0 2 0H21.333ZM16.667 22.0664V23.333H17.9336L21.9668 19.2666L20.7334 18.0332L16.667 22.0664ZM15 12.4336C15.2222 12.4336 15.3999 12.5224 15.5332 12.7002L17.1846 14.8398L13.5957 18.667H5.33301C5.0665 18.6669 4.86668 18.5441 4.7334 18.2998C4.60014 18.0554 4.62206 17.8218 4.7998 17.5996L7.4668 14.0332C7.60012 13.8555 7.77784 13.7666 8 13.7666C8.22216 13.7666 8.39988 13.8555 8.5332 14.0332L10.8184 16.6533L14.4668 12.7002C14.6001 12.5224 14.7778 12.4336 15 12.4336ZM7.33301 5.33301C7.88856 5.33301 8.36111 5.5281 8.75 5.91699C9.1387 6.30577 9.33293 6.77767 9.33301 7.33301C9.33301 7.88856 9.13889 8.36111 8.75 8.75C8.36111 9.13889 7.88856 9.33301 7.33301 9.33301C6.77767 9.33293 6.30577 9.1387 5.91699 8.75C5.5281 8.36111 5.33301 7.88856 5.33301 7.33301C5.33308 6.77759 5.52818 6.30581 5.91699 5.91699C6.30581 5.52818 6.77759 5.33308 7.33301 5.33301Z" fill="currentColor"/>
</svg>
