<svg xmlns="http://www.w3.org/2000/svg" width="26" height="26" viewBox="0 0 26 26" fill="none">
  <path d="M23.8595 22.7342C24.5957 22.7344 25.1925 23.3319 25.1925 24.0682C25.1923 24.8042 24.5955 25.4009 23.8595 25.4012H17.1925C16.4563 25.4012 15.8597 24.8043 15.8595 24.0682C15.8595 23.3318 16.4561 22.7342 17.1925 22.7342H23.8595ZM13.5099 0.781049C14.5513 -0.26035 16.24 -0.260349 17.2814 0.781049L24.462 7.96171C25.5029 9.00302 25.5029 10.6909 24.462 11.7322L13.2199 22.9744C10.1956 25.9983 5.29183 25.9976 2.26771 22.9734C-0.755819 19.9493 -0.755985 15.0463 2.26771 12.0223L13.5099 0.781049ZM4.15345 13.908C2.17116 15.8907 2.17132 19.1049 4.15345 21.0877C6.13618 23.0704 9.35124 23.0712 11.3341 21.0887L17.1642 15.2586L9.98353 8.07792L4.15345 13.908ZM11.8693 6.19218L19.0499 13.3728L22.5763 9.84745L15.3956 2.66679L11.8693 6.19218Z" fill="currentColor"/>
</svg>
