<svg xmlns="http://www.w3.org/2000/svg" width="27" height="28" viewBox="0 0 27 28" fill="none">
  <path d="M22.1 8.8C21.9889 8.8 21.8724 8.76667 21.7507 8.7C21.628 8.63333 21.5444 8.53333 21.5 8.4L20.4333 6.06667L18.1 5C17.9667 4.95556 17.8667 4.872 17.8 4.74933C17.7333 4.62756 17.7 4.51111 17.7 4.4C17.7 4.28889 17.7333 4.172 17.8 4.04933C17.8667 3.92756 17.9667 3.84444 18.1 3.8L20.4333 2.73333L21.5 0.4C21.5444 0.266667 21.628 0.166667 21.7507 0.0999999C21.8724 0.0333332 21.9889 0 22.1 0C22.2111 0 22.328 0.0333332 22.4507 0.0999999C22.5724 0.166667 22.6556 0.266667 22.7 0.4L23.7667 2.73333L26.1 3.8C26.2333 3.84444 26.3333 3.92756 26.4 4.04933C26.4667 4.172 26.5 4.28889 26.5 4.4C26.5 4.51111 26.4667 4.62756 26.4 4.74933C26.3333 4.872 26.2333 4.95556 26.1 5L23.7667 6.06667L22.7 8.4C22.6556 8.53333 22.5724 8.63333 22.4507 8.7C22.328 8.76667 22.2111 8.8 22.1 8.8ZM22.1 27.4667C21.9889 27.4667 21.8724 27.4333 21.7507 27.3667C21.628 27.3 21.5444 27.2 21.5 27.0667L20.4333 24.7333L18.1 23.6667C17.9667 23.6222 17.8667 23.5387 17.8 23.416C17.7333 23.2942 17.7 23.1778 17.7 23.0667C17.7 22.9556 17.7333 22.8391 17.8 22.7173C17.8667 22.5947 17.9667 22.5111 18.1 22.4667L20.4333 21.4L21.5 19.0667C21.5444 18.9333 21.628 18.8333 21.7507 18.7667C21.8724 18.7 21.9889 18.6667 22.1 18.6667C22.2111 18.6667 22.328 18.7 22.4507 18.7667C22.5724 18.8333 22.6556 18.9333 22.7 19.0667L23.7667 21.4L26.1 22.4667C26.2333 22.5111 26.3333 22.5947 26.4 22.7173C26.4667 22.8391 26.5 22.9556 26.5 23.0667C26.5 23.1778 26.4667 23.2942 26.4 23.416C26.3333 23.5387 26.2333 23.6222 26.1 23.6667L23.7667 24.7333L22.7 27.0667C22.6556 27.2 22.5724 27.3 22.4507 27.3667C22.328 27.4333 22.2111 27.4667 22.1 27.4667ZM8.76667 22.5C8.52222 22.5 8.28889 22.4333 8.06667 22.3C7.84444 22.1667 7.67778 21.9778 7.56667 21.7333L5.43333 17.0667L0.766667 14.9333C0.522222 14.8222 0.333333 14.6556 0.2 14.4333C0.0666668 14.2111 0 13.9778 0 13.7333C0 13.4889 0.0666668 13.2556 0.2 13.0333C0.333333 12.8111 0.522222 12.6444 0.766667 12.5333L5.43333 10.4L7.56667 5.73333C7.67778 5.48889 7.84444 5.3 8.06667 5.16667C8.28889 5.03333 8.52222 4.96667 8.76667 4.96667C9.01111 4.96667 9.24444 5.03333 9.46667 5.16667C9.68889 5.3 9.85556 5.48889 9.96667 5.73333L12.1 10.4L16.7667 12.5333C17.0111 12.6444 17.2 12.8111 17.3333 13.0333C17.4667 13.2556 17.5333 13.4889 17.5333 13.7333C17.5333 13.9778 17.4667 14.2111 17.3333 14.4333C17.2 14.6556 17.0111 14.8222 16.7667 14.9333L12.1 17.0667L9.96667 21.7333C9.85556 21.9778 9.68889 22.1667 9.46667 22.3C9.24444 22.4333 9.01111 22.5 8.76667 22.5ZM8.76667 17.9333L10.1 15.0667L12.9667 13.7333L10.1 12.4L8.76667 9.53333L7.43333 12.4L4.56667 13.7333L7.43333 15.0667L8.76667 17.9333Z" fill="currentColor"/>
</svg>
