<svg xmlns="http://www.w3.org/2000/svg" width="32" height="32" viewBox="0 0 32 32" fill="none">
  <path d="M19.6278 25.3958L11.9376 25.4094C11.4497 25.4088 11.0023 25.2889 10.5952 25.0497C10.187 24.8101 9.86066 24.4787 9.61622 24.0553L5.79955 17.4446C5.55511 17.0212 5.43123 16.5729 5.42791 16.0996C5.42426 15.6275 5.54415 15.1801 5.78759 14.7572L9.64442 8.10415C9.88786 7.68134 10.2116 7.35327 10.6158 7.11994C11.0199 6.88661 11.4659 6.77023 11.9538 6.77082L19.644 6.75725C20.1319 6.75783 20.5797 6.8775 20.9875 7.11626C21.395 7.35623 21.7209 7.68792 21.9654 8.11131L25.782 14.722C26.0265 15.1454 26.1507 15.5935 26.1548 16.0663C26.1577 16.5389 26.0374 16.9866 25.794 17.4094L21.9372 24.0625C21.6937 24.4853 21.3699 24.8133 20.9658 25.0467C20.5616 25.28 20.1156 25.3964 19.6278 25.3958ZM18.0944 22.74L15.0278 17.4284L8.87562 17.4392L11.9423 22.7508L18.0944 22.74ZM20.4038 21.4066L23.4893 16.0842L20.4226 10.7725L17.3372 16.095L20.4038 21.4066ZM15.0158 14.741L18.1013 9.41849L11.9491 9.42934L8.86366 14.7518L15.0158 14.741Z" fill="currentColor"/>
  <path d="M15.7908 31.9998C11.8796 31.9998 8.45187 30.772 5.50742 28.3165C2.56298 25.8609 0.735202 22.7665 0.0240906 19.0332C-0.0425761 18.6554 0.029646 18.3109 0.240757 17.9998C0.451868 17.6887 0.746313 17.5109 1.12409 17.4665C1.50187 17.422 1.8352 17.5165 2.12409 17.7498C2.41298 17.9832 2.59076 18.2887 2.65742 18.6665C3.2352 21.5776 4.61853 24.0109 6.80742 25.9665C8.99631 27.922 11.5908 29.022 14.5908 29.2665L14.4002 29.076C14.1558 28.8315 14.0336 28.5204 14.0336 28.1426C14.0336 27.7649 14.1558 27.4537 14.4002 27.2093C14.6447 26.9649 14.9558 26.8426 15.3336 26.8426C15.7113 26.8426 16.0225 26.9649 16.2669 27.2093L19.7241 30.6665C19.8796 30.822 19.9296 30.9998 19.8741 31.1998C19.8185 31.3998 19.6908 31.522 19.4908 31.5665C18.8908 31.722 18.2852 31.8332 17.6741 31.8998C17.063 31.9665 16.4352 31.9998 15.7908 31.9998ZM15.7908 -0.000175258C19.7019 -0.000174993 23.1296 1.22205 26.0741 3.66649C29.0185 6.11094 30.8463 9.21094 31.5574 12.9665C31.6241 13.3443 31.5519 13.6887 31.3408 13.9998C31.1296 14.3109 30.8352 14.4887 30.4574 14.5332C30.0796 14.5776 29.7463 14.4832 29.4574 14.2498C29.1685 14.0165 28.9908 13.7109 28.9241 13.3332C28.3463 10.422 26.963 7.98871 24.7741 6.03316C22.5852 4.0776 19.9908 2.9776 16.9908 2.73316L17.1813 2.92368C17.4257 3.16813 17.5479 3.47924 17.5479 3.85702C17.5479 4.23479 17.4257 4.5459 17.1813 4.79035C16.9368 5.03479 16.6257 5.15702 16.2479 5.15702C15.8702 5.15702 15.5591 5.03479 15.3146 4.79035L11.8574 1.33316C11.7019 1.1776 11.6519 0.999824 11.7074 0.799824C11.763 0.599824 11.8908 0.477602 12.0908 0.433158C12.6908 0.277603 13.2963 0.166491 13.9074 0.0998249C14.5185 0.0331585 15.1463 -0.000175158 15.7908 -0.000175258Z" fill="currentColor"/>
</svg>
