<svg xmlns="http://www.w3.org/2000/svg" width="19" height="18" viewBox="0 0 19 18" fill="none">
  <path d="M2 18C1.45 18 0.979167 17.8042 0.5875 17.4125C0.195833 17.0208 0 16.55 0 16V2C0 1.45 0.195833 0.979167 0.5875 0.5875C0.979167 0.195833 1.45 0 2 0H16C16.55 0 17.0208 0.195833 17.4125 0.5875C17.8042 0.979167 18 1.45 18 2V3C18 3.28333 17.9042 3.52083 17.7125 3.7125C17.5208 3.90417 17.2833 4 17 4C16.7167 4 16.4792 3.90417 16.2875 3.7125C16.0958 3.52083 16 3.28333 16 3V2H2V16H16V15C16 14.7167 16.0958 14.4792 16.2875 14.2875C16.4792 14.0958 16.7167 14 17 14C17.2833 14 17.5208 14.0958 17.7125 14.2875C17.9042 14.4792 18 14.7167 18 15V16C18 16.55 17.8042 17.0208 17.4125 17.4125C17.0208 17.8042 16.55 18 16 18H2ZM15.175 10H7C6.71667 10 6.47917 9.90417 6.2875 9.7125C6.09583 9.52083 6 9.28333 6 9C6 8.71667 6.09583 8.47917 6.2875 8.2875C6.47917 8.09583 6.71667 8 7 8H15.175L13.3 6.1C13.1167 5.91667 13.0208 5.6875 13.0125 5.4125C13.0042 5.1375 13.1 4.9 13.3 4.7C13.4833 4.51667 13.7167 4.425 14 4.425C14.2833 4.425 14.5167 4.51667 14.7 4.7L18.3 8.3C18.4 8.4 18.4708 8.50833 18.5125 8.625C18.5542 8.74167 18.575 8.86667 18.575 9C18.575 9.13333 18.5542 9.25833 18.5125 9.375C18.4708 9.49167 18.4 9.6 18.3 9.7L14.7 13.3C14.5167 13.4833 14.2875 13.5792 14.0125 13.5875C13.7375 13.5958 13.5 13.5 13.3 13.3C13.1167 13.1167 13.025 12.8833 13.025 12.6C13.025 12.3167 13.1167 12.0833 13.3 11.9L15.175 10Z" fill="currentColor"/>
</svg>

