<svg xmlns="http://www.w3.org/2000/svg" width="20" height="20" viewBox="0 0 20 20" fill="none">
  <path d="M3.33317 18.3333C2.87484 18.3333 2.48248 18.1701 2.15609 17.8438C1.8297 17.5174 1.6665 17.125 1.6665 16.6667V3.33333C1.6665 2.875 1.8297 2.48264 2.15609 2.15625C2.48248 1.82986 2.87484 1.66667 3.33317 1.66667H8.33317C8.56928 1.66667 8.7672 1.74653 8.92692 1.90625C9.08664 2.06597 9.1665 2.26389 9.1665 2.5C9.1665 2.73611 9.08664 2.93403 8.92692 3.09375C8.7672 3.25347 8.56928 3.33333 8.33317 3.33333H3.33317V16.6667H12.4998V15.8333C12.4998 15.5972 12.5797 15.3993 12.7394 15.2396C12.8991 15.0799 13.0971 15 13.3332 15C13.5693 15 13.7672 15.0799 13.9269 15.2396C14.0866 15.3993 14.1665 15.5972 14.1665 15.8333V16.6667C14.1665 17.125 14.0033 17.5174 13.6769 17.8438C13.3505 18.1701 12.9582 18.3333 12.4998 18.3333H3.33317ZM5.83317 15C5.59706 15 5.39914 14.9201 5.23942 14.7604C5.0797 14.6007 4.99984 14.4028 4.99984 14.1667C4.99984 13.9306 5.0797 13.7326 5.23942 13.5729C5.39914 13.4132 5.59706 13.3333 5.83317 13.3333H9.99984C10.2359 13.3333 10.4339 13.4132 10.5936 13.5729C10.7533 13.7326 10.8332 13.9306 10.8332 14.1667C10.8332 14.4028 10.7533 14.6007 10.5936 14.7604C10.4339 14.9201 10.2359 15 9.99984 15H5.83317ZM5.83317 12.5C5.59706 12.5 5.39914 12.4201 5.23942 12.2604C5.0797 12.1007 4.99984 11.9028 4.99984 11.6667C4.99984 11.4306 5.0797 11.2326 5.23942 11.0729C5.39914 10.9132 5.59706 10.8333 5.83317 10.8333H8.33317C8.56928 10.8333 8.7672 10.9132 8.92692 11.0729C9.08664 11.2326 9.1665 11.4306 9.1665 11.6667C9.1665 11.9028 9.08664 12.1007 8.92692 12.2604C8.7672 12.4201 8.56928 12.5 8.33317 12.5H5.83317ZM7.9165 9.16667C7.56928 9.16667 7.27414 9.04514 7.03109 8.80208C6.78803 8.55903 6.6665 8.26389 6.6665 7.91667V6.25C6.6665 5.90278 6.78803 5.60764 7.03109 5.36458C7.27414 5.12153 7.56928 5 7.9165 5H9.1665L11.0832 3.08333C11.1526 3.01389 11.2394 2.95486 11.3436 2.90625C11.4478 2.85764 11.5554 2.83333 11.6665 2.83333C11.9026 2.83333 12.1005 2.91667 12.2603 3.08333C12.42 3.25 12.4998 3.45139 12.4998 3.6875V10.4792C12.4998 10.7153 12.42 10.9167 12.2603 11.0833C12.1005 11.25 11.9026 11.3333 11.6665 11.3333C11.5554 11.3333 11.4478 11.309 11.3436 11.2604C11.2394 11.2118 11.1526 11.1528 11.0832 11.0833L9.1665 9.16667H7.9165ZM15.8332 7.08333C15.8332 7.54167 15.7429 7.97917 15.5623 8.39583C15.3818 8.8125 15.1248 9.18056 14.7915 9.5C14.6804 9.61111 14.5484 9.63194 14.3957 9.5625C14.2429 9.49306 14.1665 9.36806 14.1665 9.1875V4.97917C14.1665 4.8125 14.2429 4.69097 14.3957 4.61458C14.5484 4.53819 14.6804 4.55556 14.7915 4.66667C15.1248 4.98611 15.3818 5.35417 15.5623 5.77083C15.7429 6.1875 15.8332 6.625 15.8332 7.08333ZM17.4998 7.08333C17.4998 6.16667 17.2672 5.31944 16.8019 4.54167C16.3366 3.76389 15.7012 3.15278 14.8957 2.70833C14.6873 2.59722 14.5415 2.43403 14.4582 2.21875C14.3748 2.00347 14.3748 1.79167 14.4582 1.58333C14.5415 1.36111 14.6908 1.20486 14.9061 1.11458C15.1214 1.02431 15.3262 1.03472 15.5207 1.14583C16.6457 1.72917 17.5346 2.54861 18.1873 3.60417C18.8401 4.65972 19.1665 5.81944 19.1665 7.08333C19.1665 8.34722 18.8401 9.50694 18.1873 10.5625C17.5346 11.6181 16.6457 12.4375 15.5207 13.0208C15.3262 13.1319 15.1214 13.1424 14.9061 13.0521C14.6908 12.9618 14.5415 12.8056 14.4582 12.5833C14.3748 12.375 14.3748 12.1632 14.4582 11.9479C14.5415 11.7326 14.6873 11.5694 14.8957 11.4583C15.7012 11.0139 16.3366 10.4028 16.8019 9.625C17.2672 8.84722 17.4998 8 17.4998 7.08333Z" fill="currentColor"/>
</svg>
