<svg xmlns="http://www.w3.org/2000/svg" width="22" height="22" viewBox="0 0 22 22" fill="none">
  <path d="M0 21V17C0 16.7167 0.0958333 16.4792 0.2875 16.2875C0.479167 16.0958 0.716667 16 1 16H2V6H1C0.716667 6 0.479167 5.90417 0.2875 5.7125C0.0958333 5.52083 0 5.28333 0 5V1C0 0.716667 0.0958333 0.479167 0.2875 0.2875C0.479167 0.0958333 0.716667 0 1 0H5C5.28333 0 5.52083 0.0958333 5.7125 0.2875C5.90417 0.479167 6 0.716667 6 1V2H16V1C16 0.716667 16.0958 0.479167 16.2875 0.2875C16.4792 0.0958333 16.7167 0 17 0H21C21.2833 0 21.5208 0.0958333 21.7125 0.2875C21.9042 0.479167 22 0.716667 22 1V5C22 5.28333 21.9042 5.52083 21.7125 5.7125C21.5208 5.90417 21.2833 6 21 6H20V16H21C21.2833 16 21.5208 16.0958 21.7125 16.2875C21.9042 16.4792 22 16.7167 22 17V21C22 21.2833 21.9042 21.5208 21.7125 21.7125C21.5208 21.9042 21.2833 22 21 22H17C16.7167 22 16.4792 21.9042 16.2875 21.7125C16.0958 21.5208 16 21.2833 16 21V20H6V21C6 21.2833 5.90417 21.5208 5.7125 21.7125C5.52083 21.9042 5.28333 22 5 22H1C0.716667 22 0.479167 21.9042 0.2875 21.7125C0.0958333 21.5208 0 21.2833 0 21ZM6 18H16V17C16 16.7167 16.0958 16.4792 16.2875 16.2875C16.4792 16.0958 16.7167 16 17 16H18V6H17C16.7167 6 16.4792 5.90417 16.2875 5.7125C16.0958 5.52083 16 5.28333 16 5V4H6V5C6 5.28333 5.90417 5.52083 5.7125 5.7125C5.52083 5.90417 5.28333 6 5 6H4V16H5C5.28333 16 5.52083 16.0958 5.7125 16.2875C5.90417 16.4792 6 16.7167 6 17V18ZM2 4H4V2H2V4ZM18 4H20V2H18V4ZM18 20H20V18H18V20ZM2 20H4V18H2V20Z" fill="currentColor"/>
  <path d="M15 6C15.5523 6 16 6.44772 16 7V11C16 11.5523 15.5523 12 15 12H10C9.44771 12 9 11.5523 9 11V7C9 6.44772 9.44771 6 10 6H15ZM11 10H14V8H11V10Z" fill="currentColor"/>
  <path d="M12 10C12.5523 10 13 10.4477 13 11V15C13 15.5523 12.5523 16 12 16H7C6.44772 16 6 15.5523 6 15V11C6 10.4477 6.44772 10 7 10H12ZM8 14H11V12H8V14Z" fill="currentColor"/>
</svg>
