<svg xmlns="http://www.w3.org/2000/svg" width="14" height="10" viewBox="0 0 14 10" fill="none">
  <path d="M1 10C0.716667 10 0.479167 9.90417 0.2875 9.7125C0.0958333 9.52083 0 9.28333 0 9V1C0 0.716667 0.0958333 0.479167 0.2875 0.2875C0.479167 0.0958333 0.716667 0 1 0C1.28333 0 1.52083 0.0958333 1.7125 0.2875C1.90417 0.479167 2 0.716667 2 1V4H6V1C6 0.716667 6.09583 0.479167 6.2875 0.2875C6.47917 0.0958333 6.71667 0 7 0C7.28333 0 7.52083 0.0958333 7.7125 0.2875C7.90417 0.479167 8 0.716667 8 1V9C8 9.28333 7.90417 9.52083 7.7125 9.7125C7.52083 9.90417 7.28333 10 7 10C6.71667 10 6.47917 9.90417 6.2875 9.7125C6.09583 9.52083 6 9.28333 6 9V6H2V9C2 9.28333 1.90417 9.52083 1.7125 9.7125C1.52083 9.90417 1.28333 10 1 10ZM13 10C12.7167 10 12.4792 9.90417 12.2875 9.7125C12.0958 9.52083 12 9.28333 12 9V2H11C10.7167 2 10.4792 1.90417 10.2875 1.7125C10.0958 1.52083 10 1.28333 10 1C10 0.716667 10.0958 0.479167 10.2875 0.2875C10.4792 0.0958333 10.7167 0 11 0H13C13.2833 0 13.5208 0.0958333 13.7125 0.2875C13.9042 0.479167 14 0.716667 14 1V9C14 9.28333 13.9042 9.52083 13.7125 9.7125C13.5208 9.90417 13.2833 10 13 10Z" fill="currentColor"/>
</svg>
