<svg xmlns="http://www.w3.org/2000/svg" width="18" height="10" viewBox="0 0 18 10" fill="none">
  <path d="M1 10C0.716667 10 0.479167 9.90417 0.2875 9.7125C0.0958333 9.52083 0 9.28333 0 9V1C0 0.716667 0.0958333 0.479167 0.2875 0.2875C0.479167 0.0958333 0.716667 0 1 0C1.28333 0 1.52083 0.0958333 1.7125 0.2875C1.90417 0.479167 2 0.716667 2 1V4H6V1C6 0.716667 6.09583 0.479167 6.2875 0.2875C6.47917 0.0958333 6.71667 0 7 0C7.28333 0 7.52083 0.0958333 7.7125 0.2875C7.90417 0.479167 8 0.716667 8 1V9C8 9.28333 7.90417 9.52083 7.7125 9.7125C7.52083 9.90417 7.28333 10 7 10C6.71667 10 6.47917 9.90417 6.2875 9.7125C6.09583 9.52083 6 9.28333 6 9V6H2V9C2 9.28333 1.90417 9.52083 1.7125 9.7125C1.52083 9.90417 1.28333 10 1 10ZM11 10C10.7167 10 10.4792 9.90417 10.2875 9.7125C10.0958 9.52083 10 9.28333 10 9C10 8.71667 10.0958 8.47917 10.2875 8.2875C10.4792 8.09583 10.7167 8 11 8H16V6H13C12.7167 6 12.4792 5.90417 12.2875 5.7125C12.0958 5.52083 12 5.28333 12 5C12 4.71667 12.0958 4.47917 12.2875 4.2875C12.4792 4.09583 12.7167 4 13 4H16V2H11C10.7167 2 10.4792 1.90417 10.2875 1.7125C10.0958 1.52083 10 1.28333 10 1C10 0.716667 10.0958 0.479167 10.2875 0.2875C10.4792 0.0958333 10.7167 0 11 0H16C16.55 0 17.0208 0.195833 17.4125 0.5875C17.8042 0.979167 18 1.45 18 2V8C18 8.55 17.8042 9.02083 17.4125 9.4125C17.0208 9.80417 16.55 10 16 10H11Z" fill="currentColor"/>
</svg>
