<svg xmlns="http://www.w3.org/2000/svg" width="27" height="14" viewBox="0 0 27 14" fill="none">
  <path d="M6.66667 13.3333C4.82222 13.3333 3.25 12.6833 1.95 11.3833C0.65 10.0833 0 8.51111 0 6.66667C0 4.82222 0.65 3.25 1.95 1.95C3.25 0.65 4.82222 0 6.66667 0H10.6667C11.0444 0 11.3611 0.127778 11.6167 0.383333C11.8722 0.638889 12 0.955556 12 1.33333C12 1.71111 11.8722 2.02778 11.6167 2.28333C11.3611 2.53889 11.0444 2.66667 10.6667 2.66667H6.66667C5.55556 2.66667 4.61111 3.05556 3.83333 3.83333C3.05556 4.61111 2.66667 5.55556 2.66667 6.66667C2.66667 7.77778 3.05556 8.72222 3.83333 9.5C4.61111 10.2778 5.55556 10.6667 6.66667 10.6667H10.6667C11.0444 10.6667 11.3611 10.7944 11.6167 11.05C11.8722 11.3056 12 11.6222 12 12C12 12.3778 11.8722 12.6944 11.6167 12.95C11.3611 13.2056 11.0444 13.3333 10.6667 13.3333H6.66667ZM9.33333 8C8.95556 8 8.63889 7.87222 8.38333 7.61667C8.12778 7.36111 8 7.04444 8 6.66667C8 6.28889 8.12778 5.97222 8.38333 5.71667C8.63889 5.46111 8.95556 5.33333 9.33333 5.33333H17.3333C17.7111 5.33333 18.0278 5.46111 18.2833 5.71667C18.5389 5.97222 18.6667 6.28889 18.6667 6.66667C18.6667 7.04444 18.5389 7.36111 18.2833 7.61667C18.0278 7.87222 17.7111 8 17.3333 8H9.33333ZM16 13.3333C15.6222 13.3333 15.3056 13.2056 15.05 12.95C14.7944 12.6944 14.6667 12.3778 14.6667 12C14.6667 11.6222 14.7944 11.3056 15.05 11.05C15.3056 10.7944 15.6222 10.6667 16 10.6667H20C21.1111 10.6667 22.0556 10.2778 22.8333 9.5C23.6111 8.72222 24 7.77778 24 6.66667C24 5.55556 23.6111 4.61111 22.8333 3.83333C22.0556 3.05556 21.1111 2.66667 20 2.66667H16C15.6222 2.66667 15.3056 2.53889 15.05 2.28333C14.7944 2.02778 14.6667 1.71111 14.6667 1.33333C14.6667 0.955556 14.7944 0.638889 15.05 0.383333C15.3056 0.127778 15.6222 0 16 0H20C21.8444 0 23.4167 0.65 24.7167 1.95C26.0167 3.25 26.6667 4.82222 26.6667 6.66667C26.6667 8.51111 26.0167 10.0833 24.7167 11.3833C23.4167 12.6833 21.8444 13.3333 20 13.3333H16Z" fill="currentColor"/>
</svg>
