<svg xmlns="http://www.w3.org/2000/svg" width="34" height="34" viewBox="0 0 34 34" fill="none">
  <path d="M16.6667 33.3333C14.3889 33.3333 12.2361 32.8958 10.2083 32.0208C8.18056 31.1458 6.40972 29.9514 4.89583 28.4375C3.38194 26.9236 2.1875 25.1528 1.3125 23.125C0.4375 21.0972 0 18.9444 0 16.6667C0 14.3611 0.451389 12.1944 1.35417 10.1667C2.25694 8.13889 3.47917 6.375 5.02083 4.875C6.5625 3.375 8.36111 2.1875 10.4167 1.3125C12.4722 0.4375 14.6667 0 17 0C19.2222 0 21.3194 0.381944 23.2917 1.14583C25.2639 1.90972 26.9931 2.96528 28.4792 4.3125C29.9653 5.65972 31.1458 7.25694 32.0208 9.10417C32.8958 10.9514 33.3333 12.9444 33.3333 15.0833C33.3333 18.2778 32.3611 20.7292 30.4167 22.4375C28.4722 24.1458 26.1111 25 23.3333 25H20.25C20 25 19.8264 25.0694 19.7292 25.2083C19.6319 25.3472 19.5833 25.5 19.5833 25.6667C19.5833 26 19.7917 26.4792 20.2083 27.1042C20.625 27.7292 20.8333 28.4444 20.8333 29.25C20.8333 30.6389 20.4514 31.6667 19.6875 32.3333C18.9236 33 17.9167 33.3333 16.6667 33.3333ZM7.5 18.3333C8.22222 18.3333 8.81944 18.0972 9.29167 17.625C9.76389 17.1528 10 16.5556 10 15.8333C10 15.1111 9.76389 14.5139 9.29167 14.0417C8.81944 13.5694 8.22222 13.3333 7.5 13.3333C6.77778 13.3333 6.18056 13.5694 5.70833 14.0417C5.23611 14.5139 5 15.1111 5 15.8333C5 16.5556 5.23611 17.1528 5.70833 17.625C6.18056 18.0972 6.77778 18.3333 7.5 18.3333ZM12.5 11.6667C13.2222 11.6667 13.8194 11.4306 14.2917 10.9583C14.7639 10.4861 15 9.88889 15 9.16667C15 8.44444 14.7639 7.84722 14.2917 7.375C13.8194 6.90278 13.2222 6.66667 12.5 6.66667C11.7778 6.66667 11.1806 6.90278 10.7083 7.375C10.2361 7.84722 10 8.44444 10 9.16667C10 9.88889 10.2361 10.4861 10.7083 10.9583C11.1806 11.4306 11.7778 11.6667 12.5 11.6667ZM20.8333 11.6667C21.5556 11.6667 22.1528 11.4306 22.625 10.9583C23.0972 10.4861 23.3333 9.88889 23.3333 9.16667C23.3333 8.44444 23.0972 7.84722 22.625 7.375C22.1528 6.90278 21.5556 6.66667 20.8333 6.66667C20.1111 6.66667 19.5139 6.90278 19.0417 7.375C18.5694 7.84722 18.3333 8.44444 18.3333 9.16667C18.3333 9.88889 18.5694 10.4861 19.0417 10.9583C19.5139 11.4306 20.1111 11.6667 20.8333 11.6667ZM25.8333 18.3333C26.5556 18.3333 27.1528 18.0972 27.625 17.625C28.0972 17.1528 28.3333 16.5556 28.3333 15.8333C28.3333 15.1111 28.0972 14.5139 27.625 14.0417C27.1528 13.5694 26.5556 13.3333 25.8333 13.3333C25.1111 13.3333 24.5139 13.5694 24.0417 14.0417C23.5694 14.5139 23.3333 15.1111 23.3333 15.8333C23.3333 16.5556 23.5694 17.1528 24.0417 17.625C24.5139 18.0972 25.1111 18.3333 25.8333 18.3333ZM16.6667 30C16.9167 30 17.1181 29.9306 17.2708 29.7917C17.4236 29.6528 17.5 29.4722 17.5 29.25C17.5 28.8611 17.2917 28.4028 16.875 27.875C16.4583 27.3472 16.25 26.5556 16.25 25.5C16.25 24.3333 16.6528 23.4028 17.4583 22.7083C18.2639 22.0139 19.25 21.6667 20.4167 21.6667H23.3333C25.1667 21.6667 26.7361 21.1319 28.0417 20.0625C29.3472 18.9931 30 17.3333 30 15.0833C30 11.7222 28.7153 8.92361 26.1458 6.6875C23.5764 4.45139 20.5278 3.33333 17 3.33333C13.2222 3.33333 10 4.625 7.33333 7.20833C4.66667 9.79167 3.33333 12.9444 3.33333 16.6667C3.33333 20.3611 4.63194 23.5069 7.22917 26.1042C9.82639 28.7014 12.9722 30 16.6667 30Z" fill="#B3B3B3"/>
</svg>
