<svg xmlns="http://www.w3.org/2000/svg" width="13" height="13" viewBox="0 0 13 13" fill="none">
  <path d="M8.78363 9.9375L6.42113 8.5125L4.05863 9.95625L4.67738 7.25625L2.59613 5.45625L5.33363 5.2125L6.42113 2.6625L7.50863 5.19375L10.2461 5.4375L8.16488 7.25625L8.78363 9.9375ZM6.42113 10.275L9.53363 12.15C9.67113 12.2375 9.81488 12.275 9.96488 12.2625C10.1149 12.25 10.2461 12.2 10.3586 12.1125C10.4711 12.025 10.5586 11.9156 10.6211 11.7844C10.6836 11.6531 10.6961 11.5062 10.6586 11.3437L9.83363 7.8L12.5899 5.41875C12.7149 5.30625 12.793 5.17812 12.8243 5.03437C12.8555 4.89062 12.8461 4.75 12.7961 4.6125C12.7461 4.475 12.6711 4.3625 12.5711 4.275C12.4711 4.1875 12.3336 4.13125 12.1586 4.10625L8.52113 3.7875L7.11488 0.45C7.05238 0.3 6.95551 0.1875 6.82426 0.1125C6.69301 0.0375 6.55863 0 6.42113 0C6.28363 0 6.14926 0.0375 6.01801 0.1125C5.88676 0.1875 5.78988 0.3 5.72738 0.45L4.32113 3.7875L0.683631 4.10625C0.508631 4.13125 0.371131 4.1875 0.271131 4.275C0.171131 4.3625 0.0961306 4.475 0.0461306 4.6125C-0.00386938 4.75 -0.0132444 4.89062 0.0180056 5.03437C0.0492556 5.17812 0.127381 5.30625 0.252381 5.41875L3.00863 7.8L2.18363 11.3437C2.14613 11.5062 2.15863 11.6531 2.22113 11.7844C2.28363 11.9156 2.37113 12.025 2.48363 12.1125C2.59613 12.2 2.72738 12.25 2.87738 12.2625C3.02738 12.275 3.17113 12.2375 3.30863 12.15L6.42113 10.275Z" fill="currentColor"/>
</svg>
