<svg xmlns="http://www.w3.org/2000/svg" width="30" height="30" viewBox="0 0 30 30" fill="none">
  <path d="M3.33333 30C2.41667 30 1.63194 29.6736 0.979167 29.0208C0.326389 28.3681 0 27.5833 0 26.6667V3.33333C0 2.41667 0.326389 1.63194 0.979167 0.979167C1.63194 0.326389 2.41667 0 3.33333 0H26.6667C27.5833 0 28.3681 0.326389 29.0208 0.979167C29.6736 1.63194 30 2.41667 30 3.33333V26.6667C30 27.5833 29.6736 28.3681 29.0208 29.0208C28.3681 29.6736 27.5833 30 26.6667 30H3.33333ZM3.33333 26.6667H26.6667V3.33333H3.33333V26.6667ZM6.66667 23.3333H23.3333C23.6667 23.3333 23.9167 23.1806 24.0833 22.875C24.25 22.5694 24.2222 22.2778 24 22L19.4167 15.875C19.25 15.6528 19.0278 15.5417 18.75 15.5417C18.4722 15.5417 18.25 15.6528 18.0833 15.875L13.75 21.6667L10.6667 17.5417C10.5 17.3194 10.2778 17.2083 10 17.2083C9.72222 17.2083 9.5 17.3194 9.33333 17.5417L6 22C5.77778 22.2778 5.75 22.5694 5.91667 22.875C6.08333 23.1806 6.33333 23.3333 6.66667 23.3333ZM9.16667 11.6667C9.86111 11.6667 10.4514 11.4236 10.9375 10.9375C11.4236 10.4514 11.6667 9.86111 11.6667 9.16667C11.6667 8.47222 11.4236 7.88194 10.9375 7.39583C10.4514 6.90972 9.86111 6.66667 9.16667 6.66667C8.47222 6.66667 7.88194 6.90972 7.39583 7.39583C6.90972 7.88194 6.66667 8.47222 6.66667 9.16667C6.66667 9.86111 6.90972 10.4514 7.39583 10.9375C7.88194 11.4236 8.47222 11.6667 9.16667 11.6667Z" fill="currentColor"/>
</svg>
