<svg xmlns="http://www.w3.org/2000/svg" width="30" height="30" viewBox="0 0 30 30" fill="none">
  <path d="M21.3333 28V24H8C7.26667 24 6.63889 23.7389 6.11667 23.2167C5.59444 22.6944 5.33333 22.0667 5.33333 21.3333V8H1.33333C0.955556 8 0.638889 7.87222 0.383333 7.61667C0.127778 7.36111 0 7.04444 0 6.66667C0 6.28889 0.127778 5.97222 0.383333 5.71667C0.638889 5.46111 0.955556 5.33333 1.33333 5.33333H5.33333V1.33333C5.33333 0.955556 5.46111 0.638889 5.71667 0.383333C5.97222 0.127778 6.28889 0 6.66667 0C7.04444 0 7.36111 0.127778 7.61667 0.383333C7.87222 0.638889 8 0.955556 8 1.33333V21.3333H28C28.3778 21.3333 28.6944 21.4611 28.95 21.7167C29.2056 21.9722 29.3333 22.2889 29.3333 22.6667C29.3333 23.0444 29.2056 23.3611 28.95 23.6167C28.6944 23.8722 28.3778 24 28 24H24V28C24 28.3778 23.8722 28.6944 23.6167 28.95C23.3611 29.2056 23.0444 29.3333 22.6667 29.3333C22.2889 29.3333 21.9722 29.2056 21.7167 28.95C21.4611 28.6944 21.3333 28.3778 21.3333 28ZM21.3333 18.6667V8H10.6667V5.33333H21.3333C22.0667 5.33333 22.6944 5.59444 23.2167 6.11667C23.7389 6.63889 24 7.26667 24 8V18.6667H21.3333Z" fill="currentColor"/>
</svg>
