<svg xmlns="http://www.w3.org/2000/svg" width="27" height="27" viewBox="0 0 27 27" fill="none">
  <path d="M14.1 12H15.4333C15.8111 12 16.1278 12.1278 16.3833 12.3833C16.6389 12.6389 16.7667 12.9556 16.7667 13.3333C16.7667 13.7111 16.6389 14.0278 16.3833 14.2833C16.1278 14.5389 15.8111 14.6667 15.4333 14.6667H12.7667C12.3889 14.6667 12.0722 14.5389 11.8167 14.2833C11.5611 14.0278 11.4333 13.7111 11.4333 13.3333V10.6667C11.4333 10.2889 11.5611 9.97222 11.8167 9.71667C12.0722 9.46111 12.3889 9.33333 12.7667 9.33333C13.1444 9.33333 13.4611 9.46111 13.7167 9.71667C13.9722 9.97222 14.1 10.2889 14.1 10.6667V12ZM23.4333 12V10.6667C23.4333 10.2889 23.5611 9.97222 23.8167 9.71667C24.0722 9.46111 24.3889 9.33333 24.7667 9.33333C25.1444 9.33333 25.4611 9.46111 25.7167 9.71667C25.9722 9.97222 26.1 10.2889 26.1 10.6667V13.3333C26.1 13.7111 25.9722 14.0278 25.7167 14.2833C25.4611 14.5389 25.1444 14.6667 24.7667 14.6667H22.1C21.7222 14.6667 21.4056 14.5389 21.15 14.2833C20.8944 14.0278 20.7667 13.7111 20.7667 13.3333C20.7667 12.9556 20.8944 12.6389 21.15 12.3833C21.4056 12.1278 21.7222 12 22.1 12H23.4333ZM14.1 2.66667V4C14.1 4.37778 13.9722 4.69444 13.7167 4.95C13.4611 5.20556 13.1444 5.33333 12.7667 5.33333C12.3889 5.33333 12.0722 5.20556 11.8167 4.95C11.5611 4.69444 11.4333 4.37778 11.4333 4V1.33333C11.4333 0.955556 11.5611 0.638889 11.8167 0.383333C12.0722 0.127778 12.3889 0 12.7667 0H15.4333C15.8111 0 16.1278 0.127778 16.3833 0.383333C16.6389 0.638889 16.7667 0.955556 16.7667 1.33333C16.7667 1.71111 16.6389 2.02778 16.3833 2.28333C16.1278 2.53889 15.8111 2.66667 15.4333 2.66667H14.1ZM23.4333 2.66667H22.1C21.7222 2.66667 21.4056 2.53889 21.15 2.28333C20.8944 2.02778 20.7667 1.71111 20.7667 1.33333C20.7667 0.955556 20.8944 0.638889 21.15 0.383333C21.4056 0.127778 21.7222 0 22.1 0H24.7667C25.1444 0 25.4611 0.127778 25.7167 0.383333C25.9722 0.638889 26.1 0.955556 26.1 1.33333V4C26.1 4.37778 25.9722 4.69444 25.7167 4.95C25.4611 5.20556 25.1444 5.33333 24.7667 5.33333C24.3889 5.33333 24.0722 5.20556 23.8167 4.95C23.5611 4.69444 23.4333 4.37778 23.4333 4V2.66667ZM8.76667 19.2L2.23333 25.7333C1.98889 25.9778 1.67778 26.1 1.3 26.1C0.922222 26.1 0.611111 25.9778 0.366667 25.7333C0.122222 25.4889 0 25.1778 0 24.8C0 24.4222 0.122222 24.1111 0.366667 23.8667L6.9 17.3333H2.1C1.72222 17.3333 1.40556 17.2056 1.15 16.95C0.894444 16.6944 0.766667 16.3778 0.766667 16C0.766667 15.6222 0.894444 15.3056 1.15 15.05C1.40556 14.7944 1.72222 14.6667 2.1 14.6667H10.1C10.4778 14.6667 10.7944 14.7944 11.05 15.05C11.3056 15.3056 11.4333 15.6222 11.4333 16V24C11.4333 24.3778 11.3056 24.6944 11.05 24.95C10.7944 25.2056 10.4778 25.3333 10.1 25.3333C9.72222 25.3333 9.40556 25.2056 9.15 24.95C8.89444 24.6944 8.76667 24.3778 8.76667 24V19.2Z" fill="currentColor"/>
</svg>
