<svg xmlns="http://www.w3.org/2000/svg" width="30" height="30" viewBox="0 0 30 30" fill="none">
  <path d="M24.5895 11.5479C24.714 11.0209 25.2356 10.6857 25.7662 10.792L27.2711 11.0928C27.9466 11.2073 28.4834 11.5418 28.8815 12.0957C29.2796 12.6496 29.4209 13.2585 29.3043 13.9219L26.9723 27.1904C26.8557 27.8539 26.515 28.3815 25.9508 28.7725C25.3867 29.1632 24.7669 29.3019 24.0914 29.1875L17.3346 28.042L13.9557 27.4697L11.9615 27.1318C11.2128 27.0047 10.7319 26.2709 10.9137 25.5332C11.0791 24.8629 11.7362 24.4316 12.4166 24.5469L14.4928 24.8994L17.7779 25.4561L24.3483 26.5684L26.6197 13.6445L25.2164 13.3623C24.6644 13.2514 24.3154 12.7074 24.4449 12.1592L24.5895 11.5479ZM3.44005 6.42285C3.96955 6.31908 4.48875 6.65429 4.6129 7.17969L4.75743 7.79102C4.88734 8.34077 4.53601 8.88612 3.98204 8.99512L2.72325 9.24316L4.99474 22.167L18.1676 19.8281C18.8514 19.7067 19.515 20.1388 19.6813 20.8135C19.862 21.5477 19.3864 22.2782 18.6422 22.4102L5.25157 24.7852C4.5761 24.8995 3.95624 24.7618 3.3922 24.3711C2.82801 23.9802 2.4873 23.4525 2.37071 22.7891L0.0396588 9.52051C-0.0769185 8.85711 0.0634576 8.24827 0.461534 7.69434C0.859601 7.14047 1.39638 6.80594 2.07189 6.69141L3.44005 6.42285ZM21.5162 0C22.2006 5.60473e-05 22.7867 0.244094 23.274 0.731445C23.7613 1.21882 24.0045 1.80488 24.0045 2.48926V16.1777C24.0045 16.862 23.7612 17.4482 23.274 17.9355C22.7867 18.4229 22.2006 18.6669 21.5162 18.667H7.82677C7.14246 18.6669 6.55629 18.4229 6.06896 17.9355C5.58178 17.4482 5.33849 16.862 5.33849 16.1777V2.48926C5.33849 1.8049 5.58167 1.21882 6.06896 0.731445C6.55629 0.244116 7.14246 7.77154e-05 7.82677 0H21.5162ZM8.0045 16H21.316V2.66699H8.0045V16ZM13.9186 5.52148C14.3857 5.27255 14.9572 5.27255 15.4244 5.52148L17.9391 6.86133C18.4173 7.11636 18.7125 7.59343 18.7125 8.11035V10.7451C18.7123 11.262 18.4174 11.7392 17.9391 11.9941L15.4244 13.334C14.9574 13.5827 14.3856 13.5827 13.9186 13.334L11.4039 11.9941C10.9256 11.7392 10.6306 11.262 10.6305 10.7451V8.11035C10.6305 7.59344 10.9257 7.11636 11.4039 6.86133L13.9186 5.52148Z" fill="currentColor"/>
</svg>
