<svg xmlns="http://www.w3.org/2000/svg" width="24" height="28" viewBox="0 0 24 28" fill="none">
  <path d="M1.41569 14.1C0.94902 14.1 0.576797 13.9333 0.29902 13.6C0.0212418 13.2667 -0.0620915 12.8778 0.0490196 12.4333C0.182353 11.8778 0.360131 11.3444 0.582353 10.8333C0.804575 10.3222 1.06013 9.82222 1.34902 9.33333C1.57124 8.95556 1.89902 8.74444 2.33235 8.7C2.76569 8.65556 3.14902 8.78889 3.48235 9.1C3.68235 9.3 3.80457 9.55 3.84902 9.85C3.89346 10.15 3.83791 10.4222 3.68235 10.6667C3.46013 11.0444 3.26569 11.4389 3.09902 11.85C2.93235 12.2611 2.79346 12.6778 2.68235 13.1C2.61569 13.3889 2.45458 13.6278 2.19902 13.8167C1.94346 14.0056 1.68235 14.1 1.41569 14.1ZM10.349 25.7C10.349 26.1889 10.1824 26.5667 9.84902 26.8333C9.51569 27.1 9.1268 27.1778 8.68235 27.0667C8.14902 26.9111 7.6268 26.7278 7.11569 26.5167C6.60457 26.3056 6.09346 26.0556 5.58235 25.7667C5.20457 25.5444 4.99346 25.2167 4.94902 24.7833C4.90457 24.35 5.03791 23.9667 5.34902 23.6333C5.54902 23.4333 5.79902 23.3111 6.09902 23.2667C6.39902 23.2222 6.67124 23.2778 6.91569 23.4333C7.29346 23.6556 7.68791 23.85 8.09902 24.0167C8.51013 24.1833 8.9268 24.3222 9.34902 24.4333C9.63791 24.5 9.8768 24.6611 10.0657 24.9167C10.2546 25.1722 10.349 25.4333 10.349 25.7ZM3.48235 21.7667C3.14902 22.0778 2.76569 22.2111 2.33235 22.1667C1.89902 22.1222 1.57124 21.9111 1.34902 21.5333C1.06013 21.0222 0.810131 20.5111 0.59902 20C0.387908 19.4889 0.204575 18.9667 0.0490196 18.4333C-0.0620915 17.9889 0.0156863 17.6 0.282353 17.2667C0.54902 16.9333 0.926797 16.7667 1.41569 16.7667C1.70458 16.7667 1.97124 16.8611 2.21569 17.05C2.46013 17.2389 2.61569 17.4778 2.68235 17.7667C2.79346 18.1889 2.93235 18.6056 3.09902 19.0167C3.26569 19.4278 3.46013 19.8222 3.68235 20.2C3.83791 20.4444 3.89346 20.7222 3.84902 21.0333C3.80457 21.3444 3.68235 21.5889 3.48235 21.7667ZM14.649 27.0333C14.2046 27.1444 13.8212 27.0667 13.499 26.8C13.1768 26.5333 13.0157 26.1667 13.0157 25.7C13.0157 25.4111 13.1101 25.1444 13.299 24.9C13.4879 24.6556 13.7268 24.5 14.0157 24.4333C16.0601 23.9 17.7379 22.8056 19.049 21.15C20.3601 19.4944 21.0157 17.5889 21.0157 15.4333C21.0157 12.8333 20.1101 10.6278 18.299 8.81667C16.4879 7.00556 14.2824 6.1 11.6824 6.1H11.4157L12.6157 7.3C12.8601 7.54444 12.9824 7.85556 12.9824 8.23333C12.9824 8.61111 12.8601 8.92222 12.6157 9.16667C12.3712 9.41111 12.0601 9.53333 11.6824 9.53333C11.3046 9.53333 10.9935 9.41111 10.749 9.16667L7.28235 5.7C7.14902 5.56667 7.05457 5.42222 6.99902 5.26667C6.94346 5.11111 6.91569 4.94444 6.91569 4.76667C6.91569 4.58889 6.94346 4.42222 6.99902 4.26667C7.05457 4.11111 7.14902 3.96667 7.28235 3.83333L10.7157 0.366667C10.9824 0.122222 11.3046 0 11.6824 0C12.0601 0 12.3712 0.122222 12.6157 0.366667C12.8824 0.633333 13.0157 0.955556 13.0157 1.33333C13.0157 1.71111 12.8935 2.02222 12.649 2.26667L11.4824 3.43333H11.6824C15.0157 3.43333 17.849 4.6 20.1824 6.93333C22.5157 9.26667 23.6824 12.1 23.6824 15.4333C23.6824 18.1889 22.8379 20.6333 21.149 22.7667C19.4601 24.9 17.2935 26.3222 14.649 27.0333Z" fill="currentColor"/>
</svg>
