<svg xmlns="http://www.w3.org/2000/svg" width="21" height="27" viewBox="0 0 21 27" fill="none">
  <path d="M8.33333 26.6667C6.02222 26.6667 4.05556 25.8556 2.43333 24.2333C0.811111 22.6111 0 20.6444 0 18.3333V6C0 4.33333 0.583333 2.91667 1.75 1.75C2.91667 0.583333 4.33333 0 6 0C7.66667 0 9.08333 0.583333 10.25 1.75C11.4167 2.91667 12 4.33333 12 6V14.6667C12 15.0444 11.8722 15.3611 11.6167 15.6167C11.3611 15.8722 11.0444 16 10.6667 16C10.2889 16 9.97222 15.8722 9.71667 15.6167C9.46111 15.3611 9.33333 15.0444 9.33333 14.6667V6C9.31111 5.06667 8.98333 4.27778 8.35 3.63333C7.71667 2.98889 6.93333 2.66667 6 2.66667C5.06667 2.66667 4.27778 2.98889 3.63333 3.63333C2.98889 4.27778 2.66667 5.06667 2.66667 6V18.3333C2.64444 19.9111 3.18889 21.25 4.3 22.35C5.41111 23.45 6.75556 24 8.33333 24C8.71111 24 9.06667 23.9611 9.4 23.8833C9.73333 23.8056 10.0556 23.7111 10.3667 23.6C10.7222 23.4667 11.0667 23.4722 11.4 23.6167C11.7333 23.7611 11.9667 24.0111 12.1 24.3667C12.2333 24.7222 12.2278 25.0667 12.0833 25.4C11.9389 25.7333 11.6889 25.9667 11.3333 26.1C10.8667 26.2778 10.3833 26.4167 9.88333 26.5167C9.38333 26.6167 8.86667 26.6667 8.33333 26.6667ZM15.3333 25.3333C14.9556 25.3333 14.6389 25.2056 14.3833 24.95C14.1278 24.6944 14 24.3778 14 24V21.3333H11.3333C10.9556 21.3333 10.6389 21.2056 10.3833 20.95C10.1278 20.6944 10 20.3778 10 20C10 19.6222 10.1278 19.3056 10.3833 19.05C10.6389 18.7944 10.9556 18.6667 11.3333 18.6667H14V16C14 15.6222 14.1278 15.3056 14.3833 15.05C14.6389 14.7944 14.9556 14.6667 15.3333 14.6667C15.7111 14.6667 16.0278 14.7944 16.2833 15.05C16.5389 15.3056 16.6667 15.6222 16.6667 16V18.6667H19.3333C19.7111 18.6667 20.0278 18.7944 20.2833 19.05C20.5389 19.3056 20.6667 19.6222 20.6667 20C20.6667 20.3778 20.5389 20.6944 20.2833 20.95C20.0278 21.2056 19.7111 21.3333 19.3333 21.3333H16.6667V24C16.6667 24.3778 16.5389 24.6944 16.2833 24.95C16.0278 25.2056 15.7111 25.3333 15.3333 25.3333ZM6 20C5.62222 20 5.30556 19.8722 5.05 19.6167C4.79444 19.3611 4.66667 19.0444 4.66667 18.6667V6.66667C4.66667 6.28889 4.79444 5.97222 5.05 5.71667C5.30556 5.46111 5.62222 5.33333 6 5.33333C6.37778 5.33333 6.69444 5.46111 6.95 5.71667C7.20556 5.97222 7.33333 6.28889 7.33333 6.66667V18.6667C7.33333 19.0444 7.20556 19.3611 6.95 19.6167C6.69444 19.8722 6.37778 20 6 20ZM15.3333 12C14.9556 12 14.6389 11.8722 14.3833 11.6167C14.1278 11.3611 14 11.0444 14 10.6667V6.66667C14 6.28889 14.1278 5.97222 14.3833 5.71667C14.6389 5.46111 14.9556 5.33333 15.3333 5.33333C15.7111 5.33333 16.0278 5.46111 16.2833 5.71667C16.5389 5.97222 16.6667 6.28889 16.6667 6.66667V10.6667C16.6667 11.0444 16.5389 11.3611 16.2833 11.6167C16.0278 11.8722 15.7111 12 15.3333 12Z" fill="currentColor"/>
</svg>
