<svg xmlns="http://www.w3.org/2000/svg" width="27" height="26" viewBox="0 0 27 26" fill="none">
  <path d="M12 24V22.6667C12 22.2889 12.1278 21.9722 12.3833 21.7167C12.6389 21.4611 12.9556 21.3333 13.3333 21.3333C13.7111 21.3333 14.0278 21.4611 14.2833 21.7167C14.5389 21.9722 14.6667 22.2889 14.6667 22.6667V24C14.6667 24.3778 14.5389 24.6944 14.2833 24.95C14.0278 25.2056 13.7111 25.3333 13.3333 25.3333C12.9556 25.3333 12.6389 25.2056 12.3833 24.95C12.1278 24.6944 12 24.3778 12 24ZM1.33333 10.6667H2.66667C3.04444 10.6667 3.36111 10.7944 3.61667 11.05C3.87222 11.3056 4 11.6222 4 12C4 12.3778 3.87222 12.6944 3.61667 12.95C3.36111 13.2056 3.04444 13.3333 2.66667 13.3333H1.33333C0.955556 13.3333 0.638889 13.2056 0.383333 12.95C0.127778 12.6944 0 12.3778 0 12C0 11.6222 0.127778 11.3056 0.383333 11.05C0.638889 10.7944 0.955556 10.6667 1.33333 10.6667ZM24 10.6667H25.3333C25.7111 10.6667 26.0278 10.7944 26.2833 11.05C26.5389 11.3056 26.6667 11.6222 26.6667 12C26.6667 12.3778 26.5389 12.6944 26.2833 12.95C26.0278 13.2056 25.7111 13.3333 25.3333 13.3333H24C23.6222 13.3333 23.3056 13.2056 23.05 12.95C22.7944 12.6944 22.6667 12.3778 22.6667 12C22.6667 11.6222 22.7944 11.3056 23.05 11.05C23.3056 10.7944 23.6222 10.6667 24 10.6667ZM20.4 21.6L19.4667 20.6667C19.2222 20.4222 19.1 20.1111 19.1 19.7333C19.1 19.3556 19.2222 19.0444 19.4667 18.8C19.7111 18.5556 20.0222 18.4333 20.4 18.4333C20.7778 18.4333 21.0889 18.5556 21.3333 18.8L22.2667 19.7333C22.5111 19.9778 22.6333 20.2889 22.6333 20.6667C22.6333 21.0444 22.5111 21.3556 22.2667 21.6C22.0222 21.8444 21.7111 21.9667 21.3333 21.9667C20.9556 21.9667 20.6444 21.8444 20.4 21.6ZM4.4 19.7333L5.33333 18.8C5.57778 18.5556 5.88889 18.4333 6.26667 18.4333C6.64444 18.4333 6.95556 18.5556 7.2 18.8C7.44444 19.0444 7.56667 19.3556 7.56667 19.7333C7.56667 20.1111 7.44444 20.4222 7.2 20.6667L6.26667 21.6C6.02222 21.8444 5.71111 21.9667 5.33333 21.9667C4.95556 21.9667 4.64444 21.8444 4.4 21.6C4.15556 21.3556 4.03333 21.0444 4.03333 20.6667C4.03333 20.2889 4.15556 19.9778 4.4 19.7333ZM13.3333 18.6667C11.4889 18.6667 9.91667 18.0167 8.61667 16.7167C7.31667 15.4167 6.66667 13.8444 6.66667 12C6.66667 10.9333 6.90556 9.93889 7.38333 9.01667C7.86111 8.09444 8.51111 7.31111 9.33333 6.66667V2.66667C9.33333 1.93333 9.59444 1.30556 10.1167 0.783333C10.6389 0.261111 11.2667 0 12 0H14.6667C15.4 0 16.0278 0.261111 16.55 0.783333C17.0722 1.30556 17.3333 1.93333 17.3333 2.66667V6.66667C18.1556 7.31111 18.8056 8.09444 19.2833 9.01667C19.7611 9.93889 20 10.9333 20 12C20 13.8444 19.35 15.4167 18.05 16.7167C16.75 18.0167 15.1778 18.6667 13.3333 18.6667ZM12 5.46667C12.2222 5.42222 12.4444 5.38889 12.6667 5.36667C12.8889 5.34444 13.1111 5.33333 13.3333 5.33333C13.5556 5.33333 13.7778 5.34444 14 5.36667C14.2222 5.38889 14.4444 5.42222 14.6667 5.46667V2.66667H12V5.46667ZM13.3333 16C14.4444 16 15.3889 15.6111 16.1667 14.8333C16.9444 14.0556 17.3333 13.1111 17.3333 12C17.3333 10.8889 16.9444 9.94444 16.1667 9.16667C15.3889 8.38889 14.4444 8 13.3333 8C12.2222 8 11.2778 8.38889 10.5 9.16667C9.72222 9.94444 9.33333 10.8889 9.33333 12C9.33333 13.1111 9.72222 14.0556 10.5 14.8333C11.2778 15.6111 12.2222 16 13.3333 16Z" fill="currentColor"/>
</svg>
