<svg xmlns="http://www.w3.org/2000/svg" width="24" height="24" viewBox="0 0 24 24" fill="none">
  <path d="M2.66667 24C1.93333 24 1.30556 23.7389 0.783333 23.2167C0.261111 22.6944 0 22.0667 0 21.3333V2.66667C0 1.93333 0.261111 1.30556 0.783333 0.783333C1.30556 0.261111 1.93333 0 2.66667 0H21.3333C22.0667 0 22.6944 0.261111 23.2167 0.783333C23.7389 1.30556 24 1.93333 24 2.66667V21.3333C24 22.0667 23.7389 22.6944 23.2167 23.2167C22.6944 23.7389 22.0667 24 21.3333 24H2.66667ZM2.66667 21.3333H7.1V16.9H2.66667V21.3333ZM9.76667 21.3333H14.2333V16.9H9.76667V21.3333ZM16.9 21.3333H21.3333V16.9H16.9V21.3333ZM2.66667 14.2333H7.1V9.76667H2.66667V14.2333ZM9.76667 14.2333H14.2333V9.76667H9.76667V14.2333ZM16.9 14.2333H21.3333V9.76667H16.9V14.2333ZM2.66667 7.1H7.1V2.66667H2.66667V7.1ZM9.76667 7.1H14.2333V2.66667H9.76667V7.1ZM16.9 7.1H21.3333V2.66667H16.9V7.1Z" fill="currentColor"/>
</svg>
