<svg xmlns="http://www.w3.org/2000/svg" width="20" height="16" viewBox="0 0 20 16" fill="none">
  <path d="M2 16C1.45 16 0.979167 15.8042 0.5875 15.4125C0.195833 15.0208 0 14.55 0 14V12C0 11.7167 0.0958333 11.4792 0.2875 11.2875C0.479167 11.0958 0.716667 11 1 11C1.28333 11 1.52083 11.0958 1.7125 11.2875C1.90417 11.4792 2 11.7167 2 12V14H18V2H2V4C2 4.28333 1.90417 4.52083 1.7125 4.7125C1.52083 4.90417 1.28333 5 1 5C0.716667 5 0.479167 4.90417 0.2875 4.7125C0.0958333 4.52083 0 4.28333 0 4V2C0 1.45 0.195833 0.979167 0.5875 0.5875C0.979167 0.195833 1.45 0 2 0H18C18.55 0 19.0208 0.195833 19.4125 0.5875C19.8042 0.979167 20 1.45 20 2V14C20 14.55 19.8042 15.0208 19.4125 15.4125C19.0208 15.8042 18.55 16 18 16H2ZM10.175 9H1C0.716667 9 0.479167 8.90417 0.2875 8.7125C0.0958333 8.52083 0 8.28333 0 8C0 7.71667 0.0958333 7.47917 0.2875 7.2875C0.479167 7.09583 0.716667 7 1 7H10.175L8.8 5.65C8.6 5.46667 8.50417 5.2375 8.5125 4.9625C8.52083 4.6875 8.61667 4.45 8.8 4.25C9 4.05 9.2375 3.94583 9.5125 3.9375C9.7875 3.92917 10.025 4.025 10.225 4.225L13.3 7.3C13.5 7.5 13.6 7.73333 13.6 8C13.6 8.26667 13.5 8.5 13.3 8.7L10.225 11.775C10.025 11.975 9.7875 12.075 9.5125 12.075C9.2375 12.075 9 11.975 8.8 11.775C8.61667 11.575 8.52083 11.3375 8.5125 11.0625C8.50417 10.7875 8.6 10.55 8.8 10.35L10.175 9Z" fill="currentColor"/>
</svg>

