<svg xmlns="http://www.w3.org/2000/svg" width="22" height="21" viewBox="0 0 22 21" fill="none">
  <path d="M19.5752 12C19.7751 12 19.9671 12.0373 20.1504 12.1123C20.3336 12.1873 20.5005 12.3003 20.6504 12.4502L21.5752 13.375C21.7085 13.525 21.8127 13.6917 21.8877 13.875C21.9627 14.0582 22 14.2416 22 14.4248C22 14.608 21.967 14.7957 21.9004 14.9873C21.8337 15.1789 21.7251 15.35 21.5752 15.5L16.375 20.7002C16.275 20.8001 16.1621 20.8748 16.0371 20.9248C15.9123 20.9747 15.7835 21 15.6504 21H14C13.7167 21 13.4788 20.9046 13.2871 20.7129C13.0954 20.5212 13 20.2833 13 20V18.3496C13 18.2165 13.0253 18.0877 13.0752 17.9629C13.1252 17.8379 13.1999 17.725 13.2998 17.625L18.5254 12.4248C18.6753 12.275 18.8422 12.1662 19.0254 12.0996C19.2086 12.0331 19.392 12 19.5752 12ZM3 9C3.55228 9 4 9.44771 4 10V18H10C10.5523 18 11 18.4477 11 19C11 19.5523 10.5523 20 10 20H4C3.45 20 2.97956 19.8038 2.58789 19.4121C2.19622 19.0204 2 18.55 2 18V10C2 9.44771 2.44772 9 3 9ZM14.5 18.5498V19.5H15.4502L18.4746 16.4502L17.5498 15.5254L14.5 18.5498ZM13.25 11.3252C13.4167 11.3252 13.5504 11.3921 13.6504 11.5254L14.8877 13.1299L12.1963 16H6C5.8 16 5.6498 15.9079 5.5498 15.7246C5.4501 15.5415 5.4666 15.3667 5.59961 15.2002L7.59961 12.5254C7.69961 12.3921 7.83333 12.3252 8 12.3252C8.16667 12.3252 8.30039 12.3921 8.40039 12.5254L10.1133 14.4902L12.8496 11.5254C12.9496 11.3921 13.0833 11.3252 13.25 11.3252ZM18 2C18.55 2 19.0204 2.19622 19.4121 2.58789C19.8038 2.97956 20 3.45 20 4V8.99805C19.9998 9.55015 19.5522 9.99805 19 9.99805C18.4478 9.99805 18.0002 9.55015 18 8.99805V4H10C9.44771 4 9 3.55228 9 3C9 2.44772 9.44771 2 10 2H18ZM7.5 6C7.91667 6 8.27083 6.14583 8.5625 6.4375C8.85417 6.72917 9 7.08333 9 7.5C9 7.91667 8.85417 8.27083 8.5625 8.5625C8.27083 8.85417 7.91667 9 7.5 9C7.08333 9 6.72917 8.85417 6.4375 8.5625C6.14583 8.27083 6 7.91667 6 7.5C6 7.08333 6.14583 6.72917 6.4375 6.4375C6.72917 6.14583 7.08333 6 7.5 6ZM5.25 2.75L8 4L5.25 5.25L4 8L2.75 5.25L0 4L2.75 2.75L4 0L5.25 2.75Z" fill="currentColor"/>
</svg>
