<svg width="26" height="22" viewBox="0 0 26 22" fill="none" xmlns="http://www.w3.org/2000/svg">
<path d="M14.0958 16.7192C14.172 16.7309 14.2371 16.6636 14.2241 16.5882C14.1891 16.3913 14.0876 16.2123 14.0876 16.2123C13.5739 15.2068 13.2755 14.1134 13.4195 12.9741C14.1397 13.6079 14.2186 13.6943 14.9059 14.2602C15.1899 14.4941 16.6509 15.6108 16.9671 15.8234C18.2079 16.6561 18.627 16.9682 19.5262 17.4717C20.4159 17.9696 20.7835 18.1871 20.9289 17.9106C21.0771 17.6301 20.4063 17.3338 20.0029 17.0176C19.9995 17.0148 19.9933 17.0107 19.9899 17.008C19.5461 16.6732 19.1949 16.414 19.0022 16.2727C19.0022 16.2727 16.3305 14.3103 13.5293 11.3053C13.5265 11.3025 13.519 11.2943 13.5204 11.2854C13.5231 11.2703 13.5533 11.2655 13.5663 11.2614C13.7049 11.2168 13.7213 11.2134 13.9175 11.1681C14.6226 11.0433 15.338 11.0364 16.0432 11.0741C16.1851 11.0817 16.7023 11.1681 16.7908 11.0988C16.9307 10.9904 16.5905 10.821 16.5123 10.7806C15.7386 10.3855 14.9855 10.1399 13.4559 10.2894L12.5505 10.3882C11.6704 9.39021 10.7726 8.4066 9.8514 7.44564C10.1477 7.29268 10.6292 7.11091 10.9441 6.99911C11.9325 6.64929 12.8351 6.46821 13.8242 6.41882C13.9559 6.41196 14.3777 6.45038 14.4525 6.38864C14.5197 6.33308 14.4978 6.26449 14.4429 6.20756C14.4004 6.16366 14.1768 6.06969 14.1089 6.04706C12.9078 5.64305 11.5326 5.75417 10.3267 6.10536C10.1751 6.14926 10.0339 6.20002 9.88432 6.26038L9.1744 6.56972L8.33896 5.78984C7.47676 4.9832 6.03497 4.33982 6.19753 2.94124C6.41702 1.05566 9.08798 -0.00682614 10.7198 3.30059e-05C17.4767 0.187288 19.6202 8.65628 21.6464 12.0845C23.8537 15.8193 23.2994 14.9633 24.0519 16.1266C24.2947 16.5025 25.3586 18.1775 25.6322 18.6116C25.6322 18.6116 26.2962 19.5397 25.8401 20.2469C24.7714 21.9047 9.9584 22.6915 3.63838 14.7705C2.87496 13.8137 1.11078 11.5392 1.49627 8.93202C1.72674 7.3743 2.71102 5.85157 3.589 5.40367C4.43541 4.97223 5.15357 5.3488 5.86829 5.8111C7.07276 6.5903 8.07351 7.62878 9.08935 8.62747C8.93296 8.91761 8.74159 9.19404 8.60578 9.49858C7.78954 11.3361 8.08242 14.1127 9.14216 15.7877C9.25534 15.9661 9.51393 16.2027 9.44534 15.8707C9.33079 15.3199 9.14833 14.8021 9.07357 14.2424C8.98577 13.5818 8.97754 12.9069 9.04888 12.247C9.15176 11.295 9.45494 10.369 9.95977 9.55757L12.3852 11.9706C12.3728 12.0612 12.3413 12.3163 12.3296 12.4412C12.1485 14.4152 13.6294 16.3543 13.9957 16.6698C13.9957 16.6698 14.0375 16.7069 14.0945 16.7158L14.0958 16.7192Z" fill="currentColor"/>
<path d="M2.23559 0.0103562C4.31048 -0.146718 4.41474 2.03449 5.10066 3.41181C5.29614 3.80484 5.67614 4.21913 5.83047 4.56963C5.84968 4.61353 5.89289 4.70133 5.84213 4.73631C5.74062 4.80696 4.96416 4.5662 4.792 4.53259C3.93049 4.36386 3.04977 4.36043 2.18552 4.26303C1.28354 4.16151 0.388423 3.79386 0.100339 2.8569C-0.353051 1.38424 0.795171 0.119416 2.23559 0.00966966V0.0103562Z" fill="currentColor"/>
</svg>
