<svg xmlns="http://www.w3.org/2000/svg" width="18" height="16" viewBox="0 0 18 16" fill="none">
  <path d="M7 15C6.71667 15 6.47917 14.9042 6.2875 14.7125C6.09583 14.5208 6 14.2833 6 14C6 13.7167 6.09583 13.4792 6.2875 13.2875C6.47917 13.0958 6.71667 13 7 13H17C17.2833 13 17.5208 13.0958 17.7125 13.2875C17.9042 13.4792 18 13.7167 18 14C18 14.2833 17.9042 14.5208 17.7125 14.7125C17.5208 14.9042 17.2833 15 17 15H7ZM7 9C6.71667 9 6.47917 8.90417 6.2875 8.7125C6.09583 8.52083 6 8.28333 6 8C6 7.71667 6.09583 7.47917 6.2875 7.2875C6.47917 7.09583 6.71667 7 7 7H17C17.2833 7 17.5208 7.09583 17.7125 7.2875C17.9042 7.47917 18 7.71667 18 8C18 8.28333 17.9042 8.52083 17.7125 8.7125C17.5208 8.90417 17.2833 9 17 9H7ZM7 3C6.71667 3 6.47917 2.90417 6.2875 2.7125C6.09583 2.52083 6 2.28333 6 2C6 1.71667 6.09583 1.47917 6.2875 1.2875C6.47917 1.09583 6.71667 1 7 1H17C17.2833 1 17.5208 1.09583 17.7125 1.2875C17.9042 1.47917 18 1.71667 18 2C18 2.28333 17.9042 2.52083 17.7125 2.7125C17.5208 2.90417 17.2833 3 17 3H7ZM2 16C1.45 16 0.979167 15.8042 0.5875 15.4125C0.195833 15.0208 0 14.55 0 14C0 13.45 0.195833 12.9792 0.5875 12.5875C0.979167 12.1958 1.45 12 2 12C2.55 12 3.02083 12.1958 3.4125 12.5875C3.80417 12.9792 4 13.45 4 14C4 14.55 3.80417 15.0208 3.4125 15.4125C3.02083 15.8042 2.55 16 2 16ZM2 10C1.45 10 0.979167 9.80417 0.5875 9.4125C0.195833 9.02083 0 8.55 0 8C0 7.45 0.195833 6.97917 0.5875 6.5875C0.979167 6.19583 1.45 6 2 6C2.55 6 3.02083 6.19583 3.4125 6.5875C3.80417 6.97917 4 7.45 4 8C4 8.55 3.80417 9.02083 3.4125 9.4125C3.02083 9.80417 2.55 10 2 10ZM2 4C1.45 4 0.979167 3.80417 0.5875 3.4125C0.195833 3.02083 0 2.55 0 2C0 1.45 0.195833 0.979167 0.5875 0.5875C0.979167 0.195833 1.45 0 2 0C2.55 0 3.02083 0.195833 3.4125 0.5875C3.80417 0.979167 4 1.45 4 2C4 2.55 3.80417 3.02083 3.4125 3.4125C3.02083 3.80417 2.55 4 2 4Z" fill="currentColor"/>
</svg>
