<svg xmlns="http://www.w3.org/2000/svg" width="18" height="20" viewBox="0 0 18 20" fill="none">
  <path d="M0.75 20C0.533333 20 0.354167 19.9292 0.2125 19.7875C0.0708333 19.6458 0 19.4667 0 19.25C0 19.0333 0.0708333 18.8542 0.2125 18.7125C0.354167 18.5708 0.533333 18.5 0.75 18.5H2.5V17.75H1.75C1.53333 17.75 1.35417 17.6792 1.2125 17.5375C1.07083 17.3958 1 17.2167 1 17C1 16.7833 1.07083 16.6042 1.2125 16.4625C1.35417 16.3208 1.53333 16.25 1.75 16.25H2.5V15.5H0.75C0.533333 15.5 0.354167 15.4292 0.2125 15.2875C0.0708333 15.1458 0 14.9667 0 14.75C0 14.5333 0.0708333 14.3542 0.2125 14.2125C0.354167 14.0708 0.533333 14 0.75 14H3C3.28333 14 3.52083 14.0958 3.7125 14.2875C3.90417 14.4792 4 14.7167 4 15V16C4 16.2833 3.90417 16.5208 3.7125 16.7125C3.52083 16.9042 3.28333 17 3 17C3.28333 17 3.52083 17.0958 3.7125 17.2875C3.90417 17.4792 4 17.7167 4 18V19C4 19.2833 3.90417 19.5208 3.7125 19.7125C3.52083 19.9042 3.28333 20 3 20H0.75ZM0.75 13C0.533333 13 0.354167 12.9292 0.2125 12.7875C0.0708333 12.6458 0 12.4667 0 12.25V10.25C0 9.96667 0.0958333 9.72917 0.2875 9.5375C0.479167 9.34583 0.716667 9.25 1 9.25H2.5V8.5H0.75C0.533333 8.5 0.354167 8.42917 0.2125 8.2875C0.0708333 8.14583 0 7.96667 0 7.75C0 7.53333 0.0708333 7.35417 0.2125 7.2125C0.354167 7.07083 0.533333 7 0.75 7H3C3.28333 7 3.52083 7.09583 3.7125 7.2875C3.90417 7.47917 4 7.71667 4 8V9.75C4 10.0333 3.90417 10.2708 3.7125 10.4625C3.52083 10.6542 3.28333 10.75 3 10.75H1.5V11.5H3.25C3.46667 11.5 3.64583 11.5708 3.7875 11.7125C3.92917 11.8542 4 12.0333 4 12.25C4 12.4667 3.92917 12.6458 3.7875 12.7875C3.64583 12.9292 3.46667 13 3.25 13H0.75ZM2.25 6C2.03333 6 1.85417 5.92917 1.7125 5.7875C1.57083 5.64583 1.5 5.46667 1.5 5.25V1.5H0.75C0.533333 1.5 0.354167 1.42917 0.2125 1.2875C0.0708333 1.14583 0 0.966667 0 0.75C0 0.533333 0.0708333 0.354167 0.2125 0.2125C0.354167 0.0708333 0.533333 0 0.75 0H2.25C2.46667 0 2.64583 0.0708333 2.7875 0.2125C2.92917 0.354167 3 0.533333 3 0.75V5.25C3 5.46667 2.92917 5.64583 2.7875 5.7875C2.64583 5.92917 2.46667 6 2.25 6ZM7 17C6.71667 17 6.47917 16.9042 6.2875 16.7125C6.09583 16.5208 6 16.2833 6 16C6 15.7167 6.09583 15.4792 6.2875 15.2875C6.47917 15.0958 6.71667 15 7 15H17C17.2833 15 17.5208 15.0958 17.7125 15.2875C17.9042 15.4792 18 15.7167 18 16C18 16.2833 17.9042 16.5208 17.7125 16.7125C17.5208 16.9042 17.2833 17 17 17H7ZM7 11C6.71667 11 6.47917 10.9042 6.2875 10.7125C6.09583 10.5208 6 10.2833 6 10C6 9.71667 6.09583 9.47917 6.2875 9.2875C6.47917 9.09583 6.71667 9 7 9H17C17.2833 9 17.5208 9.09583 17.7125 9.2875C17.9042 9.47917 18 9.71667 18 10C18 10.2833 17.9042 10.5208 17.7125 10.7125C17.5208 10.9042 17.2833 11 17 11H7ZM7 5C6.71667 5 6.47917 4.90417 6.2875 4.7125C6.09583 4.52083 6 4.28333 6 4C6 3.71667 6.09583 3.47917 6.2875 3.2875C6.47917 3.09583 6.71667 3 7 3H17C17.2833 3 17.5208 3.09583 17.7125 3.2875C17.9042 3.47917 18 3.71667 18 4C18 4.28333 17.9042 4.52083 17.7125 4.7125C17.5208 4.90417 17.2833 5 17 5H7Z" fill="currentColor"/>
</svg>
