<svg xmlns="http://www.w3.org/2000/svg" width="14" height="19" viewBox="0 0 14 19" fill="none">
  <path d="M6.93269 12C6.09936 12 5.39103 11.7083 4.80769 11.125C4.22436 10.5417 3.93269 9.83333 3.93269 9V3C3.93269 2.16667 4.22436 1.45833 4.80769 0.875C5.39103 0.291667 6.09936 0 6.93269 0C7.76603 0 8.47436 0.291667 9.05769 0.875C9.64103 1.45833 9.93269 2.16667 9.93269 3V9C9.93269 9.83333 9.64103 10.5417 9.05769 11.125C8.47436 11.7083 7.76603 12 6.93269 12ZM5.93269 18V15.925C4.39936 15.7083 3.08686 15.0583 1.99519 13.975C0.903526 12.8917 0.241026 11.575 0.00769231 10.025C-0.025641 9.74167 0.049359 9.5 0.232692 9.3C0.416026 9.1 0.649359 9 0.932692 9C1.21603 9 1.45353 9.09583 1.64519 9.2875C1.83686 9.47917 1.96603 9.71667 2.03269 10C2.26603 11.1667 2.84519 12.125 3.77019 12.875C4.69519 13.625 5.74936 14 6.93269 14C8.13269 14 9.19103 13.6208 10.1077 12.8625C11.0244 12.1042 11.5994 11.15 11.8327 10C11.8994 9.71667 12.0285 9.47917 12.2202 9.2875C12.4119 9.09583 12.6494 9 12.9327 9C13.216 9 13.4494 9.1 13.6327 9.3C13.816 9.5 13.891 9.74167 13.8577 10.025C13.6244 11.5417 12.966 12.85 11.8827 13.95C10.7994 15.05 9.48269 15.7083 7.93269 15.925V18C7.93269 18.2833 7.83686 18.5208 7.64519 18.7125C7.45353 18.9042 7.21603 19 6.93269 19C6.64936 19 6.41186 18.9042 6.22019 18.7125C6.02853 18.5208 5.93269 18.2833 5.93269 18ZM6.93269 10C7.21603 10 7.45353 9.90417 7.64519 9.7125C7.83686 9.52083 7.93269 9.28333 7.93269 9V3C7.93269 2.71667 7.83686 2.47917 7.64519 2.2875C7.45353 2.09583 7.21603 2 6.93269 2C6.64936 2 6.41186 2.09583 6.22019 2.2875C6.02853 2.47917 5.93269 2.71667 5.93269 3V9C5.93269 9.28333 6.02853 9.52083 6.22019 9.7125C6.41186 9.90417 6.64936 10 6.93269 10Z" fill="currentColor"/>
</svg>

