<svg xmlns="http://www.w3.org/2000/svg" width="18" height="18" viewBox="0 0 18 18" fill="none">
  <path d="M11.35 17.65L6 15.775L1.35 17.575C1.18333 17.6417 1.02083 17.6625 0.8625 17.6375C0.704167 17.6125 0.558333 17.5583 0.425 17.475C0.291667 17.3917 0.1875 17.2792 0.1125 17.1375C0.0375 16.9958 0 16.8333 0 16.65V2.625C0 2.40833 0.0625 2.21667 0.1875 2.05C0.3125 1.88333 0.483333 1.75833 0.7 1.675L5.35 0.1C5.45 0.0666667 5.55417 0.0416667 5.6625 0.025C5.77083 0.00833333 5.88333 0 6 0C6.11667 0 6.22917 0.00833333 6.3375 0.025C6.44583 0.0416667 6.55 0.0666667 6.65 0.1L12 1.975L16.65 0.175C16.8167 0.108333 16.9792 0.0875 17.1375 0.1125C17.2958 0.1375 17.4417 0.191667 17.575 0.275C17.7083 0.358333 17.8125 0.470833 17.8875 0.6125C17.9625 0.754167 18 0.916667 18 1.1V15.125C18 15.3417 17.9375 15.5333 17.8125 15.7C17.6875 15.8667 17.5167 15.9917 17.3 16.075L12.65 17.65C12.55 17.6833 12.4458 17.7083 12.3375 17.725C12.2292 17.7417 12.1167 17.75 12 17.75C11.8833 17.75 11.7708 17.7417 11.6625 17.725C11.5542 17.7083 11.45 17.6833 11.35 17.65ZM11 15.425V3.725L7 2.325V14.025L11 15.425ZM13 15.425L16 14.425V2.575L13 3.725V15.425ZM2 15.175L5 14.025V2.325L2 3.325V15.175Z" fill="currentColor"/>
</svg>
