<svg xmlns="http://www.w3.org/2000/svg" width="20" height="18" viewBox="0 0 20 18" fill="none">
  <path d="M8 16V14H2C1.45 14 0.979167 13.8042 0.5875 13.4125C0.195833 13.0208 0 12.55 0 12V2C0 1.45 0.195833 0.979167 0.5875 0.5875C0.979167 0.195833 1.45 0 2 0H18C18.55 0 19.0208 0.195833 19.4125 0.5875C19.8042 0.979167 20 1.45 20 2V12C20 12.55 19.8042 13.0208 19.4125 13.4125C19.0208 13.8042 18.55 14 18 14H12V16H13C13.2833 16 13.5208 16.0958 13.7125 16.2875C13.9042 16.4792 14 16.7167 14 17C14 17.2833 13.9042 17.5208 13.7125 17.7125C13.5208 17.9042 13.2833 18 13 18H7C6.71667 18 6.47917 17.9042 6.2875 17.7125C6.09583 17.5208 6 17.2833 6 17C6 16.7167 6.09583 16.4792 6.2875 16.2875C6.47917 16.0958 6.71667 16 7 16H8ZM2 12H18V2H2V12Z" fill="currentColor"/>
</svg>

