<svg xmlns="http://www.w3.org/2000/svg" width="20" height="19" viewBox="0 0 20 19" fill="none">
  <path d="M14.95 16.35C14.7667 16.4667 14.5833 16.575 14.4 16.675C14.2167 16.775 14.025 16.8667 13.825 16.95C13.575 17.0667 13.3208 17.0667 13.0625 16.95C12.8042 16.8333 12.625 16.6417 12.525 16.375C12.425 16.125 12.4375 15.8792 12.5625 15.6375C12.6875 15.3958 12.875 15.2167 13.125 15.1C13.2417 15.05 13.35 14.9958 13.45 14.9375C13.55 14.8792 13.65 14.8167 13.75 14.75L10.175 11.575V14.35C10.175 14.8 9.97083 15.1125 9.5625 15.2875C9.15417 15.4625 8.79167 15.3917 8.475 15.075L5.175 11.775H2.175C1.89167 11.775 1.65417 11.6792 1.4625 11.4875C1.27083 11.2958 1.175 11.0583 1.175 10.775V6.775C1.175 6.49167 1.27083 6.25417 1.4625 6.0625C1.65417 5.87083 1.89167 5.775 2.175 5.775H4.375L0.275 1.675C0.0916667 1.49167 0 1.25833 0 0.975C0 0.691667 0.0916667 0.458333 0.275 0.275C0.458333 0.0916667 0.691667 0 0.975 0C1.25833 0 1.49167 0.0916667 1.675 0.275L18.675 17.275C18.8583 17.4583 18.95 17.6917 18.95 17.975C18.95 18.2583 18.8583 18.4917 18.675 18.675C18.4917 18.8583 18.2583 18.95 17.975 18.95C17.6917 18.95 17.4583 18.8583 17.275 18.675L14.95 16.35ZM17.175 8.75C17.175 7.36667 16.8083 6.10417 16.075 4.9625C15.3417 3.82083 14.3583 2.96667 13.125 2.4C12.875 2.28333 12.6917 2.10417 12.575 1.8625C12.4583 1.62083 12.4417 1.375 12.525 1.125C12.625 0.858333 12.8042 0.666667 13.0625 0.55C13.3208 0.433333 13.5833 0.433333 13.85 0.55C15.4667 1.26667 16.7583 2.35833 17.725 3.825C18.6917 5.29167 19.175 6.93333 19.175 8.75C19.175 9.3 19.125 9.84583 19.025 10.3875C18.925 10.9292 18.7833 11.45 18.6 11.95C18.4667 12.3167 18.2625 12.5458 17.9875 12.6375C17.7125 12.7292 17.4583 12.7333 17.225 12.65C16.9917 12.5667 16.8042 12.4167 16.6625 12.2C16.5208 11.9833 16.5167 11.7333 16.65 11.45C16.8333 11.0167 16.9667 10.5792 17.05 10.1375C17.1333 9.69583 17.175 9.23333 17.175 8.75ZM12.95 5.2C13.5 5.55 13.925 6.075 14.225 6.775C14.525 7.475 14.675 8.14167 14.675 8.775V9.025C14.675 9.10833 14.6667 9.19167 14.65 9.275C14.6167 9.49167 14.5 9.63333 14.3 9.7C14.1 9.76667 13.9167 9.71667 13.75 9.55L12.475 8.275C12.375 8.175 12.3 8.0625 12.25 7.9375C12.2 7.8125 12.175 7.68333 12.175 7.55V5.625C12.175 5.425 12.2625 5.27917 12.4375 5.1875C12.6125 5.09583 12.7833 5.1 12.95 5.2ZM7.925 3.725C7.825 3.625 7.775 3.50833 7.775 3.375C7.775 3.24167 7.825 3.125 7.925 3.025L8.475 2.475C8.79167 2.15833 9.15417 2.0875 9.5625 2.2625C9.97083 2.4375 10.175 2.75 10.175 3.2V4.775C10.175 5.00833 10.075 5.16667 9.875 5.25C9.675 5.33333 9.49167 5.29167 9.325 5.125L7.925 3.725ZM8.175 11.925V9.575L6.375 7.775H3.175V9.775H6.025L8.175 11.925Z" fill="currentColor"/>
</svg>

