<svg xmlns="http://www.w3.org/2000/svg" width="30" height="27" viewBox="0 0 30 27" fill="none">
  <path d="M11.6667 25C11.1944 25 10.7986 24.8403 10.4792 24.5208C10.1597 24.2014 10 23.8056 10 23.3333C10 22.8611 10.1597 22.4653 10.4792 22.1458C10.7986 21.8264 11.1944 21.6667 11.6667 21.6667H28.3333C28.8056 21.6667 29.2014 21.8264 29.5208 22.1458C29.8403 22.4653 30 22.8611 30 23.3333C30 23.8056 29.8403 24.2014 29.5208 24.5208C29.2014 24.8403 28.8056 25 28.3333 25H11.6667ZM11.6667 15C11.1944 15 10.7986 14.8403 10.4792 14.5208C10.1597 14.2014 10 13.8056 10 13.3333C10 12.8611 10.1597 12.4653 10.4792 12.1458C10.7986 11.8264 11.1944 11.6667 11.6667 11.6667H28.3333C28.8056 11.6667 29.2014 11.8264 29.5208 12.1458C29.8403 12.4653 30 12.8611 30 13.3333C30 13.8056 29.8403 14.2014 29.5208 14.5208C29.2014 14.8403 28.8056 15 28.3333 15H11.6667ZM11.6667 5C11.1944 5 10.7986 4.84028 10.4792 4.52083C10.1597 4.20139 10 3.80556 10 3.33333C10 2.86111 10.1597 2.46528 10.4792 2.14583C10.7986 1.82639 11.1944 1.66667 11.6667 1.66667H28.3333C28.8056 1.66667 29.2014 1.82639 29.5208 2.14583C29.8403 2.46528 30 2.86111 30 3.33333C30 3.80556 29.8403 4.20139 29.5208 4.52083C29.2014 4.84028 28.8056 5 28.3333 5H11.6667ZM3.33333 26.6667C2.41667 26.6667 1.63194 26.3403 0.979167 25.6875C0.326389 25.0347 0 24.25 0 23.3333C0 22.4167 0.326389 21.6319 0.979167 20.9792C1.63194 20.3264 2.41667 20 3.33333 20C4.25 20 5.03472 20.3264 5.6875 20.9792C6.34028 21.6319 6.66667 22.4167 6.66667 23.3333C6.66667 24.25 6.34028 25.0347 5.6875 25.6875C5.03472 26.3403 4.25 26.6667 3.33333 26.6667ZM3.33333 16.6667C2.41667 16.6667 1.63194 16.3403 0.979167 15.6875C0.326389 15.0347 0 14.25 0 13.3333C0 12.4167 0.326389 11.6319 0.979167 10.9792C1.63194 10.3264 2.41667 10 3.33333 10C4.25 10 5.03472 10.3264 5.6875 10.9792C6.34028 11.6319 6.66667 12.4167 6.66667 13.3333C6.66667 14.25 6.34028 15.0347 5.6875 15.6875C5.03472 16.3403 4.25 16.6667 3.33333 16.6667ZM3.33333 6.66667C2.41667 6.66667 1.63194 6.34028 0.979167 5.6875C0.326389 5.03472 0 4.25 0 3.33333C0 2.41667 0.326389 1.63194 0.979167 0.979167C1.63194 0.326389 2.41667 0 3.33333 0C4.25 0 5.03472 0.326389 5.6875 0.979167C6.34028 1.63194 6.66667 2.41667 6.66667 3.33333C6.66667 4.25 6.34028 5.03472 5.6875 5.6875C5.03472 6.34028 4.25 6.66667 3.33333 6.66667Z" fill="currentColor"/>
</svg>
