<svg xmlns="http://www.w3.org/2000/svg" width="14" height="16" viewBox="0 0 14 16" fill="none">
  <path d="M6 16C5.71667 16 5.47917 15.9042 5.2875 15.7125C5.09583 15.5208 5 15.2833 5 15V10C3.61667 10 2.4375 9.5125 1.4625 8.5375C0.4875 7.5625 0 6.38333 0 5C0 3.61667 0.4875 2.4375 1.4625 1.4625C2.4375 0.4875 3.61667 0 5 0H13C13.2833 0 13.5208 0.0958333 13.7125 0.2875C13.9042 0.479167 14 0.716667 14 1C14 1.28333 13.9042 1.52083 13.7125 1.7125C13.5208 1.90417 13.2833 2 13 2H12V15C12 15.2833 11.9042 15.5208 11.7125 15.7125C11.5208 15.9042 11.2833 16 11 16C10.7167 16 10.4792 15.9042 10.2875 15.7125C10.0958 15.5208 10 15.2833 10 15V2H7V15C7 15.2833 6.90417 15.5208 6.7125 15.7125C6.52083 15.9042 6.28333 16 6 16Z" fill="currentColor"/>
</svg>
