<svg xmlns="http://www.w3.org/2000/svg" width="8" height="10" viewBox="0 0 8 10" fill="none">
  <path d="M0 8.5125V0.75C0 0.5375 0.075 0.359375 0.225 0.215625C0.375 0.071875 0.55 0 0.75 0C0.8125 0 0.878125 0.009375 0.946875 0.028125C1.01562 0.046875 1.08125 0.075 1.14375 0.1125L7.25625 3.99375C7.36875 4.06875 7.45313 4.1625 7.50938 4.275C7.56563 4.3875 7.59375 4.50625 7.59375 4.63125C7.59375 4.75625 7.56563 4.875 7.50938 4.9875C7.45313 5.1 7.36875 5.19375 7.25625 5.26875L1.14375 9.15C1.08125 9.1875 1.01562 9.21563 0.946875 9.23438C0.878125 9.25313 0.8125 9.2625 0.75 9.2625C0.55 9.2625 0.375 9.19063 0.225 9.04688C0.075 8.90313 0 8.725 0 8.5125ZM1.5 7.14375L5.4375 4.63125L1.5 2.11875V7.14375Z" fill="currentColor"/>
</svg>
