<svg xmlns="http://www.w3.org/2000/svg" width="18" height="18" viewBox="0 0 18 18" fill="none">
  <path d="M11.5 9.75L13.025 11.725C13.0583 11.775 13.25 11.8667 13.6 12C13.9 12 14.1167 11.8625 14.25 11.5875C14.3833 11.3125 14.3583 11.0583 14.175 10.825L12.75 9L14.175 7.15C14.3583 6.91667 14.3833 6.66667 14.25 6.4C14.1167 6.13333 13.9 6 13.6 6C13.4833 6 13.375 6.025 13.275 6.075C13.175 6.125 13.0917 6.19167 13.025 6.275L11.5 8.25V6.75C11.5 6.53333 11.4292 6.35417 11.2875 6.2125C11.1458 6.07083 10.9667 6 10.75 6C10.5333 6 10.3542 6.07083 10.2125 6.2125C10.0708 6.35417 10 6.53333 10 6.75V11.25C10 11.4667 10.0708 11.6458 10.2125 11.7875C10.3542 11.9292 10.5333 12 10.75 12C10.9667 12 11.1458 11.9292 11.2875 11.7875C11.4292 11.6458 11.5 11.4667 11.5 11.25V9.75ZM5 10.5V9.5H7C7.28333 9.5 7.52083 9.40417 7.7125 9.2125C7.90417 9.02083 8 8.78333 8 8.5V7C8 6.71667 7.90417 6.47917 7.7125 6.2875C7.52083 6.09583 7.28333 6 7 6H4.25C4.03333 6 3.85417 6.07083 3.7125 6.2125C3.57083 6.35417 3.5 6.53333 3.5 6.75C3.5 6.96667 3.57083 7.14583 3.7125 7.2875C3.85417 7.42917 4.03333 7.5 4.25 7.5H6.5V8.5H4.5C4.21667 8.5 3.97917 8.59583 3.7875 8.7875C3.59583 8.97917 3.5 9.21667 3.5 9.5V11.25C3.5 11.4667 3.57083 11.6458 3.7125 11.7875C3.85417 11.9292 4.03333 12 4.25 12H7.25C7.46667 12 7.64583 11.9292 7.7875 11.7875C7.92917 11.6458 8 11.4667 8 11.25C8 11.0333 7.92917 10.8542 7.7875 10.7125C7.64583 10.5708 7.46667 10.5 7.25 10.5H5ZM2 18C1.45 18 0.979167 17.8042 0.5875 17.4125C0.195833 17.0208 0 16.55 0 16V2C0 1.45 0.195833 0.979167 0.5875 0.5875C0.979167 0.195833 1.45 0 2 0H16C16.55 0 17.0208 0.195833 17.4125 0.5875C17.8042 0.979167 18 1.45 18 2V16C18 16.55 17.8042 17.0208 17.4125 17.4125C17.0208 17.8042 16.55 18 16 18H2ZM2 16H16V2H2V16Z" fill="currentColor"/>
</svg>
