<svg xmlns="http://www.w3.org/2000/svg" width="18" height="18" viewBox="0 0 18 18" fill="none">
  <path d="M13.5 9.5V10.5C13.5 10.6333 13.55 10.75 13.65 10.85C13.75 10.95 13.8667 11 14 11C14.1333 11 14.25 10.95 14.35 10.85C14.45 10.75 14.5 10.6333 14.5 10.5V9.5H15.5C15.6333 9.5 15.75 9.45 15.85 9.35C15.95 9.25 16 9.13333 16 9C16 8.86667 15.95 8.75 15.85 8.65C15.75 8.55 15.6333 8.5 15.5 8.5H14.5V7.5C14.5 7.36667 14.45 7.25 14.35 7.15C14.25 7.05 14.1333 7 14 7C13.8667 7 13.75 7.05 13.65 7.15C13.55 7.25 13.5 7.36667 13.5 7.5V8.5H12.5C12.3667 8.5 12.25 8.55 12.15 8.65C12.05 8.75 12 8.86667 12 9C12 9.13333 12.05 9.25 12.15 9.35C12.25 9.45 12.3667 9.5 12.5 9.5H13.5ZM10 9.75L11.525 11.725C11.5583 11.775 11.75 11.8667 12.1 12C12.4 12 12.6167 11.8625 12.75 11.5875C12.8833 11.3125 12.8583 11.0583 12.675 10.825L11.25 9L12.675 7.15C12.8583 6.91667 12.8833 6.66667 12.75 6.4C12.6167 6.13333 12.4 6 12.1 6C11.9833 6 11.875 6.025 11.775 6.075C11.675 6.125 11.5917 6.19167 11.525 6.275L10 8.25V6.75C10 6.53333 9.92917 6.35417 9.7875 6.2125C9.64583 6.07083 9.46667 6 9.25 6C9.03333 6 8.85417 6.07083 8.7125 6.2125C8.57083 6.35417 8.5 6.53333 8.5 6.75V11.25C8.5 11.4667 8.57083 11.6458 8.7125 11.7875C8.85417 11.9292 9.03333 12 9.25 12C9.46667 12 9.64583 11.9292 9.7875 11.7875C9.92917 11.6458 10 11.4667 10 11.25V9.75ZM5.5 10.5V11.25C5.5 11.4667 5.57083 11.6458 5.7125 11.7875C5.85417 11.9292 6.03333 12 6.25 12C6.46667 12 6.64583 11.9292 6.7875 11.7875C6.92917 11.6458 7 11.4667 7 11.25V10.5H7.25C7.46667 10.5 7.64583 10.4292 7.7875 10.2875C7.92917 10.1458 8 9.96667 8 9.75C8 9.53333 7.92917 9.35417 7.7875 9.2125C7.64583 9.07083 7.46667 9 7.25 9H7V6.75C7 6.53333 6.92917 6.35417 6.7875 6.2125C6.64583 6.07083 6.46667 6 6.25 6C6.03333 6 5.85417 6.07083 5.7125 6.2125C5.57083 6.35417 5.5 6.53333 5.5 6.75V9H4V6.75C4 6.53333 3.92917 6.35417 3.7875 6.2125C3.64583 6.07083 3.46667 6 3.25 6C3.03333 6 2.85417 6.07083 2.7125 6.2125C2.57083 6.35417 2.5 6.53333 2.5 6.75V9.75C2.5 9.96667 2.57083 10.1458 2.7125 10.2875C2.85417 10.4292 3.03333 10.5 3.25 10.5H5.5ZM2 18C1.45 18 0.979167 17.8042 0.5875 17.4125C0.195833 17.0208 0 16.55 0 16V2C0 1.45 0.195833 0.979167 0.5875 0.5875C0.979167 0.195833 1.45 0 2 0H16C16.55 0 17.0208 0.195833 17.4125 0.5875C17.8042 0.979167 18 1.45 18 2V16C18 16.55 17.8042 17.0208 17.4125 17.4125C17.0208 17.8042 16.55 18 16 18H2ZM2 16H16V2H2V16Z" fill="currentColor"/>
</svg>
