<svg xmlns="http://www.w3.org/2000/svg" width="18" height="18" viewBox="0 0 18 18" fill="none">
  <path d="M10.5 9.75L12.025 11.725C12.0583 11.775 12.25 11.8667 12.6 12C12.9 12 13.1167 11.8625 13.25 11.5875C13.3833 11.3125 13.3583 11.0583 13.175 10.825L11.75 9L13.175 7.15C13.3583 6.91667 13.3833 6.66667 13.25 6.4C13.1167 6.13333 12.9 6 12.6 6C12.4833 6 12.375 6.025 12.275 6.075C12.175 6.125 12.0917 6.19167 12.025 6.275L10.5 8.25V6.75C10.5 6.53333 10.4292 6.35417 10.2875 6.2125C10.1458 6.07083 9.96667 6 9.75 6C9.53333 6 9.35417 6.07083 9.2125 6.2125C9.07083 6.35417 9 6.53333 9 6.75V11.25C9 11.4667 9.07083 11.6458 9.2125 11.7875C9.35417 11.9292 9.53333 12 9.75 12C9.96667 12 10.1458 11.9292 10.2875 11.7875C10.4292 11.6458 10.5 11.4667 10.5 11.25V9.75ZM5.5 7.5V11.25C5.5 11.4667 5.57083 11.6458 5.7125 11.7875C5.85417 11.9292 6.03333 12 6.25 12C6.46667 12 6.64583 11.9292 6.7875 11.7875C6.92917 11.6458 7 11.4667 7 11.25V6.75C7 6.53333 6.92917 6.35417 6.7875 6.2125C6.64583 6.07083 6.46667 6 6.25 6H4.75C4.53333 6 4.35417 6.07083 4.2125 6.2125C4.07083 6.35417 4 6.53333 4 6.75C4 6.96667 4.07083 7.14583 4.2125 7.2875C4.35417 7.42917 4.53333 7.5 4.75 7.5H5.5ZM2 18C1.45 18 0.979167 17.8042 0.5875 17.4125C0.195833 17.0208 0 16.55 0 16V2C0 1.45 0.195833 0.979167 0.5875 0.5875C0.979167 0.195833 1.45 0 2 0H16C16.55 0 17.0208 0.195833 17.4125 0.5875C17.8042 0.979167 18 1.45 18 2V16C18 16.55 17.8042 17.0208 17.4125 17.4125C17.0208 17.8042 16.55 18 16 18H2ZM2 16H16V2H2V16Z" fill="currentColor"/>
</svg>
