<svg xmlns="http://www.w3.org/2000/svg" width="15" height="18" viewBox="0 0 15 18" fill="none">
  <path d="M7.5 17.1358C6.45833 17.1358 5.48264 16.9379 4.57292 16.5421C3.66319 16.1463 2.87153 15.6115 2.19792 14.9379C1.52431 14.2643 0.989583 13.4726 0.59375 12.5629C0.197917 11.6532 0 10.6775 0 9.63583C0 9.39972 0.0798611 9.20181 0.239583 9.04208C0.399306 8.88236 0.597222 8.8025 0.833333 8.8025C1.06944 8.8025 1.26736 8.88236 1.42708 9.04208C1.58681 9.20181 1.66667 9.39972 1.66667 9.63583C1.66667 11.2608 2.23264 12.6393 3.36458 13.7713C4.49653 14.9032 5.875 15.4692 7.5 15.4692C9.125 15.4692 10.5035 14.9032 11.6354 13.7713C12.7674 12.6393 13.3333 11.2608 13.3333 9.63583C13.3333 8.01083 12.7674 6.63236 11.6354 5.50042C10.5035 4.36847 9.125 3.8025 7.5 3.8025H7.375L8.08333 4.51083C8.25 4.6775 8.32986 4.87194 8.32292 5.09417C8.31597 5.31639 8.23611 5.51083 8.08333 5.6775C7.91667 5.84417 7.71875 5.93097 7.48958 5.93792C7.26042 5.94486 7.0625 5.865 6.89583 5.69833L4.75 3.5525C4.58333 3.38583 4.5 3.19139 4.5 2.96917C4.5 2.74694 4.58333 2.5525 4.75 2.38583L6.89583 0.24C7.0625 0.0733333 7.26042 -0.00652778 7.48958 0.000416667C7.71875 0.00736111 7.91667 0.0941667 8.08333 0.260833C8.23611 0.4275 8.31597 0.621944 8.32292 0.844167C8.32986 1.06639 8.25 1.26083 8.08333 1.4275L7.375 2.13583H7.5C8.54167 2.13583 9.51736 2.33375 10.4271 2.72958C11.3368 3.12542 12.1285 3.66014 12.8021 4.33375C13.4757 5.00736 14.0104 5.79903 14.4063 6.70875C14.8021 7.61847 15 8.59417 15 9.63583C15 10.6775 14.8021 11.6532 14.4063 12.5629C14.0104 13.4726 13.4757 14.2643 12.8021 14.9379C12.1285 15.6115 11.3368 16.1463 10.4271 16.5421C9.51736 16.9379 8.54167 17.1358 7.5 17.1358Z" fill="currentColor"/>
</svg>
