<svg xmlns="http://www.w3.org/2000/svg" width="35" height="29" viewBox="0 0 35 29" fill="none">
  <path d="M5.2907 20.7084L3.58236 25.4584C3.44348 25.8473 3.22125 26.1459 2.9157 26.3543C2.61014 26.5626 2.26292 26.6668 1.87403 26.6668C1.23514 26.6668 0.728198 26.3959 0.353198 25.8543C-0.0218023 25.3126 -0.0981912 24.7362 0.124031 24.1251L7.45736 4.58343C7.59625 4.19454 7.83236 3.88899 8.1657 3.66676C8.49903 3.44454 8.86014 3.33343 9.24903 3.33343H10.749C11.1657 3.33343 11.5338 3.44454 11.8532 3.66676C12.1726 3.88899 12.4018 4.19454 12.5407 4.58343L19.9157 24.1668C20.1379 24.7779 20.0615 25.3473 19.6865 25.8751C19.3115 26.4029 18.8046 26.6668 18.1657 26.6668C17.7768 26.6668 17.4157 26.5557 17.0824 26.3334C16.749 26.1112 16.5129 25.8057 16.374 25.4168L14.7074 20.7084H5.2907ZM6.49903 17.3334H13.499L10.0824 7.66676H9.9157L6.49903 17.3334Z" fill="currentColor"/>
  <path d="M27.9574 28.3334L26.624 25.4167L23.7074 24.0834C23.4018 23.9445 23.249 23.6945 23.249 23.3334C23.249 22.9723 23.4018 22.7223 23.7074 22.5834L26.624 21.2501L27.9574 18.3334C28.0963 18.0278 28.3463 17.8751 28.7074 17.8751C29.0685 17.8751 29.3185 18.0278 29.4574 18.3334L30.7907 21.2501L33.7074 22.5834C34.0129 22.7223 34.1657 22.9723 34.1657 23.3334C34.1657 23.6945 34.0129 23.9445 33.7074 24.0834L30.7907 25.4167L29.4574 28.3334C29.3185 28.6389 29.0685 28.7917 28.7074 28.7917C28.3463 28.7917 28.0963 28.6389 27.9574 28.3334Z" fill="currentColor"/>
  <path fill-rule="evenodd" clip-rule="evenodd" d="M24.999 15C24.7899 15 24.5903 14.943 24.4002 14.8289C24.2101 14.7148 24.0675 14.5532 23.9724 14.3441L22.1473 10.3517L18.1549 8.52662C17.9458 8.43156 17.7842 8.28897 17.6701 8.09886C17.5561 7.90874 17.499 7.70913 17.499 7.5C17.499 7.29087 17.5561 7.09125 17.6701 6.90114C17.7842 6.71103 17.9458 6.56844 18.1549 6.47338L22.1473 4.64829L23.9724 0.655893C24.0675 0.446768 24.2101 0.285171 24.4002 0.171102C24.5903 0.0570338 24.7899 0 24.999 0C25.2082 0 25.4078 0.0570338 25.5979 0.171102C25.788 0.285171 25.9306 0.446768 26.0257 0.655893L27.8507 4.64829L31.8431 6.47338C32.0523 6.56844 32.2139 6.71103 32.3279 6.90114C32.442 7.09125 32.499 7.29087 32.499 7.5C32.499 7.70913 32.442 7.90874 32.3279 8.09886C32.2139 8.28897 32.0523 8.43156 31.8431 8.52662L27.8507 10.3517L26.0257 14.3441C25.9306 14.5532 25.788 14.7148 25.5979 14.8289C25.4078 14.943 25.2082 15 24.999 15ZM26.1397 8.64068L24.999 11.0932L23.8583 8.64068L21.4059 7.5L23.8583 6.35932L24.999 3.90684L26.1397 6.35932L28.5922 7.5L26.1397 8.64068Z" fill="currentColor"/>
</svg>
