<svg xmlns="http://www.w3.org/2000/svg" width="18" height="18" viewBox="0 0 18 18" fill="none">
  <path d="M6.85742 11C7.48848 11.0002 8 11.5228 8 12.167V16.833C8 17.4772 7.48848 17.9998 6.85742 18H1.14258C0.511524 17.9998 0 17.4772 0 16.833V12.167C0 11.5228 0.511524 11.0002 1.14258 11H6.85742ZM14.1992 14.6143C14.5897 14.2237 15.2237 14.2237 15.6143 14.6143L16.293 15.293C16.6832 15.6835 16.6833 16.3166 16.293 16.707C15.9025 17.0975 15.2695 17.0973 14.8789 16.707L14.1992 16.0283C13.8089 15.6379 13.8091 15.0048 14.1992 14.6143ZM2 16H6V13H2V16ZM10.8027 11.2168C11.1931 10.8265 11.8263 10.8267 12.2168 11.2168L13.5752 12.5752C13.9657 12.9657 13.9656 13.5987 13.5752 13.9893C13.1847 14.3798 12.5517 14.3798 12.1611 13.9893L10.8027 12.6318C10.4122 12.2413 10.4122 11.6073 10.8027 11.2168ZM7.40625 7.82031C7.79665 7.43 8.42978 7.43021 8.82031 7.82031L10.1797 9.17969C10.5698 9.57022 10.57 10.2034 10.1797 10.5938C9.7893 10.9841 9.15618 10.9839 8.76562 10.5938L7.40625 9.23438C7.01612 8.84382 7.01586 8.2107 7.40625 7.82031ZM4.00977 4.4248C4.40029 4.03428 5.03428 4.03428 5.4248 4.4248L6.78223 5.78223C7.17275 6.17275 7.17275 6.80674 6.78223 7.19727C6.39169 7.58735 5.75856 7.58758 5.36816 7.19727L4.00977 5.83887C3.61942 5.44848 3.61967 4.81535 4.00977 4.4248ZM16.8574 0C17.4885 0.000153606 18 0.522755 18 1.16699V5.83301C18 6.47725 17.4885 6.99985 16.8574 7H11.1426C10.5115 6.99985 10 6.47724 10 5.83301V1.16699C10 0.522755 10.5115 0.000153935 11.1426 0H16.8574ZM12 5H16V2H12V5ZM1.29297 1.70703C1.68347 1.31661 2.31653 1.31661 2.70703 1.70703L3.38672 2.38672C3.7769 2.77724 3.77706 3.41036 3.38672 3.80078C2.9963 4.1912 2.36321 4.19098 1.97266 3.80078L1.29297 3.12109C0.90252 2.73056 0.90247 2.09753 1.29297 1.70703Z" fill="currentColor"/>
</svg>
