<svg xmlns="http://www.w3.org/2000/svg" width="40" height="40" viewBox="0 0 40 40" fill="none">
  <path d="M15.8333 18.3333L14.2499 21.75L10.8333 23.3333L14.2499 24.9166L15.8333 28.3333L17.4166 24.9166L20.8333 23.3333L17.4166 21.75L15.8333 18.3333ZM25.8333 18.3333L24.7499 20.5833L22.4999 21.6666L24.7499 22.75L25.8333 25L26.9166 22.75L29.1666 21.6666L26.9166 20.5833L25.8333 18.3333ZM6.66659 6.66663L9.99992 13.3333H14.9999L11.6666 6.66663H14.9999L18.3333 13.3333H23.3333L19.9999 6.66663H23.3333L26.6666 13.3333H31.6666L28.3333 6.66663H33.3333C34.2499 6.66663 35.0349 6.99329 35.6883 7.64663C36.3405 8.29885 36.6666 9.08329 36.6666 9.99996V30C36.6666 30.9166 36.3405 31.7016 35.6883 32.355C35.0349 33.0072 34.2499 33.3333 33.3333 33.3333H6.66659C5.74992 33.3333 4.96547 33.0072 4.31325 32.355C3.65992 31.7016 3.33325 30.9166 3.33325 30V9.99996C3.33325 9.08329 3.65992 8.29885 4.31325 7.64663C4.96547 6.99329 5.74992 6.66663 6.66659 6.66663ZM6.66659 16.6666V30H33.3333V16.6666H6.66659Z" fill="currentColor"/>
</svg>
