<svg xmlns="http://www.w3.org/2000/svg" width="28" height="23" viewBox="0 0 28 23" fill="none">
  <path d="M2.66667 21.3333C1.93333 21.3333 1.30556 21.0722 0.783333 20.55C0.261111 20.0278 0 19.4 0 18.6667V2.66667C0 1.93333 0.261111 1.30556 0.783333 0.783333C1.30556 0.261111 1.93333 0 2.66667 0L4.83333 4.33333C4.98889 4.64444 5.21111 4.88889 5.5 5.06667C5.78889 5.24444 6.1 5.33333 6.43333 5.33333C7.1 5.33333 7.61111 5.05 7.96667 4.48333C8.32222 3.91667 8.34445 3.33333 8.03333 2.73333L6.66667 0H9.33333L11.5 4.33333C11.6556 4.64444 11.8778 4.88889 12.1667 5.06667C12.4556 5.24444 12.7667 5.33333 13.1 5.33333C13.7667 5.33333 14.2778 5.05 14.6333 4.48333C14.9889 3.91667 15.0111 3.33333 14.7 2.73333L13.3333 0H16L18.1667 4.33333C18.3222 4.64444 18.5444 4.88889 18.8333 5.06667C19.1222 5.24444 19.4333 5.33333 19.7667 5.33333C20.4333 5.33333 20.9444 5.05 21.3 4.48333C21.6556 3.91667 21.6778 3.33333 21.3667 2.73333L20 0H24C24.7333 0 25.3611 0.261111 25.8833 0.783333C26.4056 1.30556 26.6667 1.93333 26.6667 2.66667V6.66667C26.6667 7.04444 26.5389 7.36111 26.2833 7.61667C26.0278 7.87222 25.7111 8 25.3333 8H2.66667V18.6667H12C12.3778 18.6667 12.6944 18.7944 12.95 19.05C13.2056 19.3056 13.3333 19.6222 13.3333 20C13.3333 20.3778 13.2056 20.6944 12.95 20.95C12.6944 21.2056 12.3778 21.3333 12 21.3333H2.66667ZM16 21.3333V19.1333C16 18.9556 16.0333 18.7833 16.1 18.6167C16.1667 18.45 16.2667 18.3 16.4 18.1667L23.3667 11.2333C23.5667 11.0333 23.7889 10.8889 24.0333 10.8C24.2778 10.7111 24.5222 10.6667 24.7667 10.6667C25.0333 10.6667 25.2889 10.7167 25.5333 10.8167C25.7778 10.9167 26 11.0667 26.2 11.2667L27.4333 12.5C27.6111 12.7 27.75 12.9222 27.85 13.1667C27.95 13.4111 28 13.6556 28 13.9C28 14.1444 27.9556 14.3944 27.8667 14.65C27.7778 14.9056 27.6333 15.1333 27.4333 15.3333L20.5 22.2667C20.3667 22.4 20.2167 22.5 20.05 22.5667C19.8833 22.6333 19.7111 22.6667 19.5333 22.6667H17.3333C16.9556 22.6667 16.6389 22.5389 16.3833 22.2833C16.1278 22.0278 16 21.7111 16 21.3333ZM18 20.6667H19.2667L23.3 16.6L22.7 15.9667L22.0667 15.3667L18 19.4V20.6667ZM22.7 15.9667L22.0667 15.3667L23.3 16.6L22.7 15.9667Z" fill="currentColor"/>
  <path d="M8.73333 12.0667L10 9.33333L11.2667 12.0667L14 13.3333L11.2667 14.6L10 17.3333L8.73333 14.6L6 13.3333L8.73333 12.0667Z" fill="currentColor"/>
  <path d="M17.1333 11.1333L18 9.33333L18.8667 11.1333L20.6667 12L18.8667 12.8667L18 14.6667L17.1333 12.8667L15.3333 12L17.1333 11.1333Z" fill="currentColor"/>
</svg>
