<svg xmlns="http://www.w3.org/2000/svg" width="28" height="28" viewBox="0 0 28 28" fill="none">
  <path d="M2.66667 27.6471C1.93333 27.6471 1.30556 27.386 0.783333 26.8638C0.261111 26.3416 0 25.7138 0 24.9805V3.64713C0 2.91379 0.261111 2.28602 0.783333 1.76379C1.30556 1.24157 1.93333 0.98046 2.66667 0.98046H10.6667C11.0444 0.98046 11.3611 1.10824 11.6167 1.36379C11.8722 1.61935 12 1.93602 12 2.31379C12 2.69157 11.8722 3.00824 11.6167 3.26379C11.3611 3.51935 11.0444 3.64713 10.6667 3.64713H2.66667V24.9805H17.3333V23.6471C17.3333 23.2693 17.4611 22.9527 17.7167 22.6971C17.9722 22.4416 18.2889 22.3138 18.6667 22.3138C19.0444 22.3138 19.3611 22.4416 19.6167 22.6971C19.8722 22.9527 20 23.2693 20 23.6471V24.9805C20 25.7138 19.7389 26.3416 19.2167 26.8638C18.6944 27.386 18.0667 27.6471 17.3333 27.6471H2.66667ZM6.66667 22.3138C6.28889 22.3138 5.97222 22.186 5.71667 21.9305C5.46111 21.6749 5.33333 21.3582 5.33333 20.9805C5.33333 20.6027 5.46111 20.286 5.71667 20.0305C5.97222 19.7749 6.28889 19.6471 6.66667 19.6471H13.3333C13.7111 19.6471 14.0278 19.7749 14.2833 20.0305C14.5389 20.286 14.6667 20.6027 14.6667 20.9805C14.6667 21.3582 14.5389 21.6749 14.2833 21.9305C14.0278 22.186 13.7111 22.3138 13.3333 22.3138H6.66667ZM6.66667 18.3138C6.28889 18.3138 5.97222 18.186 5.71667 17.9305C5.46111 17.6749 5.33333 17.3582 5.33333 16.9805C5.33333 16.6027 5.46111 16.286 5.71667 16.0305C5.97222 15.7749 6.28889 15.6471 6.66667 15.6471H10.6667C11.0444 15.6471 11.3611 15.7749 11.6167 16.0305C11.8722 16.286 12 16.6027 12 16.9805C12 17.3582 11.8722 17.6749 11.6167 17.9305C11.3611 18.186 11.0444 18.3138 10.6667 18.3138H6.66667ZM10 12.9805C9.44444 12.9805 8.97222 12.786 8.58333 12.3971C8.19444 12.0082 8 11.536 8 10.9805V8.31379C8 7.75824 8.19444 7.28601 8.58333 6.89713C8.97222 6.50824 9.44444 6.31379 10 6.31379H12L15.0667 3.24713C15.1778 3.13602 15.3167 3.04157 15.4833 2.96379C15.65 2.88602 15.8222 2.84713 16 2.84713C16.3778 2.84713 16.6944 2.98046 16.95 3.24713C17.2056 3.51379 17.3333 3.83602 17.3333 4.21379V15.0805C17.3333 15.4582 17.2056 15.7805 16.95 16.0471C16.6944 16.3138 16.3778 16.4471 16 16.4471C15.8222 16.4471 15.65 16.4082 15.4833 16.3305C15.3167 16.2527 15.1778 16.1582 15.0667 16.0471L12 12.9805H10ZM22.6667 9.64713C22.6667 10.3805 22.5222 11.0805 22.2333 11.7471C21.9444 12.4138 21.5333 13.0027 21 13.5138C20.8222 13.6916 20.6111 13.7249 20.3667 13.6138C20.1222 13.5027 20 13.3027 20 13.0138V6.28046C20 6.01379 20.1222 5.81935 20.3667 5.69713C20.6111 5.5749 20.8222 5.60268 21 5.78046C21.5333 6.29157 21.9444 6.88046 22.2333 7.54713C22.5222 8.21379 22.6667 8.91379 22.6667 9.64713ZM25.3333 9.64713C25.3333 8.18046 24.9611 6.8249 24.2167 5.58046C23.4722 4.33601 22.4556 3.35824 21.1667 2.64713C20.8333 2.46935 20.6 2.20824 20.4667 1.86379C20.3333 1.51935 20.3333 1.18046 20.4667 0.847126C20.6 0.491571 20.8389 0.241571 21.1833 0.0971264C21.5278 -0.047318 21.8556 -0.0306513 22.1667 0.147126C23.9667 1.08046 25.3889 2.39157 26.4333 4.08046C27.4778 5.76935 28 7.6249 28 9.64713C28 11.6693 27.4778 13.5249 26.4333 15.2138C25.3889 16.9027 23.9667 18.2138 22.1667 19.1471C21.8556 19.3249 21.5278 19.3416 21.1833 19.1971C20.8389 19.0527 20.6 18.8027 20.4667 18.4471C20.3333 18.1138 20.3333 17.7749 20.4667 17.4305C20.6 17.086 20.8333 16.8249 21.1667 16.6471C22.4556 15.936 23.4722 14.9582 24.2167 13.7138C24.9611 12.4693 25.3333 11.1138 25.3333 9.64713Z" fill="currentColor"/>
</svg>
