<svg xmlns="http://www.w3.org/2000/svg" width="14" height="13" viewBox="0 0 14 13" fill="none">
  <path d="M12 6.21563C12 5.17813 11.725 4.23125 11.175 3.375C10.625 2.51875 9.8875 1.87813 8.9625 1.45312C8.775 1.36563 8.6375 1.23125 8.55 1.05C8.4625 0.86875 8.45 0.684375 8.5125 0.496875C8.5875 0.296875 8.72188 0.153125 8.91563 0.065625C9.10938 -0.021875 9.30625 -0.021875 9.50625 0.065625C10.7188 0.603125 11.6875 1.425 12.4125 2.53125C13.1375 3.6375 13.5 4.86563 13.5 6.21563C13.5 7.56563 13.1375 8.79375 12.4125 9.9C11.6875 11.0063 10.7188 11.8281 9.50625 12.3656C9.30625 12.4531 9.10938 12.4531 8.91563 12.3656C8.72188 12.2781 8.5875 12.1344 8.5125 11.9344C8.45 11.7469 8.4625 11.5625 8.55 11.3813C8.6375 11.2 8.775 11.0656 8.9625 10.9781C9.8875 10.5531 10.625 9.9125 11.175 9.05625C11.725 8.2 12 7.25313 12 6.21563ZM3 8.48438H0.75C0.5375 8.48438 0.359375 8.4125 0.215625 8.26875C0.071875 8.125 0 7.94688 0 7.73438V4.73438C0 4.52188 0.071875 4.34375 0.215625 4.2C0.359375 4.05625 0.5375 3.98438 0.75 3.98438H3L5.475 1.50938C5.7125 1.27188 5.98438 1.21875 6.29063 1.35C6.59688 1.48125 6.75 1.71563 6.75 2.05313V10.4156C6.75 10.7531 6.59688 10.9875 6.29063 11.1188C5.98438 11.25 5.7125 11.1969 5.475 10.9594L3 8.48438ZM10.125 6.23438C10.125 6.75938 10.0063 7.25625 9.76875 7.725C9.53125 8.19375 9.21875 8.57812 8.83125 8.87813C8.70625 8.95312 8.57812 8.95625 8.44688 8.8875C8.31563 8.81875 8.25 8.70938 8.25 8.55938V3.87188C8.25 3.72188 8.31563 3.6125 8.44688 3.54375C8.57812 3.475 8.70625 3.47813 8.83125 3.55313C9.21875 3.86563 9.53125 4.25938 9.76875 4.73438C10.0063 5.20938 10.125 5.70938 10.125 6.23438ZM5.25 3.87188L3.6375 5.48438H1.5V6.98438H3.6375L5.25 8.59688V3.87188Z" fill="currentColor"/>
</svg>

