<svg xmlns="http://www.w3.org/2000/svg" width="18" height="18" viewBox="0 0 18 18" fill="none">
  <path d="M7.5 8.5H4C3.71667 8.5 3.47917 8.40417 3.2875 8.2125C3.09583 8.02083 3 7.78333 3 7.5V4C3 3.71667 3.09583 3.47917 3.2875 3.2875C3.47917 3.09583 3.71667 3 4 3H7.5C7.78333 3 8.02083 3.09583 8.2125 3.2875C8.40417 3.47917 8.5 3.71667 8.5 4V7.5C8.5 7.78333 8.40417 8.02083 8.2125 8.2125C8.02083 8.40417 7.78333 8.5 7.5 8.5ZM7.5 15H4C3.71667 15 3.47917 14.9042 3.2875 14.7125C3.09583 14.5208 3 14.2833 3 14V10.5C3 10.2167 3.09583 9.97917 3.2875 9.7875C3.47917 9.59583 3.71667 9.5 4 9.5H7.5C7.78333 9.5 8.02083 9.59583 8.2125 9.7875C8.40417 9.97917 8.5 10.2167 8.5 10.5V14C8.5 14.2833 8.40417 14.5208 8.2125 14.7125C8.02083 14.9042 7.78333 15 7.5 15ZM14 8.5H10.5C10.2167 8.5 9.97917 8.40417 9.7875 8.2125C9.59583 8.02083 9.5 7.78333 9.5 7.5V4C9.5 3.71667 9.59583 3.47917 9.7875 3.2875C9.97917 3.09583 10.2167 3 10.5 3H14C14.2833 3 14.5208 3.09583 14.7125 3.2875C14.9042 3.47917 15 3.71667 15 4V7.5C15 7.78333 14.9042 8.02083 14.7125 8.2125C14.5208 8.40417 14.2833 8.5 14 8.5ZM14 15H10.5C10.2167 15 9.97917 14.9042 9.7875 14.7125C9.59583 14.5208 9.5 14.2833 9.5 14V10.5C9.5 10.2167 9.59583 9.97917 9.7875 9.7875C9.97917 9.59583 10.2167 9.5 10.5 9.5H14C14.2833 9.5 14.5208 9.59583 14.7125 9.7875C14.9042 9.97917 15 10.2167 15 10.5V14C15 14.2833 14.9042 14.5208 14.7125 14.7125C14.5208 14.9042 14.2833 15 14 15ZM5 6.5H6.5V5H5V6.5ZM11.5 6.5H13V5H11.5V6.5ZM5 13H6.5V11.5H5V13ZM11.5 13H13V11.5H11.5V13ZM2 18C1.45 18 0.979167 17.8042 0.5875 17.4125C0.195833 17.0208 0 16.55 0 16V2C0 1.45 0.195833 0.979167 0.5875 0.5875C0.979167 0.195833 1.45 0 2 0H16C16.55 0 17.0208 0.195833 17.4125 0.5875C17.8042 0.979167 18 1.45 18 2V16C18 16.55 17.8042 17.0208 17.4125 17.4125C17.0208 17.8042 16.55 18 16 18H2ZM2 16H16V2H2V16Z" fill="currentColor"/>
</svg>

