<svg width="256" height="256" viewBox="0 0 256 256" fill="none" xmlns="http://www.w3.org/2000/svg">
<g clip-path="url(#clip0_1306_4158)">
<path d="M256 128C256 57.3075 198.692 0 128 0C57.3075 0 0 57.3075 0 128C0 198.692 57.3075 256 128 256C198.692 256 256 198.692 256 128Z" fill="white"/>
<path d="M135.537 168.157C136.036 168.234 136.463 167.793 136.378 167.299C136.148 166.009 135.483 164.836 135.483 164.836C132.117 158.247 130.162 151.083 131.106 143.618C135.825 147.771 136.342 148.337 140.845 152.045C142.706 153.577 152.279 160.894 154.351 162.288C162.481 167.744 165.227 169.789 171.119 173.088C176.948 176.35 179.357 177.775 180.31 175.964C181.281 174.126 176.885 172.184 174.243 170.112C174.22 170.094 174.18 170.067 174.157 170.049C171.249 167.856 168.948 166.157 167.685 165.231C167.685 165.231 150.18 152.373 131.825 132.683C131.807 132.665 131.757 132.611 131.766 132.553C131.784 132.454 131.982 132.422 132.067 132.395C132.975 132.103 133.083 132.081 134.369 131.784C138.989 130.966 143.676 130.921 148.297 131.168C149.227 131.218 152.616 131.784 153.196 131.33C154.112 130.62 151.883 129.51 151.371 129.245C146.301 126.656 141.366 125.047 131.344 126.027L125.411 126.674C119.645 120.135 113.762 113.69 107.726 107.393C109.667 106.391 112.823 105.2 114.885 104.467C121.362 102.175 127.276 100.989 133.757 100.665C134.62 100.62 137.384 100.872 137.874 100.467C138.315 100.103 138.171 99.6539 137.811 99.2808C137.533 98.9932 136.067 98.3775 135.623 98.2291C127.753 95.5819 118.742 96.31 110.84 98.6112C109.847 98.8988 108.921 99.2314 107.942 99.6269L103.29 101.654L97.8158 96.5437C92.1663 91.2583 82.7191 87.0426 83.7843 77.8786C85.2225 65.5235 102.724 58.5617 113.416 58.6067C157.69 59.8336 171.735 115.326 185.011 137.789C199.474 162.261 195.843 156.652 200.773 164.274C202.364 166.737 209.335 177.712 211.128 180.557C211.128 180.557 215.479 186.638 212.49 191.272C205.488 202.135 108.427 207.29 67.0158 155.389C62.0135 149.119 50.454 134.216 52.9798 117.133C54.4899 106.926 60.9394 96.9482 66.6922 94.0134C72.2382 91.1864 76.9439 93.6539 81.627 96.6831C89.5191 101.789 96.0764 108.593 102.733 115.137C101.708 117.038 100.454 118.849 99.5641 120.845C94.2158 132.885 96.1349 151.079 103.079 162.054C103.82 163.222 105.515 164.773 105.065 162.598C104.315 158.989 103.119 155.595 102.629 151.928C102.054 147.6 102 143.177 102.467 138.854C103.142 132.616 105.128 126.548 108.436 121.231L124.328 137.043C124.247 137.636 124.04 139.308 123.964 140.126C122.778 153.061 132.481 165.766 134.881 167.834C134.881 167.834 135.155 168.076 135.528 168.135L135.537 168.157Z" fill="#35C838"/>
<path d="M57.8247 58.674C71.4202 57.6448 72.1034 71.9369 76.5978 80.9616C77.8787 83.5369 80.3686 86.2515 81.3798 88.5482C81.5056 88.8358 81.7888 89.4111 81.4562 89.6403C80.791 90.1032 75.7034 88.5257 74.5753 88.3055C68.9304 87.1998 63.1596 87.1774 57.4967 86.5392C51.5865 85.874 45.7214 83.465 43.8337 77.3257C40.8629 67.6762 48.3865 59.3886 57.8247 58.6695V58.674Z" fill="#35C838"/>
</g>
<defs>
<clipPath id="clip0_1306_4158">
<rect width="256" height="256" fill="white"/>
</clipPath>
</defs>
</svg>
