<svg xmlns="http://www.w3.org/2000/svg" width="9" height="5" viewBox="0 0 9 5" fill="none">
  <path d="M0.5 4.7C0.35 4.7 0.229167 4.65 0.1375 4.55C0.0458333 4.45 0 4.33333 0 4.2C0 4.16667 0.05 4.05 0.15 3.85L3.775 0.225C3.85833 0.141667 3.94167 0.0833333 4.025 0.05C4.10833 0.0166667 4.2 0 4.3 0C4.4 0 4.49167 0.0166667 4.575 0.05C4.65833 0.0833333 4.74167 0.141667 4.825 0.225L8.45 3.85C8.5 3.9 8.5375 3.95417 8.5625 4.0125C8.5875 4.07083 8.6 4.13333 8.6 4.2C8.6 4.33333 8.55417 4.45 8.4625 4.55C8.37083 4.65 8.25 4.7 8.1 4.7H0.5Z" fill="currentColor"/>
</svg>
<svg xmlns="http://www.w3.org/2000/svg" width="9" height="5" viewBox="0 0 9 5" fill="none">
  <path d="M0.5 4.7C0.35 4.7 0.229167 4.65 0.1375 4.55C0.0458333 4.45 0 4.33333 0 4.2C0 4.16667 0.05 4.05 0.15 3.85L3.775 0.225C3.85833 0.141667 3.94167 0.0833333 4.025 0.05C4.10833 0.0166667 4.2 0 4.3 0C4.4 0 4.49167 0.0166667 4.575 0.05C4.65833 0.0833333 4.74167 0.141667 4.825 0.225L8.45 3.85C8.5 3.9 8.5375 3.95417 8.5625 4.0125C8.5875 4.07083 8.6 4.13333 8.6 4.2C8.6 4.33333 8.55417 4.45 8.4625 4.55C8.37083 4.65 8.25 4.7 8.1 4.7H0.5Z" fill="currentColor"/>
</svg>
