<svg xmlns="http://www.w3.org/2000/svg" width="8" height="12" viewBox="0 0 8 12" fill="none">
  <path d="M2.66667 12C1.93333 12 1.30556 11.7389 0.783333 11.2167C0.261111 10.6944 0 10.0667 0 9.33333C0 8.6 0.261111 7.97222 0.783333 7.45C1.30556 6.92778 1.93333 6.66667 2.66667 6.66667C2.92222 6.66667 3.15833 6.69722 3.375 6.75833C3.59167 6.81944 3.8 6.91111 4 7.03333V0.666667C4 0.477778 4.06389 0.319444 4.19167 0.191667C4.31944 0.0638889 4.47778 0 4.66667 0H7.33333C7.52222 0 7.68056 0.0638889 7.80833 0.191667C7.93611 0.319444 8 0.477778 8 0.666667V2C8 2.18889 7.93611 2.34722 7.80833 2.475C7.68056 2.60278 7.52222 2.66667 7.33333 2.66667H5.33333V9.33333C5.33333 10.0667 5.07222 10.6944 4.55 11.2167C4.02778 11.7389 3.4 12 2.66667 12Z" fill="currentColor" fill-opacity="0.7"/>
</svg>
