<svg xmlns="http://www.w3.org/2000/svg" width="22" height="22" viewBox="0 0 22 22" fill="none">
  <path d="M16 21V18H6C5.45 18 4.97917 17.8042 4.5875 17.4125C4.19583 17.0208 4 16.55 4 16V6H1C0.716667 6 0.479167 5.90417 0.2875 5.7125C0.0958333 5.52083 0 5.28333 0 5C0 4.71667 0.0958333 4.47917 0.2875 4.2875C0.479167 4.09583 0.716667 4 1 4H4V1C4 0.716667 4.09583 0.479167 4.2875 0.2875C4.47917 0.0958333 4.71667 0 5 0C5.28333 0 5.52083 0.0958333 5.7125 0.2875C5.90417 0.479167 6 0.716667 6 1V16H21C21.2833 16 21.5208 16.0958 21.7125 16.2875C21.9042 16.4792 22 16.7167 22 17C22 17.2833 21.9042 17.5208 21.7125 17.7125C21.5208 17.9042 21.2833 18 21 18H18V21C18 21.2833 17.9042 21.5208 17.7125 21.7125C17.5208 21.9042 17.2833 22 17 22C16.7167 22 16.4792 21.9042 16.2875 21.7125C16.0958 21.5208 16 21.2833 16 21ZM16 14V6H8V4H16C16.55 4 17.0208 4.19583 17.4125 4.5875C17.8042 4.97917 18 5.45 18 6V14H16Z" fill="currentColor"/>
</svg>

