<svg width="24" height="24" viewBox="0 0 24 24" fill="none" xmlns="http://www.w3.org/2000/svg">
<path d="M6 5C5.71667 5 5.47917 4.90417 5.2875 4.7125C5.09583 4.52083 5 4.28333 5 4C5 3.71667 5.09583 3.47917 5.2875 3.2875C5.47917 3.09583 5.71667 3 6 3H18C18.2833 3 18.5208 3.09583 18.7125 3.2875C18.9042 3.47917 19 3.71667 19 4C19 4.28333 18.9042 4.52083 18.7125 4.7125C18.5208 4.90417 18.2833 5 18 5H6ZM12 21C10.3167 21 9.00833 20.475 8.075 19.425C7.14167 18.375 6.675 16.9833 6.675 15.25V8.275C6.675 7.925 6.80417 7.625 7.0625 7.375C7.32083 7.125 7.625 7 7.975 7C8.325 7 8.625 7.125 8.875 7.375C9.125 7.625 9.25 7.925 9.25 8.275V15.4C9.25 16.3333 9.48333 17.0917 9.95 17.675C10.4167 18.2583 11.1 18.55 12 18.55C12.9 18.55 13.5833 18.2583 14.05 17.675C14.5167 17.0917 14.75 16.3333 14.75 15.4V8.275C14.75 7.925 14.8792 7.625 15.1375 7.375C15.3958 7.125 15.7 7 16.05 7C16.4 7 16.7 7.125 16.95 7.375C17.2 7.625 17.325 7.925 17.325 8.275V15.25C17.325 16.9833 16.8583 18.375 15.925 19.425C14.9917 20.475 13.6833 21 12 21Z" fill="currentColor"/>
</svg>

