<svg xmlns="http://www.w3.org/2000/svg" width="20" height="20" viewBox="0 0 20 20" fill="none">
  <path d="M10 20C7.86667 20 5.94583 19.3917 4.2375 18.175C2.52917 16.9583 1.31667 15.3667 0.6 13.4C0.516667 13.15 0.541667 12.9167 0.675 12.7C0.808333 12.4833 1.00833 12.3333 1.275 12.25C1.54167 12.1667 1.79583 12.1958 2.0375 12.3375C2.27917 12.4792 2.45 12.675 2.55 12.925C3.15 14.4417 4.125 15.6667 5.475 16.6C6.825 17.5333 8.33333 18 10 18C11.4333 18 12.7667 17.6458 14 16.9375C15.2333 16.2292 16.2 15.25 16.9 14H15C14.7167 14 14.4792 13.9042 14.2875 13.7125C14.0958 13.5208 14 13.2833 14 13C14 12.7167 14.0958 12.4792 14.2875 12.2875C14.4792 12.0958 14.7167 12 15 12H19C19.2833 12 19.5208 12.0958 19.7125 12.2875C19.9042 12.4792 20 12.7167 20 13V17C20 17.2833 19.9042 17.5208 19.7125 17.7125C19.5208 17.9042 19.2833 18 19 18C18.7167 18 18.4792 17.9042 18.2875 17.7125C18.0958 17.5208 18 17.2833 18 17V16C17.05 17.2667 15.875 18.25 14.475 18.95C13.075 19.65 11.5833 20 10 20ZM10 2C8.56667 2 7.23333 2.35417 6 3.0625C4.76667 3.77083 3.8 4.75 3.1 6H5C5.28333 6 5.52083 6.09583 5.7125 6.2875C5.90417 6.47917 6 6.71667 6 7C6 7.28333 5.90417 7.52083 5.7125 7.7125C5.52083 7.90417 5.28333 8 5 8H1C0.716667 8 0.479167 7.90417 0.2875 7.7125C0.0958333 7.52083 0 7.28333 0 7V3C0 2.71667 0.0958333 2.47917 0.2875 2.2875C0.479167 2.09583 0.716667 2 1 2C1.28333 2 1.52083 2.09583 1.7125 2.2875C1.90417 2.47917 2 2.71667 2 3V4C2.95 2.73333 4.125 1.75 5.525 1.05C6.925 0.35 8.41667 0 10 0C12.1333 0 14.0542 0.608333 15.7625 1.825C17.4708 3.04167 18.6833 4.63333 19.4 6.6C19.4833 6.85 19.4583 7.08333 19.325 7.3C19.1917 7.51667 18.9917 7.66667 18.725 7.75C18.4583 7.83333 18.2042 7.80417 17.9625 7.6625C17.7208 7.52083 17.55 7.325 17.45 7.075C16.85 5.55833 15.875 4.33333 14.525 3.4C13.175 2.46667 11.6667 2 10 2ZM10 13C9.16667 13 8.45833 12.7083 7.875 12.125C7.29167 11.5417 7 10.8333 7 10C7 9.16667 7.29167 8.45833 7.875 7.875C8.45833 7.29167 9.16667 7 10 7C10.8333 7 11.5417 7.29167 12.125 7.875C12.7083 8.45833 13 9.16667 13 10C13 10.8333 12.7083 11.5417 12.125 12.125C11.5417 12.7083 10.8333 13 10 13Z" fill="currentColor"/>
</svg>

