<svg xmlns="http://www.w3.org/2000/svg" width="18" height="18" viewBox="0 0 18 18" fill="none">
  <path d="M7.75 14C6.01667 14 4.54861 13.3986 3.34583 12.1958C2.14306 10.9931 1.54167 9.525 1.54167 7.79167C1.54167 6.05833 2.14306 4.59028 3.34583 3.3875C4.54861 2.18472 6.01667 1.58333 7.75 1.58333C9.48333 1.58333 10.9514 2.18472 12.1542 3.3875C13.3569 4.59028 13.9583 6.05833 13.9583 7.79167C13.9583 8.53333 13.8444 9.24167 13.6167 9.91667C13.3889 10.5917 13.0528 11.1917 12.6083 11.7167L16.275 15.3833C16.4333 15.5417 16.5125 15.7278 16.5125 15.9417C16.5125 16.1556 16.4333 16.3417 16.275 16.5C16.1167 16.6583 15.9278 16.7375 15.7083 16.7375C15.4889 16.7375 15.3 16.6583 15.1417 16.5L11.475 12.8333C10.95 13.2778 10.35 13.6139 9.675 13.8417C9 14.0694 8.29167 14.1833 7.55 14.1833L7.75 14ZM7.75 12.3333C9 12.3333 10.0625 11.8958 10.9375 11.0208C11.8125 10.1458 12.25 9.08333 12.25 7.83333C12.25 6.58333 11.8125 5.52083 10.9375 4.64583C10.0625 3.77083 9 3.33333 7.75 3.33333C6.5 3.33333 5.4375 3.77083 4.5625 4.64583C3.6875 5.52083 3.25 6.58333 3.25 7.83333C3.25 9.08333 3.6875 10.1458 4.5625 11.0208C5.4375 11.8958 6.5 12.3333 7.75 12.3333Z" fill="currentColor"/>
</svg>
