<svg xmlns="http://www.w3.org/2000/svg" width="18" height="22" viewBox="0 0 18 22" fill="none">
  <path d="M5 4C5.28333 4 5.52083 3.90417 5.7125 3.7125C5.90417 3.52083 6 3.28333 6 3C6 2.71667 5.90417 2.47917 5.7125 2.2875C5.52083 2.09583 5.28333 2 5 2C4.71667 2 4.47917 2.09583 4.2875 2.2875C4.09583 2.47917 4 2.71667 4 3C4 3.28333 4.09583 3.52083 4.2875 3.7125C4.47917 3.90417 4.71667 4 5 4ZM1 4C1.28333 4 1.52083 3.90417 1.7125 3.7125C1.90417 3.52083 2 3.28333 2 3C2 2.71667 1.90417 2.47917 1.7125 2.2875C1.52083 2.09583 1.28333 2 1 2C0.716667 2 0.479166 2.09583 0.2875 2.2875C0.0958328 2.47917 0 2.71667 0 3C0 3.28333 0.0958328 3.52083 0.2875 3.7125C0.479166 3.90417 0.716667 4 1 4ZM1 8C1.28333 8 1.52083 7.90417 1.7125 7.7125C1.90417 7.52083 2 7.28333 2 7C2 6.71667 1.90417 6.47917 1.7125 6.2875C1.52083 6.09583 1.28333 6 1 6C0.716667 6 0.479166 6.09583 0.2875 6.2875C0.0958328 6.47917 0 6.71667 0 7C0 7.28333 0.0958328 7.52083 0.2875 7.7125C0.479166 7.90417 0.716667 8 1 8ZM1 12C1.28333 12 1.52083 11.9042 1.7125 11.7125C1.90417 11.5208 2 11.2833 2 11C2 10.7167 1.90417 10.4792 1.7125 10.2875C1.52083 10.0958 1.28333 10 1 10C0.716667 10 0.479166 10.0958 0.2875 10.2875C0.0958328 10.4792 0 10.7167 0 11C0 11.2833 0.0958328 11.5208 0.2875 11.7125C0.479166 11.9042 0.716667 12 1 12ZM1 16C1.28333 16 1.52083 15.9042 1.7125 15.7125C1.90417 15.5208 2 15.2833 2 15C2 14.7167 1.90417 14.4792 1.7125 14.2875C1.52083 14.0958 1.28333 14 1 14C0.716667 14 0.479166 14.0958 0.2875 14.2875C0.0958328 14.4792 0 14.7167 0 15C0 15.2833 0.0958328 15.5208 0.2875 15.7125C0.479166 15.9042 0.716667 16 1 16ZM5 20C5.28333 20 5.52083 19.9042 5.7125 19.7125C5.90417 19.5208 6 19.2833 6 19C6 18.7167 5.90417 18.4792 5.7125 18.2875C5.52083 18.0958 5.28333 18 5 18C4.71667 18 4.47917 18.0958 4.2875 18.2875C4.09583 18.4792 4 18.7167 4 19C4 19.2833 4.09583 19.5208 4.2875 19.7125C4.47917 19.9042 4.71667 20 5 20ZM1 20C1.28333 20 1.52083 19.9042 1.7125 19.7125C1.90417 19.5208 2 19.2833 2 19C2 18.7167 1.90417 18.4792 1.7125 18.2875C1.52083 18.0958 1.28333 18 1 18C0.716667 18 0.479166 18.0958 0.2875 18.2875C0.0958328 18.4792 0 18.7167 0 19C0 19.2833 0.0958328 19.5208 0.2875 19.7125C0.479166 19.9042 0.716667 20 1 20ZM16 20C16.55 20 17.0208 19.8042 17.4125 19.4125C17.8042 19.0208 18 18.55 18 18V4C18 3.45 17.8042 2.97917 17.4125 2.5875C17.0208 2.19583 16.55 2 16 2H13C12.7167 2 12.4792 2.09583 12.2875 2.2875C12.0958 2.47917 12 2.71667 12 3C12 3.28333 12.0958 3.52083 12.2875 3.7125C12.4792 3.90417 12.7167 4 13 4H16V18H13C12.7167 18 12.4792 18.0958 12.2875 18.2875C12.0958 18.4792 12 18.7167 12 19C12 19.2833 12.0958 19.5208 12.2875 19.7125C12.4792 19.9042 12.7167 20 13 20H16ZM10 21V1C10 0.716667 9.90417 0.479167 9.7125 0.2875C9.52083 0.0958333 9.28333 0 9 0C8.71667 0 8.47917 0.0958333 8.2875 0.2875C8.09583 0.479167 8 0.716667 8 1V21C8 21.2833 8.09583 21.5208 8.2875 21.7125C8.47917 21.9042 8.71667 22 9 22C9.28333 22 9.52083 21.9042 9.7125 21.7125C9.90417 21.5208 10 21.2833 10 21Z" fill="currentColor"/>
</svg>

