<svg xmlns="http://www.w3.org/2000/svg" width="18" height="22" viewBox="0 0 18 22" fill="none">
  <path d="M13 4C12.7167 4 12.4792 3.90417 12.2875 3.7125C12.0958 3.52083 12 3.28333 12 3C12 2.71667 12.0958 2.47917 12.2875 2.2875C12.4792 2.09583 12.7167 2 13 2C13.2833 2 13.5208 2.09583 13.7125 2.2875C13.9042 2.47917 14 2.71667 14 3C14 3.28333 13.9042 3.52083 13.7125 3.7125C13.5208 3.90417 13.2833 4 13 4ZM17 4C16.7167 4 16.4792 3.90417 16.2875 3.7125C16.0958 3.52083 16 3.28333 16 3C16 2.71667 16.0958 2.47917 16.2875 2.2875C16.4792 2.09583 16.7167 2 17 2C17.2833 2 17.5208 2.09583 17.7125 2.2875C17.9042 2.47917 18 2.71667 18 3C18 3.28333 17.9042 3.52083 17.7125 3.7125C17.5208 3.90417 17.2833 4 17 4ZM17 8C16.7167 8 16.4792 7.90417 16.2875 7.7125C16.0958 7.52083 16 7.28333 16 7C16 6.71667 16.0958 6.47917 16.2875 6.2875C16.4792 6.09583 16.7167 6 17 6C17.2833 6 17.5208 6.09583 17.7125 6.2875C17.9042 6.47917 18 6.71667 18 7C18 7.28333 17.9042 7.52083 17.7125 7.7125C17.5208 7.90417 17.2833 8 17 8ZM17 12C16.7167 12 16.4792 11.9042 16.2875 11.7125C16.0958 11.5208 16 11.2833 16 11C16 10.7167 16.0958 10.4792 16.2875 10.2875C16.4792 10.0958 16.7167 10 17 10C17.2833 10 17.5208 10.0958 17.7125 10.2875C17.9042 10.4792 18 10.7167 18 11C18 11.2833 17.9042 11.5208 17.7125 11.7125C17.5208 11.9042 17.2833 12 17 12ZM17 16C16.7167 16 16.4792 15.9042 16.2875 15.7125C16.0958 15.5208 16 15.2833 16 15C16 14.7167 16.0958 14.4792 16.2875 14.2875C16.4792 14.0958 16.7167 14 17 14C17.2833 14 17.5208 14.0958 17.7125 14.2875C17.9042 14.4792 18 14.7167 18 15C18 15.2833 17.9042 15.5208 17.7125 15.7125C17.5208 15.9042 17.2833 16 17 16ZM13 20C12.7167 20 12.4792 19.9042 12.2875 19.7125C12.0958 19.5208 12 19.2833 12 19C12 18.7167 12.0958 18.4792 12.2875 18.2875C12.4792 18.0958 12.7167 18 13 18C13.2833 18 13.5208 18.0958 13.7125 18.2875C13.9042 18.4792 14 18.7167 14 19C14 19.2833 13.9042 19.5208 13.7125 19.7125C13.5208 19.9042 13.2833 20 13 20ZM17 20C16.7167 20 16.4792 19.9042 16.2875 19.7125C16.0958 19.5208 16 19.2833 16 19C16 18.7167 16.0958 18.4792 16.2875 18.2875C16.4792 18.0958 16.7167 18 17 18C17.2833 18 17.5208 18.0958 17.7125 18.2875C17.9042 18.4792 18 18.7167 18 19C18 19.2833 17.9042 19.5208 17.7125 19.7125C17.5208 19.9042 17.2833 20 17 20ZM2 20C1.45 20 0.979167 19.8042 0.5875 19.4125C0.195833 19.0208 0 18.55 0 18V4C0 3.45 0.195833 2.97917 0.5875 2.5875C0.979167 2.19583 1.45 2 2 2H5C5.28333 2 5.52083 2.09583 5.7125 2.2875C5.90417 2.47917 6 2.71667 6 3C6 3.28333 5.90417 3.52083 5.7125 3.7125C5.52083 3.90417 5.28333 4 5 4H2V18H5C5.28333 18 5.52083 18.0958 5.7125 18.2875C5.90417 18.4792 6 18.7167 6 19C6 19.2833 5.90417 19.5208 5.7125 19.7125C5.52083 19.9042 5.28333 20 5 20H2ZM8 21V1C8 0.716667 8.09583 0.479167 8.2875 0.2875C8.47917 0.0958333 8.71667 0 9 0C9.28333 0 9.52083 0.0958333 9.7125 0.2875C9.90417 0.479167 10 0.716667 10 1V21C10 21.2833 9.90417 21.5208 9.7125 21.7125C9.52083 21.9042 9.28333 22 9 22C8.71667 22 8.47917 21.9042 8.2875 21.7125C8.09583 21.5208 8 21.2833 8 21Z" fill="currentColor"/>
</svg>

