<svg xmlns="http://www.w3.org/2000/svg" width="22" height="22" viewBox="0 0 22 22" fill="none">
  <path d="M11.5636 21V19C11.5636 18.7167 11.4678 18.4792 11.2761 18.2875C11.0845 18.0958 10.847 18 10.5636 18C10.2803 18 10.0428 18.0958 9.85114 18.2875C9.65947 18.4792 9.56364 18.7167 9.56364 19V21C9.56364 21.2833 9.65947 21.5208 9.85114 21.7125C10.0428 21.9042 10.2803 22 10.5636 22C10.847 22 11.0845 21.9042 11.2761 21.7125C11.4678 21.5208 11.5636 21.2833 11.5636 21Z" fill="currentColor"/>
  <path d="M6.06364 2.76537C6.23349 2.31289 6.70328 2.04632 7.17887 2.13256C7.65447 2.2189 8.00016 2.63354 8.00016 3.11694V19.1169C8.00016 19.6692 7.55245 20.1169 7.00016 20.1169H1.00016C0.67218 20.1169 0.36471 19.9558 0.177895 19.6863C-0.00872421 19.4167 -0.0514774 19.0723 0.0636368 18.7654L6.06364 2.76537ZM2.44352 18.1169H6.00016V8.63256L2.44352 18.1169Z" fill="currentColor"/>
  <path d="M15.0636 2.64844C14.8937 2.19595 14.424 1.92938 13.9484 2.01563C13.4728 2.10197 13.1271 2.51661 13.1271 3V19C13.1271 19.5523 13.5748 20 14.1271 20H20.1271C20.4551 20 20.7625 19.8389 20.9493 19.5693C21.136 19.2998 21.1787 18.9554 21.0636 18.6484L15.0636 2.64844ZM18.6837 18H15.1271V8.51563L18.6837 18Z" fill="currentColor"/>
  <path d="M11.5636 15V13C11.5636 12.7167 11.4678 12.4792 11.2761 12.2875C11.0845 12.0958 10.847 12 10.5636 12C10.2803 12 10.0428 12.0958 9.85114 12.2875C9.65947 12.4792 9.56364 12.7167 9.56364 13V15C9.56364 15.2833 9.65947 15.5208 9.85114 15.7125C10.0428 15.9042 10.2803 16 10.5636 16C10.847 16 11.0845 15.9042 11.2761 15.7125C11.4678 15.5208 11.5636 15.2833 11.5636 15Z" fill="currentColor"/>
  <path d="M11.5636 8.99997V6.99998C11.5636 6.71665 11.4678 6.47915 11.2761 6.28749C11.0845 6.09582 10.847 5.99998 10.5636 5.99998C10.2803 5.99998 10.0428 6.09582 9.85114 6.28749C9.65947 6.47915 9.56364 6.71665 9.56364 6.99998V8.99997C9.56364 9.2833 9.65947 9.5208 9.85114 9.71247C10.0428 9.90414 10.2803 9.99997 10.5636 9.99997C10.847 9.99997 11.0845 9.90414 11.2761 9.71247C11.4678 9.5208 11.5636 9.2833 11.5636 8.99997Z" fill="currentColor"/>
  <path d="M11.5636 2.99998V1C11.5636 0.716667 11.4678 0.479167 11.2761 0.2875C11.0845 0.0958337 10.847 0 10.5636 0C10.2803 0 10.0428 0.0958337 9.85114 0.2875C9.65947 0.479167 9.56364 0.716667 9.56364 1V2.99998C9.56364 3.28332 9.65947 3.52082 9.85114 3.71248C10.0428 3.90415 10.2803 3.99998 10.5636 3.99998C10.847 3.99998 11.0845 3.90415 11.2761 3.71248C11.4678 3.52082 11.5636 3.28332 11.5636 2.99998Z" fill="currentColor"/>
</svg>

