<svg xmlns="http://www.w3.org/2000/svg" width="24" height="24" viewBox="0 0 24 24" fill="none">
  <path d="M19.95 16.975L13.75 12.825C13.6 12.725 13.4875 12.6042 13.4125 12.4625C13.3375 12.3208 13.3 12.1667 13.3 12C13.3 11.8333 13.3375 11.6792 13.4125 11.5375C13.4875 11.3958 13.6 11.275 13.75 11.175L19.95 7.025C20.0333 6.95833 20.125 6.91667 20.225 6.9C20.325 6.88333 20.4167 6.875 20.5 6.875C20.7667 6.875 21 6.96667 21.2 7.15C21.4 7.33333 21.5 7.575 21.5 7.875V16.125C21.5 16.425 21.4 16.6667 21.2 16.85C21 17.0333 20.7667 17.125 20.5 17.125C20.4167 17.125 20.325 17.1167 20.225 17.1C20.125 17.0833 20.0333 17.0417 19.95 16.975ZM9.95 16.975L3.75 12.825C3.6 12.725 3.4875 12.6042 3.4125 12.4625C3.3375 12.3208 3.3 12.1667 3.3 12C3.3 11.8333 3.3375 11.6792 3.4125 11.5375C3.4875 11.3958 3.6 11.275 3.75 11.175L9.95 7.025C10.0333 6.95833 10.125 6.91667 10.225 6.9C10.325 6.88333 10.4167 6.875 10.5 6.875C10.7667 6.875 11 6.96667 11.2 7.15C11.4 7.33333 11.5 7.575 11.5 7.875V16.125C11.5 16.425 11.4 16.6667 11.2 16.85C11 17.0333 10.7667 17.125 10.5 17.125C10.4167 17.125 10.325 17.1167 10.225 17.1C10.125 17.0833 10.0333 17.0417 9.95 16.975ZM9.5 14.25V9.75L6.1 12L9.5 14.25ZM19.5 14.25V9.75L16.1 12L19.5 14.25Z" fill="currentColor"/>
</svg>

