<svg xmlns="http://www.w3.org/2000/svg" width="14" height="11" viewBox="0 0 14 11" fill="none">
  <path d="M1.33333 0L2.41667 2.16667C2.49444 2.32222 2.60556 2.44444 2.75 2.53333C2.89444 2.62222 3.05 2.66667 3.21667 2.66667C3.55 2.66667 3.80556 2.525 3.98333 2.24167C4.16111 1.95833 4.17222 1.66667 4.01667 1.36667L3.33333 0H4.66667L5.75 2.16667C5.82778 2.32222 5.93889 2.44444 6.08333 2.53333C6.22778 2.62222 6.38333 2.66667 6.55 2.66667C6.88333 2.66667 7.13889 2.525 7.31667 2.24167C7.49444 1.95833 7.50556 1.66667 7.35 1.36667L6.66667 0H8L9.08333 2.16667C9.16111 2.32222 9.27222 2.44444 9.41667 2.53333C9.56111 2.62222 9.71667 2.66667 9.88333 2.66667C10.2167 2.66667 10.4722 2.525 10.65 2.24167C10.8278 1.95833 10.8389 1.66667 10.6833 1.36667L10 0H12C12.3667 0 12.6806 0.130556 12.9417 0.391667C13.2028 0.652778 13.3333 0.966667 13.3333 1.33333V9.33333C13.3333 9.7 13.2028 10.0139 12.9417 10.275C12.6806 10.5361 12.3667 10.6667 12 10.6667H1.33333C0.966667 10.6667 0.652778 10.5361 0.391667 10.275C0.130556 10.0139 0 9.7 0 9.33333V1.33333C0 0.966667 0.130556 0.652778 0.391667 0.391667C0.652778 0.130556 0.966667 0 1.33333 0ZM1.33333 4V9.33333H12V4H1.33333Z" fill="currentColor" fill-opacity="0.7"/>
</svg>
