<svg xmlns="http://www.w3.org/2000/svg" width="28" height="25" viewBox="0 0 28 25" fill="none">
  <path d="M2.66667 24.6667C1.93333 24.6667 1.30556 24.4056 0.783333 23.8833C0.261111 23.3611 0 22.7333 0 22V3.33333C0 2.6 0.261111 1.97222 0.783333 1.45C1.30556 0.927778 1.93333 0.666666 2.66667 0.666666H13.3333C13.7111 0.666666 14.0278 0.794444 14.2833 1.05C14.5389 1.30556 14.6667 1.62222 14.6667 2C14.6667 2.37778 14.5389 2.69444 14.2833 2.95C14.0278 3.20556 13.7111 3.33333 13.3333 3.33333H2.66667V22H24V14C24 13.6222 24.1278 13.3056 24.3833 13.05C24.6389 12.7944 24.9556 12.6667 25.3333 12.6667C25.7111 12.6667 26.0278 12.7944 26.2833 13.05C26.5389 13.3056 26.6667 13.6222 26.6667 14V22C26.6667 22.7333 26.4056 23.3611 25.8833 23.8833C25.3611 24.4056 24.7333 24.6667 24 24.6667H2.66667Z" fill="currentColor"/>
  <path d="M18.4444 8.88889L20.3441 13.1183C20.4158 13.2616 20.5233 13.3333 20.6667 13.3333C20.81 13.3333 20.9176 13.2616 20.9892 13.1183L22.8889 8.88889L27.1183 6.98925C27.2616 6.91756 27.3333 6.81004 27.3333 6.66667C27.3333 6.5233 27.2616 6.41577 27.1183 6.34409L22.8889 4.44444L20.9892 0.215054C20.9176 0.0716847 20.81 3.17891e-07 20.6667 3.17891e-07C20.5233 3.17891e-07 20.4158 0.0716847 20.3441 0.215054L18.4444 4.44444L14.2151 6.34409C14.0717 6.41577 14 6.5233 14 6.66667C14 6.81004 14.0717 6.91756 14.2151 6.98925L18.4444 8.88889Z" fill="currentColor"/>
  <path d="M20 19.3333H6.66667C6.4 19.3333 6.20001 19.2111 6.06667 18.9667C5.93334 18.7222 5.95556 18.4889 6.13334 18.2667L8.8 14.7C8.93334 14.5222 9.11112 14.4333 9.33334 14.4333C9.55556 14.4333 9.73334 14.5222 9.86667 14.7L12.3333 18L15.8 13.3667C15.9333 13.1889 16.1111 13.1 16.3333 13.1C16.5556 13.1 16.7333 13.1889 16.8667 13.3667L20.5333 18.2667C20.7111 18.4889 20.7333 18.7222 20.6 18.9667C20.4667 19.2111 20.2667 19.3333 20 19.3333Z" fill="currentColor"/>
  <path d="M10.0833 9.41667C9.69445 9.80556 9.22223 10 8.66667 10C8.11112 10 7.63889 9.80556 7.25 9.41667C6.86112 9.02778 6.66667 8.55556 6.66667 8C6.66667 7.44444 6.86112 6.97222 7.25 6.58333C7.63889 6.19444 8.11112 6 8.66667 6C9.22223 6 9.69445 6.19444 10.0833 6.58333C10.4722 6.97222 10.6667 7.44444 10.6667 8C10.6667 8.55556 10.4722 9.02778 10.0833 9.41667Z" fill="currentColor"/>
</svg>
