<svg width="24" height="24" viewBox="0 0 24 24" fill="none" xmlns="http://www.w3.org/2000/svg">
<path d="M4 20C3.45 20 2.97917 19.8042 2.5875 19.4125C2.19583 19.0208 2 18.55 2 18V6C2 5.45 2.19583 4.97917 2.5875 4.5875C2.97917 4.19583 3.45 4 4 4L5.625 7.25C5.74167 7.48333 5.90833 7.66667 6.125 7.8C6.34167 7.93333 6.575 8 6.825 8C7.325 8 7.70833 7.7875 7.975 7.3625C8.24167 6.9375 8.25833 6.5 8.025 6.05L7 4H9L10.625 7.25C10.7417 7.48333 10.9083 7.66667 11.125 7.8C11.3417 7.93333 11.575 8 11.825 8C12.325 8 12.7083 7.7875 12.975 7.3625C13.2417 6.9375 13.2583 6.5 13.025 6.05L12 4H14L15.625 7.25C15.7417 7.48333 15.9083 7.66667 16.125 7.8C16.3417 7.93333 16.575 8 16.825 8C17.325 8 17.7083 7.7875 17.975 7.3625C18.2417 6.9375 18.2583 6.5 18.025 6.05L17 4H20C20.55 4 21.0208 4.19583 21.4125 4.5875C21.8042 4.97917 22 5.45 22 6V9C22 9.28333 21.9042 9.52083 21.7125 9.7125C21.5208 9.90417 21.2833 10 21 10H4V18H11C11.2833 18 11.5208 18.0958 11.7125 18.2875C11.9042 18.4792 12 18.7167 12 19C12 19.2833 11.9042 19.5208 11.7125 19.7125C11.5208 19.9042 11.2833 20 11 20H4ZM14 20V18.35C14 18.2167 14.025 18.0875 14.075 17.9625C14.125 17.8375 14.2 17.725 14.3 17.625L19.525 12.425C19.675 12.275 19.8417 12.1667 20.025 12.1C20.2083 12.0333 20.3917 12 20.575 12C20.775 12 20.9667 12.0375 21.15 12.1125C21.3333 12.1875 21.5 12.3 21.65 12.45L22.575 13.375C22.7083 13.525 22.8125 13.6917 22.8875 13.875C22.9625 14.0583 23 14.2417 23 14.425C23 14.6083 22.9667 14.7958 22.9 14.9875C22.8333 15.1792 22.725 15.35 22.575 15.5L17.375 20.7C17.275 20.8 17.1625 20.875 17.0375 20.925C16.9125 20.975 16.7833 21 16.65 21H15C14.7167 21 14.4792 20.9042 14.2875 20.7125C14.0958 20.5208 14 20.2833 14 20ZM15.5 19.5H16.45L19.475 16.45L19.025 15.975L18.55 15.525L15.5 18.55V19.5ZM19.025 15.975L18.55 15.525L19.475 16.45L19.025 15.975Z" fill="currentColor"/>
</svg>
