<svg xmlns="http://www.w3.org/2000/svg" width="28" height="25" viewBox="0 0 28 25" fill="none">
  <path d="M2.66667 24.6667C1.93333 24.6667 1.30556 24.4056 0.783333 23.8833C0.261111 23.3611 0 22.7333 0 22V3.33333C0 2.6 0.261111 1.97222 0.783333 1.45C1.30556 0.927778 1.93333 0.666666 2.66667 0.666666H13.3333C13.7111 0.666666 14.0278 0.794444 14.2833 1.05C14.5389 1.30556 14.6667 1.62222 14.6667 2C14.6667 2.37778 14.5389 2.69444 14.2833 2.95C14.0278 3.20556 13.7111 3.33333 13.3333 3.33333H2.66667V22H24V14C24 13.6222 24.1278 13.3056 24.3833 13.05C24.6389 12.7944 24.9556 12.6667 25.3333 12.6667C25.7111 12.6667 26.0278 12.7944 26.2833 13.05C26.5389 13.3056 26.6667 13.6222 26.6667 14V22C26.6667 22.7333 26.4056 23.3611 25.8833 23.8833C25.3611 24.4056 24.7333 24.6667 24 24.6667H2.66667Z" fill="currentColor"/>
  <path d="M18.4444 8.88889L20.3441 13.1183C20.4158 13.2616 20.5233 13.3333 20.6667 13.3333C20.81 13.3333 20.9176 13.2616 20.9892 13.1183L22.8889 8.88889L27.1183 6.98925C27.2616 6.91756 27.3333 6.81004 27.3333 6.66667C27.3333 6.5233 27.2616 6.41577 27.1183 6.34409L22.8889 4.44444L20.9892 0.215054C20.9176 0.0716847 20.81 3.17891e-07 20.6667 3.17891e-07C20.5233 3.17891e-07 20.4158 0.0716847 20.3441 0.215054L18.4444 4.44444L14.2151 6.34409C14.0717 6.41577 14 6.5233 14 6.66667C14 6.81004 14.0717 6.91756 14.2151 6.98925L18.4444 8.88889Z" fill="currentColor"/>
  <path d="M6.4 18H12.8C13.1022 18 13.3556 17.9042 13.56 17.7125C13.7644 17.5208 13.8667 17.2833 13.8667 17V15L15.5467 16.575C15.6356 16.6583 15.7333 16.6792 15.84 16.6375C15.9467 16.5958 16 16.5167 16 16.4V11.6C16 11.4833 15.9467 11.4042 15.84 11.3625C15.7333 11.3208 15.6356 11.3417 15.5467 11.425L13.8667 13V11C13.8667 10.7167 13.7644 10.4792 13.56 10.2875C13.3556 10.0958 13.1022 10 12.8 10H6.4C6.09778 10 5.84445 10.0958 5.64 10.2875C5.43556 10.4792 5.33333 10.7167 5.33333 11V17C5.33333 17.2833 5.43556 17.5208 5.64 17.7125C5.84445 17.9042 6.09778 18 6.4 18Z" fill="currentColor"/>
</svg>
