<svg xmlns="http://www.w3.org/2000/svg" width="28" height="25" viewBox="0 0 28 25" fill="none">
  <path d="M2.66667 24.6667C1.93333 24.6667 1.30556 24.4056 0.783333 23.8833C0.261111 23.3611 0 22.7333 0 22V3.33333C0 2.6 0.261111 1.97222 0.783333 1.45C1.30556 0.927778 1.93333 0.666666 2.66667 0.666666H13.3333C13.7111 0.666666 14.0278 0.794444 14.2833 1.05C14.5389 1.30556 14.6667 1.62222 14.6667 2C14.6667 2.37778 14.5389 2.69444 14.2833 2.95C14.0278 3.20556 13.7111 3.33333 13.3333 3.33333H2.66667V22H24V14C24 13.6222 24.1278 13.3056 24.3833 13.05C24.6389 12.7944 24.9556 12.6667 25.3333 12.6667C25.7111 12.6667 26.0278 12.7944 26.2833 13.05C26.5389 13.3056 26.6667 13.6222 26.6667 14V22C26.6667 22.7333 26.4056 23.3611 25.8833 23.8833C25.3611 24.4056 24.7333 24.6667 24 24.6667H2.66667Z" fill="currentColor"/>
  <path d="M18.4444 8.88889L20.3441 13.1183C20.4158 13.2616 20.5233 13.3333 20.6667 13.3333C20.81 13.3333 20.9176 13.2616 20.9892 13.1183L22.8889 8.88889L27.1183 6.98925C27.2616 6.91756 27.3333 6.81004 27.3333 6.66667C27.3333 6.5233 27.2616 6.41577 27.1183 6.34409L22.8889 4.44444L20.9892 0.215054C20.9176 0.0716847 20.81 3.17891e-07 20.6667 3.17891e-07C20.5233 3.17891e-07 20.4158 0.0716847 20.3441 0.215054L18.4444 4.44444L14.2151 6.34409C14.0717 6.41577 14 6.5233 14 6.66667C14 6.81004 14.0717 6.91756 14.2151 6.98925L18.4444 8.88889Z" fill="currentColor"/>
  <path d="M10.3208 18.56C9.75695 19.0756 9.06667 19.3333 8.25 19.3333C7.43333 19.3333 6.74306 19.0756 6.17917 18.56C5.61528 18.0444 5.33333 17.4133 5.33333 16.6667C5.33333 15.92 5.61528 15.2889 6.17917 14.7733C6.74306 14.2578 7.43333 14 8.25 14C8.58056 14 8.89167 14.0489 9.18333 14.1467C9.475 14.2444 9.74722 14.3733 10 14.5333V9.73333C10 9.43111 10.1118 9.17778 10.3354 8.97333C10.559 8.76889 10.8361 8.66667 11.1667 8.66667H13.5C13.8306 8.66667 14.1076 8.76889 14.3313 8.97333C14.5549 9.17778 14.6667 9.43111 14.6667 9.73333C14.6667 10.0356 14.5549 10.2889 14.3313 10.4933C14.1076 10.6978 13.8306 10.8 13.5 10.8H11.1667V16.6667C11.1667 17.4133 10.8847 18.0444 10.3208 18.56Z" fill="currentColor"/>
</svg>
