<svg xmlns="http://www.w3.org/2000/svg" width="28" height="25" viewBox="0 0 28 25" fill="none">
  <path d="M2.66667 24.6667C1.93333 24.6667 1.30556 24.4056 0.783333 23.8833C0.261111 23.3611 0 22.7333 0 22V3.33333C0 2.6 0.261111 1.97222 0.783333 1.45C1.30556 0.927778 1.93333 0.666666 2.66667 0.666666H13.3333C13.7111 0.666666 14.0278 0.794444 14.2833 1.05C14.5389 1.30556 14.6667 1.62222 14.6667 2C14.6667 2.37778 14.5389 2.69444 14.2833 2.95C14.0278 3.20556 13.7111 3.33333 13.3333 3.33333H2.66667V22H24V14C24 13.6222 24.1278 13.3056 24.3833 13.05C24.6389 12.7944 24.9556 12.6667 25.3333 12.6667C25.7111 12.6667 26.0278 12.7944 26.2833 13.05C26.5389 13.3056 26.6667 13.6222 26.6667 14V22C26.6667 22.7333 26.4056 23.3611 25.8833 23.8833C25.3611 24.4056 24.7333 24.6667 24 24.6667H2.66667ZM18.6667 19.3333H6.66667C6.28889 19.3333 5.97222 19.2056 5.71667 18.95C5.46111 18.6944 5.33333 18.3778 5.33333 18C5.33333 17.6222 5.46111 17.3056 5.71667 17.05C5.97222 16.7944 6.28889 16.6667 6.66667 16.6667H12.6667H18.6667C19.0444 16.6667 19.3611 16.7944 19.6167 17.05C19.8722 17.3056 20 17.6222 20 18C20 18.3778 19.8722 18.6944 19.6167 18.95C19.3611 19.2056 19.0444 19.3333 18.6667 19.3333ZM13.3333 14H6.66667C6.28889 14 5.97222 13.8722 5.71667 13.6167C5.46111 13.3611 5.33333 13.0444 5.33333 12.6667C5.33333 12.2889 5.46111 11.9722 5.71667 11.7167C5.97222 11.4611 6.28889 11.3333 6.66667 11.3333H13.3333C13.7111 11.3333 14.0278 11.4611 14.2833 11.7167C14.5389 11.9722 14.6667 12.2889 14.6667 12.6667C14.6667 13.0444 14.5389 13.3611 14.2833 13.6167C14.0278 13.8722 13.7111 14 13.3333 14Z" fill="currentColor"/>
  <path d="M6.66667 8.66667H8C8.37778 8.66667 8.69445 8.53889 8.95 8.28333C9.20556 8.02778 9.33333 7.71111 9.33333 7.33333C9.33333 6.95556 9.20556 6.63889 8.95 6.38333C8.69445 6.12778 8.37778 6 8 6H6.66667C6.28889 6 5.97222 6.12778 5.71667 6.38333C5.46111 6.63889 5.33334 6.95556 5.33334 7.33333C5.33334 7.71111 5.46111 8.02778 5.71667 8.28333C5.97222 8.53889 6.28889 8.66667 6.66667 8.66667Z" fill="currentColor"/>
  <path d="M18.4444 8.88889L20.3441 13.1183C20.4158 13.2616 20.5233 13.3333 20.6667 13.3333C20.81 13.3333 20.9176 13.2616 20.9892 13.1183L22.8889 8.88889L27.1183 6.98925C27.2616 6.91756 27.3333 6.81004 27.3333 6.66667C27.3333 6.5233 27.2616 6.41577 27.1183 6.34409L22.8889 4.44444L20.9892 0.215054C20.9176 0.0716847 20.81 3.17891e-07 20.6667 3.17891e-07C20.5233 3.17891e-07 20.4158 0.0716847 20.3441 0.215054L18.4444 4.44444L14.2151 6.34409C14.0717 6.41577 14 6.5233 14 6.66667C14 6.81004 14.0717 6.91756 14.2151 6.98925L18.4444 8.88889Z" fill="currentColor"/>
</svg>
