<svg xmlns="http://www.w3.org/2000/svg" width="22" height="21" viewBox="0 0 22 21" fill="none">
  <path d="M2.66667 20.7667C1.93333 20.7667 1.30556 20.5056 0.783333 19.9833C0.261111 19.4611 0 18.8333 0 18.1V15.4333C0 15.0556 0.127778 14.7389 0.383333 14.4833C0.638889 14.2278 0.955556 14.1 1.33333 14.1C1.71111 14.1 2.02778 14.2278 2.28333 14.4833C2.53889 14.7389 2.66667 15.0556 2.66667 15.4333V18.1H18.6667V15.4333C18.6667 15.0556 18.7944 14.7389 19.05 14.4833C19.3056 14.2278 19.6222 14.1 20 14.1C20.3778 14.1 20.6944 14.2278 20.95 14.4833C21.2056 14.7389 21.3333 15.0556 21.3333 15.4333V18.1C21.3333 18.8333 21.0722 19.4611 20.55 19.9833C20.0278 20.5056 19.4 20.7667 18.6667 20.7667H2.66667ZM9.33333 4.56667L6.83333 7.06667C6.56667 7.33333 6.25 7.46111 5.88333 7.45C5.51667 7.43889 5.2 7.3 4.93333 7.03333C4.68889 6.76667 4.56111 6.45555 4.55 6.1C4.53889 5.74444 4.66667 5.43333 4.93333 5.16667L9.73333 0.366667C9.86667 0.233333 10.0111 0.138889 10.1667 0.0833333C10.3222 0.0277778 10.4889 0 10.6667 0C10.8444 0 11.0111 0.0277778 11.1667 0.0833333C11.3222 0.138889 11.4667 0.233333 11.6 0.366667L16.4 5.16667C16.6667 5.43333 16.7944 5.74444 16.7833 6.1C16.7722 6.45555 16.6444 6.76667 16.4 7.03333C16.1333 7.3 15.8167 7.43889 15.45 7.45C15.0833 7.46111 14.7667 7.33333 14.5 7.06667L12 4.56667V14.1C12 14.4778 11.8722 14.7944 11.6167 15.05C11.3611 15.3056 11.0444 15.4333 10.6667 15.4333C10.2889 15.4333 9.97222 15.3056 9.71667 15.05C9.46111 14.7944 9.33333 14.4778 9.33333 14.1V4.56667Z" fill="currentColor"/>
</svg>
