<svg xmlns="http://www.w3.org/2000/svg" width="17" height="25" viewBox="0 0 17 25" fill="none">
  <path d="M2.66667 14.2827L5.3 10.616H10.9667L2.66667 4.08272V14.2827ZM12.2 24.4494C11.6889 24.6938 11.1778 24.7216 10.6667 24.5327C10.1556 24.3438 9.77778 23.9938 9.53333 23.4827L5.53333 14.8827L2.43333 19.2161C2.05556 19.7494 1.55556 19.9161 0.933333 19.7161C0.311111 19.5161 0 19.0938 0 18.4494V1.34938C0 0.793827 0.25 0.393827 0.75 0.149383C1.25 -0.0950617 1.72222 -0.0395062 2.16667 0.316049L15.6333 10.916C16.1444 11.2938 16.2944 11.7827 16.0833 12.3827C15.8722 12.9827 15.4444 13.2827 14.8 13.2827H9.2L13.1667 21.7827C13.4111 22.2938 13.4389 22.8049 13.25 23.3161C13.0611 23.8272 12.7111 24.2049 12.2 24.4494Z" fill="currentColor"/>
</svg>

