<svg xmlns="http://www.w3.org/2000/svg" width="32" height="32" viewBox="0 0 32 32" fill="none">
  <path d="M25.9183 12.8809C26.0428 12.3539 26.5644 12.0187 27.0951 12.125L28.599 12.4258C29.2746 12.5403 29.8121 12.8747 30.2103 13.4287C30.6084 13.9827 30.7487 14.5915 30.6322 15.2549L28.3001 28.5234C28.1836 29.1868 27.8438 29.7145 27.2796 30.1055C26.7154 30.4964 26.095 30.635 25.4193 30.5205L18.6624 29.375L15.2845 28.8027L13.2904 28.4648C12.5414 28.3379 12.0607 27.6041 12.2425 26.8662C12.4079 26.1961 13.0641 25.7648 13.7445 25.8799L15.8206 26.2324L19.1058 26.7891L25.6771 27.9014L27.9476 14.9775L26.5443 14.6953C25.9925 14.5842 25.6443 14.0403 25.7738 13.4922L25.9183 12.8809ZM4.76888 7.75586C5.29826 7.65232 5.81664 7.98742 5.94076 8.5127L6.08529 9.12402C6.21516 9.67366 5.86464 10.219 5.31087 10.3281L4.05209 10.5762L6.32357 23.5L19.4964 21.1611C20.1802 21.0397 20.8438 21.4719 21.0101 22.1465C21.1908 22.8806 20.7152 23.6111 19.971 23.7432L6.58041 26.1182C5.90492 26.2326 5.28509 26.0948 4.72103 25.7041C4.15684 25.3132 3.81613 24.7855 3.69955 24.1221L1.36752 10.8535C1.25093 10.1901 1.39222 9.58132 1.79037 9.02734C2.1885 8.47341 2.72507 8.13889 3.40072 8.02441L4.76888 7.75586ZM22.8441 1.33301C23.5285 1.33301 24.1145 1.57715 24.6019 2.06445C25.0893 2.55186 25.3333 3.13782 25.3333 3.82227V17.5107C25.3333 18.1952 25.0893 18.7811 24.6019 19.2686C24.1145 19.756 23.5285 20 22.8441 20H9.1556C8.47116 20 7.8852 19.756 7.39779 19.2686C6.91049 18.7812 6.66634 18.1951 6.66634 17.5107V3.82227C6.66634 3.13782 6.91038 2.55186 7.39779 2.06445C7.8852 1.57705 8.47116 1.33301 9.1556 1.33301H22.8441ZM9.33334 17.333H22.6449V4H9.33334V17.333ZM15.2464 6.85449C15.7137 6.60548 16.286 6.60548 16.7533 6.85449L19.2669 8.19434C19.7454 8.44932 20.0413 8.92632 20.0413 9.44336V12.0781C20.0412 12.595 19.7452 13.0722 19.2669 13.3271L16.7533 14.667C16.286 14.916 15.7136 14.916 15.2464 14.667L12.7327 13.3271C12.2544 13.0722 11.9585 12.595 11.9583 12.0781V9.44336C11.9583 8.92634 12.2543 8.44933 12.7327 8.19434L15.2464 6.85449Z" fill="currentColor"/>
</svg>
