<svg xmlns="http://www.w3.org/2000/svg" width="27" height="26" viewBox="0 0 27 26" fill="none">
  <path
    fill-rule="evenodd"
    clip-rule="evenodd"
    d="M15.333 2.2291e-05C17.1274 2.22897e-05 18.2194 -0.00599524 19.1533 0.17971C22.8557 0.91618 25.7498 3.81035 26.4863 7.51272C26.672 8.44667 26.666 9.53864 26.666 11.333C26.666 13.1275 26.672 14.2194 26.4863 15.1533C25.7499 18.8558 22.8557 21.7499 19.1533 22.4864C18.2194 22.6721 17.1274 22.666 15.333 22.666H10.5098C8.72824 22.666 7.98192 22.6703 7.26563 22.7862C6.60783 22.8926 5.96198 23.0698 5.3418 23.3135C4.66635 23.579 4.02228 23.9558 2.48926 24.8643L2.0127 25.1465C1.60062 25.3907 1.08904 25.3953 0.672852 25.1582C0.256795 24.9211 9.50728e-05 24.4789 3.03947e-07 24V13.333C2.93562e-07 11.4878 -0.000795301 10.0367 0.0791019 8.86526C0.159861 7.68193 0.328019 6.68624 0.710938 5.76174C1.65821 3.47488 3.47486 1.65823 5.76172 0.71096C6.68621 0.328055 7.68191 0.159879 8.86523 0.0791239C10.0367 -0.000774196 11.4878 2.2291e-05 13.333 2.2291e-05H15.333ZM13.333 2.66604C11.4512 2.66604 10.1066 2.667 9.04688 2.73928C7.99936 2.81075 7.3277 2.94798 6.78223 3.17385C5.14871 3.85048 3.85045 5.14873 3.17383 6.78225C2.94794 7.32773 2.81073 7.99933 2.73926 9.0469C2.66697 10.1066 2.66602 11.4512 2.66602 13.333V21.6729C3.30254 21.3126 3.8231 21.0459 4.36719 20.8321C5.16433 20.5188 5.99242 20.2902 6.83789 20.1533C7.8147 19.9952 8.8103 20 10.5098 20H15.333C17.2555 20 18.0223 19.9937 18.6338 19.8721C21.2783 19.346 23.346 17.2783 23.8721 14.6338C23.9937 14.0223 24 13.2555 24 11.333C24 9.41055 23.9937 8.64377 23.8721 8.03225C23.346 5.38774 21.2783 3.32003 18.6338 2.79397C18.0223 2.67233 17.2555 2.66604 15.333 2.66604H13.333ZM12 14.666C12.7362 14.6662 13.333 15.2638 13.333 16C13.3329 16.7362 12.7361 17.3329 12 17.333H8C7.26372 17.333 6.66617 16.7363 6.66602 16C6.66602 15.2636 7.26362 14.666 8 14.666H12ZM18.666 10.666C19.4024 10.666 20 11.2636 20 12C19.9998 12.7363 19.4023 13.333 18.666 13.333H8C7.26372 13.333 6.66617 12.7363 6.66602 12C6.66602 11.2636 7.26362 10.666 8 10.666H18.666ZM18.666 6.66604C19.4024 6.66604 20 7.26364 20 8.00002C19.9998 8.73627 19.4023 9.33303 18.666 9.33303H8C7.26372 9.33303 6.66617 8.73627 6.66602 8.00002C6.66602 7.26364 7.26362 6.66604 8 6.66604H18.666Z"
    fill="currentColor"
  />
</svg>
